<?xml version="1.0" standalone="no"?>
<!DOCTYPE svg PUBLIC "-//W3C//DTD SVG 1.1//EN" "http://www.w3.org/Graphics/SVG/1.1/DTD/svg11.dtd" >
<svg xmlns="http://www.w3.org/2000/svg">
<metadata></metadata>
<defs>
<font id="arquitecta_lightlight_italic" horiz-adv-x="1239" >
<font-face units-per-em="2048" ascent="1536" descent="-512" />
<missing-glyph horiz-adv-x="452" />
<glyph horiz-adv-x="0" />
<glyph horiz-adv-x="682" />
<glyph horiz-adv-x="0" />
<glyph horiz-adv-x="0" />
<glyph unicode="&#xd;" horiz-adv-x="106" />
<glyph unicode=" "  horiz-adv-x="452" />
<glyph unicode="&#x09;" horiz-adv-x="452" />
<glyph unicode="&#xa0;" horiz-adv-x="452" />
<glyph unicode="!" horiz-adv-x="473" d="M168 53q0 33 27 58.5t61 25.5q30 0 50 -19.5t20 -47.5q0 -35 -27 -60.5t-63 -25.5q-29 0 -48.5 20t-19.5 49zM244 309l94 856l8 64h121q-21 -137 -47.5 -294t-58 -334.5t-50.5 -291.5h-67z" />
<glyph unicode="&#x22;" horiz-adv-x="559" d="M254 948q15 85 49.5 236t42.5 192h98l-2 -20l-135 -408h-53zM467 948q15 85 49.5 236t42.5 192h98l-2 -20l-133 -408h-55z" />
<glyph unicode="#" horiz-adv-x="1298" d="M125 340l20 66h258l140 376h-242l23 66h243l127 346h72l-127 -346h377l127 346h71l-127 -346h252l-22 -66h-254l-139 -376h237l-20 -66h-240l-125 -340h-71l124 340h-376l-125 -340h-72l125 340h-256zM475 406h377l139 376h-377z" />
<glyph unicode="$" horiz-adv-x="1083" d="M115 111l61 69q5 -5 14 -13.5t42.5 -29.5t72 -37t102 -29.5t132.5 -13.5q204 0 305.5 75.5t101.5 201.5q0 94 -80.5 149.5t-251.5 106.5q-75 23 -126.5 42t-103.5 46.5t-83 57.5t-50.5 71.5t-19.5 91.5q0 159 128.5 254.5t334.5 101.5l27 191h76l-27 -193 q72 -3 135 -15.5t101.5 -28t66.5 -30.5t39 -25l12 -11l-59 -76q-4 4 -13 11t-41 24.5t-69.5 31t-100.5 24.5t-132 11q-105 0 -190.5 -28.5t-139 -87.5t-53.5 -140q0 -37 15.5 -67t41 -52.5t70.5 -44t90 -37t114 -36.5q93 -27 158.5 -55.5t118 -67.5t78.5 -90.5t26 -116.5 q0 -154 -112 -256t-336 -115l-27 -192h-76l27 190q-78 1 -148 15.5t-114 35t-76.5 40t-46.5 33.5z" />
<glyph unicode="%" horiz-adv-x="1370" d="M182 70l1123 1155l57 -49l-1122 -1156zM213 905q0 141 86 245.5t223 104.5q108 0 165.5 -73t57.5 -185q0 -91 -36 -170t-108 -130.5t-165 -51.5q-107 0 -165 74.5t-58 185.5zM297 911q0 -81 39.5 -134.5t112.5 -53.5q95 0 154 79t59 189q0 82 -39 135.5t-111 53.5 q-96 0 -155.5 -79.5t-59.5 -189.5zM799 244q0 141 87 245.5t224 104.5q106 0 164.5 -73.5t58.5 -184.5q0 -90 -37 -170t-109 -131t-163 -51q-107 0 -166 74.5t-59 185.5zM883 250q0 -81 39.5 -135t111.5 -54q95 0 155 79.5t60 189.5q0 82 -38.5 135t-110.5 53 q-97 0 -157 -79t-60 -189z" />
<glyph unicode="&#x26;" horiz-adv-x="1232" d="M164 276q0 63 20 117.5t50.5 93.5t79 75t93 60.5t105.5 51.5q-55 66 -85 128.5t-30 139.5q0 141 97 227t237 86q132 0 201 -66t69 -169q0 -41 -11 -78.5t-27.5 -66.5t-45.5 -57.5t-55.5 -49t-68 -44t-71.5 -38.5t-77 -37l346 -389q96 136 125 338l6 41h88l-6 -41 q-33 -228 -162 -397l168 -187l-2 -14h-98l-123 137q-167 -164 -420 -164q-188 0 -295.5 83t-107.5 220zM262 291q0 -104 88.5 -171t229.5 -67q219 0 358 142l-371 417q-46 -22 -79 -39.5t-71.5 -41t-63.5 -47.5t-47.5 -53.5t-33 -64.5t-10.5 -75zM485 944q0 -36 9 -70 t27.5 -66t32 -50.5t36.5 -48.5q39 17 62.5 28t58 28t55.5 31t47 33t41.5 37.5t29.5 41.5t20.5 49t6.5 55q0 19 -3 36t-9.5 33.5t-17 31t-26 26.5t-34.5 20.5t-44.5 13.5t-55.5 5q-99 0 -167.5 -64.5t-68.5 -169.5z" />
<glyph unicode="'" horiz-adv-x="346" d="M254 948q15 85 49.5 236t42.5 192h98l-2 -20l-135 -408h-53z" />
<glyph unicode="(" horiz-adv-x="618" d="M143 397q0 103 17.5 201t43.5 175t68.5 151.5t79.5 127.5t90.5 107t88.5 85t85.5 67.5t69 48t51.5 31.5l35 -64q-124 -81 -200 -153q-311 -289 -334 -706q-2 -32 -2 -65q0 -119 27.5 -227.5t62.5 -177.5t85.5 -132t78.5 -88.5t59 -49.5l-55 -64q-23 17 -44 34.5 t-58.5 55.5t-68 78.5t-65.5 102t-59 127.5t-40 153.5t-16 181.5z" />
<glyph unicode=")" horiz-adv-x="618" d="M-6 -272q139 90 230 180q306 306 306 745q0 86 -14.5 167t-35.5 141t-53 117.5t-58.5 93.5t-61 72.5t-51 51t-37.5 31.5l53 64q24 -18 44 -34.5t58.5 -55t69 -77.5t66 -101t59.5 -127t40 -152.5t16 -181.5q0 -130 -26.5 -249.5t-68.5 -210.5t-98.5 -172.5t-112 -138 t-113 -104t-98.5 -74.5t-71 -46l-6 -3z" />
<glyph unicode="*" horiz-adv-x="874" d="M291 1227l43 92l53 -19l133 -75l-20 -41l-154 24zM346 946l39 49l129 115l31 -25l-88 -145l-41 -49zM592 1434l8 59h96l-8 -59l-49 -158h-43zM635 1085l39 25l96 -115l29 -49l-86 -55l-31 49zM700 1225l152 75l59 19l17 -92l-58 -19l-163 -24z" />
<glyph unicode="+" horiz-adv-x="991" d="M190 578l11 77h348l49 344h80l-49 -344h346l-10 -77h-347l-47 -336h-79l47 336h-349z" />
<glyph unicode="," horiz-adv-x="243" d="M-12 -193l98 142q6 9 13.5 16.5t11.5 10.5l4 4v4q-28 2 -44 18.5t-16 44.5q0 36 24 60t60 24q28 0 48 -19t20 -49v-10q-7 -40 -35 -82l-113 -164h-71z" />
<glyph unicode="-" horiz-adv-x="821" d="M201 569l10 78h580l-11 -78h-579z" />
<glyph unicode="." horiz-adv-x="245" d="M55 49q0 36 25 61t61 25q29 0 47.5 -19t18.5 -48q0 -35 -26 -59.5t-60 -24.5q-29 0 -47.5 18.5t-18.5 46.5z" />
<glyph unicode="/" horiz-adv-x="690" d="M20 -360l707 1800h92l-706 -1800h-93z" />
<glyph unicode="0" horiz-adv-x="1267" d="M182 508q0 203 79 373.5t224 272t326 101.5q140 0 242 -71t153 -191.5t51 -275.5q0 -202 -78.5 -372t-223 -272t-324.5 -102q-141 0 -244 71.5t-154 192t-51 273.5zM272 516q0 -128 39.5 -230t124.5 -165.5t205 -63.5q118 0 218 54.5t166 145t103 208t37 244.5 q0 130 -39 232t-123.5 165t-203.5 63q-157 0 -279.5 -93.5t-185 -241t-62.5 -318.5z" />
<glyph unicode="1" horiz-adv-x="630" d="M209 1145l12 84h383l-174 -1229h-92l162 1145h-291z" />
<glyph unicode="2" horiz-adv-x="1026" d="M98 0l4 25l660 610q105 98 139.5 154t34.5 139q0 106 -75.5 173.5t-203.5 67.5q-60 0 -121 -16t-104.5 -39.5t-78.5 -46.5t-53 -39l-17 -16l-43 69q7 7 20.5 19t57 42t90.5 52.5t118.5 41.5t143.5 19q171 0 264.5 -85.5t93.5 -225.5q0 -102 -39 -173t-155 -179l-547 -508 h653l-12 -84h-830z" />
<glyph unicode="3" horiz-adv-x="1038" d="M104 147l58 70q6 -7 16 -17.5t45.5 -38t74 -48.5t98.5 -38.5t122 -17.5q161 0 270 91t109 229q0 112 -71 178t-193 66h-187q7 14 7 41l475 483h-643l12 84h797l-2 -25l-506 -510h78q144 0 233.5 -81t89.5 -224q0 -182 -133 -299t-346 -117q-70 0 -137.5 18t-110 39 t-82 51t-51.5 42t-22 23z" />
<glyph unicode="4" horiz-adv-x="1085" d="M100 307l11 68l847 854h72l-117 -836h142l-13 -86h-141l-43 -307h-90l43 307h-711zM231 393h592l97 686l-664 -665l-23 -15z" />
<glyph unicode="5" horiz-adv-x="1028" d="M102 150l60 69q6 -7 16.5 -17.5t46 -38.5t74 -49.5t98.5 -39t121 -17.5q165 0 272 91t107 249q0 114 -78.5 180t-212.5 66q-83 0 -162.5 -12.5t-117.5 -24.5l-39 -12l-21 18l111 617h676l-13 -84h-589l-82 -449q118 29 247 29q178 0 275.5 -84t97.5 -231 q0 -208 -130.5 -322.5t-352.5 -114.5q-72 0 -140 18t-113.5 44t-81 52.5t-52.5 44.5z" />
<glyph unicode="6" horiz-adv-x="1021" d="M160 299q0 105 37 191.5t125 197.5l430 541h106l-399 -500q-11 -14 -23.5 -27t-19.5 -20l-6 -6v-8q105 67 227 67q174 0 273.5 -93.5t99.5 -238.5q0 -189 -137.5 -309.5t-340.5 -120.5q-170 0 -271 88t-101 238zM250 311q0 -113 82.5 -183.5t210.5 -70.5q157 0 266 97 t109 239q0 113 -79.5 185.5t-213.5 72.5q-164 0 -269.5 -93t-105.5 -247z" />
<glyph unicode="7" horiz-adv-x="915" d="M207 0l711 1145h-687l11 84h825l-2 -25l-748 -1204h-110z" />
<glyph unicode="8" horiz-adv-x="1095" d="M160 289q0 126 76.5 222.5t207.5 139.5q-74 36 -113.5 100.5t-39.5 143.5q0 153 120 256.5t314 103.5q161 0 251.5 -79.5t90.5 -204.5q0 -105 -61.5 -191.5t-169.5 -130.5q92 -39 142 -110.5t50 -167.5q0 -108 -58 -198t-169.5 -145t-255.5 -55q-181 0 -283 89.5 t-102 226.5zM254 301q0 -104 81 -174t222 -70q165 0 272 89.5t107 215.5q0 111 -82.5 178.5t-218.5 67.5q-165 0 -273 -85.5t-108 -221.5zM385 901q0 -96 68.5 -155.5t191.5 -59.5q148 0 238 77.5t90 194.5q0 92 -69 151.5t-191 59.5q-148 0 -238 -76.5t-90 -191.5z" />
<glyph unicode="9" horiz-adv-x="1021" d="M186 825q0 190 137.5 310t340.5 120q170 0 271 -87.5t101 -237.5q0 -181 -162 -389l-428 -539h-106l395 498q11 14 24 26.5t20 18.5l7 6v8q-102 -65 -227 -65q-174 0 -273.5 93t-99.5 238zM276 836q0 -112 80.5 -185t214.5 -73q167 0 270 95t103 242q0 114 -81.5 185 t-209.5 71q-158 0 -267.5 -96.5t-109.5 -238.5z" />
<glyph unicode=":" horiz-adv-x="391" d="M127 51q0 34 26.5 59t59.5 25q29 0 47.5 -18.5t18.5 -46.5q0 -36 -25 -61t-61 -25q-28 0 -47 19t-19 48zM209 639q0 33 27 58.5t61 25.5q29 0 47 -20t18 -48q0 -35 -26 -59.5t-62 -24.5q-28 0 -46.5 19.5t-18.5 48.5z" />
<glyph unicode=";" horiz-adv-x="448" d="M96 -193l101 142l26 31v4q-28 3 -43.5 20t-15.5 43q0 36 25 59t61 23q28 0 46.5 -18t18.5 -48q0 -41 -34 -92l-113 -164h-72zM248 637q0 35 26.5 60.5t61.5 25.5q29 0 47 -20t18 -48q0 -35 -26 -59.5t-62 -24.5q-29 0 -47 19t-18 47z" />
<glyph unicode="&#x3c;" horiz-adv-x="755" d="M166 565l6 47l561 475l47 -57l-520 -442l395 -441l-63 -57z" />
<glyph unicode="=" horiz-adv-x="999" d="M201 362l10 78h700l-10 -78h-700zM256 754l10 77h701l-11 -77h-700z" />
<glyph unicode="&#x3e;" horiz-adv-x="755" d="M141 147l521 441l-396 442l64 57l426 -475l-6 -47l-562 -475z" />
<glyph unicode="?" horiz-adv-x="763" d="M250 1182q4 3 12.5 8t37.5 17.5t61 22t82.5 17.5t103.5 8q123 0 191.5 -64t68.5 -167q0 -64 -18.5 -117.5t-48.5 -92.5t-67 -74.5t-76.5 -71t-74.5 -73.5t-63 -90.5t-39 -113.5l-14 -82h-68l12 92q8 62 33 115.5t57 92t69.5 74.5t73.5 70t65 69.5t47 82t18 99.5 q0 77 -51 125.5t-140 48.5q-71 0 -133.5 -17t-89.5 -34l-27 -17zM264 51q0 35 26 59.5t60 24.5q29 0 47.5 -18.5t18.5 -46.5q0 -36 -25 -61t-61 -25q-28 0 -47 19t-19 48z" />
<glyph unicode="@" horiz-adv-x="1890" d="M129 254q0 199 75 380.5t204.5 315.5t315 213.5t396.5 79.5q140 0 260 -38t205.5 -103.5t147 -153.5t91 -188t29.5 -207q0 -111 -27.5 -213.5t-78 -185t-132 -132t-181.5 -49.5q-59 0 -104 19.5t-67 49.5t-31.5 60t-6.5 56h-4q-6 -11 -15 -24t-38.5 -42.5t-64 -51 t-92 -39t-122.5 -17.5q-138 0 -226 88t-88 231q0 184 123 303t295 119q59 0 108 -14.5t77.5 -34t50 -45.5t30 -44t13.5 -34l39 156h65l-69 -492q-11 -77 26.5 -121.5t114.5 -44.5q101 0 177 73t112.5 182.5t36.5 234.5q0 126 -45 239t-127.5 199.5t-209.5 137t-282 50.5 q-187 0 -354.5 -70.5t-287 -191.5t-189.5 -288t-70 -353q0 -146 46.5 -272t131.5 -218t212 -145t280 -53q74 0 143.5 9t115.5 21.5t81.5 25t52.5 21.5l16 9l25 -68q-6 -4 -18 -10t-54.5 -22.5t-90 -29t-124.5 -22.5t-160 -10q-172 0 -313 58.5t-233 161t-141.5 239.5 t-49.5 295zM666 315q0 -114 68.5 -185t176.5 -71q134 0 234 93t100 245q0 117 -71.5 184.5t-180.5 67.5q-134 0 -230.5 -95t-96.5 -239z" />
<glyph unicode="A" d="M16 0l762 1229h25l420 -1229h-103l-90 254h-754l-159 -254h-101zM330 340h671q-45 135 -126 386t-103 318h-14l-410 -677z" />
<glyph unicode="B" horiz-adv-x="1298" d="M190 0l172 1229h517q186 0 290.5 -71.5t104.5 -213.5q0 -123 -66 -204t-180 -115v-9q96 -28 152.5 -90.5t56.5 -156.5q0 -125 -68 -209.5t-178 -122t-254 -37.5h-547zM291 84h463q82 0 150.5 16t123.5 48.5t86 88t31 128.5q0 101 -83.5 152t-221.5 56h-480zM373 659h426 q177 0 279 68t102 203q0 215 -312 215h-428z" />
<glyph unicode="C" horiz-adv-x="1218" d="M174 528q0 150 57.5 284.5t155.5 231.5t234.5 154t287.5 57q79 0 149.5 -16.5t114 -40.5t75.5 -47.5t46 -40.5l13 -16l-62 -68q-4 6 -13 15.5t-40.5 34t-68.5 43.5t-98 34.5t-128 15.5q-173 0 -318.5 -87t-228 -231t-82.5 -308q0 -133 55.5 -242.5t165 -176.5t252.5 -67 q67 0 132 15t109.5 37t79 44t51.5 37l17 15l41 -70q-6 -7 -18.5 -18t-55.5 -39t-90.5 -50t-123 -39.5t-154.5 -17.5q-166 0 -293 73t-194.5 199.5t-67.5 284.5z" />
<glyph unicode="D" horiz-adv-x="1345" d="M190 0l172 1229h398q262 0 420.5 -142.5t158.5 -388.5q0 -158 -58.5 -290.5t-159.5 -221t-238.5 -137.5t-294.5 -49h-398zM291 84h305q132 0 250 42t206.5 118t140.5 190t52 250q0 213 -139 337t-361 124h-305z" />
<glyph unicode="E" horiz-adv-x="1148" d="M190 0l172 1229h875l-10 -84h-787l-69 -496h692l-12 -84h-693l-67 -481h786l-12 -84h-875z" />
<glyph unicode="F" horiz-adv-x="1132" d="M190 0l172 1229h875l-10 -84h-787l-69 -496h702l-12 -84h-703l-77 -565h-91z" />
<glyph unicode="G" horiz-adv-x="1378" d="M176 524q0 151 55 285.5t151 232.5t233 155.5t294 57.5q63 0 120.5 -9t99.5 -23.5t78 -31.5t59.5 -34.5t40.5 -32t25 -23.5l7 -9l-63 -68q-5 6 -14.5 15.5t-43.5 34.5t-74 44.5t-107 35t-140 15.5q-112 0 -211.5 -33.5t-175 -93t-130.5 -138.5t-83.5 -173t-28.5 -194 q0 -79 19 -150.5t57.5 -131.5t93.5 -104.5t131.5 -69t167.5 -24.5q144 0 260.5 61t191 176.5t91.5 270.5h-508l10 84h600l-8 -65q-40 -284 -214 -448.5t-435 -164.5q-169 0 -295 73t-190 197.5t-64 282.5z" />
<glyph unicode="H" horiz-adv-x="1366" d="M190 0l172 1229h91l-82 -580h807l82 580h90l-172 -1229h-91l78 565h-807l-77 -565h-91z" />
<glyph unicode="I" horiz-adv-x="471" d="M190 0l172 1229h91l-172 -1229h-91z" />
<glyph unicode="J" horiz-adv-x="903" d="M61 61l56 72q3 -3 9.5 -8t28 -18t45.5 -22.5t62 -17.5t78 -8q303 0 352 338l117 832h90l-119 -848q-30 -208 -146 -308t-300 -100q-50 0 -97 9t-76 20.5t-54 26t-33.5 21.5t-12.5 11z" />
<glyph unicode="K" horiz-adv-x="1185" d="M190 0l172 1229h91l-103 -733l856 733h105l-2 -19l-572 -491l404 -701l-2 -18h-99l-376 655l-332 -284l-51 -371h-91z" />
<glyph unicode="L" horiz-adv-x="1052" d="M190 0l172 1229h91l-162 -1145h751l-12 -84h-840z" />
<glyph unicode="M" horiz-adv-x="1548" d="M190 0l172 1229h29l467 -629l645 629h29l-172 -1229h-90l143 1026l-557 -543h-29l-403 537l-143 -1020h-91z" />
<glyph unicode="N" horiz-adv-x="1423" d="M190 0l172 1229h31l778 -1028l146 1028h90l-172 -1229h-31l-780 1032l-143 -1032h-91z" />
<glyph unicode="O" horiz-adv-x="1452" d="M176 524q0 201 92.5 368t259 265t373.5 98q251 0 398 -156t147 -401q0 -149 -54.5 -282.5t-149.5 -231.5t-231 -155.5t-290 -57.5q-167 0 -292 73t-189 197.5t-64 282.5zM268 537q0 -133 52 -240.5t159 -173.5t254 -66q137 0 255 52t197.5 139t124 201.5t44.5 238.5 q0 135 -51.5 242t-158.5 173t-255 66q-137 0 -254.5 -52t-197 -139.5t-124.5 -202t-45 -238.5z" />
<glyph unicode="P" horiz-adv-x="1220" d="M190 0l172 1229h478q207 0 318.5 -88t111.5 -256q0 -228 -146 -351.5t-403 -123.5h-383l-57 -410h-91zM348 494h387q205 0 325 94t120 282q0 137 -94 206t-259 69h-387z" />
<glyph unicode="Q" horiz-adv-x="1452" d="M176 524q0 201 92.5 368t259 265t373.5 98q251 0 398 -156t147 -401q0 -205 -100 -375.5t-271 -263.5l78 -151l-2 -21h-92l-68 133q-130 -49 -270 -49q-167 0 -292 73t-189 197.5t-64 282.5zM268 537q0 -133 52 -240.5t159 -173.5t254 -66q121 0 219 37l-151 299l2 21h92 l141 -281q148 83 233 232t85 323q0 135 -51.5 242t-158.5 173t-255 66q-137 0 -254.5 -52t-197 -139.5t-124.5 -202t-45 -238.5z" />
<glyph unicode="R" horiz-adv-x="1269" d="M190 0l172 1229h476q208 0 320 -88t112 -256q0 -182 -102 -296t-275 -147v-6l285 -411l-4 -25h-97l-297 428h-440l-59 -428h-91zM352 512h410q89 0 163 21.5t131.5 64.5t89.5 113t32 161q0 136 -93 204.5t-258 68.5h-387z" />
<glyph unicode="S" horiz-adv-x="1081" d="M115 111l61 69q5 -5 14 -13.5t42.5 -29.5t72 -37t102 -29.5t132.5 -13.5q204 0 305.5 75.5t101.5 201.5q0 94 -80.5 149.5t-251.5 106.5q-75 23 -126.5 42t-103.5 46.5t-83 57.5t-50.5 71.5t-19.5 91.5q0 164 136 260t354 96q83 0 154.5 -11.5t115.5 -28t75.5 -33 t44.5 -28.5l13 -11l-59 -76q-4 4 -13 11t-41 24.5t-69.5 31t-100.5 24.5t-132 11q-105 0 -190.5 -28.5t-139 -87.5t-53.5 -140q0 -37 15.5 -67t41 -52.5t70.5 -44t90 -37t114 -36.5q93 -27 158.5 -55.5t118 -67.5t78.5 -90.5t26 -116.5q0 -164 -128 -268.5t-382 -104.5 q-81 0 -153.5 14t-117.5 34.5t-79 41t-48 34.5z" />
<glyph unicode="T" horiz-adv-x="1052" d="M197 1145l12 84h983l-12 -84h-447l-162 -1145h-90l162 1145h-446z" />
<glyph unicode="U" horiz-adv-x="1343" d="M244 508l100 721h90l-100 -721q-29 -207 59 -329t287 -122t321.5 122t151.5 329l100 721h90l-100 -721q-34 -246 -185.5 -390.5t-389.5 -144.5q-236 0 -347 145t-77 390z" />
<glyph unicode="V" d="M188 1229h101q178 -499 348 -1053h14q332 562 643 1053h99l-762 -1229h-25z" />
<glyph unicode="W" horiz-adv-x="1650" d="M207 1229h96l199 -1004l8 -65h6q85 209 246.5 589.5t202.5 479.5h67l139 -1004l5 -65h6l26 65l480 1004h96l-596 -1229h-74l-141 999l-2 35h-4q-63 -152 -138 -329.5t-160 -376.5t-139 -328h-69z" />
<glyph unicode="X" horiz-adv-x="1097" d="M39 0l534 631l-342 598h109l274 -479l31 -72l47 72l410 479h108l-512 -598l361 -631h-107l-286 498l-35 82l-62 -82l-424 -498h-106z" />
<glyph unicode="Y" horiz-adv-x="1095" d="M193 1229h106l299 -611l23 -59h14l41 59l469 611h104l-590 -756l-65 -473h-92l65 473z" />
<glyph unicode="Z" horiz-adv-x="1089" d="M63 0l5 25l976 1120h-802l10 84h956l-2 -25l-977 -1120h795l-12 -84h-949z" />
<glyph unicode="[" horiz-adv-x="630" d="M127 -324l240 1704h407l-10 -77h-322l-217 -1549h320l-10 -78h-408z" />
<glyph unicode="\" horiz-adv-x="690" d="M274 1440h93l198 -1800h-92z" />
<glyph unicode="]" horiz-adv-x="630" d="M8 -324l10 78h320l217 1549h-317l10 77h407l-239 -1704h-408z" />
<glyph unicode="^" horiz-adv-x="837" d="M274 999l2 21l302 348h67l203 -348l-2 -21h-60l-186 285l-266 -285h-60z" />
<glyph unicode="_" horiz-adv-x="997" d="M86 -119l10 78h781l-11 -78h-780z" />
<glyph unicode="`" horiz-adv-x="520" d="M305 1161l2 21h115l63 -303l-4 -21h-55z" />
<glyph unicode="a" horiz-adv-x="864" d="M92 184q0 104 89 172t253 68q171 0 260 -82h11l8 61q34 246 -228 246q-63 0 -121 -14.5t-85 -29.5l-27 -15l-23 69q11 7 32.5 18t95 29.5t155.5 18.5q88 0 150.5 -25.5t93 -70.5t42.5 -105.5t-1 -130.5l-56 -393h-61l2 100h-6q-11 -12 -28 -26t-54.5 -37t-98 -38 t-130.5 -15q-135 0 -204 56t-69 144zM182 193q0 -62 52.5 -101t156.5 -39q115 0 204 55.5t89 114.5q0 58 -73 97.5t-177 39.5q-123 0 -187.5 -46t-64.5 -121z" />
<glyph unicode="b" horiz-adv-x="960" d="M135 0l193 1368h88l-113 -803h4q4 7 11 17.5t34.5 38t60.5 48.5t90 38.5t122 17.5q135 0 221 -89t86 -233q0 -120 -58 -217.5t-152 -149.5t-204 -52q-49 0 -90.5 9.5t-69.5 24t-50 32.5t-35 36t-21 32.5t-11 23.5l-3 10h-5l-34 -152h-64zM264 313q0 -117 71.5 -185.5 t180.5 -68.5q133 0 229.5 96t96.5 240q0 112 -68 183t-174 71q-87 0 -163 -39.5t-124.5 -117.5t-48.5 -179z" />
<glyph unicode="c" horiz-adv-x="749" d="M125 303q0 183 128.5 302.5t307.5 119.5q42 0 80.5 -6.5t63.5 -15.5t43.5 -18.5t27.5 -16.5l8 -6l-36 -68q-8 6 -23 15t-64.5 24.5t-103.5 15.5q-135 0 -238.5 -95t-103.5 -243q0 -115 74 -183.5t184 -68.5q54 0 105.5 14t76.5 28l25 14l16 -68q-10 -7 -29 -17.5t-81 -28 t-129 -17.5q-147 0 -239.5 87.5t-92.5 231.5z" />
<glyph unicode="d" horiz-adv-x="960" d="M125 303q0 120 58.5 218t153.5 151t204 53q64 0 115.5 -16t79.5 -38.5t46.5 -45t24.5 -38.5l6 -16h4l113 797h88l-193 -1368h-63l6 147h-4q-4 -7 -11.5 -18t-36 -39t-63 -49.5t-92.5 -39t-123 -17.5q-138 0 -225.5 88t-87.5 231zM215 315q0 -113 69 -184.5t177 -71.5 q134 0 234 93t100 243q0 117 -72 185.5t-180 68.5q-134 0 -231 -95.5t-97 -238.5z" />
<glyph unicode="e" horiz-adv-x="854" d="M127 303q0 184 120.5 303t293.5 119q156 0 227.5 -87.5t71.5 -234.5l-6 -55h-619v-37q0 -119 75.5 -186.5t188.5 -67.5q65 0 125.5 17t88.5 34l28 17l22 -64q-4 -3 -12 -8.5t-35.5 -18.5t-57 -23t-75.5 -18.5t-94 -8.5q-154 0 -248 87.5t-94 231.5zM227 418h529 q6 101 -53 167t-175 66q-105 0 -188 -62.5t-113 -170.5z" />
<glyph unicode="f" horiz-adv-x="616" d="M119 635l10 74h176l47 325q45 330 328 330q23 0 45 -3.5t37.5 -9t27.5 -10.5t18 -9l7 -3l-39 -76q-47 29 -100 29q-102 0 -159.5 -59.5t-76.5 -188.5l-47 -325h297l-10 -74h-297l-88 -635h-88l88 635h-176z" />
<glyph unicode="g" horiz-adv-x="831" d="M29 -250q0 88 53 152t154 94l2 6q-142 34 -142 141q0 120 146 176q-29 53 -29 113q0 122 90 205.5t229 83.5q50 0 140.5 -3t155.5 -6l65 -3l-10 -70h-164v-6q3 -1 7 -3.5t15 -13.5t19 -25t15 -40t7 -57q0 -119 -90 -203t-231 -84q-113 0 -180 61q-103 -36 -103 -110 q0 -53 61 -81t205 -28q164 0 252 -61.5t88 -169.5q0 -132 -112.5 -217.5t-302.5 -85.5q-162 0 -251 64.5t-89 170.5zM115 -236q0 -77 69.5 -126.5t194.5 -49.5q147 0 232 60.5t85 152.5q0 76 -68.5 124t-193.5 48q-145 0 -232 -60.5t-87 -148.5zM291 440q0 -70 47.5 -114.5 t132.5 -44.5q105 0 169.5 58.5t64.5 145.5q0 70 -48.5 116t-134.5 46q-103 0 -167 -60t-64 -147z" />
<glyph unicode="h" horiz-adv-x="929" d="M135 0l193 1368h88l-109 -768h4q122 125 283 125q148 0 218.5 -90t49.5 -238l-55 -397h-90l55 387q16 118 -36 190t-169 72q-64 0 -118 -22.5t-87.5 -58t-53.5 -73t-25 -71.5l-60 -424h-88z" />
<glyph unicode="i" horiz-adv-x="368" d="M141 0l101 709h88l-101 -709h-88zM270 1073q0 31 22.5 52.5t53.5 21.5q25 0 41 -16t16 -41q0 -30 -22 -51t-53 -21q-25 0 -41.5 15.5t-16.5 39.5z" />
<glyph unicode="j" horiz-adv-x="356" d="M-137 -377l33 68q37 -25 84 -25q56 0 85.5 33t40.5 106l127 904h89l-127 -906q-15 -110 -65.5 -162.5t-145.5 -52.5q-33 0 -63 9t-44 17zM264 1073q0 31 22.5 52.5t53.5 21.5q25 0 40 -16t15 -41q0 -31 -21 -51.5t-52 -20.5q-25 0 -41.5 15.5t-16.5 39.5z" />
<glyph unicode="k" horiz-adv-x="770" d="M133 0l193 1368h88l-142 -991h7l405 332h113l-424 -347l381 -362h-125l-357 340h-4l-47 -340h-88z" />
<glyph unicode="l" horiz-adv-x="368" d="M141 0l193 1368h88l-193 -1368h-88z" />
<glyph unicode="m" horiz-adv-x="1511" d="M135 0l101 709h61l-6 -125h6q119 141 297 141q105 0 173.5 -44t92.5 -120h6q63 85 136.5 124.5t175.5 39.5q148 0 217.5 -90t48.5 -238l-55 -397h-89l56 387q16 118 -36 190t-169 72q-79 0 -141.5 -36.5t-95 -83.5t-46.5 -99l-61 -430h-90l59 420q14 101 -39 165t-170 64 q-60 0 -111.5 -20t-85 -52.5t-55 -67t-30.5 -69.5l-62 -440h-88z" />
<glyph unicode="n" horiz-adv-x="927" d="M135 0l101 709h61l-6 -125h6q109 141 297 141q148 0 218.5 -90t49.5 -238l-55 -397h-90l55 387q16 118 -36 190t-169 72q-60 0 -111.5 -20t-85 -52.5t-55 -67t-30.5 -69.5l-62 -440h-88z" />
<glyph unicode="o" horiz-adv-x="915" d="M125 301q0 185 129.5 304.5t306.5 119.5q143 0 235.5 -89.5t92.5 -236.5q0 -123 -61 -219t-159 -146t-212 -50q-145 0 -238.5 86t-93.5 231zM213 311q0 -115 73 -184.5t181 -69.5q85 0 160.5 39.5t124.5 117.5t49 177q0 117 -71.5 188.5t-178.5 71.5q-86 0 -162.5 -41.5 t-126 -120.5t-49.5 -178z" />
<glyph unicode="p" horiz-adv-x="960" d="M80 -393l156 1102h61l-6 -146h8q4 7 11.5 17.5t36 38.5t62.5 49.5t91.5 39t122.5 17.5q136 0 222.5 -88t86.5 -231q0 -120 -58 -218t-152 -151t-202 -53q-65 0 -117 16t-80 38t-46.5 44.5t-24.5 38.5l-6 16h-4l-74 -530h-88zM264 313q0 -117 71.5 -185.5t180.5 -68.5 q133 0 229.5 96t96.5 240q0 112 -68 183t-174 71q-87 0 -163 -39.5t-124.5 -117.5t-48.5 -179z" />
<glyph unicode="q" horiz-adv-x="960" d="M125 305q0 120 58.5 217.5t153.5 150t206 52.5q66 0 119 -17.5t81 -42t46.5 -49t24.5 -42.5l5 -17h6l35 152h64l-154 -1102h-88l76 536h-4q-4 -6 -11 -17t-34.5 -38.5t-60.5 -48.5t-90 -38t-122 -17q-136 0 -223.5 89t-87.5 232zM215 315q0 -113 69 -184.5t177 -71.5 q134 0 234 93t100 243q0 117 -72 185.5t-180 68.5q-134 0 -231 -95.5t-97 -238.5z" />
<glyph unicode="r" horiz-adv-x="557" d="M135 0l101 709h61l-6 -125h4q45 68 98.5 100.5t132.5 32.5q32 0 61 -7.5t43 -14.5l13 -7l-43 -72q-33 23 -90 23q-88 0 -145.5 -61.5t-81.5 -153.5l-60 -424h-88z" />
<glyph unicode="s" horiz-adv-x="765" d="M84 59l47 64q11 -7 31.5 -18t87 -29.5t135.5 -18.5q120 0 184 38.5t64 99.5q0 34 -26.5 58.5t-68.5 38.5t-93 26t-101.5 26.5t-92.5 33.5t-68.5 52.5t-26.5 79.5q0 97 83.5 156t241.5 59q83 0 152 -13.5t97 -27.5l28 -14l-45 -74q-9 6 -26 15t-78 24.5t-130 15.5 q-235 0 -235 -131q0 -37 35.5 -62t88.5 -36.5t114.5 -27t114.5 -33.5t88.5 -57t35.5 -95q0 -97 -85 -161t-257 -64q-58 0 -109.5 7.5t-84 19t-56.5 22.5t-35 19z" />
<glyph unicode="t" horiz-adv-x="616" d="M119 635l10 74h147l31 215h88l-30 -215h303l-11 -74h-303l-47 -338q-18 -122 22.5 -179t139.5 -57q24 0 51.5 7.5t42.5 14.5l15 7l20 -63q-7 -5 -20 -12t-53 -19t-79 -12q-273 0 -227 311l47 340h-147z" />
<glyph unicode="u" horiz-adv-x="919" d="M166 311l55 398h90l-55 -387q-16 -119 32.5 -191t164.5 -72q64 0 118 22.5t87.5 57t53.5 70t25 67.5l60 433h88l-99 -709h-59v125h-4q-6 -9 -14.5 -19.5t-35 -34.5t-57.5 -41.5t-82 -31.5t-108 -14q-147 0 -214 89t-46 238z" />
<glyph unicode="v" horiz-adv-x="823" d="M131 709h100l189 -559q6 -21 6 -46h6q5 21 19 46l344 559h98l-451 -709h-61z" />
<glyph unicode="w" horiz-adv-x="1175" d="M141 709h97l122 -559q7 -25 7 -46h8q0 4 18 46l258 559h80l100 -559q5 -35 5 -46h10q0 14 18 46l281 559h90l-375 -709h-80l-98 553q-4 20 -4 47h-6q-2 -7 -15 -37l-262 -563h-80z" />
<glyph unicode="x" horiz-adv-x="770" d="M35 0l348 371l-221 338h102l178 -283h4l263 283h100l-317 -336l243 -373h-104l-199 317h-4l-291 -317h-102z" />
<glyph unicode="y" horiz-adv-x="825" d="M113 -393l264 420l-240 682h99l188 -559q6 -21 6 -46h6q4 20 19 46l346 559h92l-686 -1102h-94z" />
<glyph unicode="z" horiz-adv-x="753" d="M68 0l6 49l575 584h-493l10 76h616l-6 -47l-577 -586h495l-10 -76h-616z" />
<glyph unicode="{" horiz-adv-x="485" d="M119 483l12 84h23q54 0 96.5 45t52.5 125l72 510q12 89 61.5 137.5t143.5 57.5v-78q-53 -6 -77.5 -34.5t-33.5 -96.5l-72 -498q-11 -80 -45.5 -133t-89.5 -72l-2 -14q50 -17 70.5 -70t9.5 -131l-72 -499q-9 -67 8 -95t68 -36l-22 -76q-175 14 -150 192l72 512 q10 79 -20 124.5t-83 45.5h-22z" />
<glyph unicode="|" horiz-adv-x="428" d="M129 -311l238 1689h84l-238 -1689h-84z" />
<glyph unicode="}" horiz-adv-x="485" d="M51 -315q55 8 79.5 36t33.5 95l69 499q11 78 46 131t90 70l2 14q-100 37 -78 205l69 498q9 69 -7 97t-68 34l24 78q90 -9 124 -57t22 -138l-72 -510q-11 -80 19.5 -125t84.5 -45h25l-12 -84h-25q-54 0 -97.5 -46t-53.5 -124l-72 -512q-12 -89 -60 -137t-141 -55z" />
<glyph unicode="~" horiz-adv-x="923" d="M215 608q2 2 7 6.5t22 14.5t37 18t53 14.5t69 6.5q51 0 144 -28t149 -28q47 0 86.5 10t55.5 20l16 11l25 -55q-7 -7 -20.5 -17t-63 -27t-107.5 -17q-50 0 -143 28.5t-150 28.5q-46 0 -85.5 -10t-55.5 -20l-16 -11z" />
<glyph unicode="&#xa1;" horiz-adv-x="471" d="M174 0q27 181 83.5 508.5t70.5 411.5h67l-92 -857l-8 -63h-121zM322 1159q0 35 27 60.5t61 25.5q30 0 48.5 -19.5t18.5 -49.5q0 -34 -26.5 -59t-61.5 -25q-29 0 -48 19.5t-19 47.5z" />
<glyph unicode="&#xa2;" horiz-adv-x="847" d="M156 303q0 168 108 282.5t271 135.5l24 166h72l-25 -162q63 -2 116.5 -17.5t75.5 -30.5l23 -15l-39 -70q-8 6 -23.5 15.5t-66 25.5t-104.5 16q-135 0 -238.5 -95t-103.5 -243q0 -115 74 -183.5t184 -68.5q54 0 106.5 14.5t78.5 28.5l26 15l20 -70q-10 -7 -29 -16.5 t-79 -27t-123 -19.5l-23 -158h-69l22 162q-126 15 -202 100.5t-76 214.5z" />
<glyph unicode="&#xa3;" horiz-adv-x="1040" d="M139 12l11 80l5 3q143 68 164 214l3 45q0 54 -15 115h-137l12 76h105q-31 128 -31 215q0 68 20 135.5t63 129.5t103 109.5t146.5 76t187.5 28.5q66 0 123 -12.5t91 -30.5t58.5 -35.5t33.5 -30.5l10 -12l-60 -65q-3 4 -9 11t-28.5 24t-50 30t-75 24t-101.5 11 q-102 0 -183.5 -35t-130.5 -92t-74.5 -125.5t-25.5 -140.5q0 -79 33 -215h531l-13 -76h-499q12 -74 12 -102q0 -96 -42.5 -165.5t-96.5 -109.5h649l-10 -80h-779z" />
<glyph unicode="&#xa4;" horiz-adv-x="1183" d="M190 229l134 123q-62 91 -62 209q0 176 133 309l-98 121l70 62l96 -125q125 88 270 88q140 0 244 -94l135 131l55 -62l-141 -129q61 -92 61 -207q0 -170 -126 -303l100 -123l-72 -61l-96 125q-129 -92 -275 -92q-145 0 -243 92l-131 -125zM348 571q0 -121 80.5 -203.5 t202.5 -82.5q144 0 256 107.5t112 252.5q0 121 -79 204t-199 83q-146 0 -259.5 -108t-113.5 -253z" />
<glyph unicode="&#xa5;" horiz-adv-x="1198" d="M203 211l10 76h379l24 180h-376l10 76h334l-340 686h106l299 -611l23 -59h14l41 59l469 611h104l-536 -686h330l-11 -76h-374l-25 -180h373l-10 -76h-373l-29 -211h-92l29 211h-379z" />
<glyph unicode="&#xa6;" horiz-adv-x="430" d="M129 -311l238 1689h86l-238 -1689h-86z" />
<glyph unicode="&#xa7;" horiz-adv-x="1077" d="M49 -260l62 72q5 -6 15 -15.5t45 -33.5t75.5 -42.5t107 -33.5t138.5 -15q191 0 289 81.5t98 197.5q0 88 -68 146.5t-240 125.5q-150 59 -211 109.5t-61 126.5q0 123 109 184q-170 96 -170 252t127 258t364 102q81 0 152.5 -13t115 -31.5t75.5 -36.5t45 -31l13 -13 l-63 -75q-4 5 -12.5 12.5t-40 27.5t-68 35.5t-98.5 28t-131 12.5q-184 0 -280.5 -74.5t-96.5 -189.5q0 -87 64.5 -149.5t199.5 -108.5q158 -55 233.5 -115t75.5 -143q0 -115 -98 -188q84 -50 124 -109.5t40 -136.5q0 -72 -28.5 -136t-86 -117t-155.5 -84.5t-226 -31.5 q-86 0 -162.5 15.5t-124 38t-82.5 45t-50 37.5zM391 473q0 -51 49.5 -89.5t173.5 -86.5q66 -25 127 -55q28 18 54 53t26 84q0 57 -63 105t-197 94q-23 7 -76 28q-13 -4 -25.5 -11.5t-29.5 -22t-28 -40.5t-11 -59z" />
<glyph unicode="&#xa8;" horiz-adv-x="825" d="M293 981q0 32 25 56t57 24q26 0 43.5 -18.5t17.5 -45.5q0 -32 -24.5 -55.5t-57.5 -23.5q-26 0 -43.5 18.5t-17.5 44.5zM655 981q0 32 24.5 56t55.5 24q26 0 44 -19t18 -45q0 -32 -24.5 -55.5t-57.5 -23.5q-25 0 -42.5 18.5t-17.5 44.5z" />
<glyph unicode="&#xa9;" horiz-adv-x="1484" d="M184 532q0 140 54 267.5t148 223.5t232 153t297 57q132 0 239 -42.5t176.5 -116t107 -171.5t37.5 -211q0 -140 -54 -267.5t-148.5 -223t-233 -152.5t-298.5 -57q-131 0 -237.5 42t-176 115.5t-106.5 171.5t-37 211zM252 541q0 -137 57 -246.5t171.5 -175.5t269.5 -66 q144 0 268 51t208.5 137.5t132.5 201.5t48 241q0 138 -57 247t-172 174.5t-271 65.5q-143 0 -266.5 -50.5t-208 -136.5t-132.5 -201t-48 -242zM494 571q0 156 109 266.5t282 110.5q44 0 82.5 -8t61.5 -19.5t39.5 -23t23.5 -19.5l6 -8l-45 -49q-6 7 -17.5 17t-56 26.5 t-100.5 16.5q-138 0 -225 -88t-87 -213q0 -101 63 -166.5t173 -65.5q53 0 101 15t70 30l21 15l31 -50q-3 -3 -9 -8t-28 -18t-46.5 -23t-65 -18t-84.5 -8q-142 0 -220.5 81t-78.5 207z" />
<glyph unicode="&#xaa;" horiz-adv-x="845" d="M193 733q0 109 90 172.5t243 63.5q183 0 238 -82l6 47q18 126 -27.5 190t-179.5 64q-54 0 -112 -12t-89 -24l-32 -13l-17 65q15 6 41 15t96.5 23.5t129.5 14.5q172 0 232.5 -83t37.5 -242l-51 -371h-58l-2 86h-10q-79 -102 -283 -102q-116 0 -184.5 51t-68.5 137z M272 741q0 -62 53.5 -98.5t145.5 -36.5q122 0 198 52.5t76 119.5q0 61 -57.5 97t-157.5 36q-120 0 -189 -46t-69 -124z" />
<glyph unicode="&#xab;" horiz-adv-x="804" d="M139 334l4 35l263 319h81l-2 -14l-258 -318l-2 -6l170 -321l-2 -15h-82zM459 334l4 35l262 319h80l-2 -14l-258 -318l-2 -6l170 -321l-2 -15h-80z" />
<glyph unicode="&#xac;" horiz-adv-x="1114" d="M160 633l10 78h860l-98 -711h-78l86 633h-780z" />
<glyph unicode="&#xad;" horiz-adv-x="821" d="M201 569l10 78h580l-11 -78h-579z" />
<glyph unicode="&#xae;" horiz-adv-x="1171" d="M207 717q0 106 40.5 203.5t111 171.5t175.5 117.5t226 43.5q198 0 311 -117.5t113 -295.5q0 -143 -68.5 -264.5t-197.5 -196t-291 -74.5q-197 0 -308.5 118t-111.5 294zM274 725q0 -156 97 -257t264 -101q138 0 249 63t171.5 169t60.5 232q0 156 -97.5 257.5 t-266.5 101.5q-137 0 -247.5 -63t-170.5 -169t-60 -233zM487 580l58 413h186q76 0 122 -34.5t46 -96.5q0 -112 -108 -151l73 -115l-2 -16h-57l-76 116q-14 -2 -45 -2h-121l-16 -114h-60zM569 748h121q66 0 107 26.5t41 81.5q0 40 -30.5 61t-82.5 21h-129z" />
<glyph unicode="&#xaf;" horiz-adv-x="997" d="M373 913l8 64h526l-8 -64h-526z" />
<glyph unicode="&#xb0;" horiz-adv-x="659" d="M250 1128q0 103 78 175.5t194 72.5q96 0 152.5 -55t56.5 -139q0 -103 -76.5 -174.5t-193.5 -71.5q-96 0 -153.5 54t-57.5 138zM313 1137q0 -60 43 -101t113 -41q86 0 142.5 52.5t56.5 126.5q0 62 -42 102.5t-112 40.5q-86 0 -143.5 -53t-57.5 -127z" />
<glyph unicode="&#xb1;" horiz-adv-x="1159" d="M164 98l10 78h858l-10 -78h-858zM250 705l10 77h395l54 379h77l-53 -379h385l-10 -77h-387l-51 -375h-78l51 375h-393z" />
<glyph unicode="&#xb2;" horiz-adv-x="651" d="M156 700l4 31l375 287q112 87 112 178q0 123 -160 123q-51 0 -103 -19t-73.5 -33t-27.5 -20l-31 53l12 9t34 21t53 26t68 20.5t81 9.5q114 0 167.5 -48.5t53.5 -127.5q0 -67 -35 -121.5t-104 -107.5l-283 -217h399l-8 -64h-534z" />
<glyph unicode="&#xb3;" horiz-adv-x="647" d="M168 778l51 51q3 -3 9 -8.5t25.5 -18.5t41.5 -23t57 -18.5t72 -8.5q103 0 161 46.5t58 119.5q0 56 -40.5 87t-115.5 31h-65l4 27l203 242h-365l8 63h473l-2 -25l-211 -249q88 -6 134.5 -49.5t46.5 -118.5q0 -103 -78.5 -172.5t-218.5 -69.5q-44 0 -85.5 10t-68 21.5 t-50.5 28t-31.5 23t-12.5 11.5z" />
<glyph unicode="&#xb4;" horiz-adv-x="505" d="M244 858l2 21l147 303h115l-2 -21l-209 -303h-53z" />
<glyph unicode="&#xb5;" horiz-adv-x="1011" d="M113 -393l153 1102h90l-55 -387q-16 -119 32.5 -191t164.5 -72q64 0 118 22.5t87.5 57t53.5 70t25 67.5l60 433h88l-99 -709h-59v125h-4q-6 -9 -14.5 -19.5t-35 -34.5t-57.5 -41.5t-82 -31.5t-108 -14q-139 0 -209 82l-63 -459h-86z" />
<glyph unicode="&#xb6;" horiz-adv-x="1015" d="M152 573q0 223 141.5 341t396.5 118h271l-197 -1403h-90l84 596h-178q-205 0 -316.5 89t-111.5 259z" />
<glyph unicode="&#xb7;" horiz-adv-x="251" d="M150 729q0 35 27 60.5t61 25.5q29 0 48 -20t19 -50q0 -35 -27 -59t-63 -24q-28 0 -46.5 19t-18.5 48z" />
<glyph unicode="&#xb8;" horiz-adv-x="442" d="M33 -276l30 47q4 -5 12 -12t35.5 -19t57.5 -12q52 0 82.5 25t30.5 69q0 32 -23.5 50.5t-62.5 18.5q-11 0 -21 -2t-14 -4l-4 -2l-21 31l60 88h63l-43 -63q57 0 92 -27t35 -82q0 -69 -49.5 -113.5t-132.5 -44.5q-41 0 -72.5 13t-43.5 26z" />
<glyph unicode="&#xb9;" horiz-adv-x="385" d="M227 1305l9 63h225l-92 -668h-70l82 605h-154z" />
<glyph unicode="&#xba;" horiz-adv-x="884" d="M213 852q0 180 115.5 291.5t289.5 111.5q139 0 223.5 -82t84.5 -221q0 -177 -117 -288t-289 -111q-138 0 -222.5 82t-84.5 217zM293 862q0 -109 64 -173t173 -64q137 0 226.5 89t89.5 232q0 109 -64.5 173.5t-173.5 64.5q-137 0 -226 -89.5t-89 -232.5z" />
<glyph unicode="&#xbb;" horiz-adv-x="804" d="M98 14l2 15l260 321v6l-170 318l3 14h79l172 -319l-4 -35l-262 -320h-80zM416 14l2 15l260 321v6l-170 318l2 14h80l172 -319l-4 -35l-262 -320h-80z" />
<glyph unicode="&#xbc;" horiz-adv-x="1288" d="M166 561l8 64h156l76 540h-156l10 64h227l-86 -604h150l-8 -64h-377zM188 63l1123 1156l47 -41l-1122 -1155zM692 195l6 43l441 430h51l-60 -412h115l-8 -61h-115l-26 -195h-68l27 195h-363zM795 252l116 4h152l33 225l14 76h-4q-30 -30 -96 -95t-116.5 -113.5 t-98.5 -92.5v-4z" />
<glyph unicode="&#xbd;" horiz-adv-x="1464" d="M166 561l8 64h156l76 540h-156l10 64h227l-86 -604h150l-8 -64h-377zM188 63l1123 1156l47 -41l-1122 -1155zM854 0l4 31l375 286q115 89 115 179q0 56 -39 89t-121 33q-51 0 -103.5 -18.5t-75.5 -33t-28 -19.5l-31 53l12 9t34 21t53.5 26t68.5 20.5t82 9.5 q114 0 167.5 -48.5t53.5 -127.5q0 -67 -35.5 -121t-103.5 -108l-283 -218h400l-10 -63h-535z" />
<glyph unicode="&#xbe;" horiz-adv-x="1511" d="M180 639l51 51q3 -3 9 -8.5t25.5 -19t41.5 -23.5t57 -18.5t72 -8.5q104 0 161.5 47t57.5 119q0 56 -40.5 87.5t-114.5 31.5h-66l4 27l205 241h-364l8 64h471l-2 -25l-211 -250q87 -6 133.5 -49.5t46.5 -118.5q0 -103 -78.5 -172t-218.5 -69q-43 0 -84.5 10t-68 22t-51 28 t-32 22.5t-12.5 11.5zM352 63l1123 1156l47 -41l-1123 -1155zM913 195l5 43l444 430h51l-59 -412h112l-8 -61h-112l-27 -195h-68l27 195h-365zM1014 250l121 6h151l33 225q0 2 12 76h-6l-221 -219q-18 -18 -40.5 -38.5t-35.5 -31.5l-14 -12v-6z" />
<glyph unicode="&#xbf;" horiz-adv-x="761" d="M129 217q0 63 18.5 116.5t49 92.5t67.5 74t76.5 70.5t74.5 73.5t62.5 90.5t38.5 113.5l14 82h68l-12 -92q-8 -62 -33 -115.5t-57 -92t-69.5 -74.5t-73.5 -69.5t-65 -69t-47 -82t-18 -99.5q0 -77 51 -126t140 -49q72 0 134.5 17t89.5 34l26 17l24 -72q-5 -3 -13.5 -8 t-37.5 -17.5t-61 -22t-82.5 -17.5t-102.5 -8q-123 0 -192.5 65t-69.5 168zM520 1169q0 36 25 61t61 25q30 0 49 -18.5t19 -46.5q0 -36 -26 -61t-62 -25q-29 0 -47.5 18.5t-18.5 46.5z" />
<glyph unicode="&#xc0;" d="M16 0l762 1229h25l420 -1229h-103l-90 254h-754l-159 -254h-101zM330 340h671q-45 135 -126 386t-103 318h-14l-410 -677zM649 1610l2 20h115l63 -303l-4 -20h-55z" />
<glyph unicode="&#xc1;" d="M16 0l762 1229h25l420 -1229h-103l-90 254h-754l-159 -254h-101zM330 340h671q-45 135 -126 386t-103 318h-14l-410 -677zM778 1307l2 20l148 303h114l-2 -20l-209 -303h-53z" />
<glyph unicode="&#xc2;" d="M16 0l762 1229h25l420 -1229h-103l-90 254h-754l-159 -254h-101zM330 340h671q-45 135 -126 386t-103 318h-14l-410 -677zM508 1307l2 20l276 303h105l190 -303l-2 -20h-55l-197 239l-264 -239h-55z" />
<glyph unicode="&#xc3;" d="M16 0l762 1229h25l420 -1229h-103l-90 254h-754l-159 -254h-101zM330 340h671q-45 135 -126 386t-103 318h-14l-410 -677zM510 1350l14 39q46 131 162 131q45 0 90 -27t86 -53.5t76 -26.5q41 0 63 21.5t37 58.5l13 29l59 -11l-12 -38q-17 -57 -57.5 -94.5t-106.5 -37.5 q-37 0 -74 16.5t-62 36t-56.5 36t-57.5 16.5q-41 0 -63 -21.5t-37 -58.5l-11 -29z" />
<glyph unicode="&#xc4;" d="M16 0l762 1229h25l420 -1229h-103l-90 254h-754l-159 -254h-101zM330 340h671q-45 135 -126 386t-103 318h-14l-410 -677zM557 1448q0 32 25 56t57 24q26 0 43.5 -18.5t17.5 -45.5q0 -32 -25 -56t-57 -24q-26 0 -43.5 18.5t-17.5 45.5zM920 1448q0 32 24 56t55 24 q26 0 44 -19t18 -45q0 -32 -25 -56t-57 -24q-25 0 -42 19t-17 45z" />
<glyph unicode="&#xc5;" d="M16 0l756 1219q-63 4 -101 46t-38 105q0 84 59.5 140.5t143.5 56.5q69 0 112 -43t43 -109q0 -78 -53.5 -133t-132.5 -63l418 -1219h-103l-90 254h-754l-159 -254h-101zM330 340h671q-45 135 -126 386t-103 318h-14l-410 -677zM698 1376q0 -43 26 -68.5t71 -25.5 q59 0 95 35t36 92q0 43 -27 69.5t-72 26.5q-57 0 -93 -36t-36 -93z" />
<glyph unicode="&#xc6;" horiz-adv-x="1847" d="M-16 0l1069 1229h884l-10 -84h-788l-70 -496h692l-12 -84h-692l-68 -481h789l-13 -84h-876l35 254h-617l-217 -254h-106zM381 340h555l102 737h-12z" />
<glyph unicode="&#xc7;" horiz-adv-x="1218" d="M174 528q0 150 57.5 284.5t155.5 231.5t234.5 154t287.5 57q79 0 149.5 -16.5t114 -40.5t75.5 -47.5t46 -40.5l13 -16l-62 -68q-4 6 -13 15.5t-40.5 34t-68.5 43.5t-98 34.5t-128 15.5q-173 0 -318.5 -87t-228 -231t-82.5 -308q0 -133 55.5 -242.5t165 -176.5t252.5 -67 q67 0 132 15t109.5 37t79 44t51.5 37l17 15l41 -70q-6 -6 -18 -16.5t-53 -38t-86.5 -49t-117.5 -40t-148 -20.5l-23 -32q57 0 92 -27t35 -82q0 -69 -49.5 -113.5t-132.5 -44.5q-41 0 -72.5 13t-43.5 26l-11 13l30 47q4 -5 12 -12t35.5 -19t57.5 -12q52 0 82.5 25t30.5 69 q0 32 -23.5 50.5t-62.5 18.5q-11 0 -21 -2t-14 -4l-4 -2l-21 31l39 59q-231 15 -370.5 170t-139.5 385z" />
<glyph unicode="&#xc8;" horiz-adv-x="1148" d="M190 0l172 1229h875l-10 -84h-787l-69 -496h692l-12 -84h-693l-67 -481h786l-12 -84h-875zM672 1608l2 20h114l64 -303l-4 -20h-55z" />
<glyph unicode="&#xc9;" horiz-adv-x="1148" d="M190 0l172 1229h875l-10 -84h-787l-69 -496h692l-12 -84h-693l-67 -481h786l-12 -84h-875zM762 1307l2 20l147 303h115l-2 -20l-209 -303h-53z" />
<glyph unicode="&#xca;" horiz-adv-x="1148" d="M190 0l172 1229h875l-10 -84h-787l-69 -496h692l-12 -84h-693l-67 -481h786l-12 -84h-875zM545 1307l2 20l276 303h105l190 -303l-2 -20h-55l-197 239l-264 -239h-55z" />
<glyph unicode="&#xcb;" horiz-adv-x="1148" d="M190 0l172 1229h875l-10 -84h-787l-69 -496h692l-12 -84h-693l-67 -481h786l-12 -84h-875zM592 1436q0 32 25 56t57 24q26 0 43.5 -18.5t17.5 -45.5q0 -32 -25 -56t-57 -24q-26 0 -43.5 18.5t-17.5 45.5zM954 1436q0 32 24.5 56t55.5 24q26 0 44 -19t18 -45 q0 -32 -25 -56t-57 -24q-25 0 -42.5 19t-17.5 45z" />
<glyph unicode="&#xcc;" horiz-adv-x="471" d="M190 0l172 1229h91l-172 -1229h-91zM266 1608l2 20h115l63 -303l-4 -20h-55z" />
<glyph unicode="&#xcd;" horiz-adv-x="471" d="M190 0l172 1229h91l-172 -1229h-91zM397 1307l2 20l148 303h115l-3 -20l-208 -303h-54z" />
<glyph unicode="&#xce;" horiz-adv-x="471" d="M137 1307l2 20l277 303h104l191 -303l-2 -20h-56l-196 239l-264 -239h-56zM190 0l172 1229h91l-172 -1229h-91z" />
<glyph unicode="&#xcf;" horiz-adv-x="471" d="M190 0l172 1229h91l-172 -1229h-91zM193 1436q0 32 24.5 56t56.5 24q26 0 44 -19t18 -45q0 -32 -25 -56t-57 -24q-26 0 -43.5 18.5t-17.5 45.5zM555 1436q0 32 24.5 56t55.5 24q26 0 43.5 -18.5t17.5 -45.5q0 -32 -25 -56t-57 -24q-25 0 -42 19t-17 45z" />
<glyph unicode="&#xd0;" horiz-adv-x="1361" d="M127 575l10 76h160l82 578h397q263 0 421.5 -142.5t158.5 -388.5q0 -158 -58.5 -290.5t-160 -221t-239 -137.5t-294.5 -49h-397l80 575h-160zM307 84h305q177 0 324 71.5t236.5 210t89.5 318.5q0 213 -139 337t-361 124h-305l-70 -494h295l-10 -76h-295z" />
<glyph unicode="&#xd1;" horiz-adv-x="1423" d="M190 0l172 1229h31l778 -1028l146 1028h90l-172 -1229h-31l-780 1032l-143 -1032h-91zM612 1380l15 39q46 131 161 131q36 0 72 -16.5t61.5 -36.5t58 -36.5t60.5 -16.5q42 0 64 21.5t37 58.5l12 28l59 -10l-12 -39q-17 -57 -57.5 -94t-106.5 -37q-46 0 -91.5 26 t-85.5 52.5t-73 26.5q-41 0 -63 -21.5t-37 -58.5l-10 -29z" />
<glyph unicode="&#xd2;" horiz-adv-x="1452" d="M176 524q0 201 92.5 368t259 265t373.5 98q251 0 398 -156t147 -401q0 -149 -54.5 -282.5t-149.5 -231.5t-231 -155.5t-290 -57.5q-167 0 -292 73t-189 197.5t-64 282.5zM268 537q0 -133 52 -240.5t159 -173.5t254 -66q137 0 255 52t197.5 139t124 201.5t44.5 238.5 q0 135 -51.5 242t-158.5 173t-255 66q-137 0 -254.5 -52t-197 -139.5t-124.5 -202t-45 -238.5zM760 1610l2 20h115l63 -303l-4 -20h-55z" />
<glyph unicode="&#xd3;" horiz-adv-x="1452" d="M176 524q0 201 92.5 368t259 265t373.5 98q251 0 398 -156t147 -401q0 -149 -54.5 -282.5t-149.5 -231.5t-231 -155.5t-290 -57.5q-167 0 -292 73t-189 197.5t-64 282.5zM268 537q0 -133 52 -240.5t159 -173.5t254 -66q137 0 255 52t197.5 139t124 201.5t44.5 238.5 q0 135 -51.5 242t-158.5 173t-255 66q-137 0 -254.5 -52t-197 -139.5t-124.5 -202t-45 -238.5zM874 1307l3 20l147 303h115l-2 -20l-209 -303h-54z" />
<glyph unicode="&#xd4;" horiz-adv-x="1452" d="M176 524q0 201 92.5 368t259 265t373.5 98q251 0 398 -156t147 -401q0 -149 -54.5 -282.5t-149.5 -231.5t-231 -155.5t-290 -57.5q-167 0 -292 73t-189 197.5t-64 282.5zM268 537q0 -133 52 -240.5t159 -173.5t254 -66q137 0 255 52t197.5 139t124 201.5t44.5 238.5 q0 135 -51.5 242t-158.5 173t-255 66q-137 0 -254.5 -52t-197 -139.5t-124.5 -202t-45 -238.5zM614 1307l2 20l277 303h104l191 -303l-2 -20h-56l-196 239l-264 -239h-56z" />
<glyph unicode="&#xd5;" horiz-adv-x="1452" d="M176 524q0 201 92.5 368t259 265t373.5 98q251 0 398 -156t147 -401q0 -149 -54.5 -282.5t-149.5 -231.5t-231 -155.5t-290 -57.5q-167 0 -292 73t-189 197.5t-64 282.5zM268 537q0 -133 52 -240.5t159 -173.5t254 -66q137 0 255 52t197.5 139t124 201.5t44.5 238.5 q0 135 -51.5 242t-158.5 173t-255 66q-137 0 -254.5 -52t-197 -139.5t-124.5 -202t-45 -238.5zM618 1378l15 39q46 131 162 131q36 0 72 -16.5t61.5 -36.5t58 -36.5t60.5 -16.5q41 0 63 21.5t37 58.5l12 28l60 -10l-13 -39q-17 -57 -57.5 -94t-106.5 -37q-37 0 -73.5 16.5 t-62 36t-56.5 36t-57 16.5q-42 0 -64 -21.5t-37 -58.5l-10 -29z" />
<glyph unicode="&#xd6;" horiz-adv-x="1452" d="M176 524q0 201 92.5 368t259 265t373.5 98q251 0 398 -156t147 -401q0 -149 -54.5 -282.5t-149.5 -231.5t-231 -155.5t-290 -57.5q-167 0 -292 73t-189 197.5t-64 282.5zM268 537q0 -133 52 -240.5t159 -173.5t254 -66q137 0 255 52t197.5 139t124 201.5t44.5 238.5 q0 135 -51.5 242t-158.5 173t-255 66q-137 0 -254.5 -52t-197 -139.5t-124.5 -202t-45 -238.5zM662 1434q0 32 24.5 55.5t56.5 23.5q26 0 44 -18.5t18 -44.5q0 -32 -25 -56t-57 -24q-26 0 -43.5 18.5t-17.5 45.5zM1024 1434q0 32 24.5 55.5t55.5 23.5q26 0 43.5 -18.5 t17.5 -44.5q0 -32 -25 -56t-57 -24q-25 0 -42 19t-17 45z" />
<glyph unicode="&#xd7;" horiz-adv-x="1060" d="M180 285l383 336l-289 337l64 54l289 -336l383 336l47 -54l-385 -337l291 -336l-64 -54l-289 336l-383 -336z" />
<glyph unicode="&#xd8;" horiz-adv-x="1447" d="M113 66l153 131q-90 137 -90 327q0 201 92.5 368t259 265t373.5 98q257 0 404 -163l133 114l49 -55l-137 -117q96 -145 96 -336q0 -149 -54.5 -282.5t-149.5 -231.5t-231 -155.5t-290 -57.5q-129 0 -234 44t-176 124l-149 -129zM268 537q0 -156 72 -275l893 768 q-126 139 -344 139q-137 0 -254.5 -52t-197 -139.5t-124.5 -202t-45 -238.5zM383 201q131 -144 350 -144q137 0 255 52t197.5 139t124 201.5t44.5 238.5q0 159 -76 283z" />
<glyph unicode="&#xd9;" horiz-adv-x="1343" d="M244 508l100 721h90l-100 -721q-29 -207 59 -329t287 -122t321.5 122t151.5 329l100 721h90l-100 -721q-34 -246 -185.5 -390.5t-389.5 -144.5q-236 0 -347 145t-77 390zM725 1610l2 20h115l63 -303l-4 -20h-55z" />
<glyph unicode="&#xda;" horiz-adv-x="1343" d="M244 508l100 721h90l-100 -721q-29 -207 59 -329t287 -122t321.5 122t151.5 329l100 721h90l-100 -721q-34 -246 -185.5 -390.5t-389.5 -144.5q-236 0 -347 145t-77 390zM827 1307l2 20l148 303h115l-2 -20l-209 -303h-54z" />
<glyph unicode="&#xdb;" horiz-adv-x="1343" d="M244 508l100 721h90l-100 -721q-29 -207 59 -329t287 -122t321.5 122t151.5 329l100 721h90l-100 -721q-34 -246 -185.5 -390.5t-389.5 -144.5q-236 0 -347 145t-77 390zM582 1307l2 20l276 303h105l190 -303l-2 -20h-55l-197 239l-264 -239h-55z" />
<glyph unicode="&#xdc;" horiz-adv-x="1343" d="M244 508l100 721h90l-100 -721q-29 -207 59 -329t287 -122t321.5 122t151.5 329l100 721h90l-100 -721q-34 -246 -185.5 -390.5t-389.5 -144.5q-236 0 -347 145t-77 390zM618 1438q0 32 25 56t57 24q26 0 44 -19t18 -45q0 -32 -25 -56t-57 -24q-26 0 -44 19t-18 45z M981 1438q0 32 24.5 56t55.5 24q26 0 43.5 -18.5t17.5 -45.5q0 -32 -25 -56t-57 -24q-25 0 -42 19t-17 45z" />
<glyph unicode="&#xdd;" horiz-adv-x="1095" d="M193 1229h106l299 -611l23 -59h14l41 59l469 611h104l-590 -756l-65 -473h-92l65 473zM680 1307l2 20l147 303h115l-2 -20l-209 -303h-53z" />
<glyph unicode="&#xde;" horiz-adv-x="1216" d="M190 0l172 1229h91l-29 -207h387q207 0 318.5 -88t111.5 -256q0 -228 -146 -351.5t-403 -123.5h-383l-28 -203h-91zM319 287h388q204 0 322 94t118 283q0 136 -92 204t-258 68h-385z" />
<glyph unicode="&#xdf;" horiz-adv-x="929" d="M135 0l135 961q24 166 106.5 248.5t233.5 82.5q34 0 65.5 -8t46.5 -16l15 -8l-39 -76q-43 26 -96 26q-105 0 -165.5 -58.5t-78.5 -186.5l-36 -254h604l-4 -21l-332 -328q128 -3 205 -64.5t77 -178.5q0 -149 -105 -241.5t-269 -92.5q-64 0 -119.5 10.5t-78.5 20.5l-24 10 l33 68q76 -35 199 -35q112 0 191 72.5t79 179.5q0 88 -62 137t-165 49h-90l6 45l297 295h-453l-88 -637h-88z" />
<glyph unicode="&#xe0;" horiz-adv-x="864" d="M92 184q0 104 89 172t253 68q171 0 260 -82h11l8 61q34 246 -228 246q-63 0 -121 -14.5t-85 -29.5l-27 -15l-23 69q11 7 32.5 18t95 29.5t155.5 18.5q88 0 150.5 -25.5t93 -70.5t42.5 -105.5t-1 -130.5l-56 -393h-61l2 100h-6q-11 -12 -28 -26t-54.5 -37t-98 -38 t-130.5 -15q-135 0 -204 56t-69 144zM182 193q0 -62 52.5 -101t156.5 -39q115 0 204 55.5t89 114.5q0 58 -73 97.5t-177 39.5q-123 0 -187.5 -46t-64.5 -121zM375 1161l2 21h115l63 -303l-4 -21h-55z" />
<glyph unicode="&#xe1;" horiz-adv-x="864" d="M92 184q0 104 89 172t253 68q171 0 260 -82h11l8 61q34 246 -228 246q-63 0 -121 -14.5t-85 -29.5l-27 -15l-23 69q11 7 32.5 18t95 29.5t155.5 18.5q88 0 150.5 -25.5t93 -70.5t42.5 -105.5t-1 -130.5l-56 -393h-61l2 100h-6q-11 -12 -28 -26t-54.5 -37t-98 -38 t-130.5 -15q-135 0 -204 56t-69 144zM182 193q0 -62 52.5 -101t156.5 -39q115 0 204 55.5t89 114.5q0 58 -73 97.5t-177 39.5q-123 0 -187.5 -46t-64.5 -121zM487 858l2 21l148 303h115l-2 -21l-209 -303h-54z" />
<glyph unicode="&#xe2;" horiz-adv-x="864" d="M92 184q0 104 89 172t253 68q171 0 260 -82h11l8 61q34 246 -228 246q-63 0 -121 -14.5t-85 -29.5l-27 -15l-23 69q11 7 32.5 18t95 29.5t155.5 18.5q88 0 150.5 -25.5t93 -70.5t42.5 -105.5t-1 -130.5l-56 -393h-61l2 100h-6q-11 -12 -28 -26t-54.5 -37t-98 -38 t-130.5 -15q-135 0 -204 56t-69 144zM182 193q0 -62 52.5 -101t156.5 -39q115 0 204 55.5t89 114.5q0 58 -73 97.5t-177 39.5q-123 0 -187.5 -46t-64.5 -121zM246 858l2 21l276 303h105l190 -303l-2 -21h-55l-197 240l-264 -240h-55z" />
<glyph unicode="&#xe3;" horiz-adv-x="864" d="M92 184q0 104 89 172t253 68q171 0 260 -82h11l8 61q34 246 -228 246q-63 0 -121 -14.5t-85 -29.5l-27 -15l-23 69q11 7 32.5 18t95 29.5t155.5 18.5q88 0 150.5 -25.5t93 -70.5t42.5 -105.5t-1 -130.5l-56 -393h-61l2 100h-6q-11 -12 -28 -26t-54.5 -37t-98 -38 t-130.5 -15q-135 0 -204 56t-69 144zM182 193q0 -62 52.5 -101t156.5 -39q115 0 204 55.5t89 114.5q0 58 -73 97.5t-177 39.5q-123 0 -187.5 -46t-64.5 -121zM250 928l14 39q46 131 162 131q45 0 90 -27t86 -53.5t76 -26.5q41 0 63 21.5t37 58.5l13 29l59 -10l-12 -39 q-17 -57 -57.5 -94t-106.5 -37q-46 0 -91.5 26t-85.5 52t-73 26q-41 0 -63 -21.5t-37 -58.5l-11 -29z" />
<glyph unicode="&#xe4;" horiz-adv-x="864" d="M92 184q0 104 89 172t253 68q171 0 260 -82h11l8 61q34 246 -228 246q-63 0 -121 -14.5t-85 -29.5l-27 -15l-23 69q11 7 32.5 18t95 29.5t155.5 18.5q88 0 150.5 -25.5t93 -70.5t42.5 -105.5t-1 -130.5l-56 -393h-61l2 100h-6q-11 -12 -28 -26t-54.5 -37t-98 -38 t-130.5 -15q-135 0 -204 56t-69 144zM182 193q0 -62 52.5 -101t156.5 -39q115 0 204 55.5t89 114.5q0 58 -73 97.5t-177 39.5q-123 0 -187.5 -46t-64.5 -121zM293 981q0 32 25 56t57 24q26 0 43.5 -18.5t17.5 -45.5q0 -32 -24.5 -55.5t-57.5 -23.5q-26 0 -43.5 18.5 t-17.5 44.5zM655 981q0 32 24.5 56t55.5 24q26 0 44 -19t18 -45q0 -32 -24.5 -55.5t-57.5 -23.5q-25 0 -42.5 18.5t-17.5 44.5z" />
<glyph unicode="&#xe5;" horiz-adv-x="864" d="M92 184q0 104 89 172t253 68q171 0 260 -82h11l8 61q34 246 -228 246q-63 0 -121 -14.5t-85 -29.5l-27 -15l-23 69q11 7 32.5 18t95 29.5t155.5 18.5q88 0 150.5 -25.5t93 -70.5t42.5 -105.5t-1 -130.5l-56 -393h-61l2 100h-6q-11 -12 -28 -26t-54.5 -37t-98 -38 t-130.5 -15q-135 0 -204 56t-69 144zM182 193q0 -62 52.5 -101t156.5 -39q115 0 204 55.5t89 114.5q0 58 -73 97.5t-177 39.5q-123 0 -187.5 -46t-64.5 -121zM385 1044q0 84 59.5 140.5t143.5 56.5q69 0 112 -42.5t43 -108.5q0 -84 -59.5 -140.5t-144.5 -56.5 q-69 0 -111.5 42.5t-42.5 108.5zM451 1051q0 -43 25.5 -69t70.5 -26q59 0 95 35t36 92q0 43 -26.5 70t-71.5 27q-57 0 -93 -36t-36 -93z" />
<glyph unicode="&#xe6;" horiz-adv-x="1435" d="M92 186q0 103 87.5 170.5t244.5 67.5q182 0 268 -86h8l9 61q34 252 -226 252q-63 0 -121.5 -14.5t-85.5 -28.5l-28 -14l-21 68q12 7 35 17.5t97 28t151 17.5q224 0 276 -164q58 77 144 120.5t188 43.5q161 0 233 -92t64 -256l-2 -27h-616q-2 -12 -2 -39 q0 -119 75.5 -186.5t190.5 -67.5q64 0 124 16.5t87 32.5l28 17l25 -64q-12 -8 -34.5 -20.5t-95 -33.5t-148.5 -21q-105 0 -186.5 45t-121.5 125q-53 -76 -148 -123t-224 -47q-138 0 -206.5 56.5t-68.5 145.5zM176 193q0 -63 52.5 -100.5t160.5 -37.5q115 0 204 52.5 t89 113.5q0 59 -74.5 98t-175.5 39q-128 0 -192 -45.5t-64 -119.5zM807 416h528q6 101 -52 168t-175 67q-107 0 -189.5 -62.5t-111.5 -172.5z" />
<glyph unicode="&#xe7;" horiz-adv-x="749" d="M125 303q0 183 128.5 302.5t307.5 119.5q42 0 80.5 -6.5t63.5 -15.5t43.5 -18.5t27.5 -16.5l8 -6l-36 -68q-8 6 -23 15t-64.5 24.5t-103.5 15.5q-135 0 -238.5 -95t-103.5 -243q0 -115 74 -183.5t184 -68.5q54 0 105.5 14t76.5 28l25 14l16 -68q-10 -7 -28.5 -17 t-78.5 -27.5t-124 -18.5l-31 -45q57 0 92 -27t35 -82q0 -69 -49.5 -113.5t-132.5 -44.5q-41 0 -72.5 13t-42.5 26l-12 13l31 47q4 -5 12 -12t35 -19t57 -12q52 0 82.5 25t30.5 69q0 32 -23.5 50.5t-62.5 18.5q-11 0 -21 -2t-14 -4l-4 -2l-21 31l49 74q-126 15 -202 100.5 t-76 214.5z" />
<glyph unicode="&#xe8;" horiz-adv-x="854" d="M127 303q0 184 120.5 303t293.5 119q156 0 227.5 -87.5t71.5 -234.5l-6 -55h-619v-37q0 -119 75.5 -186.5t188.5 -67.5q65 0 125.5 17t88.5 34l28 17l22 -64q-4 -3 -12 -8.5t-35.5 -18.5t-57 -23t-75.5 -18.5t-94 -8.5q-154 0 -248 87.5t-94 231.5zM227 418h529 q6 101 -53 167t-175 66q-105 0 -188 -62.5t-113 -170.5zM410 1161l2 21h114l64 -303l-4 -21h-56z" />
<glyph unicode="&#xe9;" horiz-adv-x="854" d="M127 303q0 184 120.5 303t293.5 119q156 0 227.5 -87.5t71.5 -234.5l-6 -55h-619v-37q0 -119 75.5 -186.5t188.5 -67.5q65 0 125.5 17t88.5 34l28 17l22 -64q-4 -3 -12 -8.5t-35.5 -18.5t-57 -23t-75.5 -18.5t-94 -8.5q-154 0 -248 87.5t-94 231.5zM227 418h529 q6 101 -53 167t-175 66q-105 0 -188 -62.5t-113 -170.5zM514 858l2 21l148 303h114l-2 -21l-209 -303h-53z" />
<glyph unicode="&#xea;" horiz-adv-x="854" d="M127 303q0 184 120.5 303t293.5 119q156 0 227.5 -87.5t71.5 -234.5l-6 -55h-619v-37q0 -119 75.5 -186.5t188.5 -67.5q65 0 125.5 17t88.5 34l28 17l22 -64q-4 -3 -12 -8.5t-35.5 -18.5t-57 -23t-75.5 -18.5t-94 -8.5q-154 0 -248 87.5t-94 231.5zM227 418h529 q6 101 -53 167t-175 66q-105 0 -188 -62.5t-113 -170.5zM281 858l2 21l276 303h105l190 -303l-2 -21h-55l-197 240l-264 -240h-55z" />
<glyph unicode="&#xeb;" horiz-adv-x="854" d="M127 303q0 184 120.5 303t293.5 119q156 0 227.5 -87.5t71.5 -234.5l-6 -55h-619v-37q0 -119 75.5 -186.5t188.5 -67.5q65 0 125.5 17t88.5 34l28 17l22 -64q-4 -3 -12 -8.5t-35.5 -18.5t-57 -23t-75.5 -18.5t-94 -8.5q-154 0 -248 87.5t-94 231.5zM227 418h529 q6 101 -53 167t-175 66q-105 0 -188 -62.5t-113 -170.5zM330 981q0 32 25 56t57 24q26 0 43.5 -18.5t17.5 -45.5q0 -32 -24.5 -55.5t-57.5 -23.5q-26 0 -43.5 18.5t-17.5 44.5zM692 981q0 32 24.5 56t55.5 24q26 0 44 -19t18 -45q0 -32 -24.5 -55.5t-57.5 -23.5 q-25 0 -42.5 18.5t-17.5 44.5z" />
<glyph unicode="&#xec;" horiz-adv-x="368" d="M141 0l101 709h88l-101 -709h-88zM152 1161l2 21h114l64 -303l-4 -21h-56z" />
<glyph unicode="&#xed;" horiz-adv-x="368" d="M141 0l101 709h88l-101 -709h-88zM270 858l2 21l148 303h115l-3 -21l-208 -303h-54z" />
<glyph unicode="&#xee;" horiz-adv-x="368" d="M20 858l3 21l276 303h104l191 -303l-2 -21h-55l-197 240l-264 -240h-56zM141 0l101 709h88l-101 -709h-88z" />
<glyph unicode="&#xef;" horiz-adv-x="368" d="M76 981q0 32 25 56t57 24q26 0 43.5 -18.5t17.5 -45.5q0 -32 -24.5 -55.5t-57.5 -23.5q-26 0 -43.5 18.5t-17.5 44.5zM141 0l101 709h88l-101 -709h-88zM438 981q0 32 24.5 56t55.5 24q26 0 44 -19t18 -45q0 -32 -24.5 -55.5t-57.5 -23.5q-25 0 -42.5 18.5t-17.5 44.5z " />
<glyph unicode="&#xf0;" horiz-adv-x="974" d="M125 301q0 177 130.5 297.5t336.5 120.5q106 0 184 -43l-153 287l-271 -144l-24 58l266 141l-102 194l2 17h84l90 -170l233 123l25 -58l-228 -120l181 -338q34 -65 51.5 -120t17.5 -124q0 -196 -131.5 -320.5t-331.5 -124.5q-164 0 -262 88.5t-98 235.5zM217 313 q0 -116 77.5 -188t201.5 -72q147 0 253.5 98.5t106.5 243.5q0 114 -79.5 181t-194.5 67q-153 0 -259 -96t-106 -234z" />
<glyph unicode="&#xf1;" horiz-adv-x="927" d="M135 0l101 709h61l-6 -125h6q109 141 297 141q148 0 218.5 -90t49.5 -238l-55 -397h-90l55 387q16 118 -36 190t-169 72q-60 0 -111.5 -20t-85 -52.5t-55 -67t-30.5 -69.5l-62 -440h-88zM289 928l14 39q46 131 162 131q45 0 90 -27t86 -53.5t76 -26.5q41 0 63 21.5 t37 58.5l12 29l60 -10l-12 -39q-17 -57 -57.5 -94t-106.5 -37q-46 0 -91.5 26t-85.5 52t-73 26q-42 0 -64 -21.5t-37 -58.5l-10 -29z" />
<glyph unicode="&#xf2;" horiz-adv-x="915" d="M125 301q0 185 129.5 304.5t306.5 119.5q143 0 235.5 -89.5t92.5 -236.5q0 -123 -61 -219t-159 -146t-212 -50q-145 0 -238.5 86t-93.5 231zM213 311q0 -115 73 -184.5t181 -69.5q85 0 160.5 39.5t124.5 117.5t49 177q0 117 -71.5 188.5t-178.5 71.5q-86 0 -162.5 -41.5 t-126 -120.5t-49.5 -178zM465 1161l2 21h115l63 -303l-4 -21h-55z" />
<glyph unicode="&#xf3;" horiz-adv-x="915" d="M125 301q0 185 129.5 304.5t306.5 119.5q143 0 235.5 -89.5t92.5 -236.5q0 -123 -61 -219t-159 -146t-212 -50q-145 0 -238.5 86t-93.5 231zM213 311q0 -115 73 -184.5t181 -69.5q85 0 160.5 39.5t124.5 117.5t49 177q0 117 -71.5 188.5t-178.5 71.5q-86 0 -162.5 -41.5 t-126 -120.5t-49.5 -178zM537 858l2 21l147 303h115l-2 -21l-209 -303h-53z" />
<glyph unicode="&#xf4;" horiz-adv-x="915" d="M125 301q0 185 129.5 304.5t306.5 119.5q143 0 235.5 -89.5t92.5 -236.5q0 -123 -61 -219t-159 -146t-212 -50q-145 0 -238.5 86t-93.5 231zM213 311q0 -115 73 -184.5t181 -69.5q85 0 160.5 39.5t124.5 117.5t49 177q0 117 -71.5 188.5t-178.5 71.5q-86 0 -162.5 -41.5 t-126 -120.5t-49.5 -178zM289 858l2 21l276 303h105l190 -303l-2 -21h-55l-197 240l-264 -240h-55z" />
<glyph unicode="&#xf5;" horiz-adv-x="915" d="M125 301q0 185 129.5 304.5t306.5 119.5q143 0 235.5 -89.5t92.5 -236.5q0 -123 -61 -219t-159 -146t-212 -50q-145 0 -238.5 86t-93.5 231zM213 311q0 -115 73 -184.5t181 -69.5q85 0 160.5 39.5t124.5 117.5t49 177q0 117 -71.5 188.5t-178.5 71.5q-86 0 -162.5 -41.5 t-126 -120.5t-49.5 -178zM303 928l14 39q46 131 162 131q45 0 90 -27t86 -53.5t76 -26.5q41 0 63 21.5t37 58.5l13 29l59 -10l-12 -39q-17 -57 -57.5 -94t-106.5 -37q-46 0 -91.5 26t-85.5 52t-73 26q-41 0 -63 -21.5t-37 -58.5l-10 -29z" />
<glyph unicode="&#xf6;" horiz-adv-x="915" d="M125 301q0 185 129.5 304.5t306.5 119.5q143 0 235.5 -89.5t92.5 -236.5q0 -123 -61 -219t-159 -146t-212 -50q-145 0 -238.5 86t-93.5 231zM213 311q0 -115 73 -184.5t181 -69.5q85 0 160.5 39.5t124.5 117.5t49 177q0 117 -71.5 188.5t-178.5 71.5q-86 0 -162.5 -41.5 t-126 -120.5t-49.5 -178zM334 981q0 32 25 56t57 24q26 0 43.5 -18.5t17.5 -45.5q0 -32 -24.5 -55.5t-57.5 -23.5q-26 0 -43.5 18.5t-17.5 44.5zM696 981q0 32 24.5 56t55.5 24q26 0 44 -19t18 -45q0 -32 -24.5 -55.5t-57.5 -23.5q-25 0 -42.5 18.5t-17.5 44.5z" />
<glyph unicode="&#xf7;" horiz-adv-x="1052" d="M221 567l10 78h773l-11 -78h-772zM494 324q0 35 27 60.5t63 25.5q29 0 48 -20t19 -50q0 -35 -26 -59.5t-62 -24.5q-29 0 -49 19.5t-20 48.5zM573 885q0 35 27.5 60.5t63.5 25.5q29 0 48 -20t19 -50q0 -35 -27 -59.5t-63 -24.5q-29 0 -48.5 19.5t-19.5 48.5z" />
<glyph unicode="&#xf8;" horiz-adv-x="915" d="M88 27l94 82q-57 79 -57 192q0 185 129.5 304.5t306.5 119.5q137 0 227 -84l99 90l37 -41l-101 -88q66 -85 66 -203q0 -123 -61 -219t-159 -146t-212 -50q-148 0 -240 86l-94 -84zM213 311q0 -82 39 -143l473 416q-70 67 -174 67q-86 0 -162.5 -41.5t-126 -120.5 t-49.5 -178zM285 127q70 -70 182 -70q85 0 160.5 39.5t124.5 117.5t49 177q0 89 -43 154z" />
<glyph unicode="&#xf9;" horiz-adv-x="919" d="M166 311l55 398h90l-55 -387q-16 -119 32.5 -191t164.5 -72q64 0 118 22.5t87.5 57t53.5 70t25 67.5l60 433h88l-99 -709h-59v125h-4q-6 -9 -14.5 -19.5t-35 -34.5t-57.5 -41.5t-82 -31.5t-108 -14q-147 0 -214 89t-46 238zM469 1161l2 21h115l63 -303l-4 -21h-55z" />
<glyph unicode="&#xfa;" horiz-adv-x="919" d="M166 311l55 398h90l-55 -387q-16 -119 32.5 -191t164.5 -72q64 0 118 22.5t87.5 57t53.5 70t25 67.5l60 433h88l-99 -709h-59v125h-4q-6 -9 -14.5 -19.5t-35 -34.5t-57.5 -41.5t-82 -31.5t-108 -14q-147 0 -214 89t-46 238zM506 858l2 21l147 303h115l-2 -21l-209 -303 h-53z" />
<glyph unicode="&#xfb;" horiz-adv-x="919" d="M166 311l55 398h90l-55 -387q-16 -119 32.5 -191t164.5 -72q64 0 118 22.5t87.5 57t53.5 70t25 67.5l60 433h88l-99 -709h-59v125h-4q-6 -9 -14.5 -19.5t-35 -34.5t-57.5 -41.5t-82 -31.5t-108 -14q-147 0 -214 89t-46 238zM285 858l2 21l276 303h105l190 -303l-2 -21 h-55l-197 240l-264 -240h-55z" />
<glyph unicode="&#xfc;" horiz-adv-x="919" d="M166 311l55 398h90l-55 -387q-16 -119 32.5 -191t164.5 -72q64 0 118 22.5t87.5 57t53.5 70t25 67.5l60 433h88l-99 -709h-59v125h-4q-6 -9 -14.5 -19.5t-35 -34.5t-57.5 -41.5t-82 -31.5t-108 -14q-147 0 -214 89t-46 238zM340 981q0 32 25 56t57 24q26 0 43.5 -18.5 t17.5 -45.5q0 -32 -24.5 -55.5t-57.5 -23.5q-26 0 -43.5 18.5t-17.5 44.5zM702 981q0 32 24.5 56t55.5 24q26 0 44 -19t18 -45q0 -32 -24.5 -55.5t-57.5 -23.5q-25 0 -42.5 18.5t-17.5 44.5z" />
<glyph unicode="&#xfd;" horiz-adv-x="825" d="M113 -393l264 420l-240 682h99l188 -559q6 -21 6 -46h6q4 20 19 46l346 559h92l-686 -1102h-94zM475 858l2 21l148 303h114l-2 -21l-209 -303h-53z" />
<glyph unicode="&#xfe;" horiz-adv-x="960" d="M78 -393l227 1622h88l-94 -676h4q4 7 11.5 18.5t35.5 41t61.5 52.5t90.5 41.5t121 18.5q136 0 222.5 -88t86.5 -231q0 -121 -58 -218.5t-152.5 -150.5t-203.5 -53q-64 0 -115.5 18t-79 43.5t-46 51t-23.5 43.5l-6 18h-4l-78 -551h-88zM264 313q0 -117 71.5 -185.5 t180.5 -68.5q133 0 229.5 96t96.5 240q0 112 -68 183t-174 71q-87 0 -163 -39.5t-124.5 -117.5t-48.5 -179z" />
<glyph unicode="&#xff;" horiz-adv-x="825" d="M113 -393l264 420l-240 682h99l188 -559q6 -21 6 -46h6q4 20 19 46l346 559h92l-686 -1102h-94zM301 981q0 32 25 56t57 24q26 0 43.5 -18.5t17.5 -45.5q0 -32 -24.5 -55.5t-57.5 -23.5q-26 0 -43.5 18.5t-17.5 44.5zM664 981q0 32 24 56t55 24q26 0 44 -19t18 -45 q0 -32 -24.5 -55.5t-57.5 -23.5q-25 0 -42 18.5t-17 44.5z" />
<glyph unicode="&#x152;" horiz-adv-x="2222" d="M170 524q0 201 92.5 368t259 265t373.5 98q182 0 310.5 -84.5t187.5 -230.5l41 289h874l-10 -84h-787l-69 -496h692l-12 -84h-692l-68 -481h786l-12 -84h-874l36 260q-99 -135 -250 -212t-333 -77q-167 0 -292 73t-189 197.5t-64 282.5zM262 537q0 -133 52 -240.5 t159 -173.5t254 -66q137 0 255 52t196.5 139t123 201.5t44.5 238.5q0 135 -51 242t-157.5 173t-254.5 66q-137 0 -254.5 -52t-197 -139.5t-124.5 -202t-45 -238.5z" />
<glyph unicode="&#x153;" horiz-adv-x="1521" d="M119 301q0 185 129.5 304.5t306.5 119.5q106 0 186 -50.5t117 -139.5q56 90 148 140t202 50q156 0 227.5 -87.5t71.5 -234.5l-6 -55h-618v-37q0 -119 75.5 -186.5t188.5 -67.5q65 0 125.5 17t88.5 34l28 17l22 -64q-4 -3 -12 -8.5t-35.5 -18.5t-57 -23t-75.5 -18.5 t-94 -8.5q-117 0 -201 50t-119 140q-58 -90 -155.5 -140t-210.5 -50q-145 0 -238.5 86t-93.5 231zM207 311q0 -115 73 -184.5t181 -69.5q85 0 160.5 39.5t124.5 117.5t49 177q0 117 -71.5 188.5t-178.5 71.5q-86 0 -162.5 -41.5t-126 -120.5t-49.5 -178zM895 418h528 q6 101 -53 167t-174 66q-105 0 -188 -62.5t-113 -170.5z" />
<glyph unicode="&#x178;" horiz-adv-x="1095" d="M193 1229h106l299 -611l23 -59h14l41 59l469 611h104l-590 -756l-65 -473h-92l65 473zM487 1436q0 32 25 56t57 24q26 0 44 -19t18 -45q0 -32 -25 -56t-57 -24q-26 0 -44 19t-18 45zM850 1436q0 32 24.5 56t55.5 24q26 0 43.5 -18.5t17.5 -45.5q0 -32 -25 -56t-57 -24 q-25 0 -42 19t-17 45z" />
<glyph unicode="&#x2c6;" horiz-adv-x="673" d="M180 858l2 21l277 303h104l191 -303l-2 -21h-56l-196 240l-264 -240h-56z" />
<glyph unicode="&#x2dc;" horiz-adv-x="880" d="M270 928l15 39q46 131 161 131q45 0 90 -27t86 -53.5t76 -26.5q42 0 64 21.5t37 58.5l12 29l59 -10l-12 -39q-17 -57 -57.5 -94t-106.5 -37q-46 0 -91.5 26t-85.5 52t-73 26q-41 0 -63 -21.5t-37 -58.5l-10 -29z" />
<glyph unicode="&#x2000;" horiz-adv-x="815" />
<glyph unicode="&#x2001;" horiz-adv-x="1630" />
<glyph unicode="&#x2002;" horiz-adv-x="815" />
<glyph unicode="&#x2003;" horiz-adv-x="1630" />
<glyph unicode="&#x2004;" horiz-adv-x="543" />
<glyph unicode="&#x2005;" horiz-adv-x="407" />
<glyph unicode="&#x2006;" horiz-adv-x="271" />
<glyph unicode="&#x2007;" horiz-adv-x="271" />
<glyph unicode="&#x2008;" horiz-adv-x="203" />
<glyph unicode="&#x2009;" horiz-adv-x="326" />
<glyph unicode="&#x200a;" horiz-adv-x="90" />
<glyph unicode="&#x2010;" horiz-adv-x="821" d="M201 569l10 78h580l-11 -78h-579z" />
<glyph unicode="&#x2011;" horiz-adv-x="821" d="M201 569l10 78h580l-11 -78h-579z" />
<glyph unicode="&#x2012;" horiz-adv-x="821" d="M201 569l10 78h580l-11 -78h-579z" />
<glyph unicode="&#x2013;" horiz-adv-x="935" d="M199 551l10 78h694l-10 -78h-694z" />
<glyph unicode="&#x2014;" horiz-adv-x="1501" d="M199 551l10 78h1259l-10 -78h-1259z" />
<glyph unicode="&#x2018;" horiz-adv-x="368" d="M254 1135v10q7 40 35 82l112 164h72l-98 -142q-6 -9 -13.5 -16.5t-11.5 -10.5l-4 -3v-5q28 -2 44 -18.5t16 -44.5q0 -36 -24 -60t-60 -24q-28 0 -48 19t-20 49z" />
<glyph unicode="&#x2019;" horiz-adv-x="370" d="M246 1018l98 141q6 9 13.5 16.5t11.5 10.5l4 4v4q-28 2 -44 18.5t-16 44.5q0 36 24 60t60 24q29 0 48.5 -18.5t19.5 -48.5v-10q-7 -40 -35 -82l-113 -164h-71z" />
<glyph unicode="&#x201a;" horiz-adv-x="243" d="M-12 -193l98 142q6 9 13.5 16.5t11.5 10.5l4 4v4q-28 2 -44 18.5t-16 44.5q0 36 24 60t60 24q28 0 48 -19t20 -49v-10q-7 -40 -35 -82l-113 -164h-71z" />
<glyph unicode="&#x201c;" horiz-adv-x="706" d="M254 1135v10q7 40 35 82l112 164h72l-98 -142q-6 -9 -13.5 -16.5t-11.5 -10.5l-4 -3v-5q28 -2 44 -18.5t16 -44.5q0 -36 -24 -60t-60 -24q-28 0 -48 19t-20 49zM590 1135v10q7 40 35 82l112 164h72l-98 -142q-6 -9 -13.5 -16.5t-11.5 -10.5l-4 -3v-5q28 -1 43.5 -18 t15.5 -45q0 -36 -24 -60t-60 -24q-28 0 -47.5 19t-19.5 49z" />
<glyph unicode="&#x201d;" horiz-adv-x="696" d="M242 1018l98 141q6 9 13.5 16.5t11.5 10.5l4 4v4q-28 2 -44 18.5t-16 44.5q0 36 24 60t60 24q29 0 48.5 -18.5t19.5 -48.5v-10q-7 -40 -35 -82l-113 -164h-71zM567 1018l99 141q6 9 13 16.5t11 10.5l4 4v4q-28 1 -43.5 18t-15.5 45q0 36 24 60t60 24q28 0 47.5 -18.5 t19.5 -48.5v-10q-7 -42 -34 -82l-113 -164h-72z" />
<glyph unicode="&#x201e;" horiz-adv-x="708" d="M-12 -193l98 142q6 9 13.5 16.5t11.5 10.5l4 4v4q-28 2 -44 18.5t-16 44.5q0 36 24 60t60 24q28 0 48 -19t20 -49v-10q-7 -40 -35 -82l-113 -164h-71zM453 -193l98 142q6 9 13.5 16.5t11.5 10.5l4 4v4q-28 2 -44 18.5t-16 44.5q0 36 24 60t60 24q28 0 48 -19t20 -49v-10 q-7 -40 -35 -82l-113 -164h-71z" />
<glyph unicode="&#x2022;" horiz-adv-x="595" d="M221 340q0 56 44 98.5t102 42.5q45 0 76.5 -33t31.5 -79q0 -56 -43.5 -98t-99.5 -42q-49 0 -80 32t-31 79z" />
<glyph unicode="&#x2026;" horiz-adv-x="796" d="M57 51q0 37 26.5 62.5t63.5 25.5q31 0 50.5 -19.5t19.5 -49.5q0 -36 -27.5 -62t-64.5 -26q-30 0 -49 19.5t-19 49.5zM328 51q0 36 27 62t63 26q30 0 49.5 -19.5t19.5 -47.5q0 -37 -27 -63.5t-65 -26.5q-29 0 -48 20t-19 49zM600 51q0 37 26.5 62.5t63.5 25.5 q30 0 50 -19.5t20 -49.5q0 -36 -27.5 -62t-64.5 -26q-30 0 -49 19.5t-19 49.5z" />
<glyph unicode="&#x202f;" horiz-adv-x="326" />
<glyph unicode="&#x2039;" horiz-adv-x="487" d="M139 334l4 35l263 319h81l-2 -14l-258 -318l-2 -6l170 -321l-2 -15h-82z" />
<glyph unicode="&#x203a;" horiz-adv-x="487" d="M98 14l2 15l260 321v6l-170 318l3 14h79l172 -319l-4 -35l-262 -320h-80z" />
<glyph unicode="&#x205f;" horiz-adv-x="407" />
<glyph unicode="&#x20ac;" d="M154 430l10 76h160q0 97 26 211h-155l10 76h168q70 200 222.5 324t369.5 124q67 0 125.5 -14.5t94.5 -35.5t62 -42.5t37 -36.5l10 -14l-67 -68q-3 5 -9.5 13.5t-30.5 29.5t-52.5 37t-77 29.5t-103.5 13.5q-175 0 -298 -98t-185 -262h506l-10 -76h-521q-14 -48 -20 -103 q-8 -49 -8 -108h518l-10 -76h-504q16 -162 111.5 -258t269.5 -96q55 0 106.5 12.5t86.5 31t62 36.5t40 30l12 13l47 -64q-5 -6 -15.5 -15.5t-45.5 -34.5t-74.5 -44.5t-103 -35t-130.5 -15.5q-214 0 -331 121.5t-133 318.5h-170z" />
<glyph unicode="&#x2122;" horiz-adv-x="1519" d="M242 1165l8 64h510l-8 -64h-220l-81 -590h-72l82 590h-219zM809 575l90 654h31l248 -271q50 40 169.5 141t155.5 130h29l-90 -654h-72l74 525l-264 -217h-27l-199 215l-73 -523h-72z" />
<glyph unicode="&#x25fc;" horiz-adv-x="706" d="M0 0v707h707v-707h-707z" />
<glyph unicode="&#xfb01;" horiz-adv-x="1050" d="M119 635l10 74h176l47 325q45 330 328 330q23 0 45 -3.5t37.5 -9t27.5 -10.5t18 -9l7 -3l-39 -76q-47 29 -100 29q-102 0 -159.5 -59.5t-76.5 -188.5l-47 -325h297l-10 -74h-297l-88 -635h-88l88 635h-176zM821 0l101 709h88l-101 -709h-88zM950 1073q0 31 22.5 52.5 t53.5 21.5q25 0 41 -16t16 -41q0 -30 -22 -51t-53 -21q-25 0 -41.5 15.5t-16.5 39.5z" />
<glyph unicode="&#xfb02;" horiz-adv-x="1030" d="M119 635l10 74h176l47 325q45 330 328 330q23 0 45 -3.5t37.5 -9t27.5 -10.5t18 -9l7 -3l-39 -76q-47 29 -100 29q-102 0 -159.5 -59.5t-76.5 -188.5l-47 -325h297l-10 -74h-297l-88 -635h-88l88 635h-176zM801 0l192 1368h88l-192 -1368h-88z" />
<glyph unicode="&#xfb03;" horiz-adv-x="1746" d="M119 635l10 74h176l47 325q45 330 328 330q23 0 45 -3.5t37.5 -9t27.5 -10.5t18 -9l7 -3l-39 -76q-47 29 -100 29q-102 0 -159.5 -59.5t-76.5 -188.5l-47 -325h297l-10 -74h-297l-88 -635h-88l88 635h-176zM815 635l10 74h176l48 325q45 330 327 330q23 0 45 -3.5 t37.5 -9t27.5 -10.5t18 -9l7 -3l-38 -76q-48 29 -101 29q-102 0 -159 -59.5t-76 -188.5l-47 -325h296l-10 -74h-297l-88 -635h-88l88 635h-176zM1518 0l100 709h88l-100 -709h-88zM1647 1073q0 31 22 52.5t53 21.5q25 0 41.5 -16t16.5 -41q0 -30 -22.5 -51t-53.5 -21 q-25 0 -41 15t-16 40z" />
<glyph unicode="&#xfb04;" horiz-adv-x="1722" d="M119 635l10 74h176l47 325q45 330 328 330q23 0 45 -3.5t37.5 -9t27.5 -10.5t18 -9l7 -3l-39 -76q-47 29 -100 29q-102 0 -159.5 -59.5t-76.5 -188.5l-47 -325h297l-10 -74h-297l-88 -635h-88l88 635h-176zM815 635l10 74h176l48 325q45 330 327 330q23 0 45 -3.5 t37.5 -9t27.5 -10.5t18 -9l7 -3l-38 -76q-48 29 -101 29q-102 0 -159 -59.5t-76 -188.5l-47 -325h296l-10 -74h-297l-88 -635h-88l88 635h-176zM1493 0l193 1368h88l-193 -1368h-88z" />
</font>
</defs>
</svg>
