<?xml version="1.0" standalone="no"?>
<!DOCTYPE svg PUBLIC "-//W3C//DTD SVG 1.1//EN" "http://www.w3.org/Graphics/SVG/1.1/DTD/svg11.dtd" >
<svg xmlns="http://www.w3.org/2000/svg">
<metadata></metadata>
<defs>
<font id="arquitecta_mediumMdIt" horiz-adv-x="868" >
<font-face units-per-em="2048" ascent="1536" descent="-512" />
<missing-glyph horiz-adv-x="401" />
<glyph horiz-adv-x="0" />
<glyph horiz-adv-x="682" />
<glyph horiz-adv-x="0" />
<glyph horiz-adv-x="0" />
<glyph unicode="&#xd;" horiz-adv-x="284" />
<glyph unicode=" "  horiz-adv-x="401" />
<glyph unicode="&#x09;" horiz-adv-x="401" />
<glyph unicode="&#xa0;" horiz-adv-x="401" />
<glyph unicode="!" horiz-adv-x="495" d="M147 84q0 52 38 89.5t91 37.5q42 0 71.5 -29.5t29.5 -70.5q0 -52 -39 -89.5t-92 -37.5q-42 0 -70.5 29t-28.5 71zM240 358l65 795l10 76h203l-10 -76l-152 -795h-116z" />
<glyph unicode="&#x22;" horiz-adv-x="634" d="M231 948q17 85 52.5 237t44.5 191h153l-4 -30l-139 -398h-107zM504 948q16 86 52.5 237.5t45.5 190.5h150l-4 -30l-138 -398h-106z" />
<glyph unicode="#" horiz-adv-x="1327" d="M115 322l37 106h251l123 336h-241l37 104h243l119 326h113l-119 -326h338l119 326h112l-119 -326h252l-41 -104h-249l-123 -336h241l-37 -106h-243l-117 -322h-113l117 322h-338l-117 -322h-112l117 322h-250zM516 428h338l123 336h-338z" />
<glyph unicode="$" horiz-adv-x="1105" d="M102 121l111 127q5 -5 14.5 -13t42.5 -28.5t70.5 -36t98.5 -28.5t126 -13q163 0 243.5 59t80.5 158q0 68 -63.5 113t-229.5 94q-200 59 -290.5 132.5t-90.5 191.5q0 164 122.5 265t336.5 111l24 168h129l-24 -168q71 -5 133 -19t100 -30t66 -31.5t40 -25.5l11 -10 l-113 -140q-4 4 -13 11t-40 24.5t-67 30.5t-94 24t-121 11q-137 0 -223.5 -52.5t-86.5 -142.5q0 -61 65 -102.5t232 -87.5q204 -58 291.5 -137.5t87.5 -198.5q0 -164 -113 -274t-335 -128l-23 -168h-129l23 166q-79 4 -148 20.5t-112 37.5t-74.5 41.5t-44.5 34.5z" />
<glyph unicode="%" horiz-adv-x="1376" d="M168 86l1120 1155l94 -84l-1124 -1155zM203 903q0 143 90 247.5t235 104.5q113 0 175.5 -75t62.5 -187q0 -141 -91 -247.5t-233 -106.5q-114 0 -176.5 76t-62.5 188zM346 911q0 -68 28.5 -107.5t86.5 -39.5q74 0 119 63.5t45 157.5q0 68 -29.5 108t-83.5 40 q-80 0 -123 -62.5t-43 -159.5zM782 248q0 142 91.5 247t234.5 105q114 0 177 -75.5t63 -188.5q0 -90 -39 -170t-115 -131t-172 -51q-113 0 -176.5 76.5t-63.5 187.5zM926 256q0 -66 29.5 -106.5t84.5 -40.5q77 0 120.5 63t43.5 158q0 68 -28.5 107.5t-83.5 39.5 q-75 0 -120.5 -62.5t-45.5 -158.5z" />
<glyph unicode="&#x26;" horiz-adv-x="1282" d="M154 287q0 76 25.5 137.5t74.5 106.5t100 76t123 63l-12 16q-94 108 -94 238q0 145 106.5 238t270.5 93q146 0 226.5 -73t80.5 -183q0 -59 -19 -109.5t-48 -87t-75.5 -70.5t-88.5 -56.5t-101 -48.5l270 -299q86 126 105 274l6 43h164l-6 -41q-33 -215 -170 -385l182 -203 l-2 -16h-195l-98 109q-172 -136 -399 -136q-205 0 -315.5 86t-110.5 228zM340 313q0 -84 70 -138t190 -54q161 0 285 92l-310 348q-113 -51 -174 -107.5t-61 -140.5zM530 926q0 -94 97 -195q49 20 83 36.5t71 39.5t59 46.5t36.5 55.5t14.5 68q0 60 -39 98.5t-121 38.5 q-87 0 -144 -51.5t-57 -136.5z" />
<glyph unicode="'" horiz-adv-x="362" d="M231 948q17 85 52.5 237t44.5 191h153l-4 -30l-139 -398h-107z" />
<glyph unicode="(" horiz-adv-x="669" d="M127 406q0 125 27.5 242.5t70.5 206.5t103 170.5t117.5 138t121.5 105.5t107.5 75.5t83.5 46.5l67 -119q-37 -21 -69 -42t-88.5 -65.5t-102 -91t-97 -118t-86.5 -148t-58 -179t-23 -212.5q0 -109 25.5 -207.5t60 -164t82 -123.5t81 -86.5t66.5 -51.5l-100 -119 q-39 23 -83 58.5t-100.5 102t-100.5 145.5t-74.5 194t-30.5 242z" />
<glyph unicode=")" horiz-adv-x="669" d="M-8 -217q37 20 70.5 42t89.5 65.5t102 90.5t97 118t86 148t58 179.5t23 212.5q0 79 -13 152.5t-34 130t-50.5 108.5t-57.5 88.5t-61 69t-55.5 51t-45.5 33.5l102 119q39 -23 82 -58t100 -102t101 -146t75 -194t31 -242q0 -125 -27.5 -242t-70.5 -206t-103.5 -171 t-118 -138t-121.5 -105.5t-107 -76t-83 -46.5z" />
<glyph unicode="*" horiz-adv-x="841" d="M268 1210l58 125l51 -18l133 -78l-33 -68l-155 23zM317 956l39 50l133 112l52 -41l-90 -149l-43 -47zM559 1434l8 59h129l-8 -59l-51 -158h-74zM604 1077l66 39l100 -110l29 -50l-119 -75l-25 47zM682 1239l154 78l57 18l20 -125l-57 -16l-164 -23z" />
<glyph unicode="+" horiz-adv-x="991" d="M168 545l18 137h334l47 330h144l-47 -330h329l-18 -137h-330l-45 -320h-143l45 320h-334z" />
<glyph unicode="," horiz-adv-x="319" d="M6 -195l92 132q8 12 18 22t16 14l5 4v9q-33 4 -53.5 30t-20.5 62q0 51 36 87t87 36q41 0 69 -28t28 -69q0 -66 -60 -153l-102 -146h-115z" />
<glyph unicode="-" horiz-adv-x="796" d="M178 530l21 140h587l-20 -140h-588z" />
<glyph unicode="." horiz-adv-x="319" d="M63 78q0 52 37 88.5t88 36.5q41 0 68 -28.5t27 -68.5q0 -52 -36.5 -87t-88.5 -35q-41 0 -68 27t-27 67z" />
<glyph unicode="/" horiz-adv-x="739" d="M8 -360l707 1800h168l-707 -1800h-168z" />
<glyph unicode="0" horiz-adv-x="1273" d="M170 512q0 147 46 281.5t127.5 237t204 163.5t265.5 61q113 0 202.5 -41.5t146.5 -115t86.5 -170.5t29.5 -211q0 -147 -46 -282t-128 -238t-204.5 -164.5t-266.5 -61.5q-149 0 -255.5 74t-157 194t-50.5 273zM344 526q0 -174 80 -283.5t231 -109.5q136 0 240 79.5 t156.5 207.5t52.5 280q0 113 -33.5 201t-105 141.5t-172.5 53.5q-137 0 -241 -80.5t-156 -208.5t-52 -281z" />
<glyph unicode="1" horiz-adv-x="667" d="M195 1075l22 154h438l-174 -1229h-168l152 1075h-270z" />
<glyph unicode="2" horiz-adv-x="1046" d="M88 0l6 37l615 592q98 93 129.5 143t31.5 119q0 89 -62.5 146t-172.5 57q-52 0 -105 -14.5t-90.5 -33t-72 -42t-49 -35.5t-21.5 -19l-76 135q7 7 21 18.5t59 40.5t93.5 51.5t122 41t147.5 18.5q191 0 292 -90.5t101 -234.5q0 -99 -41.5 -177.5t-145.5 -177.5l-436 -421 h547l-23 -154h-870z" />
<glyph unicode="3" horiz-adv-x="1058" d="M86 141q19 22 55.5 70.5t46.5 60.5q5 -6 15 -15.5t44 -33.5t70 -43t92 -34t113 -15q147 0 236.5 73t89.5 187q0 93 -62.5 148t-173.5 55h-172q6 30 6 49l373 432h-543l23 154h817l-6 -37l-403 -467q151 -6 234 -90t83 -225q0 -189 -141 -314t-379 -125q-43 0 -85 5.5 t-76 15.5t-65.5 22.5t-57 26.5t-46.5 27.5t-37 26.5t-27 23t-18 16z" />
<glyph unicode="4" horiz-adv-x="1124" d="M92 285l17 123l839 821h127l-114 -791h149l-23 -153h-147l-41 -285h-168l39 285h-678zM338 438h455l73 520l-487 -481q-5 -5 -14.5 -10.5t-16.5 -8.5l-6 -3z" />
<glyph unicode="5" horiz-adv-x="1046" d="M84 143l106 131q5 -6 15.5 -15.5t44 -34t70 -43.5t92.5 -34.5t112 -15.5q147 0 235.5 74t88.5 198q0 91 -74 145t-209 54q-81 0 -154.5 -11.5t-100.5 -20.5t-36 -13l-24 23l110 649h715l-20 -154h-555l-60 -338q92 15 164 15q210 0 315 -87.5t105 -238.5 q0 -205 -138 -330t-384 -125q-75 0 -145.5 17.5t-118 43t-84 51t-53.5 43.5z" />
<glyph unicode="6" horiz-adv-x="1052" d="M143 315q0 197 170 422l375 492h207l-338 -436q-13 -16 -29 -31t-26 -22l-10 -7l-3 -12q81 43 173 43q182 0 287.5 -94t105.5 -246q0 -134 -69.5 -238.5t-185 -159.5t-255.5 -55q-184 0 -293 92.5t-109 251.5zM319 334q0 -92 69.5 -149.5t178.5 -57.5q135 0 222.5 79 t87.5 197q0 93 -64 151t-178 58q-142 0 -229 -78.5t-87 -199.5z" />
<glyph unicode="7" horiz-adv-x="946" d="M166 0l670 1075h-609l21 154h856l-4 -41l-729 -1188h-205z" />
<glyph unicode="8" horiz-adv-x="1107" d="M143 299q0 117 66.5 208.5t183.5 143.5q-121 80 -121 230q0 158 128 266t333 108q169 0 266 -84.5t97 -214.5q0 -95 -52.5 -177t-144.5 -132q77 -43 119.5 -112t42.5 -156q0 -169 -140.5 -288.5t-367.5 -119.5q-194 0 -302 93.5t-108 234.5zM319 324q0 -83 69 -140 t185 -57q134 0 224 72t90 172q0 91 -69 149t-181 58q-134 0 -226 -73t-92 -181zM444 887q0 -79 56 -128.5t155 -49.5q118 0 192.5 64t74.5 159q0 73 -57 120.5t-154 47.5q-118 0 -192.5 -61t-74.5 -152z" />
<glyph unicode="9" horiz-adv-x="1054" d="M172 803q0 134 69.5 238.5t184.5 159t254 54.5q185 0 294 -93t109 -251q0 -203 -168 -422l-374 -489h-209l336 434q13 16 29 31t26 22l10 7v8q-77 -41 -170 -41q-180 0 -285.5 95t-105.5 247zM352 823q0 -93 64 -150t178 -57q137 0 224 75t87 186q0 105 -67 163t-176 58 q-135 0 -222.5 -78.5t-87.5 -196.5z" />
<glyph unicode=":" horiz-adv-x="415" d="M109 80q0 51 38 87t89 36q41 0 67.5 -28.5t26.5 -68.5q0 -52 -36.5 -87t-88.5 -35q-42 0 -69 27t-27 69zM180 596q0 49 38.5 85t88.5 36q42 0 68 -27.5t26 -68.5q0 -51 -37 -87t-88 -36q-41 0 -68.5 28.5t-27.5 69.5z" />
<glyph unicode=";" horiz-adv-x="450" d="M78 -195l92 132q8 12 17 22t15 14l5 4v9q-34 6 -55 31.5t-21 62.5q0 50 37.5 85.5t89.5 35.5q41 0 68.5 -28t27.5 -69q0 -66 -53 -141l-111 -158h-112zM207 594q0 51 37 87t88 36q42 0 69 -28t27 -68q0 -49 -38 -86t-89 -37q-42 0 -68 27.5t-26 68.5z" />
<glyph unicode="&#x3c;" horiz-adv-x="774" d="M154 565l6 47l561 475l84 -102l-469 -397l356 -395l-112 -103z" />
<glyph unicode="=" horiz-adv-x="1081" d="M211 336l18 137h754l-18 -137h-754zM266 725l19 139h753l-18 -139h-754z" />
<glyph unicode="&#x3e;" horiz-adv-x="774" d="M135 193l469 395l-358 397l112 102l428 -475l-6 -47l-561 -475z" />
<glyph unicode="?" horiz-adv-x="786" d="M238 1186q5 3 14 7.5t40 16.5t64.5 21t86 16.5t106.5 7.5q136 0 212.5 -70t76.5 -179q0 -74 -23.5 -134.5t-59 -99t-80.5 -79.5t-85.5 -75.5t-76 -87t-50.5 -112.5l-14 -66h-113l10 80q8 62 35.5 116.5t62 91t73.5 75.5t71 72t53 78.5t21 97.5q0 68 -45.5 109.5 t-122.5 41.5q-58 0 -112 -15t-78 -29l-25 -15zM250 78q0 52 37 88.5t88 36.5q41 0 68.5 -28.5t27.5 -70.5q0 -50 -37.5 -85t-89.5 -35q-41 0 -67.5 27t-26.5 67z" />
<glyph unicode="@" horiz-adv-x="1871" d="M119 250q0 156 43.5 303.5t129.5 272t205 218t278 146.5t339 53q149 0 273 -38.5t209 -104t144 -152.5t86 -182.5t27 -196.5q0 -165 -52 -299t-155 -215.5t-239 -81.5q-58 0 -102.5 15.5t-66.5 38t-36 45t-17 38.5l-3 15h-13q-7 -13 -18.5 -27t-37 -35.5t-56.5 -38 t-80 -28.5t-105 -12q-139 0 -225 87t-86 232q0 188 121 305t295 117q59 0 105.5 -12.5t74.5 -33.5t43.5 -40.5t24.5 -40.5l41 111h114l-63 -447q-19 -149 119 -149q122 0 198 124t76 310q0 117 -40 218.5t-115.5 178.5t-193.5 121.5t-265 44.5q-238 0 -429.5 -110.5 t-299 -303t-107.5 -428.5q0 -184 73 -327t215.5 -225.5t334.5 -82.5q108 0 203.5 19.5t136.5 39.5l41 19l39 -119q-6 -4 -17.5 -10t-52.5 -22t-87.5 -28t-123.5 -22t-160 -10q-181 0 -325 59.5t-234 163t-137 238t-47 289.5zM727 324q0 -91 53.5 -147t139.5 -56 q110 0 186 75t76 195q0 92 -54 144.5t-143 52.5q-107 0 -182.5 -74.5t-75.5 -189.5z" />
<glyph unicode="A" horiz-adv-x="1251" d="M-2 0l782 1229h35l440 -1229h-192l-72 201h-676l-127 -201h-190zM410 350h528l-10 21l-168 528h-19l-315 -528z" />
<glyph unicode="B" horiz-adv-x="1300" d="M170 0l172 1229h553q190 0 293.5 -74.5t103.5 -214.5q0 -113 -59 -190.5t-162 -112.5l-2 -16q87 -27 136.5 -89t49.5 -151q0 -184 -140 -282.5t-370 -98.5h-575zM358 154h416q131 0 218 58t87 163q0 78 -66 125t-169 47h-430zM434 694h383q134 0 215.5 59t81.5 158 q0 164 -244 164h-383z" />
<glyph unicode="C" horiz-adv-x="1206" d="M164 530q0 147 56.5 280.5t154.5 231t236 155.5t294 58q82 0 154 -16t116 -38.5t76.5 -45.5t46.5 -39l13 -16l-115 -131q-4 5 -13 13.5t-38.5 30.5t-63 39t-87 30.5t-109.5 13.5q-150 0 -276 -74t-198.5 -199t-72.5 -272q0 -179 112.5 -299.5t297.5 -120.5q58 0 115 13 t97.5 32t72 37.5t47.5 31.5l16 13l78 -131q-7 -6 -19.5 -16.5t-55.5 -37.5t-91.5 -47.5t-126 -37.5t-158.5 -17q-128 0 -234 43.5t-176.5 119t-109.5 177.5t-39 219z" />
<glyph unicode="D" horiz-adv-x="1351" d="M170 0l172 1229h440q265 0 420.5 -144.5t155.5 -386.5q0 -205 -96.5 -364.5t-267 -246.5t-384.5 -87h-440zM358 154h263q92 0 176.5 22.5t154.5 67t122 107t81 146.5t29 181q0 186 -120 291.5t-314 105.5h-263z" />
<glyph unicode="E" horiz-adv-x="1161" d="M170 0l172 1229h913l-20 -154h-748l-55 -393h649l-20 -150h-649l-54 -378h748l-23 -154h-913z" />
<glyph unicode="F" horiz-adv-x="1140" d="M170 0l172 1229h913l-20 -154h-748l-55 -393h655l-20 -150h-655l-74 -532h-168z" />
<glyph unicode="G" horiz-adv-x="1378" d="M162 526q0 148 55.5 282t152 232.5t235.5 156.5t298 58q64 0 123 -9t101 -23t78.5 -30.5t60 -33.5t40 -31t24.5 -23l7 -9l-118 -129q-5 5 -13.5 14t-40 31t-67.5 39t-94.5 31t-122.5 14q-117 0 -219.5 -44t-173.5 -119t-111.5 -176t-40.5 -212q0 -87 26.5 -162t76 -131.5 t126.5 -88.5t172 -32q184 0 311.5 111.5t149.5 289.5h-434l20 150h609l-13 -94q-39 -282 -215 -449.5t-448 -167.5q-173 0 -300.5 74.5t-191 199t-63.5 281.5z" />
<glyph unicode="H" horiz-adv-x="1382" d="M170 0l172 1229h168l-78 -549h707l78 549h169l-172 -1229h-170l74 528h-706l-74 -528h-168z" />
<glyph unicode="I" horiz-adv-x="507" d="M170 0l172 1229h168l-172 -1229h-168z" />
<glyph unicode="J" horiz-adv-x="940" d="M55 72l99 133q10 -8 27.5 -19.5t72.5 -31t111 -19.5q132 0 209 72t100 227l110 795h170l-116 -830q-28 -203 -151.5 -315.5t-330.5 -112.5q-56 0 -108 10.5t-83 23t-59 30t-36.5 24.5t-14.5 13z" />
<glyph unicode="K" horiz-adv-x="1230" d="M170 0l172 1229h168l-92 -658l749 658h205l-2 -25l-559 -493l393 -686l-4 -25h-199l-331 588l-285 -252l-47 -336h-168z" />
<glyph unicode="L" horiz-adv-x="1064" d="M170 0l172 1229h168l-152 -1075h705l-23 -154h-870z" />
<glyph unicode="M" horiz-adv-x="1550" d="M170 0l172 1229h47l477 -590l643 590h45l-172 -1229h-168l121 862l-477 -444h-45l-354 442l-121 -860h-168z" />
<glyph unicode="N" horiz-adv-x="1425" d="M170 0l172 1229h47l748 -873l123 873h170l-173 -1229h-47l-749 881l-123 -881h-168z" />
<glyph unicode="O" horiz-adv-x="1445" d="M162 528q0 197 93 363t262.5 265t379.5 99q173 0 300.5 -74t192 -199t64.5 -284q0 -197 -93 -362.5t-263 -265t-381 -99.5q-171 0 -298.5 74.5t-192 199.5t-64.5 283zM336 549q0 -180 108.5 -298t294.5 -118q116 0 217 43.5t172 117.5t111.5 174t40.5 210 q0 181 -109 299.5t-297 118.5q-153 0 -277 -75t-192.5 -200t-68.5 -272z" />
<glyph unicode="P" horiz-adv-x="1236" d="M170 0l172 1229h516q210 0 326 -92t116 -263q0 -230 -156.5 -358.5t-412.5 -128.5h-340l-53 -387h-168zM414 539h342q171 0 268.5 77.5t97.5 231.5q0 112 -77 169.5t-214 57.5h-344z" />
<glyph unicode="Q" horiz-adv-x="1445" d="M162 528q0 197 93 363t262.5 265t379.5 99q173 0 300.5 -74t192 -199t64.5 -284q0 -193 -90.5 -357t-249.5 -261l90 -164l-4 -27h-184l-62 117q-113 -35 -237 -35q-171 0 -298.5 74.5t-192 199.5t-64.5 283zM336 549q0 -180 108.5 -298t294.5 -118q67 0 140 17l-144 276 l2 25h178l123 -230q113 74 177.5 194.5t64.5 262.5q0 181 -109 299.5t-297 118.5q-153 0 -277 -75t-192.5 -200t-68.5 -272z" />
<glyph unicode="R" horiz-adv-x="1292" d="M170 0l172 1229h514q210 0 326 -92t116 -263q0 -168 -90 -281.5t-245 -160.5v-8l262 -391l-4 -33h-187l-264 399h-377l-55 -399h-168zM416 551h358q156 0 251 76t95 223q0 112 -76 168.5t-213 56.5h-344z" />
<glyph unicode="S" horiz-adv-x="1099" d="M102 121l111 127q5 -5 14.5 -13t42.5 -28.5t70.5 -36t98.5 -28.5t126 -13q163 0 243.5 59t80.5 158q0 68 -63.5 113t-229.5 94q-200 59 -290.5 132.5t-90.5 191.5q0 175 138 276.5t374 101.5q86 0 161.5 -12t122 -29.5t80.5 -35t48 -29.5l14 -12l-113 -140q-4 4 -13 11 t-40 24.5t-67 30.5t-94 24t-121 11q-137 0 -223.5 -52.5t-86.5 -142.5q0 -61 65 -102.5t232 -87.5q204 -58 291.5 -137.5t87.5 -198.5q0 -86 -31.5 -158t-94 -128t-165 -88t-235.5 -32q-89 0 -167 15.5t-126.5 37.5t-84 44t-50.5 38z" />
<glyph unicode="T" horiz-adv-x="1077" d="M182 1075l23 154h1018l-23 -154h-426l-151 -1075h-168l151 1075h-424z" />
<glyph unicode="U" horiz-adv-x="1349" d="M223 516l101 713h168l-101 -713q-24 -171 53 -277t250 -106q172 0 278 105.5t130 277.5l100 713h170l-100 -713q-35 -245 -194.5 -395t-405.5 -150q-244 0 -363.5 151t-85.5 394z" />
<glyph unicode="V" horiz-adv-x="1251" d="M170 1229h188l224 -629l80 -278h18q36 64 75.5 131.5t79 132.5t78.5 128t81.5 130.5t79.5 126.5t81.5 130t79.5 128h188l-780 -1229h-37z" />
<glyph unicode="W" horiz-adv-x="1673" d="M188 1229h177l167 -807l13 -113h16l41 107l356 813h101l125 -813l12 -107h16l45 113l390 807h178l-617 -1229h-114l-127 807l-6 51h-15q-71 -168 -206.5 -473t-170.5 -385h-108z" />
<glyph unicode="X" horiz-adv-x="1148" d="M31 0l506 631l-320 598h203l225 -424l31 -88l57 88l342 424h203l-492 -598l336 -631h-204l-234 442l-33 95l-65 -95l-355 -442h-200z" />
<glyph unicode="Y" horiz-adv-x="1126" d="M178 1229h197l248 -520l26 -78h8l50 78l391 520h194l-579 -758l-66 -471h-170l66 469z" />
<glyph unicode="Z" horiz-adv-x="1112" d="M61 0l7 43l866 1032h-696l20 154h969l-6 -43l-850 -1032h694l-23 -154h-981z" />
<glyph unicode="[" horiz-adv-x="663" d="M106 -324l240 1704h465l-20 -139h-306l-200 -1425h307l-21 -140h-465z" />
<glyph unicode="\" horiz-adv-x="739" d="M262 1440h168l199 -1800h-168z" />
<glyph unicode="]" horiz-adv-x="663" d="M2 -324l21 140h303l200 1425h-305l21 139h465l-240 -1704h-465z" />
<glyph unicode="^" horiz-adv-x="823" d="M256 1001l4 31l293 336h100l201 -336l-4 -31h-121l-143 242l-209 -242h-121z" />
<glyph unicode="_" horiz-adv-x="1013" d="M66 -180l20 139h825l-20 -139h-825z" />
<glyph unicode="`" horiz-adv-x="520" d="M270 1151l4 31h199l45 -293l-4 -31h-106z" />
<glyph unicode="a" d="M84 184q0 108 91 176t259 68q133 0 209 -55h12l4 35q11 90 -35.5 135t-162.5 45q-56 0 -108.5 -14t-77.5 -28l-25 -14l-39 125q12 8 35 19t101 30t165 19q182 0 255 -89.5t52 -244.5l-55 -391h-119l-4 82h-12q-17 -20 -42 -38.5t-89 -39t-144 -20.5q-132 0 -201 56 t-69 144zM250 203q0 -45 40 -74t118 -29q88 0 154.5 42.5t66.5 84.5q0 45 -52.5 73t-138.5 28q-88 0 -138 -33.5t-50 -91.5z" />
<glyph unicode="b" horiz-adv-x="958" d="M117 0l192 1368h168l-106 -750h6q3 4 9 11.5t28.5 26t50 32.5t75 25.5t101.5 11.5q134 0 218.5 -88.5t84.5 -230.5q0 -123 -57.5 -221t-151.5 -149.5t-205 -51.5q-58 0 -105 13t-73 32t-43.5 37.5t-23.5 31.5l-6 13h-7l-39 -111h-116zM322 322q0 -91 54 -145t140 -54 q107 0 181.5 75.5t74.5 188.5q0 90 -52 144.5t-138 54.5q-108 0 -184 -73t-76 -191z" />
<glyph unicode="c" horiz-adv-x="743" d="M113 305q0 179 130 299.5t320 120.5q68 0 124 -15.5t77 -30.5l22 -15l-65 -125q-7 5 -19.5 13t-55.5 21t-89 13q-113 0 -193.5 -73.5t-80.5 -190.5q0 -91 58.5 -145t150.5 -54q46 0 90 11.5t65 23.5l21 12l28 -125q-9 -7 -27 -17t-80 -27t-130 -17q-156 0 -251 89.5 t-95 231.5z" />
<glyph unicode="d" horiz-adv-x="958" d="M113 301q0 91 33 171t89 135t130.5 86.5t156.5 31.5q53 0 96.5 -10t67.5 -24.5t41 -29t23 -24.5l6 -10h6l104 741h168l-192 -1368h-115l-10 104h-8q-3 -5 -10 -13t-32 -28.5t-55 -36.5t-80.5 -29t-107.5 -13q-138 0 -224.5 86t-86.5 231zM285 324q0 -90 52 -145.5 t138 -55.5q108 0 185 73t77 191q0 91 -55 145t-141 54q-107 0 -181.5 -74.5t-74.5 -187.5z" />
<glyph unicode="e" horiz-adv-x="851" d="M113 305q0 178 124.5 299t307.5 121q144 0 224.5 -84.5t80.5 -220.5q0 -24 -3 -49.5t-6 -38.5l-3 -13h-562q0 -99 59 -151.5t157 -52.5q59 0 113 14.5t78 29.5l24 15l41 -111q-4 -3 -12 -8.5t-35 -19.5t-57 -24.5t-77.5 -19.5t-97.5 -9q-164 0 -260 89.5t-96 233.5z M293 428h397q-2 74 -45.5 120t-120.5 46q-82 0 -143.5 -44t-87.5 -122z" />
<glyph unicode="f" horiz-adv-x="653" d="M117 578l18 131h164l43 301q26 178 118 266t238 88q43 0 81.5 -9.5t54 -17t18.5 -10.5l-61 -143q-48 24 -93 24q-84 0 -130.5 -48t-59.5 -150l-43 -301h250l-19 -131h-250l-79 -578h-166l80 578h-164z" />
<glyph unicode="g" horiz-adv-x="831" d="M10 -254q0 162 162 231l2 7q-102 45 -102 137q0 61 32 105t111 79q-33 50 -33 121q0 127 94.5 212t245.5 85l369 -16l-17 -119h-124v-10q30 -31 30 -99q0 -117 -95.5 -200.5t-240.5 -83.5q-92 0 -151 36q-37 -17 -53.5 -36.5t-16.5 -47.5q0 -77 217 -77q181 0 268 -61.5 t87 -174.5q0 -139 -116 -229t-317 -90q-171 0 -261.5 63.5t-90.5 167.5zM174 -225q0 -59 52.5 -96t154.5 -37q122 0 185 45.5t63 115.5q0 59 -52.5 96.5t-154.5 37.5q-118 0 -183 -47t-65 -115zM322 438q0 -54 36.5 -87.5t102.5 -33.5q81 0 130.5 45t49.5 111 q0 54 -36.5 88.5t-102.5 34.5q-81 0 -130.5 -45.5t-49.5 -112.5z" />
<glyph unicode="h" horiz-adv-x="940" d="M117 0l192 1368h168l-102 -725h6q97 82 242 82t215.5 -85.5t50.5 -231.5l-58 -408h-165l53 385q12 90 -29 145.5t-129 55.5q-93 0 -151.5 -55.5t-67.5 -122.5l-57 -408h-168z" />
<glyph unicode="i" horiz-adv-x="405" d="M119 0l100 709h168l-100 -709h-168zM252 1069q0 47 35.5 82t81.5 35q39 0 65.5 -26.5t26.5 -65.5q0 -47 -36.5 -81t-84.5 -34q-38 0 -63 26t-25 64z" />
<glyph unicode="j" horiz-adv-x="399" d="M-119 -377l47 125q29 -18 66 -18q43 0 65.5 24.5t30.5 77.5l123 877h172l-125 -883q-31 -238 -246 -238q-38 0 -71.5 9t-47.5 17zM246 1069q0 47 36.5 82t82.5 35q40 0 65 -26.5t25 -65.5q0 -47 -35 -81t-84 -34q-39 0 -64.5 25.5t-25.5 64.5z" />
<glyph unicode="k" horiz-adv-x="821" d="M115 0l192 1368h168l-137 -975h4l328 316h196l-364 -347l309 -362h-223l-256 313h-6l-43 -313h-168z" />
<glyph unicode="l" horiz-adv-x="405" d="M119 0l192 1368h168l-192 -1368h-168z" />
<glyph unicode="m" horiz-adv-x="1486" d="M117 0l100 709h111l6 -101h10q53 59 118 88t156 29q188 0 250 -127h11q98 127 288 127q148 0 219.5 -85.5t51.5 -231.5l-58 -408h-168l54 385q13 90 -27 145.5t-129 55.5q-94 0 -153.5 -54.5t-67.5 -121.5l-58 -410h-165l57 406q11 80 -31.5 130t-130.5 50 q-93 0 -151.5 -55t-67.5 -119l-57 -412h-168z" />
<glyph unicode="n" horiz-adv-x="935" d="M117 0l100 709h111l6 -101h10q96 117 274 117q148 0 219.5 -85.5t51.5 -231.5l-58 -408h-165l53 385q12 89 -29 145t-129 56q-93 0 -151.5 -55.5t-67.5 -122.5l-57 -408h-168z" />
<glyph unicode="o" horiz-adv-x="913" d="M113 303q0 122 62.5 220t164 150t219.5 52q150 0 246 -90.5t96 -237.5q0 -183 -131.5 -298t-314.5 -115q-150 0 -246 87t-96 232zM279 319q0 -92 54 -146t140 -54q107 0 185.5 73.5t78.5 192.5q0 93 -55.5 149t-142.5 56q-106 0 -183 -76.5t-77 -194.5z" />
<glyph unicode="p" horiz-adv-x="958" d="M61 -393l156 1102h113l8 -101h12q4 5 10.5 13t32.5 28t56 35.5t80 28t106 12.5q137 0 223 -86.5t86 -230.5q0 -183 -120 -303.5t-287 -120.5q-54 0 -98 10t-68 24.5t-40.5 29t-22.5 24.5l-5 10h-6l-68 -475h-168zM322 322q0 -91 53.5 -145t140.5 -54q107 0 181.5 75 t74.5 189q0 88 -52 143.5t-138 55.5q-108 0 -184 -73t-76 -191z" />
<glyph unicode="q" horiz-adv-x="958" d="M113 303q0 186 121 304t294 118q58 0 105 -13.5t73 -32t43.5 -37.5t22.5 -32l6 -14h8l41 113h115l-156 -1102h-168l68 483h-6q-3 -4 -8.5 -11.5t-28 -25.5t-50 -32t-74.5 -25.5t-101 -11.5q-135 0 -220 88.5t-85 230.5zM285 322q0 -90 52 -144.5t138 -54.5 q107 0 184.5 73.5t77.5 190.5q0 91 -55 145t-141 54q-106 0 -181 -75.5t-75 -188.5z" />
<glyph unicode="r" horiz-adv-x="608" d="M117 0l100 709h111l6 -101h8q81 103 221 103q42 0 75.5 -9.5t46.5 -18.5l13 -9l-77 -131q-30 22 -91 22q-65 0 -122 -41t-66 -104l-57 -420h-168z" />
<glyph unicode="s" horiz-adv-x="774" d="M72 66l75 116q11 -8 32 -19.5t84.5 -30.5t127.5 -19q84 0 129 24.5t45 67.5q0 25 -23 43t-60 29.5t-82 23t-90 26t-82 34.5t-60 54t-23 79q0 102 85 166.5t251 64.5q90 0 165 -14.5t104 -28.5l30 -14l-75 -131q-8 7 -24.5 16.5t-74.5 26t-125 16.5q-168 0 -168 -86 q0 -32 43.5 -52.5t106 -34.5t125 -33t106 -61t43.5 -106q0 -103 -90 -171t-268 -68q-61 0 -115.5 8.5t-88 20.5t-58 24t-35.5 21z" />
<glyph unicode="t" horiz-adv-x="655" d="M113 573l18 136h137l31 213h166l-31 -213h264l-18 -136h-264l-39 -278q-12 -88 17.5 -129t101.5 -41q24 0 49 7.5t38 14.5l13 7l39 -115q-8 -6 -22.5 -15t-62 -24.5t-97.5 -15.5q-137 0 -200.5 78.5t-43.5 226.5l41 284h-137z" />
<glyph unicode="u" horiz-adv-x="931" d="M145 301l58 408h168l-54 -385q-13 -90 25.5 -145.5t126.5 -55.5q94 0 153 55.5t68 122.5l58 408h167l-98 -709h-110l-17 98h-8q-11 -16 -29.5 -32.5t-50.5 -36.5t-82 -32.5t-108 -12.5q-148 0 -217.5 85t-49.5 232z" />
<glyph unicode="v" horiz-adv-x="841" d="M117 709h184l137 -457q8 -34 6 -53h11q3 22 22 53l264 457h185l-447 -709h-117z" />
<glyph unicode="w" horiz-adv-x="1206" d="M125 709h178l96 -457q7 -28 4 -53h15q4 16 20 53l205 457h127l78 -457q4 -34 2 -53h14q4 15 23 53l223 457h170l-389 -709h-127l-82 444q-6 27 -2 58h-10q-6 -28 -19 -58l-211 -444h-125z" />
<glyph unicode="x" horiz-adv-x="819" d="M25 0l335 365l-219 344h189l141 -240h6l213 240h189l-320 -344l234 -365h-189l-155 262h-7l-229 -262h-188z" />
<glyph unicode="y" horiz-adv-x="837" d="M70 -393l278 442l-225 660h182l139 -457q9 -36 7 -53h10q4 29 22 59l262 451h173l-672 -1102h-176z" />
<glyph unicode="z" horiz-adv-x="780" d="M66 0l10 76l483 495h-412l21 138h647l-10 -70l-486 -502h414l-18 -137h-649z" />
<glyph unicode="{" horiz-adv-x="546" d="M98 459l19 135h33q56 0 94.5 40.5t48.5 117.5l61 440q31 232 293 250l6 -142q-62 -8 -89 -32.5t-36 -89.5l-61 -445q-22 -163 -143 -201l-2 -16q53 -17 76 -68.5t12 -125.5l-64 -449q-9 -63 11 -88t79 -33l-45 -141q-128 7 -183 71t-40 177l61 442q10 76 -16.5 117 t-81.5 41h-33z" />
<glyph unicode="|" horiz-adv-x="456" d="M109 -311l237 1689h154l-238 -1689h-153z" />
<glyph unicode="}" horiz-adv-x="546" d="M39 -248q60 8 86 33t35 88l63 449q11 74 49 125.5t97 68.5l4 16q-114 38 -92 201l63 445q9 66 -10 90t-78 32l43 142q256 -17 225 -250l-61 -440q-10 -78 16.5 -118t81.5 -40h33l-21 -135h-32q-55 0 -93.5 -41t-48.5 -117l-63 -442q-32 -234 -295 -248z" />
<glyph unicode="~" horiz-adv-x="929" d="M199 625q3 3 9 7.5t26 16.5t42.5 21t59 16.5t74.5 7.5q54 0 144 -25.5t148 -25.5q45 0 85 10.5t57 21.5l18 11l39 -104q-8 -8 -24.5 -19.5t-71.5 -31t-117 -19.5q-54 0 -144.5 25.5t-148.5 25.5q-44 0 -84 -10.5t-57 -21.5l-18 -11z" />
<glyph unicode="&#xa1;" horiz-adv-x="493" d="M143 0q29 172 90.5 482.5t75.5 387.5h117l-70 -794l-10 -76h-203zM291 1118q0 51 39 89t92 38q43 0 71.5 -29.5t28.5 -72.5q0 -50 -40.5 -87.5t-90.5 -37.5q-29 0 -52 13.5t-35.5 36.5t-12.5 50z" />
<glyph unicode="&#xa2;" horiz-adv-x="837" d="M137 307q0 158 105.5 272.5t267.5 139.5l27 186h118l-26 -182q59 -4 110.5 -19t72.5 -28l22 -14l-78 -132q-8 6 -22.5 15.5t-59.5 25t-90 15.5q-111 0 -193 -73.5t-82 -188.5q0 -92 59 -146.5t150 -54.5q45 0 92.5 12.5t71.5 25.5l25 13l41 -127q-10 -6 -28 -14.5 t-75.5 -25.5t-116.5 -21l-24 -179h-119l25 183q-125 22 -199 107.5t-74 209.5z" />
<glyph unicode="&#xa3;" horiz-adv-x="1056" d="M133 6l21 150q5 2 14 6t33 20.5t43.5 38.5t38.5 62t26 88q5 50 -12 131h-135l18 127h88q-14 72 -14 135q0 69 21.5 137t66 130.5t107.5 110t152 75.5t192 28q51 0 96.5 -7.5t78 -19t59.5 -25.5t44 -28.5t29 -26t17 -19.5l5 -7l-112 -123q-1 2 -4 5.5t-13 13t-21.5 18.5 t-31.5 20t-42.5 18.5t-54 13t-65.5 5.5q-82 0 -148.5 -27.5t-107.5 -74t-62.5 -103.5t-21.5 -118t17 -131h460l-18 -127h-414q21 -108 -13 -199t-97 -147h588l-21 -150h-807z" />
<glyph unicode="&#xa4;" horiz-adv-x="1181" d="M166 254l135 119q-49 82 -49 188q0 160 113 289l-99 117l125 108l92 -125q118 72 248 72q131 0 225 -78l134 131l96 -108l-142 -127q48 -82 48 -185q0 -152 -107 -282l100 -119l-124 -109l-95 125q-118 -75 -252 -75q-131 0 -225 75l-127 -125zM412 580 q0 -97 63.5 -164.5t159.5 -67.5q118 0 208.5 87.5t90.5 203.5q0 96 -64 162.5t-161 66.5q-117 0 -207 -86t-90 -202z" />
<glyph unicode="&#xa5;" horiz-adv-x="1241" d="M205 178l18 127h352l25 162h-354l18 129h275l-303 633h196l248 -520l27 -78h8l49 78l391 520h195l-486 -633h277l-19 -129h-354l-23 -162h355l-19 -127h-352l-24 -178h-170l24 178h-354z" />
<glyph unicode="&#xa6;" horiz-adv-x="456" d="M109 -311l237 1689h156l-238 -1689h-155z" />
<glyph unicode="&#xa7;" horiz-adv-x="1095" d="M41 -254l113 129q5 -5 15.5 -14t45 -31.5t72.5 -40t98.5 -31.5t122.5 -14q151 0 227 62.5t76 150.5q0 72 -58.5 120t-199.5 103q-75 29 -122.5 52.5t-92 56t-65.5 73.5t-21 93q0 131 108 202q-124 84 -124 217q0 166 129.5 273.5t373.5 107.5q84 0 157.5 -13t118 -31.5 t77.5 -37.5t46 -32l13 -13l-115 -139q-4 5 -12.5 12.5t-38 27t-63.5 34.5t-89.5 27t-115.5 12q-142 0 -213.5 -57t-71.5 -146q0 -67 54 -117t161 -88q80 -28 133.5 -52.5t105.5 -60t77.5 -80t25.5 -100.5q0 -132 -102 -217q119 -92 119 -217q0 -73 -30.5 -139t-91 -120.5 t-162.5 -87t-233 -32.5q-89 0 -167.5 16.5t-127.5 39.5t-85.5 46t-52.5 40zM424 483q0 -50 50.5 -89t156.5 -79q91 -37 127 -53q57 49 57 113q0 57 -61 100.5t-185 85.5q-7 2 -80 29q-12 -5 -24.5 -14t-26.5 -34t-14 -59z" />
<glyph unicode="&#xa8;" horiz-adv-x="825" d="M266 979q0 41 35 73.5t76 32.5q35 0 59.5 -25.5t24.5 -60.5q0 -41 -34.5 -73.5t-76.5 -32.5q-35 0 -59.5 25.5t-24.5 60.5zM639 979q0 41 35 73.5t76 32.5q35 0 59.5 -25.5t24.5 -60.5q0 -41 -34.5 -73.5t-76.5 -32.5q-35 0 -59.5 25.5t-24.5 60.5z" />
<glyph unicode="&#xa9;" horiz-adv-x="1472" d="M170 532q0 142 54.5 271.5t150 226t235 154t301.5 57.5q176 0 305.5 -73.5t194 -196.5t64.5 -277q0 -142 -54 -271t-149.5 -226t-236 -154t-302.5 -57q-132 0 -240 42.5t-178 117t-107.5 173.5t-37.5 213zM276 545q0 -129 53.5 -232t162.5 -166t256 -63q136 0 254 48.5 t197.5 130.5t125 191t45.5 228q0 131 -53.5 234.5t-162.5 166t-257 62.5q-136 0 -253 -48.5t-197 -130.5t-125.5 -191.5t-45.5 -229.5zM494 571q0 155 107 263t278 108q43 0 80 -8t59.5 -19t39 -22t22.5 -19l7 -8l-71 -80q-5 5 -16 13t-49.5 21.5t-82.5 13.5 q-111 0 -182.5 -72t-71.5 -176q0 -84 51.5 -136.5t141.5 -52.5q44 0 84.5 11.5t58.5 23.5l19 12l47 -79q-3 -3 -9.5 -8t-28 -18.5t-46 -23.5t-64 -18t-82.5 -8q-138 0 -215 79.5t-77 202.5z" />
<glyph unicode="&#xaa;" horiz-adv-x="827" d="M174 729q0 107 89.5 171.5t232.5 64.5q154 0 211 -62l6 37q12 100 -31 149.5t-158 49.5q-28 0 -58 -4t-54.5 -10.5t-43.5 -12.5t-34 -12t-17 -6l-26 110q16 6 43 15t100 23.5t133 14.5q331 0 283 -323l-51 -373h-103l-14 68h-10q-74 -84 -256 -84q-108 0 -175 50.5 t-67 133.5zM313 748q0 -48 41.5 -76.5t114.5 -28.5q88 0 153.5 36t65.5 89q0 52 -48 80.5t-128 28.5q-95 0 -147 -34.5t-52 -94.5z" />
<glyph unicode="&#xab;" d="M121 332l6 39l260 317h143l-2 -16l-256 -314l-2 -10l168 -317l-2 -17h-143zM483 332l6 39l261 317h141l-2 -16l-256 -314l-2 -10l168 -317l-2 -17h-142z" />
<glyph unicode="&#xac;" horiz-adv-x="1132" d="M145 571l21 140h903l-100 -711h-142l80 571h-762z" />
<glyph unicode="&#xad;" horiz-adv-x="796" d="M178 530l21 140h587l-20 -140h-588z" />
<glyph unicode="&#xae;" horiz-adv-x="1163" d="M201 717q0 144 68.5 266.5t197.5 198t291 75.5q200 0 313 -119t113 -298q0 -107 -41 -205.5t-113 -173t-178 -118.5t-229 -44q-133 0 -230 57.5t-144.5 151t-47.5 209.5zM307 729q0 -144 89.5 -237t240.5 -93q188 0 314 123.5t126 304.5q0 145 -90.5 237.5t-243.5 92.5 q-188 0 -312 -120.5t-124 -307.5zM481 580l58 413h192q76 0 122 -36t46 -97q0 -103 -100 -149l67 -111l-2 -20h-86l-67 108h-131l-15 -108h-84zM590 764h106q50 0 81.5 22t31.5 64q0 32 -23.5 48.5t-64.5 16.5h-111z" />
<glyph unicode="&#xaf;" horiz-adv-x="909" d="M319 907l15 107h547l-15 -107h-547z" />
<glyph unicode="&#xb0;" horiz-adv-x="622" d="M231 1128q0 102 78.5 175t194.5 73q96 0 153.5 -55t57.5 -139q0 -102 -78.5 -174t-194.5 -72q-96 0 -153.5 54t-57.5 138zM332 1141q0 -48 33.5 -80.5t89.5 -32.5q69 0 114 41.5t45 101.5q0 49 -32.5 82t-89.5 33q-68 0 -114 -43t-46 -102z" />
<glyph unicode="&#xb1;" horiz-adv-x="1120" d="M141 74l21 139h858l-21 -139h-858zM229 696l19 138h362l49 352h142l-49 -352h354l-19 -138h-356l-47 -342h-141l47 342h-361z" />
<glyph unicode="&#xb2;" horiz-adv-x="638" d="M152 700l6 37l340 289q90 77 90 150q0 98 -123 98q-17 0 -35 -3t-33 -7.5t-30 -10.5t-26.5 -12t-22.5 -13t-17.5 -11.5t-12.5 -8.5l-5 -4l-50 90q4 4 12.5 10t35.5 22t55.5 28t71 22t84.5 10q116 0 171.5 -51.5t55.5 -132.5q0 -117 -125 -221l-211 -178h317l-14 -103 h-534z" />
<glyph unicode="&#xb3;" horiz-adv-x="641" d="M156 778l75 88q3 -3 8.5 -7.5t24 -17t39 -22t52 -17t63.5 -7.5q85 0 131.5 36.5t46.5 92.5q0 41 -31 67.5t-88 26.5h-90l6 33l170 215h-313l14 102h484l-5 -31l-182 -233q76 -10 116 -53.5t40 -112.5q0 -108 -81.5 -181t-229.5 -73q-69 0 -130.5 23t-86 41.5t-33.5 29.5z " />
<glyph unicode="&#xb4;" horiz-adv-x="505" d="M221 858l4 31l129 293h197l-4 -31l-219 -293h-107z" />
<glyph unicode="&#xb5;" horiz-adv-x="1028" d="M96 -393l154 1102h168l-53 -385q-13 -90 25.5 -145.5t125.5 -55.5q94 0 153 55.5t68 122.5l58 408h168l-99 -709h-110l-17 98h-8q-11 -16 -29.5 -32.5t-50.5 -36.5t-82 -32.5t-108 -12.5q-80 0 -140 26l-57 -403h-166z" />
<glyph unicode="&#xb6;" horiz-adv-x="1024" d="M145 575q0 217 144.5 337t394.5 120h297l-193 -1366h-167l77 555h-120q-203 0 -318 91.5t-115 262.5z" />
<glyph unicode="&#xb7;" horiz-adv-x="329" d="M154 721q0 52 38.5 90.5t88.5 38.5q44 0 72 -29t28 -71q0 -54 -38.5 -90.5t-92.5 -36.5q-41 0 -68.5 28.5t-27.5 69.5z" />
<glyph unicode="&#xb8;" horiz-adv-x="442" d="M14 -276l45 65q5 -5 13.5 -12t38 -19t61.5 -12q44 0 68 20t24 54q0 26 -18.5 41.5t-50.5 15.5q-13 0 -25 -3t-18 -6l-5 -3l-26 41l61 98h90l-39 -65q55 0 88 -28.5t33 -82.5q0 -72 -51.5 -119t-138.5 -47q-48 0 -85.5 15.5t-50.5 30.5z" />
<glyph unicode="&#xb9;" horiz-adv-x="407" d="M215 1266l14 102h265l-95 -668h-116l79 566h-147z" />
<glyph unicode="&#xba;" horiz-adv-x="854" d="M195 852q0 178 118 290.5t293 112.5q139 0 223 -82.5t84 -222.5q0 -177 -117.5 -289t-289.5 -112q-140 0 -225.5 83.5t-85.5 219.5zM334 866q0 -88 50.5 -141t137.5 -53q111 0 182.5 74t71.5 192q0 90 -50.5 143.5t-137.5 53.5q-109 0 -181.5 -75.5t-72.5 -193.5z" />
<glyph unicode="&#xbb;" d="M78 14l2 17l256 317l2 10l-168 314l2 16h143l172 -317l-4 -39l-262 -318h-143zM438 14l2 17l256 317l2 10l-168 314l2 16h142l172 -317l-4 -39l-262 -318h-142z" />
<glyph unicode="&#xbc;" horiz-adv-x="1304" d="M115 78l1122 1155l78 -70l-1125 -1155zM238 1126l14 103h264l-94 -668h-119l80 565h-145zM680 172l10 74l443 422h88l-58 -398h107l-13 -98h-106l-25 -172h-114l22 172h-354zM840 264l90 6h119l24 172q0 10 8 60h-2l-172 -172q-12 -13 -26.5 -27t-26.5 -25.5t-14 -13.5z " />
<glyph unicode="&#xbd;" horiz-adv-x="1470" d="M115 78l1122 1155l78 -70l-1125 -1155zM238 1126l14 103h264l-94 -668h-119l80 565h-145zM866 0l4 37l340 289q49 43 72 75.5t23 71.5q0 46 -31.5 73t-93.5 27q-82 0 -185 -69l-49 90q4 4 12.5 10t35 22t55 28t71.5 22t86 10q116 0 171 -51t55 -131q0 -64 -31.5 -117 t-93.5 -106l-211 -179h319l-14 -102h-535z" />
<glyph unicode="&#xbe;" horiz-adv-x="1505" d="M168 639l78 88q8 -8 23 -20t63 -32t98 -20q87 0 132.5 36.5t45.5 92.5q0 44 -33 69.5t-96 25.5h-80l7 32l169 215h-311l15 103h483l-4 -31l-183 -233q154 -24 154 -166q0 -107 -81.5 -180.5t-227.5 -73.5q-69 0 -131 23t-87 41.5t-34 29.5zM322 78l1124 1155l78 -70 l-1123 -1155zM879 170l10 74l442 422h88l-57 -398h108l-14 -98h-108l-23 -170h-113l23 170h-356zM1038 262l92 6h119l25 172l10 60h-4l-172 -174q-16 -16 -42 -39t-28 -25z" />
<glyph unicode="&#xbf;" horiz-adv-x="784" d="M121 231q0 74 23.5 135t59.5 100t81 80t85.5 75.5t75.5 87t50 112.5l12 66h117l-13 -82q-8 -53 -29.5 -100t-50 -82t-61 -67t-63 -62.5t-55.5 -62t-40.5 -71t-15.5 -84.5q0 -68 45 -109.5t121 -41.5q38 0 74 6t61 14.5t44 17.5t28 15l10 6l41 -133q-5 -3 -14 -7.5 t-40 -16t-64.5 -20.5t-86 -16t-106.5 -7q-135 0 -212 69.5t-77 177.5zM487 1130q0 52 37.5 88.5t87.5 36.5q42 0 70.5 -28.5t28.5 -69.5q0 -50 -38.5 -85.5t-90.5 -35.5q-41 0 -68 27t-27 67z" />
<glyph unicode="&#xc0;" horiz-adv-x="1251" d="M-2 0l782 1229h35l440 -1229h-192l-72 201h-676l-127 -201h-190zM410 350h528l-10 21l-168 528h-19l-315 -528zM612 1599l4 31h199l45 -293l-4 -30h-106z" />
<glyph unicode="&#xc1;" horiz-adv-x="1251" d="M-2 0l782 1229h35l440 -1229h-192l-72 201h-676l-127 -201h-190zM410 350h528l-10 21l-168 528h-19l-315 -528zM756 1307l4 30l129 293h196l-4 -31l-219 -292h-106z" />
<glyph unicode="&#xc2;" horiz-adv-x="1251" d="M-2 0l782 1229h35l440 -1229h-192l-72 201h-676l-127 -201h-190zM410 350h528l-10 21l-168 528h-19l-315 -528zM518 1307l4 30l246 293h182l164 -293l-4 -30h-106l-160 202l-219 -202h-107z" />
<glyph unicode="&#xc3;" horiz-adv-x="1251" d="M-2 0l782 1229h35l440 -1229h-192l-72 201h-676l-127 -201h-190zM410 350h528l-10 21l-168 528h-19l-315 -528zM479 1329l19 53q56 160 196 160q48 0 93 -23t83 -46t70 -23q66 0 88 68l8 26l119 -10l-16 -53q-22 -71 -72 -115.5t-125 -44.5q-49 0 -95 23t-84 46t-69 23 q-34 0 -53.5 -18t-32.5 -52l-10 -26z" />
<glyph unicode="&#xc4;" horiz-adv-x="1251" d="M-2 0l782 1229h35l440 -1229h-192l-72 201h-676l-127 -201h-190zM410 350h528l-10 21l-168 528h-19l-315 -528zM547 1466q0 41 35 74t75 33q35 0 59.5 -25.5t24.5 -60.5q0 -41 -34 -74t-76 -33q-35 0 -59.5 25.5t-24.5 60.5zM920 1466q0 41 35 74t75 33q35 0 59.5 -25.5 t24.5 -60.5q0 -41 -34 -74t-76 -33q-35 0 -59.5 25.5t-24.5 60.5z" />
<glyph unicode="&#xc5;" horiz-adv-x="1253" d="M-2 0l745 1171q-60 12 -95.5 57.5t-35.5 108.5q0 90 67.5 152.5t162.5 62.5q76 0 124 -47.5t48 -120.5q0 -78 -51 -138t-127 -75l419 -1171h-192l-72 201h-676l-127 -201h-190zM410 350h528l-10 21l-168 528h-19l-315 -528zM721 1348q0 -34 22.5 -55t59.5 -21q46 0 74 28 t28 74q0 35 -20.5 55.5t-57.5 20.5q-46 0 -76 -28.5t-30 -73.5z" />
<glyph unicode="&#xc6;" horiz-adv-x="1867" d="M-29 0l1055 1229h936l-20 -154h-746l-55 -395h647l-23 -150h-645l-53 -376h745l-22 -154h-916l31 201h-561l-164 -201h-209zM467 350h459l86 617h-19z" />
<glyph unicode="&#xc7;" horiz-adv-x="1206" d="M164 530q0 147 56.5 280.5t154.5 231t236 155.5t294 58q82 0 154 -16t116 -38.5t76.5 -45.5t46.5 -39l13 -16l-115 -131q-4 5 -13 13.5t-38.5 30.5t-63 39t-87 30.5t-109.5 13.5q-150 0 -276 -74t-198.5 -199t-72.5 -272q0 -179 112.5 -299.5t297.5 -120.5q58 0 115 13 t97.5 32t72 37.5t47.5 31.5l16 13l78 -131q-6 -6 -18 -16t-52.5 -35.5t-85.5 -46t-117.5 -38t-148.5 -20.5l-19 -32q55 0 88 -28.5t33 -82.5q0 -72 -51.5 -119t-138.5 -47q-48 0 -85.5 15.5t-50.5 30.5l-14 16l45 65q5 -5 13.5 -12t38 -19t61.5 -12q44 0 68 20t24 54 q0 26 -19 41.5t-51 15.5q-13 0 -24.5 -3t-17.5 -6l-5 -3l-26 41l43 69q-153 12 -267.5 88.5t-173.5 197.5t-59 269z" />
<glyph unicode="&#xc8;" horiz-adv-x="1161" d="M170 0l172 1229h913l-20 -154h-748l-55 -393h649l-20 -150h-649l-54 -378h748l-23 -154h-913zM653 1597l4 31h199l45 -293l-4 -30h-106z" />
<glyph unicode="&#xc9;" horiz-adv-x="1161" d="M170 0l172 1229h913l-20 -154h-748l-55 -393h649l-20 -150h-649l-54 -378h748l-23 -154h-913zM754 1307l4 30l129 293h196l-4 -31l-219 -292h-106z" />
<glyph unicode="&#xca;" horiz-adv-x="1161" d="M170 0l172 1229h913l-20 -154h-748l-55 -393h649l-20 -150h-649l-54 -378h748l-23 -154h-913zM524 1307l4 30l246 293h182l164 -293l-4 -30h-106l-160 202l-219 -202h-107z" />
<glyph unicode="&#xcb;" horiz-adv-x="1161" d="M170 0l172 1229h913l-20 -154h-748l-55 -393h649l-20 -150h-649l-54 -378h748l-23 -154h-913zM555 1434q0 41 35 73.5t76 32.5q35 0 59.5 -25.5t24.5 -60.5q0 -41 -34.5 -73.5t-76.5 -32.5q-35 0 -59.5 25.5t-24.5 60.5zM928 1434q0 41 35 73.5t75 32.5q35 0 59.5 -25.5 t24.5 -60.5q0 -41 -34 -73.5t-76 -32.5q-35 0 -59.5 25.5t-24.5 60.5z" />
<glyph unicode="&#xcc;" horiz-adv-x="507" d="M170 0l172 1229h168l-172 -1229h-168zM240 1597l4 31h198l45 -293l-4 -30h-106z" />
<glyph unicode="&#xcd;" horiz-adv-x="507" d="M170 0l172 1229h168l-172 -1229h-168zM381 1307l4 30l129 293h197l-4 -31l-220 -292h-106z" />
<glyph unicode="&#xce;" horiz-adv-x="507" d="M143 1307l4 30l246 293h182l164 -293l-4 -30h-106l-160 202l-219 -202h-107zM170 0l172 1229h168l-172 -1229h-168z" />
<glyph unicode="&#xcf;" horiz-adv-x="507" d="M170 0l172 1229h168l-172 -1229h-168zM170 1434q0 41 35 73.5t76 32.5q35 0 59.5 -25.5t24.5 -60.5q0 -41 -34.5 -73.5t-76.5 -32.5q-35 0 -59.5 25.5t-24.5 60.5zM543 1434q0 41 35 73.5t75 32.5q35 0 59.5 -25.5t24.5 -60.5q0 -41 -34 -73.5t-76 -32.5 q-35 0 -59.5 25.5t-24.5 60.5z" />
<glyph unicode="&#xd0;" horiz-adv-x="1368" d="M111 553l16 121h154l77 555h441q265 0 420 -144.5t155 -386.5q0 -205 -96.5 -364.5t-266.5 -246.5t-384 -87h-441l78 553h-153zM375 154h262q92 0 176.5 22.5t154.5 67t122 107t81 146.5t29 181q0 186 -120 291.5t-314 105.5h-262l-58 -401h252l-16 -121h-252z" />
<glyph unicode="&#xd1;" horiz-adv-x="1425" d="M170 0l172 1229h47l748 -873l123 873h170l-173 -1229h-47l-749 881l-123 -881h-168zM567 1360l19 53q56 160 196 160q48 0 93 -23t83 -46t70 -23q66 0 88 67l8 27l119 -10l-16 -54q-22 -71 -72 -115t-125 -44q-49 0 -95 23t-84 46t-69 23q-34 0 -53.5 -18t-32.5 -52 l-10 -26z" />
<glyph unicode="&#xd2;" horiz-adv-x="1445" d="M162 528q0 197 93 363t262.5 265t379.5 99q173 0 300.5 -74t192 -199t64.5 -284q0 -197 -93 -362.5t-263 -265t-381 -99.5q-171 0 -298.5 74.5t-192 199.5t-64.5 283zM336 549q0 -180 108.5 -298t294.5 -118q116 0 217 43.5t172 117.5t111.5 174t40.5 210 q0 181 -109 299.5t-297 118.5q-153 0 -277 -75t-192.5 -200t-68.5 -272zM711 1599l4 31h198l45 -293l-4 -30h-106z" />
<glyph unicode="&#xd3;" horiz-adv-x="1445" d="M162 528q0 197 93 363t262.5 265t379.5 99q173 0 300.5 -74t192 -199t64.5 -284q0 -197 -93 -362.5t-263 -265t-381 -99.5q-171 0 -298.5 74.5t-192 199.5t-64.5 283zM336 549q0 -180 108.5 -298t294.5 -118q116 0 217 43.5t172 117.5t111.5 174t40.5 210 q0 181 -109 299.5t-297 118.5q-153 0 -277 -75t-192.5 -200t-68.5 -272zM848 1307l4 30l129 293h197l-4 -31l-220 -292h-106z" />
<glyph unicode="&#xd4;" horiz-adv-x="1445" d="M162 528q0 197 93 363t262.5 265t379.5 99q173 0 300.5 -74t192 -199t64.5 -284q0 -197 -93 -362.5t-263 -265t-381 -99.5q-171 0 -298.5 74.5t-192 199.5t-64.5 283zM336 549q0 -180 108.5 -298t294.5 -118q116 0 217 43.5t172 117.5t111.5 174t40.5 210 q0 181 -109 299.5t-297 118.5q-153 0 -277 -75t-192.5 -200t-68.5 -272zM608 1307l4 30l246 293h182l164 -293l-4 -30h-106l-160 202l-219 -202h-107z" />
<glyph unicode="&#xd5;" horiz-adv-x="1445" d="M162 528q0 197 93 363t262.5 265t379.5 99q173 0 300.5 -74t192 -199t64.5 -284q0 -197 -93 -362.5t-263 -265t-381 -99.5q-171 0 -298.5 74.5t-192 199.5t-64.5 283zM336 549q0 -180 108.5 -298t294.5 -118q116 0 217 43.5t172 117.5t111.5 174t40.5 210 q0 181 -109 299.5t-297 118.5q-153 0 -277 -75t-192.5 -200t-68.5 -272zM588 1358l18 53q56 160 197 160q48 0 93 -23t83 -46t70 -23q66 0 88 67l8 27l119 -10l-17 -54q-22 -71 -71.5 -115t-124.5 -44q-49 0 -95 23t-84 46t-69 23q-34 0 -53.5 -18t-32.5 -52l-10 -26z" />
<glyph unicode="&#xd6;" horiz-adv-x="1445" d="M162 528q0 197 93 363t262.5 265t379.5 99q173 0 300.5 -74t192 -199t64.5 -284q0 -197 -93 -362.5t-263 -265t-381 -99.5q-171 0 -298.5 74.5t-192 199.5t-64.5 283zM336 549q0 -180 108.5 -298t294.5 -118q116 0 217 43.5t172 117.5t111.5 174t40.5 210 q0 181 -109 299.5t-297 118.5q-153 0 -277 -75t-192.5 -200t-68.5 -272zM639 1432q0 41 35 73.5t76 32.5q35 0 59.5 -25.5t24.5 -60.5q0 -41 -34.5 -73.5t-76.5 -32.5q-35 0 -59.5 25.5t-24.5 60.5zM1012 1432q0 41 35 73.5t75 32.5q35 0 59.5 -25.5t24.5 -60.5 q0 -41 -34 -73.5t-76 -32.5q-35 0 -59.5 25.5t-24.5 60.5z" />
<glyph unicode="&#xd7;" horiz-adv-x="1054" d="M158 305l358 316l-270 315l112 96l269 -315l360 315l84 -96l-360 -315l272 -316l-113 -96l-270 313l-358 -313z" />
<glyph unicode="&#xd8;" horiz-adv-x="1441" d="M98 80l150 129q-86 136 -86 319q0 197 93 363t262.5 265t379.5 99q246 0 397 -145l129 111l72 -86l-131 -113q90 -137 90 -324q0 -197 -93 -362.5t-263 -265t-381 -99.5q-250 0 -400 150l-147 -127zM336 549q0 -122 51 -219l770 661q-111 105 -283 105q-153 0 -277 -75 t-192.5 -200t-68.5 -272zM455 240q110 -107 284 -107q116 0 217 43.5t172 117.5t111.5 174t40.5 210q0 129 -55 223z" />
<glyph unicode="&#xd9;" horiz-adv-x="1349" d="M223 516l101 713h168l-101 -713q-24 -171 53 -277t250 -106q172 0 278 105.5t130 277.5l100 713h170l-100 -713q-35 -245 -194.5 -395t-405.5 -150q-244 0 -363.5 151t-85.5 394zM680 1599l4 31h199l45 -293l-4 -30h-107z" />
<glyph unicode="&#xda;" horiz-adv-x="1349" d="M223 516l101 713h168l-101 -713q-24 -171 53 -277t250 -106q172 0 278 105.5t130 277.5l100 713h170l-100 -713q-35 -245 -194.5 -395t-405.5 -150q-244 0 -363.5 151t-85.5 394zM793 1307l4 30l129 293h196l-4 -31l-219 -292h-106z" />
<glyph unicode="&#xdb;" horiz-adv-x="1349" d="M223 516l101 713h168l-101 -713q-24 -171 53 -277t250 -106q172 0 278 105.5t130 277.5l100 713h170l-100 -713q-35 -245 -194.5 -395t-405.5 -150q-244 0 -363.5 151t-85.5 394zM567 1307l4 30l246 293h182l164 -293l-4 -30h-106l-160 202l-219 -202h-107z" />
<glyph unicode="&#xdc;" horiz-adv-x="1349" d="M223 516l101 713h168l-101 -713q-24 -171 53 -277t250 -106q172 0 278 105.5t130 277.5l100 713h170l-100 -713q-35 -245 -194.5 -395t-405.5 -150q-244 0 -363.5 151t-85.5 394zM592 1436q0 41 35 73.5t75 32.5q35 0 59.5 -25.5t24.5 -60.5q0 -41 -34 -73.5t-76 -32.5 q-35 0 -59.5 25.5t-24.5 60.5zM965 1436q0 41 35 73.5t75 32.5q35 0 59.5 -25.5t24.5 -60.5q0 -41 -34 -73.5t-76 -32.5q-35 0 -59.5 25.5t-24.5 60.5z" />
<glyph unicode="&#xdd;" horiz-adv-x="1126" d="M178 1229h197l248 -520l26 -78h8l50 78l391 520h194l-579 -758l-66 -471h-170l66 469zM678 1307l4 30l129 293h197l-4 -31l-220 -292h-106z" />
<glyph unicode="&#xde;" horiz-adv-x="1234" d="M170 0l172 1229h168l-29 -197h350q210 0 325.5 -92t115.5 -262q0 -231 -156 -359.5t-414 -128.5h-337l-27 -190h-168zM385 344h344q172 0 268.5 75.5t96.5 231.5q0 112 -77 169t-214 57h-342z" />
<glyph unicode="&#xdf;" horiz-adv-x="983" d="M117 0l131 928q26 178 119 271t268 93q38 0 74 -7t53 -14l16 -7l-65 -144q-39 21 -86 21q-90 0 -142 -48t-67 -153l-33 -229h602l-4 -33l-276 -316q107 -14 168 -72.5t61 -162.5q0 -159 -114.5 -250.5t-301.5 -91.5q-64 0 -115.5 9.5t-71.5 18.5l-20 9l54 121 q59 -27 165 -27q98 0 160 55t62 140q0 69 -49 107t-130 38h-100l6 55l230 267h-344l-82 -578h-168z" />
<glyph unicode="&#xe0;" d="M84 184q0 108 91 176t259 68q133 0 209 -55h12l4 35q11 90 -35.5 135t-162.5 45q-56 0 -108.5 -14t-77.5 -28l-25 -14l-39 125q12 8 35 19t101 30t165 19q182 0 255 -89.5t52 -244.5l-55 -391h-119l-4 82h-12q-17 -20 -42 -38.5t-89 -39t-144 -20.5q-132 0 -201 56 t-69 144zM250 203q0 -45 40 -74t118 -29q88 0 154.5 42.5t66.5 84.5q0 45 -52.5 73t-138.5 28q-88 0 -138 -33.5t-50 -91.5zM350 1151l4 31h199l45 -293l-4 -31h-107z" />
<glyph unicode="&#xe1;" d="M84 184q0 108 91 176t259 68q133 0 209 -55h12l4 35q11 90 -35.5 135t-162.5 45q-56 0 -108.5 -14t-77.5 -28l-25 -14l-39 125q12 8 35 19t101 30t165 19q182 0 255 -89.5t52 -244.5l-55 -391h-119l-4 82h-12q-17 -20 -42 -38.5t-89 -39t-144 -20.5q-132 0 -201 56 t-69 144zM250 203q0 -45 40 -74t118 -29q88 0 154.5 42.5t66.5 84.5q0 45 -52.5 73t-138.5 28q-88 0 -138 -33.5t-50 -91.5zM485 858l4 31l129 293h197l-4 -31l-219 -293h-107z" />
<glyph unicode="&#xe2;" d="M84 184q0 108 91 176t259 68q133 0 209 -55h12l4 35q11 90 -35.5 135t-162.5 45q-56 0 -108.5 -14t-77.5 -28l-25 -14l-39 125q12 8 35 19t101 30t165 19q182 0 255 -89.5t52 -244.5l-55 -391h-119l-4 82h-12q-17 -20 -42 -38.5t-89 -39t-144 -20.5q-132 0 -201 56 t-69 144zM250 203q0 -45 40 -74t118 -29q88 0 154.5 42.5t66.5 84.5q0 45 -52.5 73t-138.5 28q-88 0 -138 -33.5t-50 -91.5zM250 858l4 31l246 293h182l164 -293l-4 -31h-107l-160 203l-219 -203h-106z" />
<glyph unicode="&#xe3;" d="M84 184q0 108 91 176t259 68q133 0 209 -55h12l4 35q11 90 -35.5 135t-162.5 45q-56 0 -108.5 -14t-77.5 -28l-25 -14l-39 125q12 8 35 19t101 30t165 19q182 0 255 -89.5t52 -244.5l-55 -391h-119l-4 82h-12q-17 -20 -42 -38.5t-89 -39t-144 -20.5q-132 0 -201 56 t-69 144zM221 907l19 54q56 159 196 159q48 0 93 -23t83 -46t70 -23q66 0 88 68l8 26l119 -10l-16 -53q-22 -71 -72 -115.5t-125 -44.5q-49 0 -95 23t-84 46t-69 23q-34 0 -53.5 -17.5t-32.5 -51.5l-10 -27zM250 203q0 -45 40 -74t118 -29q88 0 154.5 42.5t66.5 84.5 q0 45 -52.5 73t-138.5 28q-88 0 -138 -33.5t-50 -91.5z" />
<glyph unicode="&#xe4;" d="M84 184q0 108 91 176t259 68q133 0 209 -55h12l4 35q11 90 -35.5 135t-162.5 45q-56 0 -108.5 -14t-77.5 -28l-25 -14l-39 125q12 8 35 19t101 30t165 19q182 0 255 -89.5t52 -244.5l-55 -391h-119l-4 82h-12q-17 -20 -42 -38.5t-89 -39t-144 -20.5q-132 0 -201 56 t-69 144zM250 203q0 -45 40 -74t118 -29q88 0 154.5 42.5t66.5 84.5q0 45 -52.5 73t-138.5 28q-88 0 -138 -33.5t-50 -91.5zM266 979q0 41 35 73.5t76 32.5q35 0 59.5 -25.5t24.5 -60.5q0 -41 -34.5 -73.5t-76.5 -32.5q-35 0 -59.5 25.5t-24.5 60.5zM639 979q0 41 35 73.5 t76 32.5q35 0 59.5 -25.5t24.5 -60.5q0 -41 -34.5 -73.5t-76.5 -32.5q-35 0 -59.5 25.5t-24.5 60.5z" />
<glyph unicode="&#xe5;" d="M84 184q0 108 91 176t259 68q133 0 209 -55h12l4 35q11 90 -35.5 135t-162.5 45q-56 0 -108.5 -14t-77.5 -28l-25 -14l-39 125q12 8 35 19t101 30t165 19q182 0 255 -89.5t52 -244.5l-55 -391h-119l-4 82h-12q-17 -20 -42 -38.5t-89 -39t-144 -20.5q-132 0 -201 56 t-69 144zM250 203q0 -45 40 -74t118 -29q88 0 154.5 42.5t66.5 84.5q0 45 -52.5 73t-138.5 28q-88 0 -138 -33.5t-50 -91.5zM367 1044q0 90 67.5 153t161.5 63q76 0 124 -47.5t48 -120.5q0 -92 -66 -155t-159 -63q-78 0 -127 48t-49 122zM475 1055q0 -34 22.5 -55t59.5 -21 q46 0 74 28t28 74q0 35 -20.5 55.5t-56.5 20.5q-46 0 -76.5 -28.5t-30.5 -73.5z" />
<glyph unicode="&#xe6;" horiz-adv-x="1396" d="M84 186q0 106 89.5 174t240.5 68q166 0 227 -61h8l4 32q11 92 -33.5 141.5t-158.5 49.5q-56 0 -110 -13t-81 -25l-26 -13l-35 123q14 7 39.5 17.5t104.5 28t157 17.5q199 0 272 -113q126 113 301 113q145 0 226.5 -82.5t81.5 -220.5q0 -25 -3.5 -51t-6.5 -39l-3 -13h-563 q0 -99 59.5 -151.5t155.5 -52.5q58 0 112.5 13.5t79.5 27.5l25 14l43 -111q-4 -3 -12.5 -8.5t-37.5 -18.5t-60 -23t-80.5 -18.5t-100.5 -8.5q-192 0 -286 124q-125 -122 -338 -122q-146 0 -218.5 57t-72.5 145zM244 201q0 -46 40 -73.5t122 -27.5q91 0 158 36.5t67 86.5 q0 43 -56.5 72t-136.5 29q-194 0 -194 -123zM829 424h406q0 76 -44.5 124t-127.5 48q-85 0 -147.5 -45t-86.5 -127z" />
<glyph unicode="&#xe7;" horiz-adv-x="743" d="M113 305q0 179 130 299.5t320 120.5q68 0 124 -15.5t77 -30.5l22 -15l-65 -125q-7 5 -19.5 13t-55.5 21t-89 13q-113 0 -193.5 -73.5t-80.5 -190.5q0 -91 58.5 -145t150.5 -54q46 0 90 11.5t65 23.5l21 12l28 -125q-9 -6 -25 -15.5t-71 -26t-115 -19.5l-26 -45 q55 0 88 -28.5t33 -82.5q0 -72 -52 -119t-139 -47q-48 0 -85.5 15.5t-50.5 30.5l-13 16l45 65q4 -5 13 -12t38 -19t61 -12q44 0 68 20t24 54q0 26 -18.5 41.5t-50.5 15.5q-13 0 -24.5 -3t-17.5 -6l-5 -3l-27 41l51 82q-130 17 -207 103t-77 214z" />
<glyph unicode="&#xe8;" horiz-adv-x="851" d="M113 305q0 178 124.5 299t307.5 121q144 0 224.5 -84.5t80.5 -220.5q0 -24 -3 -49.5t-6 -38.5l-3 -13h-562q0 -99 59 -151.5t157 -52.5q59 0 113 14.5t78 29.5l24 15l41 -111q-4 -3 -12 -8.5t-35 -19.5t-57 -24.5t-77.5 -19.5t-97.5 -9q-164 0 -260 89.5t-96 233.5z M293 428h397q-2 74 -45.5 120t-120.5 46q-82 0 -143.5 -44t-87.5 -122zM348 1151l4 31h199l45 -293l-4 -31h-107z" />
<glyph unicode="&#xe9;" horiz-adv-x="851" d="M113 305q0 178 124.5 299t307.5 121q144 0 224.5 -84.5t80.5 -220.5q0 -24 -3 -49.5t-6 -38.5l-3 -13h-562q0 -99 59 -151.5t157 -52.5q59 0 113 14.5t78 29.5l24 15l41 -111q-4 -3 -12 -8.5t-35 -19.5t-57 -24.5t-77.5 -19.5t-97.5 -9q-164 0 -260 89.5t-96 233.5z M293 428h397q-2 74 -45.5 120t-120.5 46q-82 0 -143.5 -44t-87.5 -122zM498 858l4 31l129 293h196l-4 -31l-219 -293h-106z" />
<glyph unicode="&#xea;" horiz-adv-x="851" d="M113 305q0 178 124.5 299t307.5 121q144 0 224.5 -84.5t80.5 -220.5q0 -24 -3 -49.5t-6 -38.5l-3 -13h-562q0 -99 59 -151.5t157 -52.5q59 0 113 14.5t78 29.5l24 15l41 -111q-4 -3 -12 -8.5t-35 -19.5t-57 -24.5t-77.5 -19.5t-97.5 -9q-164 0 -260 89.5t-96 233.5z M248 858l4 31l246 293h182l164 -293l-4 -31h-107l-160 203l-219 -203h-106zM293 428h397q-2 74 -45.5 120t-120.5 46q-82 0 -143.5 -44t-87.5 -122z" />
<glyph unicode="&#xeb;" horiz-adv-x="851" d="M113 305q0 178 124.5 299t307.5 121q144 0 224.5 -84.5t80.5 -220.5q0 -24 -3 -49.5t-6 -38.5l-3 -13h-562q0 -99 59 -151.5t157 -52.5q59 0 113 14.5t78 29.5l24 15l41 -111q-4 -3 -12 -8.5t-35 -19.5t-57 -24.5t-77.5 -19.5t-97.5 -9q-164 0 -260 89.5t-96 233.5z M274 979q0 41 35 73.5t76 32.5q35 0 59.5 -25.5t24.5 -60.5q0 -41 -34.5 -73.5t-76.5 -32.5q-35 0 -59.5 25.5t-24.5 60.5zM293 428h397q-2 74 -45.5 120t-120.5 46q-82 0 -143.5 -44t-87.5 -122zM647 979q0 41 35 73.5t76 32.5q35 0 59.5 -25.5t24.5 -60.5 q0 -41 -34.5 -73.5t-76.5 -32.5q-35 0 -59.5 25.5t-24.5 60.5z" />
<glyph unicode="&#xec;" horiz-adv-x="405" d="M119 0l100 709h168l-100 -709h-168zM121 1151l4 31h199l45 -293l-4 -31h-107z" />
<glyph unicode="&#xed;" horiz-adv-x="405" d="M119 0l100 709h168l-100 -709h-168zM264 858l4 31l129 293h197l-4 -31l-219 -293h-107z" />
<glyph unicode="&#xee;" horiz-adv-x="405" d="M27 858l4 31l245 293h183l164 -293l-5 -31h-106l-160 203l-219 -203h-106zM119 0l100 709h168l-100 -709h-168z" />
<glyph unicode="&#xef;" horiz-adv-x="405" d="M61 979q0 41 35 73.5t76 32.5q35 0 59.5 -25.5t24.5 -60.5q0 -41 -34.5 -73.5t-76.5 -32.5q-35 0 -59.5 25.5t-24.5 60.5zM119 0l100 709h168l-100 -709h-168zM434 979q0 41 35 73.5t76 32.5q35 0 59.5 -25.5t24.5 -60.5q0 -41 -34.5 -73.5t-76.5 -32.5q-35 0 -59.5 25.5 t-24.5 60.5z" />
<glyph unicode="&#xf0;" horiz-adv-x="958" d="M113 303q0 179 133 298.5t336 119.5q46 0 98 -10l2 6q-27 41 -66 119l-41 82l-237 -125l-39 96l231 123l-94 194l2 23h158l72 -146l217 115l43 -94l-213 -113l157 -315q36 -71 53 -128.5t17 -123.5q0 -198 -131 -321t-334 -123q-166 0 -265 87.5t-99 235.5zM285 322 q0 -90 58 -146.5t153 -56.5q116 0 196 77t80 193q0 90 -59 141.5t-150 51.5q-120 0 -199 -74.5t-79 -185.5z" />
<glyph unicode="&#xf1;" horiz-adv-x="935" d="M117 0l100 709h111l6 -101h10q96 117 274 117q148 0 219.5 -85.5t51.5 -231.5l-58 -408h-165l53 385q12 89 -29 145t-129 56q-93 0 -151.5 -55.5t-67.5 -122.5l-57 -408h-168zM264 907l19 54q56 159 196 159q48 0 93 -23t83 -46t70 -23q66 0 88 68l8 26l119 -10l-16 -53 q-22 -71 -72 -115.5t-125 -44.5q-49 0 -95 23t-84 46t-69 23q-34 0 -53.5 -17.5t-32.5 -51.5l-10 -27z" />
<glyph unicode="&#xf2;" horiz-adv-x="913" d="M113 303q0 122 62.5 220t164 150t219.5 52q150 0 246 -90.5t96 -237.5q0 -183 -131.5 -298t-314.5 -115q-150 0 -246 87t-96 232zM279 319q0 -92 54 -146t140 -54q107 0 185.5 73.5t78.5 192.5q0 93 -55.5 149t-142.5 56q-106 0 -183 -76.5t-77 -194.5zM397 1151l4 31 h199l45 -293l-4 -31h-106z" />
<glyph unicode="&#xf3;" horiz-adv-x="913" d="M113 303q0 122 62.5 220t164 150t219.5 52q150 0 246 -90.5t96 -237.5q0 -183 -131.5 -298t-314.5 -115q-150 0 -246 87t-96 232zM279 319q0 -92 54 -146t140 -54q107 0 185.5 73.5t78.5 192.5q0 93 -55.5 149t-142.5 56q-106 0 -183 -76.5t-77 -194.5zM514 858l4 31 l129 293h197l-4 -31l-219 -293h-107z" />
<glyph unicode="&#xf4;" horiz-adv-x="913" d="M113 303q0 122 62.5 220t164 150t219.5 52q150 0 246 -90.5t96 -237.5q0 -183 -131.5 -298t-314.5 -115q-150 0 -246 87t-96 232zM279 319q0 -92 54 -146t140 -54q107 0 185.5 73.5t78.5 192.5q0 93 -55.5 149t-142.5 56q-106 0 -183 -76.5t-77 -194.5zM281 858l4 31 l245 293h183l164 -293l-5 -31h-106l-160 203l-219 -203h-106z" />
<glyph unicode="&#xf5;" horiz-adv-x="913" d="M113 303q0 122 62.5 220t164 150t219.5 52q150 0 246 -90.5t96 -237.5q0 -183 -131.5 -298t-314.5 -115q-150 0 -246 87t-96 232zM233 907l19 54q56 159 197 159q48 0 93 -23t82.5 -46t69.5 -23q66 0 88 68l9 26l118 -10l-16 -53q-22 -71 -72 -115.5t-125 -44.5 q-49 0 -94.5 23t-83.5 46t-69 23q-34 0 -54 -17.5t-33 -51.5l-10 -27zM279 319q0 -92 54 -146t140 -54q107 0 185.5 73.5t78.5 192.5q0 93 -55.5 149t-142.5 56q-106 0 -183 -76.5t-77 -194.5z" />
<glyph unicode="&#xf6;" horiz-adv-x="913" d="M113 303q0 122 62.5 220t164 150t219.5 52q150 0 246 -90.5t96 -237.5q0 -183 -131.5 -298t-314.5 -115q-150 0 -246 87t-96 232zM279 319q0 -92 54 -146t140 -54q107 0 185.5 73.5t78.5 192.5q0 93 -55.5 149t-142.5 56q-106 0 -183 -76.5t-77 -194.5zM309 979 q0 41 35 73.5t76 32.5q35 0 59.5 -25.5t24.5 -60.5q0 -41 -34.5 -73.5t-76.5 -32.5q-35 0 -59.5 25.5t-24.5 60.5zM682 979q0 41 35 73.5t76 32.5q35 0 59.5 -25.5t24.5 -60.5q0 -41 -34.5 -73.5t-76.5 -32.5q-35 0 -59.5 25.5t-24.5 60.5z" />
<glyph unicode="&#xf7;" horiz-adv-x="1028" d="M186 537l21 139h807l-21 -139h-807zM438 276q0 52 40 89.5t93 37.5q41 0 71 -29.5t30 -72.5q0 -51 -40.5 -88t-92.5 -37q-43 0 -72 28.5t-29 71.5zM530 920q0 52 39.5 89.5t92.5 37.5q41 0 70.5 -30t29.5 -73q0 -51 -40.5 -88t-92.5 -37q-43 0 -71 29t-28 72z" />
<glyph unicode="&#xf8;" horiz-adv-x="913" d="M82 39l88 76q-57 75 -57 188q0 122 62.5 220t164 150t219.5 52q132 0 221 -70l101 88l53 -61l-96 -84q63 -81 63 -201q0 -183 -131.5 -298t-314.5 -115q-141 0 -230 71l-90 -78zM279 319q0 -53 18 -96l369 324q-53 43 -127 43q-106 0 -183 -76.5t-77 -194.5zM342 164 q54 -45 131 -45q107 0 185.5 73.5t78.5 192.5q0 61 -24 107z" />
<glyph unicode="&#xf9;" horiz-adv-x="931" d="M145 301l58 408h168l-54 -385q-13 -90 25.5 -145.5t126.5 -55.5q94 0 153 55.5t68 122.5l58 408h167l-98 -709h-110l-17 98h-8q-11 -16 -29.5 -32.5t-50.5 -36.5t-82 -32.5t-108 -12.5q-148 0 -217.5 85t-49.5 232zM375 1151l4 31h199l45 -293l-5 -31h-106z" />
<glyph unicode="&#xfa;" horiz-adv-x="931" d="M145 301l58 408h168l-54 -385q-13 -90 25.5 -145.5t126.5 -55.5q94 0 153 55.5t68 122.5l58 408h167l-98 -709h-110l-17 98h-8q-11 -16 -29.5 -32.5t-50.5 -36.5t-82 -32.5t-108 -12.5q-148 0 -217.5 85t-49.5 232zM522 858l4 31l129 293h197l-4 -31l-219 -293h-107z" />
<glyph unicode="&#xfb;" horiz-adv-x="931" d="M145 301l58 408h168l-54 -385q-13 -90 25.5 -145.5t126.5 -55.5q94 0 153 55.5t68 122.5l58 408h167l-98 -709h-110l-17 98h-8q-11 -16 -29.5 -32.5t-50.5 -36.5t-82 -32.5t-108 -12.5q-148 0 -217.5 85t-49.5 232zM283 858l4 31l245 293h183l164 -293l-5 -31h-106 l-160 203l-219 -203h-106z" />
<glyph unicode="&#xfc;" horiz-adv-x="931" d="M145 301l58 408h168l-54 -385q-13 -90 25.5 -145.5t126.5 -55.5q94 0 153 55.5t68 122.5l58 408h167l-98 -709h-110l-17 98h-8q-11 -16 -29.5 -32.5t-50.5 -36.5t-82 -32.5t-108 -12.5q-148 0 -217.5 85t-49.5 232zM311 979q0 41 35 73.5t76 32.5q35 0 59.5 -25.5 t24.5 -60.5q0 -41 -34.5 -73.5t-76.5 -32.5q-35 0 -59.5 25.5t-24.5 60.5zM684 979q0 41 35 73.5t76 32.5q35 0 59.5 -25.5t24.5 -60.5q0 -41 -34.5 -73.5t-76.5 -32.5q-35 0 -59.5 25.5t-24.5 60.5z" />
<glyph unicode="&#xfd;" horiz-adv-x="837" d="M70 -393l278 442l-225 660h182l139 -457q9 -36 7 -53h10q4 29 22 59l262 451h173l-672 -1102h-176zM479 858l4 31l129 293h197l-4 -31l-219 -293h-107z" />
<glyph unicode="&#xfe;" horiz-adv-x="958" d="M59 -393l228 1622h168l-88 -633h6q3 5 9.5 14t30 31t51.5 39t75 31t100 14q136 0 220.5 -86t84.5 -231q0 -183 -121 -303.5t-288 -120.5q-54 0 -97.5 13.5t-67 33t-39.5 39.5t-21 34l-5 13h-6l-72 -510h-168zM322 322q0 -91 53.5 -145t140.5 -54q107 0 181.5 75t74.5 189 q0 88 -52 143.5t-138 55.5q-108 0 -184 -73t-76 -191z" />
<glyph unicode="&#xff;" horiz-adv-x="837" d="M70 -393l278 442l-225 660h182l139 -457q9 -36 7 -53h10q4 29 22 59l262 451h173l-672 -1102h-176zM283 979q0 41 35 73.5t75 32.5q35 0 59.5 -25.5t24.5 -60.5q0 -41 -34 -73.5t-76 -32.5q-35 0 -59.5 25.5t-24.5 60.5zM655 979q0 41 35 73.5t76 32.5q35 0 59.5 -25.5 t24.5 -60.5q0 -41 -34.5 -73.5t-76.5 -32.5q-35 0 -59.5 25.5t-24.5 60.5z" />
<glyph unicode="&#x152;" horiz-adv-x="2183" d="M158 528q0 197 93 363t262.5 265t379.5 99q147 0 260.5 -53t185.5 -149l25 176h913l-20 -154h-748l-55 -393h649l-20 -150h-649l-54 -378h748l-23 -154h-913l22 158q-210 -187 -501 -187q-171 0 -298.5 74.5t-192 199.5t-64.5 283zM332 549q0 -180 108.5 -298t294.5 -118 q116 0 217 43.5t172 117.5t111.5 174t40.5 210q0 181 -109 299.5t-297 118.5q-153 0 -277 -75t-192.5 -200t-68.5 -272z" />
<glyph unicode="&#x153;" horiz-adv-x="1470" d="M109 303q0 122 62.5 220t164 150t219.5 52q92 0 166 -36t119 -101q59 65 142.5 101t180.5 36q144 0 224.5 -84.5t80.5 -220.5q0 -24 -3 -49.5t-6 -38.5l-3 -13h-561q0 -100 59 -152t156 -52q59 0 113 14.5t78 29.5l24 15l41 -111q-4 -3 -12 -8.5t-35 -19.5t-57 -24.5 t-77.5 -19.5t-97.5 -9q-209 0 -303 137q-63 -65 -149.5 -100t-183.5 -35q-150 0 -246 87t-96 232zM274 319q0 -92 54.5 -146t140.5 -54q107 0 185.5 73.5t78.5 192.5q0 93 -55.5 149t-142.5 56q-106 0 -183.5 -76.5t-77.5 -194.5zM911 428h398q-2 74 -45.5 120t-120.5 46 q-82 0 -144 -44t-88 -122z" />
<glyph unicode="&#x178;" horiz-adv-x="1126" d="M178 1229h197l248 -520l26 -78h8l50 78l391 520h194l-579 -758l-66 -471h-170l66 469zM483 1434q0 41 35 73.5t76 32.5q35 0 59.5 -25.5t24.5 -60.5q0 -41 -34.5 -73.5t-76.5 -32.5q-35 0 -59.5 25.5t-24.5 60.5zM856 1434q0 41 35 73.5t76 32.5q35 0 59.5 -25.5 t24.5 -60.5q0 -41 -34.5 -73.5t-76.5 -32.5q-35 0 -59.5 25.5t-24.5 60.5z" />
<glyph unicode="&#x2c6;" horiz-adv-x="673" d="M172 858l4 31l246 293h182l164 -293l-4 -31h-107l-159 203l-219 -203h-107z" />
<glyph unicode="&#x2dc;" horiz-adv-x="880" d="M236 907l18 54q56 159 197 159q48 0 93 -23t82.5 -46t69.5 -23q66 0 88 68l9 26l118 -10l-16 -53q-22 -71 -72 -115.5t-125 -44.5q-49 0 -94.5 23t-83.5 46t-69 23q-34 0 -53.5 -17.5t-32.5 -51.5l-11 -27z" />
<glyph unicode="&#x2000;" horiz-adv-x="815" />
<glyph unicode="&#x2001;" horiz-adv-x="1630" />
<glyph unicode="&#x2002;" horiz-adv-x="815" />
<glyph unicode="&#x2003;" horiz-adv-x="1630" />
<glyph unicode="&#x2004;" horiz-adv-x="543" />
<glyph unicode="&#x2005;" horiz-adv-x="407" />
<glyph unicode="&#x2006;" horiz-adv-x="271" />
<glyph unicode="&#x2007;" horiz-adv-x="271" />
<glyph unicode="&#x2008;" horiz-adv-x="203" />
<glyph unicode="&#x2009;" horiz-adv-x="326" />
<glyph unicode="&#x200a;" horiz-adv-x="90" />
<glyph unicode="&#x2010;" horiz-adv-x="796" d="M178 530l21 140h587l-20 -140h-588z" />
<glyph unicode="&#x2011;" horiz-adv-x="796" d="M178 530l21 140h587l-20 -140h-588z" />
<glyph unicode="&#x2012;" horiz-adv-x="796" d="M178 530l21 140h587l-20 -140h-588z" />
<glyph unicode="&#x2013;" horiz-adv-x="937" d="M178 520l21 139h729l-21 -139h-729z" />
<glyph unicode="&#x2014;" horiz-adv-x="1476" d="M178 520l21 139h1267l-20 -139h-1268z" />
<glyph unicode="&#x2018;" horiz-adv-x="389" d="M223 1055q0 66 60 153l102 146h115l-92 -131q-8 -12 -18 -22.5t-16 -14.5l-5 -4v-8q33 -4 53 -30.5t20 -62.5q0 -51 -36 -87t-87 -36q-41 0 -68.5 28t-27.5 69z" />
<glyph unicode="&#x2019;" horiz-adv-x="389" d="M219 956l92 131q8 12 18 22.5t15 14.5l6 4v9q-33 4 -53.5 30t-20.5 62q0 51 36 87t87 36q41 0 69 -28t28 -69q0 -66 -60 -153l-102 -146h-115z" />
<glyph unicode="&#x201a;" horiz-adv-x="319" d="M6 -195l92 132q8 12 18 22t16 14l5 4v9q-33 4 -53.5 30t-20.5 62q0 51 36 87t87 36q41 0 69 -28t28 -69q0 -66 -60 -153l-102 -146h-115z" />
<glyph unicode="&#x201c;" horiz-adv-x="765" d="M223 1055q0 66 60 153l102 146h115l-92 -131q-8 -12 -18 -22.5t-16 -14.5l-5 -4v-8q33 -4 53 -30.5t20 -62.5q0 -51 -36 -87t-87 -36q-41 0 -68.5 28t-27.5 69zM600 1055q0 67 59 153l103 146h115l-93 -131q-8 -12 -18 -22.5t-16 -14.5l-5 -4v-8q33 -4 53.5 -30.5 t20.5 -62.5q0 -51 -36 -87t-87 -36q-41 0 -68.5 28t-27.5 69z" />
<glyph unicode="&#x201d;" horiz-adv-x="747" d="M211 956l92 131q8 12 18 22.5t15 14.5l6 4v9q-33 4 -53.5 30t-20.5 62q0 51 36 87t87 36q41 0 68.5 -28t27.5 -69q0 -67 -59 -153l-102 -146h-115zM569 956l93 131q8 12 17.5 22.5t14.5 14.5l6 4v9q-33 4 -53 30t-20 62q0 51 36 87t87 36q41 0 68.5 -28t27.5 -69 q0 -66 -60 -153l-102 -146h-115z" />
<glyph unicode="&#x201e;" horiz-adv-x="784" d="M6 -195l92 132q8 12 18 22t16 14l5 4v9q-33 4 -53.5 30t-20.5 62q0 51 36 87t87 36q41 0 69 -28t28 -69q0 -66 -60 -153l-102 -146h-115zM471 -195l92 132q8 12 17.5 22t15.5 14l6 4v9q-33 4 -53.5 30t-20.5 62q0 51 36 87t87 36q41 0 69 -28t28 -69q0 -66 -60 -153 l-102 -146h-115z" />
<glyph unicode="&#x2022;" horiz-adv-x="620" d="M201 336q0 71 54.5 124.5t127.5 53.5q58 0 97.5 -41.5t39.5 -99.5q0 -71 -55.5 -123.5t-126.5 -52.5q-61 0 -99 40t-38 99z" />
<glyph unicode="&#x2026;" horiz-adv-x="1083" d="M63 84q0 52 40 90.5t94 38.5q42 0 70 -29.5t28 -72.5q0 -52 -39 -90.5t-92 -38.5q-44 0 -72.5 29.5t-28.5 72.5zM438 84q0 53 40 91t93 38q43 0 71 -29t28 -71q0 -54 -38.5 -92.5t-92.5 -38.5q-44 0 -72.5 29.5t-28.5 72.5zM815 84q0 52 39 90.5t92 38.5q44 0 72.5 -29.5 t28.5 -72.5q0 -52 -40 -90.5t-94 -38.5q-42 0 -70 29.5t-28 72.5z" />
<glyph unicode="&#x202f;" horiz-adv-x="326" />
<glyph unicode="&#x2039;" horiz-adv-x="509" d="M121 332l6 39l260 317h143l-2 -16l-256 -314l-2 -10l168 -317l-2 -17h-143z" />
<glyph unicode="&#x203a;" horiz-adv-x="509" d="M78 14l2 17l256 317l2 10l-168 314l2 16h143l172 -317l-4 -39l-262 -318h-143z" />
<glyph unicode="&#x205f;" horiz-adv-x="407" />
<glyph unicode="&#x20ac;" horiz-adv-x="1220" d="M139 401l19 129h137q8 106 22 162h-137l19 129h157q75 192 227.5 309t368.5 117q69 0 129.5 -15t97 -36.5t64 -42.5t38.5 -36l11 -15l-118 -129q-3 4 -9 11.5t-28 26.5t-47.5 33.5t-68 26.5t-89.5 12q-136 0 -236.5 -70t-158.5 -192h434l-19 -129h-458q-16 -74 -23 -162 h459l-19 -129h-430q24 -120 103.5 -188t214.5 -68q47 0 92.5 11.5t77 27.5t56 32.5t36.5 27.5l12 12l80 -127q-5 -6 -15.5 -15.5t-47 -34.5t-77 -44.5t-105.5 -35t-134 -15.5q-214 0 -333 114t-142 303h-160z" />
<glyph unicode="&#x2122;" horiz-adv-x="1513" d="M229 1128l15 101h522l-14 -101h-203l-78 -553h-115l78 553h-205zM799 575l92 654h33l252 -275l333 275h33l-92 -654h-115l62 437l-226 -189h-26l-170 189l-62 -437h-114z" />
<glyph unicode="&#x25fc;" horiz-adv-x="706" d="M0 0v707h707v-707h-707z" />
<glyph unicode="&#xfb01;" horiz-adv-x="1120" d="M117 578l18 131h164l43 301q26 178 118 266t238 88q43 0 81.5 -9.5t54 -17t18.5 -10.5l-61 -143q-48 24 -93 24q-84 0 -130.5 -48t-59.5 -150l-43 -301h250l-19 -131h-250l-79 -578h-166l80 578h-164zM836 0l100 709h168l-100 -709h-168zM969 1069q0 47 35 82t81 35 q39 0 66 -27t27 -65q0 -47 -36.5 -81t-84.5 -34q-38 0 -63 26t-25 64z" />
<glyph unicode="&#xfb02;" horiz-adv-x="1105" d="M117 578l18 131h164l43 301q26 178 118 266t238 88q43 0 81.5 -9.5t54 -17t18.5 -10.5l-61 -143q-48 24 -93 24q-84 0 -130.5 -48t-59.5 -150l-43 -301h250l-19 -131h-250l-79 -578h-166l80 578h-164zM817 0l193 1368h168l-193 -1368h-168z" />
<glyph unicode="&#xfb03;" horiz-adv-x="1812" d="M117 578l18 131h164l43 301q26 178 118 266t238 88q43 0 81.5 -9.5t54 -17t18.5 -10.5l-61 -143q-48 24 -93 24q-84 0 -130.5 -48t-59.5 -150l-43 -301h250l-19 -131h-250l-79 -578h-166l80 578h-164zM825 578l19 131h164l43 301q26 178 118 266t238 88q43 0 81.5 -9.5 t54 -17t18.5 -10.5l-62 -143q-47 24 -92 24q-84 0 -130.5 -48t-59.5 -150l-43 -301h249l-18 -131h-250l-80 -578h-166l80 578h-164zM1526 0l100 709h168l-100 -709h-168zM1659 1069q0 47 35.5 82t81.5 35q39 0 65.5 -26.5t26.5 -65.5q0 -47 -36.5 -81t-84.5 -34 q-38 0 -63 26t-25 64z" />
<glyph unicode="&#xfb04;" horiz-adv-x="1798" d="M117 578l18 131h164l43 301q26 178 118 266t238 88q43 0 81.5 -9.5t54 -17t18.5 -10.5l-61 -143q-48 24 -93 24q-84 0 -130.5 -48t-59.5 -150l-43 -301h250l-19 -131h-250l-79 -578h-166l80 578h-164zM825 578l19 131h164l43 301q26 178 118 266t238 88q43 0 81.5 -9.5 t54 -17t18.5 -10.5l-62 -143q-47 24 -92 24q-84 0 -130.5 -48t-59.5 -150l-43 -301h249l-18 -131h-250l-80 -578h-166l80 578h-164zM1509 0l193 1368h168l-193 -1368h-168z" />
</font>
</defs>
</svg>
