<?xml version="1.0" standalone="no"?>
<!DOCTYPE svg PUBLIC "-//W3C//DTD SVG 1.1//EN" "http://www.w3.org/Graphics/SVG/1.1/DTD/svg11.dtd" >
<svg xmlns="http://www.w3.org/2000/svg">
<metadata></metadata>
<defs>
<font id="arquitecta_heavyheavy_italic" horiz-adv-x="849" >
<font-face units-per-em="2048" ascent="1536" descent="-512" />
<missing-glyph horiz-adv-x="350" />
<glyph horiz-adv-x="0" />
<glyph horiz-adv-x="682" />
<glyph horiz-adv-x="0" />
<glyph horiz-adv-x="0" />
<glyph unicode="&#xd;" horiz-adv-x="462" />
<glyph unicode=" "  horiz-adv-x="350" />
<glyph unicode="&#x09;" horiz-adv-x="350" />
<glyph unicode="&#xa0;" horiz-adv-x="350" />
<glyph unicode="!" horiz-adv-x="516" d="M125 115q0 69 52.5 119.5t121.5 50.5q56 0 93.5 -38.5t37.5 -94.5q0 -69 -52.5 -118.5t-121.5 -49.5q-57 0 -94 37.5t-37 93.5zM233 408l41 735l13 86h284l-12 -86l-164 -735h-162z" />
<glyph unicode="&#x22;" horiz-adv-x="708" d="M211 948q16 86 53.5 238t46.5 190h205l-4 -39l-145 -389h-156zM543 948q16 86 53.5 238t46.5 190h205l-4 -39l-146 -389h-155z" />
<glyph unicode="#" horiz-adv-x="1353" d="M104 305l54 144h243l109 296h-244l53 144h244l111 305h153l-110 -305h297l112 305h154l-113 -305h250l-53 -144h-248l-108 -296h247l-53 -144h-248l-110 -305h-154l111 305h-297l-111 -305h-153l110 305h-246zM555 449h299l109 296h-299z" />
<glyph unicode="$" horiz-adv-x="1128" d="M88 131l162 188q6 -5 17 -13t47 -28t74 -35.5t95 -28.5t113 -13q116 0 172.5 42.5t56.5 110.5q0 53 -51.5 89t-189.5 75q-192 57 -284.5 134t-92.5 198q0 166 117 273.5t333 127.5l21 146h170l-21 -146q74 -5 138.5 -19.5t103.5 -31.5t67.5 -33.5t39.5 -27.5l12 -11 l-160 -202q-5 4 -14 11t-39.5 24.5t-65 31t-88.5 24.5t-110 11q-108 0 -163.5 -36t-55.5 -99q0 -49 51 -80.5t182 -67.5q202 -57 295.5 -137t93.5 -205q0 -81 -28.5 -153t-84.5 -130t-146.5 -96t-205.5 -47l-20 -145h-170l20 145q-77 7 -145.5 25.5t-111.5 39.5t-75 41.5 t-45 34.5z" />
<glyph unicode="%" horiz-adv-x="1380" d="M160 94l1120 1155l115 -102l-1125 -1155zM195 911q0 139 92.5 241.5t238.5 102.5q115 0 179.5 -74.5t64.5 -185.5q0 -140 -92.5 -244t-237.5 -104q-116 0 -180.5 76t-64.5 188zM367 915q0 -59 24 -90.5t70 -31.5q65 0 101 52.5t36 143.5q0 59 -24 91t-68 32 q-66 0 -102.5 -53t-36.5 -144zM784 246q0 139 93 242.5t237 103.5q117 0 181.5 -75.5t64.5 -188.5q0 -137 -93.5 -240.5t-238.5 -103.5q-115 0 -179.5 76t-64.5 186zM956 250q0 -58 24 -89.5t69 -31.5q67 0 102 53t35 144q0 123 -92 123q-66 0 -102 -54t-36 -145z" />
<glyph unicode="&#x26;" horiz-adv-x="1329" d="M145 299q0 74 23.5 133.5t68 103t93 74t114.5 58.5l-22 26q-80 86 -80 211q0 150 116 250t304 100q160 0 252 -79t92 -199q0 -74 -24 -134t-70 -104t-94 -73.5t-115 -59.5l192 -211q67 97 82 209l6 47h238l-6 -43q-28 -198 -174 -370l200 -220l-4 -18h-293l-77 84 q-173 -111 -375 -111q-222 0 -334.5 88.5t-112.5 237.5zM422 336q0 -64 52 -106t149 -42q111 0 204 52l-243 274q-79 -38 -120.5 -79t-41.5 -99zM575 905q0 -71 87 -155q101 38 154.5 81.5t53.5 108.5q0 48 -33 78.5t-98 30.5q-73 0 -118.5 -39.5t-45.5 -104.5z" />
<glyph unicode="'" horiz-adv-x="376" d="M211 948q16 86 53.5 238t46.5 190h205l-4 -39l-145 -389h-156z" />
<glyph unicode="(" horiz-adv-x="722" d="M111 416q0 120 27.5 232.5t72 200.5t105 168.5t121.5 138t128 107t117.5 79t95.5 49.5l101 -172q-510 -281 -510 -791q0 -99 23.5 -188t56.5 -150t80 -115t81.5 -83.5t73.5 -55.5l-149 -172q-46 24 -96.5 63t-110.5 107.5t-107 149t-78.5 194.5t-31.5 238z" />
<glyph unicode=")" horiz-adv-x="722" d="M-8 -164q41 23 78 46t91.5 64.5t98.5 86t91 109t79 134t53 161t21 190.5t-23.5 188t-57 150t-80.5 115t-82.5 83.5t-74.5 55.5l150 172q46 -24 96.5 -62.5t110.5 -106.5t107 -148.5t78.5 -194.5t31.5 -238q0 -119 -27.5 -231.5t-72 -200.5t-105 -168.5t-122 -139 t-128 -108t-117.5 -79.5t-96 -50z" />
<glyph unicode="*" horiz-adv-x="808" d="M244 1196l73 154l48 -19l137 -78l-47 -96l-156 21zM287 965l39 49l135 112l74 -57l-93 -151l-39 -46zM526 1434l9 59h159l-8 -59l-51 -158h-103zM573 1069l91 55l104 -110l29 -49l-146 -93l-26 46zM662 1255l155 78l57 17l27 -154l-57 -18l-164 -21z" />
<glyph unicode="+" horiz-adv-x="993" d="M150 510l28 201h318l45 313h202l-45 -313h318l-29 -201h-317l-41 -299h-203l41 299h-317z" />
<glyph unicode="," horiz-adv-x="397" d="M27 -197l86 121q11 16 23 28.5t18 17.5l6 5l2 13q-42 9 -67 42t-25 79q0 66 49 113.5t117 47.5q55 0 89.5 -36t34.5 -91q0 -94 -86 -215l-88 -125h-159z" />
<glyph unicode="-" horiz-adv-x="772" d="M158 492l28 200h596l-28 -200h-596z" />
<glyph unicode="." horiz-adv-x="393" d="M70 111q0 65 50 112t116 47q55 0 88.5 -36t33.5 -91q0 -65 -49 -112t-114 -47q-55 0 -90 36t-35 91z" />
<glyph unicode="/" horiz-adv-x="790" d="M-2 -360l707 1800h241l-706 -1800h-242z" />
<glyph unicode="0" horiz-adv-x="1277" d="M156 514q0 115 28 224t84 202.5t134 164t184.5 110.5t228.5 40q119 0 212.5 -42.5t151.5 -117t87.5 -170.5t29.5 -208q0 -115 -28 -224t-84 -203.5t-134 -165t-185 -111t-230 -40.5q-95 0 -174.5 28t-135 77.5t-94.5 117.5t-57 148t-18 170zM414 535q0 -147 65.5 -235.5 t190.5 -88.5q115 0 200 66.5t126.5 174.5t41.5 242q0 147 -65 235.5t-191 88.5q-113 0 -198 -65.5t-127.5 -174.5t-42.5 -243z" />
<glyph unicode="1" horiz-adv-x="700" d="M182 1012l31 217h492l-173 -1229h-247l141 1012h-244z" />
<glyph unicode="2" horiz-adv-x="1069" d="M78 2l6 43l573 580q83 86 108.5 126.5t25.5 96.5q0 72 -50 119t-137 47q-53 0 -106 -16t-94.5 -41.5t-61 -39.5t-33.5 -26l-102 199q7 7 21 18t60.5 39.5t96.5 50t127 39.5t154 18q106 0 187 -26t130 -72t73.5 -105t24.5 -130q0 -99 -43.5 -184t-138.5 -177l-338 -344 h459l-31 -217h-903l2 4z" />
<glyph unicode="3" horiz-adv-x="1079" d="M66 137q28 33 78.5 99.5t72.5 93.5q5 -5 14.5 -13.5t40.5 -30t64.5 -38t84.5 -30t103 -13.5q130 0 198.5 57.5t68.5 147.5q0 73 -51.5 116t-149.5 43h-156l6 56l291 387h-467l31 217h840l-7 -45l-333 -443q131 -23 196.5 -102.5t65.5 -206.5q0 -94 -36 -176.5 t-103.5 -146t-175.5 -100t-242 -36.5q-79 0 -152 16.5t-120.5 38.5t-86.5 48t-55 40.5t-20 20.5z" />
<glyph unicode="4" horiz-adv-x="1165" d="M80 266l24 172l832 791h178l-106 -748h153l-31 -215h-153l-37 -266h-248l37 266h-649zM438 481h320l53 371l-319 -309q-8 -7 -20.5 -16t-21.5 -14l-8 -5z" />
<glyph unicode="5" horiz-adv-x="1064" d="M66 137l151 193q5 -5 14.5 -13.5t41 -30t65.5 -38t85 -30t103 -13.5q128 0 196.5 58t68.5 149q0 74 -63.5 116.5t-197.5 42.5q-80 0 -150 -11.5t-93 -19t-33 -12.5l-25 19l117 682h750l-31 -217h-522l-43 -246q78 8 121 8q228 0 332 -90t104 -246q0 -98 -36 -182 t-104.5 -147.5t-175.5 -99.5t-241 -36q-79 0 -152.5 17t-122.5 41t-86.5 48t-54.5 41z" />
<glyph unicode="6" horiz-adv-x="1083" d="M129 344q0 43 4 68q23 169 172 372l324 445h303l-277 -373q-14 -19 -31.5 -35.5t-28.5 -22.5l-11 -7l-2 -19q36 19 114 19q189 0 296.5 -90.5t107.5 -247.5q0 -144 -75.5 -255t-197 -168t-266.5 -57q-198 0 -315 100.5t-117 270.5zM395 358q0 -76 51 -123t138 -47 q112 0 178.5 65t66.5 161q0 74 -49.5 123t-140.5 49q-118 0 -181 -62.5t-63 -165.5z" />
<glyph unicode="7" horiz-adv-x="974" d="M131 0l635 1012h-561l31 217h905l-6 -55l-711 -1174h-293z" />
<glyph unicode="8" horiz-adv-x="1118" d="M125 305q0 111 61 201t170 145q-102 83 -102 221q0 161 134 272t347 111q180 0 282.5 -86.5t102.5 -220.5q0 -91 -46.5 -169.5t-129.5 -131.5q146 -94 146 -262q0 -172 -147.5 -292t-387.5 -120q-203 0 -316.5 94t-113.5 238zM393 346q0 -65 53.5 -111.5t139.5 -46.5 q104 0 173.5 58.5t69.5 138.5q0 73 -52 118.5t-140 45.5q-104 0 -174 -58.5t-70 -144.5zM506 864q0 -60 42 -99.5t114 -39.5q89 0 145.5 51t56.5 125q0 59 -43 98t-116 39q-87 0 -143 -51t-56 -123z" />
<glyph unicode="9" horiz-adv-x="1089" d="M160 774q0 108 43 199t116.5 152.5t171 95.5t205.5 34q197 0 315.5 -100t118.5 -270q0 -202 -174 -443l-321 -442h-313l276 373q14 18 31 34.5t27 23.5l10 7v15q-55 -19 -117 -19q-179 0 -284 91.5t-105 248.5zM438 813q0 -73 48 -119.5t135 -46.5q98 0 167.5 62 t69.5 159q0 72 -50.5 117t-135.5 45q-104 0 -169 -62.5t-65 -154.5z" />
<glyph unicode=":" horiz-adv-x="438" d="M92 111q0 64 49 111.5t115 47.5q55 0 90 -36t35 -91q0 -65 -49.5 -112t-116.5 -47q-55 0 -89 36t-34 91zM154 551q0 65 48.5 113.5t114.5 48.5q55 0 91 -37t36 -92q0 -66 -50 -113t-118 -47q-54 0 -88 36t-34 91z" />
<glyph unicode=";" horiz-adv-x="452" d="M57 -197l86 121q11 16 23 28.5t18 17.5l6 5l3 13q-43 9 -68 42t-25 79q0 66 49 113.5t117 47.5q55 0 90 -36t35 -91q0 -87 -76 -196l-100 -144h-158zM164 551q0 65 49.5 113.5t114.5 48.5q55 0 90 -37t35 -92q0 -65 -49.5 -112.5t-114.5 -47.5q-55 0 -90 36t-35 91z" />
<glyph unicode="&#x3c;" horiz-adv-x="792" d="M143 565l7 49l559 476l120 -150l-419 -352l321 -350l-164 -148z" />
<glyph unicode="=" horiz-adv-x="1161" d="M221 307l29 201h807l-29 -201h-807zM276 698l27 199h807l-27 -199h-807z" />
<glyph unicode="&#x3e;" horiz-adv-x="792" d="M127 238l420 350l-322 352l164 150l426 -476l-8 -49l-557 -475z" />
<glyph unicode="?" horiz-adv-x="806" d="M229 1190q14 7 40 17.5t110 28t172 17.5q149 0 232 -75t83 -189q0 -64 -16 -117t-43 -90t-60 -69t-69.5 -60.5t-69 -57.5t-61 -67.5t-43.5 -83.5l-10 -49h-164l10 68q10 63 41.5 117.5t69 92.5t74 75t61 81.5t24.5 94.5q0 59 -39 93t-104 34q-46 0 -91 -12.5t-67 -24.5 l-22 -13zM233 111q0 66 50 112.5t118 46.5q53 0 87 -36t34 -91q0 -64 -48.5 -112.5t-113.5 -48.5q-56 0 -91.5 37t-35.5 92z" />
<glyph unicode="@" horiz-adv-x="1855" d="M109 246q0 153 40 297.5t122.5 271.5t199.5 222t281 150.5t356 55.5q157 0 285 -39.5t211.5 -104t140.5 -151.5t81.5 -177t24.5 -185q0 -273 -130 -443t-341 -170q-60 0 -106.5 14t-70.5 34.5t-40 41t-20 34.5l-4 14h-17q-10 -17 -26.5 -34t-47.5 -40t-81 -37t-111 -14 q-134 0 -216.5 85t-82.5 230q0 194 117 310t287 116q157 0 217 -98l43 80h151l-57 -402q-19 -133 108 -133q101 0 163.5 100t62.5 279q0 108 -35 198.5t-104 158t-178.5 105.5t-250.5 38q-226 0 -402.5 -101t-273 -278.5t-96.5 -401.5q0 -263 154 -422t426 -159 q98 0 185 16.5t125 33.5l38 17l57 -168q-6 -4 -16.5 -10t-50 -21.5t-85 -27.5t-121.5 -21.5t-159 -9.5q-153 0 -279 39.5t-213 108t-146.5 163.5t-87 204t-27.5 231zM786 332q0 -67 39 -109.5t103 -42.5q87 0 139.5 57.5t52.5 149.5q0 67 -37.5 105t-105.5 38 q-81 0 -136 -55t-55 -143z" />
<glyph unicode="A" horiz-adv-x="1265" d="M-20 0l802 1229h43l461 -1229h-280l-58 168h-586l-102 -168h-280zM473 352h416q-29 80 -77.5 234.5t-61.5 193.5h-17l-244 -405z" />
<glyph unicode="B" horiz-adv-x="1302" d="M147 0l172 1229h590q197 0 300.5 -75.5t103.5 -213.5q0 -103 -52 -182.5t-143 -114.5l-4 -20q75 -28 117.5 -88.5t42.5 -139.5q0 -185 -140.5 -290t-379.5 -105h-607zM426 217h367q95 0 156 49.5t61 124.5q0 59 -43.5 97t-118.5 42h-379zM496 713h335q98 0 155.5 48 t57.5 122q0 62 -43 95.5t-127 33.5h-337z" />
<glyph unicode="C" horiz-adv-x="1191" d="M150 532q0 145 56 277.5t153 231t238 156.5t302 58q84 0 157.5 -15.5t118.5 -37.5t78 -44.5t47 -37.5l13 -16l-168 -191q-5 4 -13.5 11t-36.5 25.5t-58 32t-76 25t-91 11.5q-194 0 -328 -131.5t-134 -325.5q0 -155 96 -253.5t254 -98.5q52 0 102.5 11t85 26.5t62 31 t40.5 26.5l13 11l115 -190q-6 -6 -18.5 -16.5t-56 -36.5t-92 -46t-127 -36.5t-161.5 -16.5q-178 0 -309 75t-196.5 200.5t-65.5 283.5z" />
<glyph unicode="D" horiz-adv-x="1355" d="M147 0l172 1229h484q269 0 422 -146.5t153 -384.5q0 -149 -54.5 -278t-151.5 -221.5t-237 -145.5t-304 -53h-484zM426 217h219q205 0 340 122t135 335q0 161 -99.5 249.5t-264.5 88.5h-219z" />
<glyph unicode="E" horiz-adv-x="1173" d="M147 0l172 1229h955l-31 -217h-706l-41 -299h581l-28 -203h-582l-41 -293h707l-31 -217h-955z" />
<glyph unicode="F" horiz-adv-x="1148" d="M147 0l172 1229h955l-31 -217h-706l-41 -299h606l-29 -203h-606l-72 -510h-248z" />
<glyph unicode="G" horiz-adv-x="1363" d="M150 530q0 146 55 278t151.5 231t238.5 157.5t306 58.5q90 0 168 -16t125 -38.5t81.5 -45.5t48.5 -39l13 -16l-172 -189q-4 4 -12.5 11.5t-38 26t-62 32.5t-84 25.5t-106.5 11.5q-193 0 -323.5 -132t-130.5 -327q0 -155 92 -252.5t248 -97.5q147 0 247 80.5t115 204.5 l2 16h-352l28 203h615l-17 -121q-39 -282 -214 -450.5t-455 -168.5q-177 0 -307.5 75t-195 200t-64.5 282z" />
<glyph unicode="H" horiz-adv-x="1396" d="M147 0l172 1229h248l-73 -529h606l74 529h247l-172 -1229h-248l70 500h-606l-70 -500h-248z" />
<glyph unicode="I" horiz-adv-x="544" d="M147 0l172 1229h248l-172 -1229h-248z" />
<glyph unicode="J" horiz-adv-x="972" d="M41 74l141 209q11 -8 29.5 -19t73 -30t104.5 -19q119 0 183 60.5t83 193.5l107 760h248l-113 -811q-14 -95 -52.5 -174t-101.5 -140.5t-157.5 -96t-212.5 -34.5q-61 0 -116.5 10t-91 22.5t-65.5 29t-41.5 25t-17.5 14.5z" />
<glyph unicode="K" horiz-adv-x="1277" d="M147 0l172 1229h248l-82 -582l643 582h304l-5 -27l-548 -497l385 -678l-4 -27h-299q-14 27 -121 225t-160 299l-242 -221l-43 -303h-248z" />
<glyph unicode="L" horiz-adv-x="1075" d="M147 0l172 1229h248l-141 -1012h655l-30 -217h-904z" />
<glyph unicode="M" horiz-adv-x="1552" d="M147 0l172 1229h68l483 -551l641 551h66l-172 -1229h-246l101 725l-406 -360h-49l-309 360l-101 -725h-248z" />
<glyph unicode="N" horiz-adv-x="1427" d="M147 0l172 1229h62l721 -733l102 731h246l-172 -1227h-59l-719 752l-105 -752h-248z" />
<glyph unicode="O" horiz-adv-x="1441" d="M150 530q0 146 55 278.5t152 231t237.5 157t302.5 58.5q177 0 307.5 -75t195 -200t64.5 -282q0 -195 -93 -360t-265.5 -265t-388.5 -100q-176 0 -306.5 75t-195.5 200t-65 282zM408 559q0 -154 94 -251t248 -97q192 0 325 131.5t133 325.5q0 155 -95 252.5t-251 97.5 q-190 0 -322 -132.5t-132 -326.5z" />
<glyph unicode="P" horiz-adv-x="1251" d="M147 0l172 1229h558q211 0 329.5 -96t118.5 -269q0 -156 -77 -269t-208 -169.5t-301 -56.5h-293l-51 -369h-248zM475 580h303q137 0 213 62t76 185q0 90 -60.5 137.5t-170.5 47.5h-299z" />
<glyph unicode="Q" horiz-adv-x="1441" d="M150 530q0 146 55 278.5t152 231t237.5 157t302.5 58.5q177 0 307.5 -75t195 -200t64.5 -282q0 -183 -82.5 -340.5t-228.5 -255.5l100 -184l-4 -27h-264l-57 109q-111 -27 -211 -27q-176 0 -306.5 75t-195.5 200t-65 282zM408 559q0 -154 94 -251t248 -97q33 0 65 4 l-127 244l4 28h252l96 -176q78 63 123 156t45 201q0 155 -95 252.5t-251 97.5q-190 0 -322 -132.5t-132 -326.5z" />
<glyph unicode="R" horiz-adv-x="1314" d="M147 0l172 1229h555q213 0 332 -96t119 -269q0 -156 -77.5 -267t-213.5 -169l-2 -14l240 -389l-4 -25h-281l-219 375h-322l-51 -375h-248zM477 584h305q133 0 208 62t75 181q0 90 -59.5 137.5t-169.5 47.5h-299z" />
<glyph unicode="S" horiz-adv-x="1118" d="M82 131l162 188q6 -5 17 -13t47 -28t74 -35.5t95 -28.5t113 -13q116 0 172.5 42.5t56.5 110.5q0 53 -51.5 89t-189.5 75q-192 57 -284.5 134t-92.5 198q0 183 140 294t394 111q92 0 172 -13t128.5 -31.5t83.5 -37.5t49 -32l14 -13l-160 -202q-5 4 -14 11t-39.5 24.5 t-65 31t-88.5 24.5t-110 11q-108 0 -164 -36t-56 -99q0 -49 51.5 -80.5t182.5 -67.5q202 -57 295.5 -137t93.5 -205q0 -88 -33.5 -164t-98.5 -136.5t-171 -95t-242 -34.5q-95 0 -179 16.5t-137 39.5t-92 46t-56 39z" />
<glyph unicode="T" horiz-adv-x="1101" d="M168 1012l31 217h1048l-30 -217h-400l-141 -1012h-248l141 1012h-401z" />
<glyph unicode="U" horiz-adv-x="1357" d="M203 524l98 705h248l-98 -705q-20 -135 46 -224t212 -89q147 0 235.5 88t108.5 225l98 705h248l-99 -705q-35 -243 -203 -397t-421 -154q-167 0 -283 71.5t-164 196.5t-26 283z" />
<glyph unicode="V" horiz-adv-x="1265" d="M152 1229h278l186 -551l68 -244h18q66 124 141.5 251t184 301t150.5 243h280l-805 -1229h-45z" />
<glyph unicode="W" horiz-adv-x="1693" d="M168 1229h268l129 -555l23 -164h30q54 107 115.5 228t135.5 264.5t116 226.5h70l133 -576l29 -143h30l70 164l282 555h271l-674 -1229h-78l-133 573l-29 148h-16q-52 -109 -114 -230t-137.5 -264.5t-117.5 -226.5h-73z" />
<glyph unicode="X" horiz-adv-x="1202" d="M23 0l479 629l-299 600h299l174 -373l33 -104l63 104q24 34 135.5 182.5t139.5 190.5h299l-472 -600l310 -629h-299l-178 393l-35 103q-48 -77 -107.5 -160.5t-132 -181t-113.5 -154.5h-296z" />
<glyph unicode="Y" horiz-adv-x="1153" d="M164 1229h287l194 -428l25 -78h22l47 78l312 428h286l-571 -760l-66 -469h-247l65 471z" />
<glyph unicode="Z" horiz-adv-x="1134" d="M53 0l8 66l760 946h-604l31 217h999l-8 -68l-737 -944h598l-31 -217h-1016z" />
<glyph unicode="[" horiz-adv-x="696" d="M86 -324l240 1704h524l-29 -200h-291l-182 -1303h291l-29 -201h-524z" />
<glyph unicode="\" horiz-adv-x="790" d="M250 1440h242l198 -1800h-241z" />
<glyph unicode="]" horiz-adv-x="696" d="M-2 -324l29 201h288l183 1303h-289l29 200h522l-240 -1704h-522z" />
<glyph unicode="^" horiz-adv-x="806" d="M238 1004l6 38l286 326h132l198 -326l-6 -38h-182l-101 192l-153 -192h-180z" />
<glyph unicode="_" horiz-adv-x="1028" d="M43 -242l29 201h870l-29 -201h-870z" />
<glyph unicode="`" horiz-adv-x="520" d="M236 1143l6 39h282l27 -285l-6 -39h-158z" />
<glyph unicode="a" horiz-adv-x="870" d="M76 178q0 110 88 176t242 66q61 0 106 -11t59 -20.5t21 -17.5h10l4 30q9 66 -32.5 97.5t-135.5 31.5q-48 0 -97.5 -12t-74.5 -24l-26 -13l-50 178q15 7 43 18t112 29.5t167 18.5q191 0 271 -89.5t57 -246.5l-56 -389h-178l-14 74h-12q-67 -90 -248 -90 q-119 0 -187.5 54.5t-68.5 139.5zM313 211q0 -33 28.5 -53.5t82.5 -20.5q67 0 110.5 28.5t43.5 63.5q0 33 -34.5 53.5t-94.5 20.5q-64 0 -100 -25.5t-36 -66.5z" />
<glyph unicode="b" horiz-adv-x="956" d="M98 0l193 1368h246l-103 -725h10q2 3 7 8.5t23 20t40 25t60 19.5t81 9q132 0 214.5 -88.5t82.5 -230.5q0 -188 -118 -305t-291 -117q-50 0 -91 11t-64 27t-39 32t-21 27l-6 11h-11l-51 -92h-162zM379 330q0 -65 37.5 -104.5t101.5 -39.5q79 0 131.5 56t52.5 139 q0 64 -36.5 102.5t-100.5 38.5q-82 0 -134 -53t-52 -139z" />
<glyph unicode="c" horiz-adv-x="735" d="M98 309q0 175 132.5 295.5t332.5 120.5q44 0 83.5 -6t64.5 -14.5t43 -17.5t26 -15l8 -6l-94 -181q-51 37 -137 37q-91 0 -150 -52.5t-59 -137.5q0 -66 44.5 -106t117.5 -40q38 0 75 9t55 19l17 9l41 -180q-9 -7 -27 -16.5t-80 -26t-132 -16.5q-165 0 -263 92t-98 233z " />
<glyph unicode="d" horiz-adv-x="956" d="M102 299q0 183 118 304.5t284 121.5q43 0 78.5 -8t55 -20t32.5 -24t18 -20l4 -8h10l103 723h246l-193 -1368h-162l-26 90h-11q-3 -4 -9 -11.5t-28 -25.5t-48.5 -32t-71 -25.5t-94.5 -11.5q-137 0 -221.5 85t-84.5 230zM354 332q0 -64 36.5 -105t98.5 -41q83 0 136 54.5 t53 140.5q0 65 -37.5 103t-103.5 38q-79 0 -131 -53.5t-52 -136.5z" />
<glyph unicode="e" d="M100 307q0 177 127 297.5t314 120.5q149 0 233 -84.5t84 -226.5q0 -24 -3.5 -50.5t-6.5 -40.5l-4 -14h-508q6 -71 51 -106t119 -35q52 0 99 12t68 24l21 11l58 -154q-4 -3 -12 -8.5t-35 -19.5t-57 -24.5t-78.5 -19.5t-100.5 -9q-174 0 -271.5 92t-97.5 235zM352 430h279 q0 51 -31 84t-86 33q-57 0 -99.5 -30t-62.5 -87z" />
<glyph unicode="f" horiz-adv-x="686" d="M113 518l26 191h152l39 276q27 188 130 283.5t257 95.5q50 0 92.5 -9t58 -16.5t23.5 -13.5l-90 -211q-45 23 -80 23q-125 0 -146 -152l-38 -276h221l-27 -191h-221l-74 -518h-246l74 518h-151z" />
<glyph unicode="g" d="M-4 -254q0 151 156 213l2 10q-93 44 -93 131q0 59 30.5 105.5t117.5 87.5q-37 56 -37 125q0 131 104 219t248 88q53 0 149 -5.5t166 -11.5l70 -6l-24 -167h-111v-11q17 -18 17 -67q0 -113 -96.5 -194t-248.5 -81q-59 0 -114 19q-31 -15 -42 -27.5t-11 -32.5 q0 -26 36.5 -40.5t133.5 -14.5q376 0 376 -240q0 -144 -120 -238.5t-338 -94.5q-183 0 -277 65.5t-94 167.5zM233 -217q0 -40 38 -68t120 -28q96 0 143.5 34.5t47.5 81.5q0 43 -38.5 72t-121.5 29q-94 0 -141.5 -36.5t-47.5 -84.5zM373 436q0 -38 26 -63t72 -25q57 0 92 33 t35 80q0 40 -26 65t-72 25q-57 0 -92 -34t-35 -81z" />
<glyph unicode="h" horiz-adv-x="948" d="M96 0l193 1368h250l-103 -723h6q88 82 217 82q138 0 209.5 -83t51.5 -226l-60 -416h-246l54 381q9 64 -20 102.5t-91 38.5q-63 0 -105.5 -38.5t-50.5 -92.5l-55 -393h-250z" />
<glyph unicode="i" horiz-adv-x="440" d="M98 0l101 709h245l-100 -709h-246zM231 1065q0 65 49 112.5t113 47.5q55 0 90 -36t35 -91q0 -65 -49.5 -111.5t-114.5 -46.5q-54 0 -88.5 35.5t-34.5 89.5z" />
<glyph unicode="j" horiz-adv-x="440" d="M-100 -379l61 182q20 -10 47 -10q59 0 68 68l119 848h249l-120 -861q-37 -260 -281 -260q-44 0 -79.5 8t-49.5 16zM227 1065q0 64 49 112t115 48q54 0 88.5 -36.5t34.5 -90.5q0 -65 -48.5 -111.5t-113.5 -46.5q-55 0 -90 35.5t-35 89.5z" />
<glyph unicode="k" horiz-adv-x="874" d="M96 0l193 1368h246l-136 -960h7l256 301h272l-305 -344l237 -365h-297l-180 287h-8l-39 -287h-246z" />
<glyph unicode="l" horiz-adv-x="440" d="M98 0l193 1368h246l-193 -1368h-246z" />
<glyph unicode="m" horiz-adv-x="1460" d="M98 0l101 709h151l23 -97h12q95 113 258 113q174 0 242 -117h10q35 52 105 84.5t159 32.5q146 0 219.5 -82.5t53.5 -224.5l-60 -418h-246l54 383q9 64 -19.5 101.5t-89.5 37.5q-64 0 -107 -37t-51 -92l-55 -393h-246l56 389q8 61 -21.5 97t-91.5 36q-64 0 -106 -38 t-50 -93l-55 -391h-246z" />
<glyph unicode="n" horiz-adv-x="944" d="M98 0l101 709h151l23 -97h12q95 113 258 113q147 0 221 -82.5t54 -224.5l-60 -418h-246l54 383q9 64 -20 101.5t-91 37.5q-64 0 -106 -38t-50 -93l-55 -391h-246z" />
<glyph unicode="o" horiz-adv-x="911" d="M98 305q0 122 64.5 219.5t169 149t225.5 51.5q153 0 253.5 -90.5t100.5 -237.5q0 -91 -37.5 -169.5t-100.5 -131t-146 -82.5t-174 -30q-155 0 -255 88t-100 233zM340 328q0 -68 37.5 -109t101.5 -41q83 0 137 57t54 146q0 67 -38.5 108t-103.5 41q-80 0 -134 -57.5 t-54 -144.5z" />
<glyph unicode="p" horiz-adv-x="956" d="M43 -393l156 1102h155l25 -97h10q3 5 9.5 12.5t29.5 27t50.5 34.5t73 27t95.5 12q138 0 222.5 -85t84.5 -230q0 -183 -118.5 -304.5t-284.5 -121.5q-43 0 -78.5 8t-55 19.5t-33 23.5t-18.5 20l-4 8h-10l-63 -456h-246zM379 328q0 -65 37.5 -103.5t101.5 -38.5 q80 0 132 54t52 137q0 64 -37 104.5t-100 40.5q-82 0 -134 -54t-52 -140z" />
<glyph unicode="q" horiz-adv-x="956" d="M102 303q0 187 119 304.5t291 117.5q52 0 94 -12t65.5 -29.5t40 -34.5t22.5 -29l5 -12h9l51 101h157l-153 -1102h-246l64 459h-11q-2 -3 -7 -8.5t-22.5 -20t-39.5 -25t-60 -19.5t-82 -9q-133 0 -215 88t-82 231zM352 328q0 -64 37.5 -103t99.5 -39q83 0 135 53.5 t52 139.5q0 65 -37 104t-102 39q-78 0 -131.5 -55.5t-53.5 -138.5z" />
<glyph unicode="r" horiz-adv-x="661" d="M98 0l101 709h151l23 -97h10q40 49 96.5 78t120.5 29q51 0 90 -13.5t52 -26.5l14 -13l-117 -197q-33 29 -92 29q-57 0 -101 -34.5t-51 -88.5l-51 -375h-246z" />
<glyph unicode="s" horiz-adv-x="782" d="M66 57l88 168q12 -8 33 -19t80 -29.5t112 -18.5q51 0 78.5 16.5t27.5 44.5q0 21 -26 35.5t-65.5 23t-85.5 23t-85.5 32.5t-65.5 54.5t-26 87.5q0 110 88.5 180t265.5 70q97 0 177 -14.5t112 -29.5l31 -15l-94 -177q-9 7 -25.5 17t-72.5 26.5t-119 16.5q-99 0 -99 -55 q0 -20 27 -34.5t67.5 -23t88 -23.5t88 -33.5t67.5 -55.5t27 -88q0 -111 -96.5 -181.5t-280.5 -70.5q-62 0 -118 7.5t-90.5 18t-60.5 21.5t-37 19z" />
<glyph unicode="t" horiz-adv-x="696" d="M106 514l27 195h127l31 211h246l-31 -211h225l-26 -195h-226l-30 -221q-15 -103 77 -103q23 0 45 6t33 12l10 7l58 -166q-9 -7 -25 -18t-72 -29t-118 -18q-139 0 -207.5 79.5t-48.5 221.5l32 229h-127z" />
<glyph unicode="u" horiz-adv-x="942" d="M127 291l59 418h246l-53 -383q-9 -64 19 -102t89 -38t104.5 35t51.5 86l57 402h246l-100 -709h-168l-27 94h-10q-80 -110 -242 -110q-146 0 -219 82.5t-53 224.5z" />
<glyph unicode="v" horiz-adv-x="860" d="M102 709h271l88 -353q8 -40 4 -63h12q5 30 25 63l186 353h268l-438 -709h-176z" />
<glyph unicode="w" horiz-adv-x="1234" d="M109 709h266l65 -353q6 -30 6 -63h13q4 23 24 63l152 353h170l51 -338q4 -23 4 -78h14q2 10 5.5 19.5t10 23.5t9.5 20l164 353h264l-405 -709h-160l-74 315q-8 36 -8 88h-10q-4 -33 -27 -77l-170 -326h-160z" />
<glyph unicode="x" horiz-adv-x="866" d="M14 0l324 356l-217 353h274l107 -199h6l164 199h274l-317 -353l223 -356h-274l-113 209h-6l-170 -209h-275z" />
<glyph unicode="y" horiz-adv-x="847" d="M27 -395l295 465l-216 639h271l88 -353q8 -40 4 -63h12q5 30 25 63l186 353h250l-655 -1102z" />
<glyph unicode="z" horiz-adv-x="808" d="M63 0l15 104l389 406h-328l29 199h674l-15 -91l-387 -419h330l-29 -199h-678z" />
<glyph unicode="{" horiz-adv-x="606" d="M80 434l26 187h44q58 0 91.5 35t43.5 110l51 373q19 139 116 217.5t269 85.5l6 -205q-68 -10 -96.5 -31t-36.5 -82l-55 -393q-11 -75 -50 -126t-102 -70l-2 -17q57 -17 83 -68.5t15 -123.5l-57 -396q-8 -59 14.5 -80.5t87.5 -31.5l-63 -205q-170 7 -245 86t-56 217 l53 375q10 74 -13 108.5t-81 34.5h-43z" />
<glyph unicode="|" horiz-adv-x="483" d="M86 -311l238 1689h225l-238 -1689h-225z" />
<glyph unicode="}" horiz-adv-x="606" d="M27 -182q67 10 94.5 31t36.5 81l55 396q11 72 52 123.5t102 68.5l2 17q-57 19 -83 70t-16 126l56 393q9 61 -13 82t-88 31l62 205q172 -7 248 -85.5t55 -217.5l-53 -373q-10 -76 13 -110.5t81 -34.5h43l-27 -187h-43q-58 0 -90.5 -34.5t-42.5 -108.5l-53 -375 q-19 -138 -116.5 -217t-270.5 -86z" />
<glyph unicode="~" horiz-adv-x="937" d="M182 641q4 3 10.5 8.5t29.5 20t48 25t65 19.5t81 9q57 0 145 -25.5t148 -25.5q44 0 84 12t59 24l18 11l54 -152q-4 -3 -10.5 -8.5t-30 -20t-49 -25t-65.5 -19.5t-81 -9q-57 0 -145 26t-148 26q-43 0 -83.5 -12t-59.5 -24l-19 -12z" />
<glyph unicode="&#xa1;" horiz-adv-x="516" d="M115 0l12 86l164 735h162l-41 -735l-13 -86h-284zM260 1077q0 69 52.5 119.5t121.5 50.5q57 0 94 -39t37 -96q0 -68 -53.5 -117t-120.5 -49q-57 0 -94 37.5t-37 93.5z" />
<glyph unicode="&#xa2;" horiz-adv-x="829" d="M121 309q0 152 100.5 264.5t261.5 141.5l31 207h166l-29 -201q55 -6 103 -21.5t69 -27.5l21 -13l-111 -188q-8 6 -21.5 14.5t-53.5 22.5t-78 14q-91 0 -150 -52.5t-59 -137.5q0 -66 44 -106t117 -40q38 0 80 12t65 24l23 11l58 -188q-82 -45 -207 -57l-29 -199h-166 l29 205q-123 24 -193.5 110t-70.5 205z" />
<glyph unicode="&#xa3;" horiz-adv-x="1071" d="M129 2l31 215q5 2 13 5t29.5 18t39.5 35t35.5 57t23.5 82q3 22 0 47h-156l25 170h98q-16 66 -16 137q0 89 37 174t105 154.5t176 112t239 42.5q74 0 137 -14.5t99.5 -35.5t63 -42.5t36.5 -36.5l10 -14l-164 -184q-2 4 -7 9.5t-23 21t-39 27t-57 21t-77 9.5 q-125 0 -194.5 -72.5t-69.5 -179.5q0 -46 17 -129h364l-24 -170h-314q0 -142 -102 -244h532l-30 -215h-838z" />
<glyph unicode="&#xa4;" horiz-adv-x="1183" d="M145 279l140 120q-35 75 -35 164q0 142 90 262l-100 117l180 156l92 -125q111 57 223 57q118 0 207 -61l131 129l137 -156l-143 -125q33 -81 33 -160q0 -138 -88 -260l104 -118l-180 -156l-94 127q-105 -60 -226 -60q-112 0 -204 60l-129 -127zM479 588q0 -74 47.5 -124 t120.5 -50q87 0 156 65.5t69 153.5q0 73 -48.5 122.5t-121.5 49.5q-90 0 -156.5 -64t-66.5 -153z" />
<glyph unicode="&#xa5;" horiz-adv-x="1286" d="M211 182l25 170h331l15 111h-332l24 172h232l-277 594h287l195 -428l24 -78h23l47 78l311 428h287l-447 -594h232l-25 -172h-334l-14 -111h334l-25 -170h-333l-25 -182h-248l25 182h-332z" />
<glyph unicode="&#xa6;" horiz-adv-x="485" d="M86 -311l238 1689h225l-238 -1689h-225z" />
<glyph unicode="&#xa7;" horiz-adv-x="1114" d="M31 -250l162 191q6 -5 16.5 -13.5t45 -30t70.5 -38t89.5 -30t105.5 -13.5q113 0 167 43.5t54 107.5q0 56 -51.5 93t-159.5 77q-60 23 -97.5 39t-85.5 44.5t-75.5 58.5t-47 74.5t-19.5 97.5q0 60 20.5 111.5t41 75t42.5 40.5q-76 70 -76 176q0 84 31.5 156t93 127 t161 86.5t226.5 31.5q87 0 162.5 -13.5t121 -32.5t78.5 -37.5t47 -31.5l13 -14l-159 -202q-4 4 -12.5 11.5t-37 25.5t-60 32t-81.5 25.5t-102 11.5q-99 0 -146 -39t-47 -100q0 -94 164 -152q47 -16 76.5 -26.5t73.5 -29.5t72 -36t60.5 -42.5t51 -52.5t31 -63t12.5 -77 q0 -63 -22.5 -120.5t-44 -84.5t-44.5 -47q80 -80 80 -178q0 -76 -33 -145.5t-97 -125.5t-169 -89.5t-237 -33.5q-91 0 -172.5 16.5t-132.5 40.5t-89 48t-54 41zM453 494q0 -95 190 -162q75 -26 127 -51q39 39 39 92q0 58 -58.5 95.5t-177.5 76.5q-14 4 -84 28 q-36 -24 -36 -79z" />
<glyph unicode="&#xa8;" horiz-adv-x="825" d="M242 977q0 53 43.5 94t95.5 41q45 0 75.5 -33t30.5 -78q0 -52 -43 -92.5t-96 -40.5q-44 0 -75 33t-31 76zM623 977q0 53 44.5 94t96.5 41q44 0 75 -33t31 -78q0 -52 -43 -92.5t-96 -40.5q-44 0 -76 33t-32 76z" />
<glyph unicode="&#xa9;" horiz-adv-x="1458" d="M156 532q0 144 55 274.5t151.5 228.5t237.5 156t303 58q136 0 246 -43t181 -118.5t109 -175.5t38 -216q0 -144 -55 -275t-151.5 -229t-238.5 -156.5t-307 -58.5q-177 0 -308 75t-196 199.5t-65 280.5zM297 551q0 -92 30 -171.5t85 -139t140.5 -93.5t190.5 -34 q129 0 241.5 46t189 123.5t120 180.5t43.5 215q0 190 -120.5 314t-331.5 124q-128 0 -239 -46t-187 -123t-119 -180t-43 -216zM494 573q0 150 104.5 255.5t269.5 105.5q43 0 80 -7.5t59 -18.5t38.5 -22t22.5 -18l7 -8l-96 -112q-5 4 -14 10t-40 16t-67 10q-86 0 -141 -55 t-55 -139q0 -64 40 -105t109 -41q36 0 68 9t47 19l14 9l68 -112q-9 -8 -26 -20.5t-76 -33t-126 -20.5q-135 0 -210.5 78t-75.5 200z" />
<glyph unicode="&#xaa;" horiz-adv-x="806" d="M156 727q0 104 86.5 166.5t222.5 62.5q129 0 182 -49l6 39q10 75 -28.5 109.5t-132.5 34.5q-86 0 -185 -43l-39 155q150 53 287 53q339 0 295 -319l-51 -375h-150l-20 70h-8q-69 -86 -236 -86q-100 0 -164.5 50t-64.5 132zM354 752q0 -36 29 -57t86 -21q56 0 100 21.5 t56 52.5l4 26q-5 34 -41 55t-90 21q-71 0 -107.5 -27.5t-36.5 -70.5z" />
<glyph unicode="&#xab;" horiz-adv-x="933" d="M102 330l7 43l262 315h204l-4 -18l-252 -310l-2 -14l166 -313l-4 -19h-205zM506 330l6 43l262 315h205l-4 -18l-252 -310l-2 -14l166 -313l-4 -19h-205z" />
<glyph unicode="&#xac;" horiz-adv-x="1153" d="M133 510l29 199h942l-100 -709h-203l71 510h-739z" />
<glyph unicode="&#xad;" horiz-adv-x="772" d="M158 492l28 200h596l-28 -200h-596z" />
<glyph unicode="&#xae;" horiz-adv-x="1155" d="M193 715q0 109 41 208t113.5 173.5t178.5 119t228 44.5q134 0 232.5 -57.5t147 -151.5t48.5 -211q0 -145 -69.5 -269t-200 -200t-294.5 -76q-198 0 -311.5 120.5t-113.5 299.5zM338 731q0 -134 83 -217.5t216 -83.5q169 0 285 111.5t116 281.5q0 135 -83.5 218t-221.5 83 q-168 0 -281.5 -107t-113.5 -286zM475 580l57 413h201q75 0 119.5 -36t44.5 -99q0 -102 -92 -147l65 -109l-4 -22h-114l-60 104h-94l-14 -104h-109zM610 778h90q37 0 58.5 16.5t21.5 49.5q0 51 -63 51h-90z" />
<glyph unicode="&#xaf;" horiz-adv-x="823" d="M266 901l21 148h571l-20 -148h-572z" />
<glyph unicode="&#xb0;" horiz-adv-x="587" d="M213 1128q0 103 78 175.5t194 72.5q97 0 155 -55t58 -139q0 -103 -78.5 -175.5t-195.5 -72.5q-96 0 -153.5 55t-57.5 139zM352 1143q0 -37 23.5 -60.5t66.5 -23.5q53 0 86 31.5t33 78.5q0 38 -24.5 62t-67.5 24q-51 0 -84 -32.5t-33 -79.5z" />
<glyph unicode="&#xb1;" horiz-adv-x="1079" d="M117 49l28 201h859l-29 -201h-858zM207 688l26 199h332l47 323h203l-47 -323h324l-27 -199h-324l-43 -309h-202l43 309h-332z" />
<glyph unicode="&#xb2;" horiz-adv-x="628" d="M147 700l7 41l307 293q37 36 54 63t17 56q0 35 -22.5 55.5t-65.5 20.5q-70 0 -161 -68l-70 129q5 4 13.5 10.5t36 23t57 29t74.5 23t89 10.5q119 0 175.5 -52.5t56.5 -137.5q0 -61 -28 -111t-83 -104l-145 -139h243l-20 -142h-535z" />
<glyph unicode="&#xb3;" horiz-adv-x="636" d="M143 778l101 123q8 -7 22.5 -17.5t59 -28t88.5 -17.5q67 0 100 25.5t33 66.5q0 67 -101 67h-90l6 43l134 185h-258l18 143h494l-5 -39l-157 -219q133 -30 133 -162q0 -112 -85 -188t-239 -76q-53 0 -101.5 12t-80 30t-48.5 31t-24 21z" />
<glyph unicode="&#xb4;" horiz-adv-x="505" d="M201 858l6 39l106 285h283l-4 -39l-236 -285h-155z" />
<glyph unicode="&#xb5;" horiz-adv-x="1044" d="M82 -393l154 1102h245l-53 -383q-9 -64 19.5 -102t89.5 -38t104 35t51 86l58 402h245l-100 -709h-168l-27 94h-10q-80 -110 -241 -110q-40 0 -70 6l-53 -383h-244z" />
<glyph unicode="&#xb6;" horiz-adv-x="1032" d="M141 575q0 215 146 337t393 122h321l-186 -1329h-248l72 514h-59q-202 0 -320.5 92.5t-118.5 263.5z" />
<glyph unicode="&#xb7;" horiz-adv-x="407" d="M156 715q0 69 51.5 118.5t120.5 49.5q57 0 94 -37.5t37 -93.5q0 -70 -52 -119t-122 -49q-56 0 -92.5 37.5t-36.5 93.5z" />
<glyph unicode="&#xb8;" horiz-adv-x="442" d="M-4 -276l61 86q5 -5 13.5 -13t39 -21.5t64.5 -13.5q76 0 76 58q0 41 -57 41q-15 0 -28 -3.5t-19 -6.5l-5 -3l-37 50l68 108h117l-37 -67q52 0 84.5 -30t32.5 -83q0 -77 -55 -125.5t-150 -48.5q-34 0 -64 7.5t-48.5 18t-31.5 21t-18 17.5z" />
<glyph unicode="&#xb9;" horiz-adv-x="428" d="M205 1225l20 143h301l-94 -668h-164l74 525h-137z" />
<glyph unicode="&#xba;" horiz-adv-x="825" d="M176 850q0 179 120 292t294 113q139 0 226 -84.5t87 -224.5q0 -175 -120.5 -287t-293.5 -112q-140 0 -226.5 83.5t-86.5 219.5zM375 870q0 -69 36.5 -110t102.5 -41q85 0 138 60t53 153q0 69 -37 111t-103 42q-85 0 -137.5 -60.5t-52.5 -154.5z" />
<glyph unicode="&#xbb;" horiz-adv-x="933" d="M55 14l2 19l254 313l2 14l-166 310l3 18h206l174 -315l-6 -43l-262 -316h-207zM459 14l2 19l254 313l2 14l-166 310l2 18h207l174 -315l-6 -43l-262 -316h-207z" />
<glyph unicode="&#xbc;" horiz-adv-x="1320" d="M86 92l1122 1155l107 -98l-1125 -1155zM176 1085l21 144h303l-94 -670h-162l71 526h-139zM670 152l14 102l440 414h123l-55 -383h106l-18 -133h-106l-21 -152h-156l21 152h-348zM883 279l69 6h84l19 118q0 2 8 52h-4l-125 -127q-10 -11 -23 -23t-21 -18l-7 -6v-2z" />
<glyph unicode="&#xbd;" horiz-adv-x="1474" d="M113 92l1122 1155l106 -98l-1126 -1155zM223 1085l21 144h303l-94 -668h-164l73 524h-139zM877 0l4 41l309 293q38 36 55 63t17 56q0 35 -22.5 55t-65.5 20q-18 0 -38.5 -4.5t-36.5 -11.5t-32.5 -15.5t-27 -15.5t-19.5 -13.5t-10 -6.5l-66 129q5 4 13.5 10.5t36 23t57 29 t73.5 23t88 10.5q119 0 176.5 -53t57.5 -137q0 -60 -28.5 -110.5t-84.5 -104.5l-145 -140h242l-19 -141h-534z" />
<glyph unicode="&#xbe;" horiz-adv-x="1501" d="M158 639l100 123q8 -7 22.5 -17.5t58 -28.5t87.5 -18q68 0 101.5 26t33.5 67q0 67 -100 67h-90l6 43l133 184h-258l18 144h494l-4 -39l-160 -219q133 -30 133 -162q0 -112 -83.5 -188t-237.5 -76q-53 0 -101.5 12t-80 30t-48.5 31t-24 21zM295 92l1124 1155l107 -98 l-1125 -1155zM844 141l14 105l440 411h123l-55 -383h107l-19 -133h-106l-19 -141h-155l18 141h-348zM1057 268l69 6h84l19 121l10 49h-6l-125 -127q-10 -11 -23 -22.5t-21 -16.5l-7 -6v-4z" />
<glyph unicode="&#xbf;" horiz-adv-x="804" d="M113 248q0 65 16 118t43 90t60.5 68.5t69.5 60.5t68.5 57.5t60.5 67t42 83.5l14 49h162l-10 -68q-10 -63 -41.5 -117.5t-69 -92.5t-74 -75t-61 -81.5t-24.5 -94.5q0 -58 39 -92.5t104 -34.5q46 0 91.5 13t68.5 26l22 13l58 -191q-14 -7 -40.5 -17.5t-111 -28 t-172.5 -17.5q-148 0 -231.5 75t-83.5 189zM457 1094q0 67 49.5 114t114.5 47q55 0 91 -36.5t36 -90.5q0 -66 -50 -112.5t-116 -46.5q-55 0 -90 35.5t-35 89.5z" />
<glyph unicode="&#xc0;" horiz-adv-x="1265" d="M-20 0l802 1229h43l461 -1229h-280l-58 168h-586l-102 -168h-280zM473 352h416q-29 80 -77.5 234.5t-61.5 193.5h-17l-244 -405zM578 1591l6 39h282l27 -284l-6 -39h-158z" />
<glyph unicode="&#xc1;" horiz-adv-x="1265" d="M-20 0l802 1229h43l461 -1229h-280l-58 168h-586l-102 -168h-280zM473 352h416q-29 80 -77.5 234.5t-61.5 193.5h-17l-244 -405zM735 1307l6 39l107 284h282l-4 -39l-235 -284h-156z" />
<glyph unicode="&#xc2;" horiz-adv-x="1265" d="M-20 0l802 1229h43l461 -1229h-280l-58 168h-586l-102 -168h-280zM473 352h416q-29 80 -77.5 234.5t-61.5 193.5h-17l-244 -405zM506 1307l6 39l217 284h258l137 -284l-6 -39h-157l-123 168l-174 -168h-158z" />
<glyph unicode="&#xc3;" horiz-adv-x="1265" d="M-20 0l802 1229h43l461 -1229h-280l-58 168h-586l-102 -168h-280zM459 1307l22 67q63 191 230 191q51 0 96 -20.5t80.5 -41t64.5 -20.5q50 0 74 59l12 31l170 -17l-20 -67q-27 -89 -85.5 -140t-144.5 -51q-52 0 -97.5 20.5t-81.5 41t-64 20.5q-50 0 -74 -57l-12 -31z M473 352h416q-29 80 -77.5 234.5t-61.5 193.5h-17l-244 -405z" />
<glyph unicode="&#xc4;" horiz-adv-x="1265" d="M-20 0l802 1229h43l461 -1229h-280l-58 168h-586l-102 -168h-280zM473 352h416q-29 80 -77.5 234.5t-61.5 193.5h-17l-244 -405zM522 1485q0 53 44 94t96 41q45 0 75.5 -33t30.5 -78q0 -52 -43 -92.5t-96 -40.5q-44 0 -75.5 33t-31.5 76zM903 1485q0 53 44.5 94t96.5 41 q44 0 75.5 -33t31.5 -78q0 -52 -43 -92.5t-96 -40.5q-44 0 -76.5 33t-32.5 76z" />
<glyph unicode="&#xc5;" horiz-adv-x="1269" d="M-20 0l735 1126q-56 20 -88.5 66.5t-32.5 107.5q0 98 75.5 167t178.5 69q83 0 136.5 -53t53.5 -133q0 -78 -49 -139t-125 -85l422 -1126h-280l-58 168h-586l-102 -168h-280zM473 352h416q-29 80 -77.5 234.5t-61.5 193.5h-17l-244 -405zM750 1315q0 -26 15 -42t42 -16 q34 0 56 22t22 56q0 27 -15.5 43.5t-42.5 16.5q-33 0 -55 -23t-22 -57z" />
<glyph unicode="&#xc6;" horiz-adv-x="1890" d="M-39 0l1038 1229h990l-31 -217h-705l-43 -303h584l-29 -203h-583l-39 -289h704l-30 -217h-953l23 168h-484l-133 -168h-309zM551 352h362l70 504h-18z" />
<glyph unicode="&#xc7;" horiz-adv-x="1191" d="M150 532q0 145 56 277.5t153 231t238 156.5t302 58q84 0 157.5 -15.5t118.5 -37.5t78 -44.5t47 -37.5l13 -16l-168 -191q-5 4 -13.5 11t-36.5 25.5t-58 32t-76 25t-91 11.5q-194 0 -328 -131.5t-134 -325.5q0 -155 96 -253.5t254 -98.5q52 0 102.5 11t85 26.5t62 31 t40.5 26.5l13 11l115 -190q-6 -6 -17 -15t-50.5 -33.5t-84 -44t-115.5 -37t-147 -20.5l-19 -36q52 0 84.5 -30t32.5 -83q0 -77 -55 -125.5t-150 -48.5q-34 0 -64 7.5t-48.5 18t-31.5 21t-19 17.5l-5 8l62 86q5 -5 13.5 -13t39 -21.5t64.5 -13.5q75 0 75 58q0 41 -57 41 q-15 0 -27.5 -3.5t-18.5 -6.5l-5 -3l-37 50l49 79q-232 23 -363.5 177t-131.5 378z" />
<glyph unicode="&#xc8;" horiz-adv-x="1173" d="M147 0l172 1229h955l-31 -217h-706l-41 -299h581l-28 -203h-582l-41 -293h707l-31 -217h-955zM598 1589l6 39h283l26 -285l-6 -38h-157z" />
<glyph unicode="&#xc9;" horiz-adv-x="1173" d="M147 0l172 1229h955l-31 -217h-706l-41 -299h581l-28 -203h-582l-41 -293h707l-31 -217h-955zM711 1307l6 39l106 284h283l-4 -39l-236 -284h-155z" />
<glyph unicode="&#xca;" horiz-adv-x="1173" d="M147 0l172 1229h955l-31 -217h-706l-41 -299h581l-28 -203h-582l-41 -293h707l-31 -217h-955zM506 1307l6 39l217 284h258l137 -284l-6 -39h-157l-123 168l-174 -168h-158z" />
<glyph unicode="&#xcb;" horiz-adv-x="1173" d="M147 0l172 1229h955l-31 -217h-706l-41 -299h581l-28 -203h-582l-41 -293h707l-31 -217h-955zM516 1432q0 53 43.5 94t95.5 41q45 0 76 -33t31 -78q0 -52 -43 -92.5t-96 -40.5q-44 0 -75.5 33t-31.5 76zM897 1432q0 53 44.5 94t96.5 41q44 0 75.5 -33t31.5 -78 q0 -52 -43 -92.5t-96 -40.5q-44 0 -76.5 33t-32.5 76z" />
<glyph unicode="&#xcc;" horiz-adv-x="544" d="M147 0l172 1229h248l-172 -1229h-248zM219 1589l6 39h283l27 -285l-7 -38h-157z" />
<glyph unicode="&#xcd;" horiz-adv-x="544" d="M147 0l172 1229h248l-172 -1229h-248zM381 1307l6 39l107 284h282l-4 -39l-235 -284h-156z" />
<glyph unicode="&#xce;" horiz-adv-x="544" d="M147 0l172 1229h248l-172 -1229h-248zM152 1307l6 39l217 284h258l137 -284l-6 -39h-158l-123 168l-174 -168h-157z" />
<glyph unicode="&#xcf;" horiz-adv-x="544" d="M147 0l172 1229h248l-172 -1229h-248zM154 1432q0 53 43.5 94t95.5 41q45 0 75.5 -33t30.5 -78q0 -52 -43 -92.5t-96 -40.5q-44 0 -75 33t-31 76zM535 1432q0 53 44.5 94t96.5 41q44 0 75 -33t31 -78q0 -52 -43 -92.5t-96 -40.5q-44 0 -76 33t-32 76z" />
<glyph unicode="&#xd0;" horiz-adv-x="1372" d="M94 545l19 137h143l78 547h483q269 0 422.5 -146.5t153.5 -384.5q0 -149 -54.5 -278t-151.5 -221.5t-237.5 -145.5t-304.5 -53h-483l76 545h-144zM440 217h219q134 0 240.5 52t171 157.5t64.5 247.5q0 161 -100 249.5t-265 88.5h-219l-45 -330h205l-19 -137h-207z" />
<glyph unicode="&#xd1;" horiz-adv-x="1427" d="M147 0l172 1229h62l721 -733l102 731h246l-172 -1227h-59l-719 752l-105 -752h-248zM537 1337l22 68q62 190 229 190q51 0 96 -20.5t81 -41t65 -20.5q50 0 74 60l12 31l170 -17l-20 -67q-27 -89 -85.5 -140t-144.5 -51q-52 0 -97.5 20.5t-81.5 41t-64 20.5q-50 0 -74 -57 l-12 -31z" />
<glyph unicode="&#xd2;" horiz-adv-x="1441" d="M150 530q0 146 55 278.5t152 231t237.5 157t302.5 58.5q177 0 307.5 -75t195 -200t64.5 -282q0 -195 -93 -360t-265.5 -265t-388.5 -100q-176 0 -306.5 75t-195.5 200t-65 282zM408 559q0 -154 94 -251t248 -97q192 0 325 131.5t133 325.5q0 155 -95 252.5t-251 97.5 q-190 0 -322 -132.5t-132 -326.5zM662 1591l6 39h282l27 -284l-6 -39h-158z" />
<glyph unicode="&#xd3;" horiz-adv-x="1441" d="M150 530q0 146 55 278.5t152 231t237.5 157t302.5 58.5q177 0 307.5 -75t195 -200t64.5 -282q0 -195 -93 -360t-265.5 -265t-388.5 -100q-176 0 -306.5 75t-195.5 200t-65 282zM408 559q0 -154 94 -251t248 -97q192 0 325 131.5t133 325.5q0 155 -95 252.5t-251 97.5 q-190 0 -322 -132.5t-132 -326.5zM823 1307l6 39l107 284h283l-5 -39l-235 -284h-156z" />
<glyph unicode="&#xd4;" horiz-adv-x="1441" d="M150 530q0 146 55 278.5t152 231t237.5 157t302.5 58.5q177 0 307.5 -75t195 -200t64.5 -282q0 -195 -93 -360t-265.5 -265t-388.5 -100q-176 0 -306.5 75t-195.5 200t-65 282zM408 559q0 -154 94 -251t248 -97q192 0 325 131.5t133 325.5q0 155 -95 252.5t-251 97.5 q-190 0 -322 -132.5t-132 -326.5zM590 1307l6 39l217 284h258l137 -284l-6 -39h-158l-122 168l-174 -168h-158z" />
<glyph unicode="&#xd5;" horiz-adv-x="1441" d="M150 530q0 146 55 278.5t152 231t237.5 157t302.5 58.5q177 0 307.5 -75t195 -200t64.5 -282q0 -195 -93 -360t-265.5 -265t-388.5 -100q-176 0 -306.5 75t-195.5 200t-65 282zM408 559q0 -154 94 -251t248 -97q192 0 325 131.5t133 325.5q0 155 -95 252.5t-251 97.5 q-190 0 -322 -132.5t-132 -326.5zM545 1335l22 68q62 190 230 190q51 0 96 -20.5t80.5 -41t64.5 -20.5q50 0 74 60l12 31l170 -17l-20 -67q-27 -89 -85.5 -140t-144.5 -51q-52 0 -97.5 20.5t-81.5 41t-64 20.5q-50 0 -74 -57l-12 -31z" />
<glyph unicode="&#xd6;" horiz-adv-x="1441" d="M150 530q0 146 55 278.5t152 231t237.5 157t302.5 58.5q177 0 307.5 -75t195 -200t64.5 -282q0 -195 -93 -360t-265.5 -265t-388.5 -100q-176 0 -306.5 75t-195.5 200t-65 282zM408 559q0 -154 94 -251t248 -97q192 0 325 131.5t133 325.5q0 155 -95 252.5t-251 97.5 q-190 0 -322 -132.5t-132 -326.5zM600 1430q0 53 43.5 94t95.5 41q45 0 76 -33t31 -78q0 -52 -43 -92.5t-96 -40.5q-44 0 -75.5 33t-31.5 76zM981 1430q0 53 44.5 94t96.5 41q44 0 75.5 -33t31.5 -78q0 -52 -43 -92.5t-96 -40.5q-44 0 -76.5 33t-32.5 76z" />
<glyph unicode="&#xd7;" horiz-adv-x="1050" d="M137 328l334 293l-252 294l160 140l252 -295l336 295l118 -140l-335 -294l254 -293l-160 -140l-252 293l-336 -293z" />
<glyph unicode="&#xd8;" horiz-adv-x="1437" d="M92 84l146 125q-88 139 -88 321q0 146 55 278.5t152 231t237.5 157t302.5 58.5q240 0 395 -139l125 109l82 -97l-125 -106q90 -140 90 -324q0 -195 -93 -360t-265.5 -265t-388.5 -100q-246 0 -398 142l-147 -127zM408 559q0 -101 36 -172l643 555q-92 76 -225 76 q-190 0 -322 -132.5t-132 -326.5zM522 289q91 -78 228 -78q192 0 325 131.5t133 325.5q0 99 -41 176z" />
<glyph unicode="&#xd9;" horiz-adv-x="1357" d="M203 524l98 705h248l-98 -705q-20 -135 46 -224t212 -89q147 0 235.5 88t108.5 225l98 705h248l-99 -705q-35 -243 -203 -397t-421 -154q-167 0 -283 71.5t-164 196.5t-26 283zM631 1591l6 39h283l26 -284l-6 -39h-158z" />
<glyph unicode="&#xda;" horiz-adv-x="1357" d="M203 524l98 705h248l-98 -705q-20 -135 46 -224t212 -89q147 0 235.5 88t108.5 225l98 705h248l-99 -705q-35 -243 -203 -397t-421 -154q-167 0 -283 71.5t-164 196.5t-26 283zM786 1307l7 39l106 284h283l-4 -39l-236 -284h-156z" />
<glyph unicode="&#xdb;" horiz-adv-x="1357" d="M203 524l98 705h248l-98 -705q-20 -135 46 -224t212 -89q147 0 235.5 88t108.5 225l98 705h248l-99 -705q-35 -243 -203 -397t-421 -154q-167 0 -283 71.5t-164 196.5t-26 283zM557 1307l6 39l217 284h258l138 -284l-7 -39h-157l-123 168l-174 -168h-158z" />
<glyph unicode="&#xdc;" horiz-adv-x="1357" d="M203 524l98 705h248l-98 -705q-20 -135 46 -224t212 -89q147 0 235.5 88t108.5 225l98 705h248l-99 -705q-35 -243 -203 -397t-421 -154q-167 0 -283 71.5t-164 196.5t-26 283zM565 1434q0 53 44 94t96 41q45 0 75.5 -33t30.5 -78q0 -52 -43 -92.5t-96 -40.5 q-44 0 -75.5 33t-31.5 76zM946 1434q0 53 44.5 94t96.5 41q44 0 75.5 -33t31.5 -78q0 -52 -43 -92.5t-96 -40.5q-44 0 -76.5 33t-32.5 76z" />
<glyph unicode="&#xdd;" horiz-adv-x="1153" d="M164 1229h287l194 -428l25 -78h22l47 78l312 428h286l-571 -760l-66 -469h-247l65 471zM690 1307l6 39l107 284h282l-4 -39l-235 -284h-156z" />
<glyph unicode="&#xde;" horiz-adv-x="1251" d="M147 0l172 1229h248l-26 -187h311q211 0 328.5 -96t117.5 -268q0 -233 -162 -364.5t-421 -131.5h-295l-25 -182h-248zM451 393h301q137 0 211.5 62.5t74.5 185.5q0 90 -59.5 137t-167.5 47h-301z" />
<glyph unicode="&#xdf;" horiz-adv-x="1036" d="M98 0l127 897q26 190 130 293.5t304 103.5q42 0 81.5 -7t57.5 -14l19 -7l-94 -211q-33 14 -74 14q-76 0 -119 -35.5t-55 -118.5l-31 -206h605l-7 -41l-231 -308q186 -45 186 -227q0 -164 -118.5 -257t-311.5 -93q-64 0 -118.5 9.5t-77.5 18.5l-23 9l78 174 q67 -27 137 -27q75 0 120.5 41t45.5 105q0 102 -133 102h-109l9 66l178 237h-256l-72 -518h-248z" />
<glyph unicode="&#xe0;" horiz-adv-x="870" d="M76 178q0 110 88 176t242 66q61 0 106 -11t59 -20.5t21 -17.5h10l4 30q9 66 -32.5 97.5t-135.5 31.5q-48 0 -97.5 -12t-74.5 -24l-26 -13l-50 178q15 7 43 18t112 29.5t167 18.5q191 0 271 -89.5t57 -246.5l-56 -389h-178l-14 74h-12q-67 -90 -248 -90 q-119 0 -187.5 54.5t-68.5 139.5zM313 211q0 -33 28.5 -53.5t82.5 -20.5q67 0 110.5 28.5t43.5 63.5q0 33 -34.5 53.5t-94.5 20.5q-64 0 -100 -25.5t-36 -66.5zM313 1143l6 39h283l27 -285l-6 -39h-158z" />
<glyph unicode="&#xe1;" horiz-adv-x="870" d="M76 178q0 110 88 176t242 66q61 0 106 -11t59 -20.5t21 -17.5h10l4 30q9 66 -32.5 97.5t-135.5 31.5q-48 0 -97.5 -12t-74.5 -24l-26 -13l-50 178q15 7 43 18t112 29.5t167 18.5q191 0 271 -89.5t57 -246.5l-56 -389h-178l-14 74h-12q-67 -90 -248 -90 q-119 0 -187.5 54.5t-68.5 139.5zM313 211q0 -33 28.5 -53.5t82.5 -20.5q67 0 110.5 28.5t43.5 63.5q0 33 -34.5 53.5t-94.5 20.5q-64 0 -100 -25.5t-36 -66.5zM451 858l6 39l106 285h283l-4 -39l-236 -285h-155z" />
<glyph unicode="&#xe2;" horiz-adv-x="870" d="M76 178q0 110 88 176t242 66q61 0 106 -11t59 -20.5t21 -17.5h10l4 30q9 66 -32.5 97.5t-135.5 31.5q-48 0 -97.5 -12t-74.5 -24l-26 -13l-50 178q15 7 43 18t112 29.5t167 18.5q191 0 271 -89.5t57 -246.5l-56 -389h-178l-14 74h-12q-67 -90 -248 -90 q-119 0 -187.5 54.5t-68.5 139.5zM238 858l6 39l217 285h258l137 -285l-6 -39h-158l-123 168l-174 -168h-157zM313 211q0 -33 28.5 -53.5t82.5 -20.5q67 0 110.5 28.5t43.5 63.5q0 33 -34.5 53.5t-94.5 20.5q-64 0 -100 -25.5t-36 -66.5z" />
<glyph unicode="&#xe3;" horiz-adv-x="870" d="M76 178q0 110 88 176t242 66q61 0 106 -11t59 -20.5t21 -17.5h10l4 30q9 66 -32.5 97.5t-135.5 31.5q-48 0 -97.5 -12t-74.5 -24l-26 -13l-50 178q15 7 43 18t112 29.5t167 18.5q191 0 271 -89.5t57 -246.5l-56 -389h-178l-14 74h-12q-67 -90 -248 -90 q-119 0 -187.5 54.5t-68.5 139.5zM195 885l22 67q63 191 229 191q51 0 96 -20.5t81 -41t65 -20.5q50 0 74 59l12 31l170 -16l-20 -68q-27 -88 -85.5 -139t-144.5 -51q-52 0 -97.5 20.5t-81.5 40.5t-64 20q-50 0 -74 -57l-12 -31zM313 211q0 -33 28.5 -53.5t82.5 -20.5 q67 0 110.5 28.5t43.5 63.5q0 33 -34.5 53.5t-94.5 20.5q-64 0 -100 -25.5t-36 -66.5z" />
<glyph unicode="&#xe4;" horiz-adv-x="870" d="M76 178q0 110 88 176t242 66q61 0 106 -11t59 -20.5t21 -17.5h10l4 30q9 66 -32.5 97.5t-135.5 31.5q-48 0 -97.5 -12t-74.5 -24l-26 -13l-50 178q15 7 43 18t112 29.5t167 18.5q191 0 271 -89.5t57 -246.5l-56 -389h-178l-14 74h-12q-67 -90 -248 -90 q-119 0 -187.5 54.5t-68.5 139.5zM260 977q0 53 43.5 94t95.5 41q45 0 76 -33t31 -78q0 -52 -43 -92.5t-96 -40.5q-44 0 -75.5 33t-31.5 76zM313 211q0 -33 28.5 -53.5t82.5 -20.5q67 0 110.5 28.5t43.5 63.5q0 33 -34.5 53.5t-94.5 20.5q-64 0 -100 -25.5t-36 -66.5z M641 977q0 53 44.5 94t96.5 41q44 0 75.5 -33t31.5 -78q0 -52 -43 -92.5t-96 -40.5q-44 0 -76.5 33t-32.5 76z" />
<glyph unicode="&#xe5;" horiz-adv-x="870" d="M76 178q0 110 88 176t242 66q61 0 106 -11t59 -20.5t21 -17.5h10l4 30q9 66 -32.5 97.5t-135.5 31.5q-48 0 -97.5 -12t-74.5 -24l-26 -13l-50 178q15 7 43 18t112 29.5t167 18.5q191 0 271 -89.5t57 -246.5l-56 -389h-178l-14 74h-12q-67 -90 -248 -90 q-119 0 -187.5 54.5t-68.5 139.5zM313 211q0 -33 28.5 -53.5t82.5 -20.5q67 0 110.5 28.5t43.5 63.5q0 33 -34.5 53.5t-94.5 20.5q-64 0 -100 -25.5t-36 -66.5zM346 1042q0 98 75.5 167t178.5 69q83 0 137 -53t54 -133q0 -97 -74.5 -166.5t-175.5 -69.5q-86 0 -140.5 53 t-54.5 133zM502 1057q0 -26 15 -42t42 -16q34 0 56 22t22 56q0 27 -15 43.5t-42 16.5q-34 0 -56 -23t-22 -57z" />
<glyph unicode="&#xe6;" horiz-adv-x="1355" d="M76 184q0 107 87.5 171.5t235.5 64.5q69 0 118 -13t63 -25l14 -13h4l4 28q9 68 -31 100.5t-133 32.5q-48 0 -98 -12t-76 -24l-26 -11l-48 179q16 7 44.5 17.5t112.5 28t163 17.5q180 0 264 -84q120 84 270 84q149 0 233.5 -83.5t84.5 -225.5q0 -26 -3.5 -54.5t-6.5 -43.5 l-4 -15h-510q7 -68 51.5 -101.5t114.5 -33.5q53 0 102.5 12t72.5 24l23 13l53 -160q-5 -3 -13.5 -8.5t-39.5 -18.5t-65 -23t-88 -18.5t-111 -8.5q-161 0 -252 94q-118 -90 -301 -90q-157 0 -233 55.5t-76 144.5zM309 209q0 -34 29 -55t88 -21q68 0 113 27.5t45 66.5 q0 32 -37 54t-96 22q-69 0 -105.5 -26.5t-36.5 -67.5zM850 422h289q6 60 -25.5 96.5t-93.5 36.5q-60 0 -105 -34t-65 -99z" />
<glyph unicode="&#xe7;" horiz-adv-x="735" d="M98 309q0 175 132.5 295.5t332.5 120.5q44 0 83.5 -6t64.5 -14.5t43 -17.5t26 -15l8 -6l-94 -181q-51 37 -137 37q-91 0 -150 -52.5t-59 -137.5q0 -66 44.5 -106t117.5 -40q38 0 75 9t55 19l17 9l41 -180q-8 -5 -22.5 -13t-64 -24t-105.5 -20l-25 -47q52 0 84.5 -30 t32.5 -83q0 -77 -55 -125.5t-150 -48.5q-34 0 -64 7.5t-48.5 18t-31.5 21t-19 17.5l-5 8l62 86q4 -5 13 -13t39 -21.5t64 -13.5q76 0 76 58q0 41 -57 41q-15 0 -27.5 -3.5t-18.5 -6.5l-5 -3l-37 50l55 92q-135 19 -213 106t-78 213z" />
<glyph unicode="&#xe8;" d="M100 307q0 177 127 297.5t314 120.5q149 0 233 -84.5t84 -226.5q0 -24 -3.5 -50.5t-6.5 -40.5l-4 -14h-508q6 -71 51 -106t119 -35q52 0 99 12t68 24l21 11l58 -154q-4 -3 -12 -8.5t-35 -19.5t-57 -24.5t-78.5 -19.5t-100.5 -9q-174 0 -271.5 92t-97.5 235zM330 1143 l6 39h282l27 -285l-6 -39h-158zM352 430h279q0 51 -31 84t-86 33q-57 0 -99.5 -30t-62.5 -87z" />
<glyph unicode="&#xe9;" d="M100 307q0 177 127 297.5t314 120.5q149 0 233 -84.5t84 -226.5q0 -24 -3.5 -50.5t-6.5 -40.5l-4 -14h-508q6 -71 51 -106t119 -35q52 0 99 12t68 24l21 11l58 -154q-4 -3 -12 -8.5t-35 -19.5t-57 -24.5t-78.5 -19.5t-100.5 -9q-174 0 -271.5 92t-97.5 235zM352 430h279 q0 51 -31 84t-86 33q-57 0 -99.5 -30t-62.5 -87zM453 858l6 39l106 285h283l-4 -39l-236 -285h-155z" />
<glyph unicode="&#xea;" d="M100 307q0 177 127 297.5t314 120.5q149 0 233 -84.5t84 -226.5q0 -24 -3.5 -50.5t-6.5 -40.5l-4 -14h-508q6 -71 51 -106t119 -35q52 0 99 12t68 24l21 11l58 -154q-4 -3 -12 -8.5t-35 -19.5t-57 -24.5t-78.5 -19.5t-100.5 -9q-174 0 -271.5 92t-97.5 235zM252 858l6 39 l217 285h258l137 -285l-6 -39h-157l-123 168l-174 -168h-158zM352 430h279q0 51 -31 84t-86 33q-57 0 -99.5 -30t-62.5 -87z" />
<glyph unicode="&#xeb;" d="M100 307q0 177 127 297.5t314 120.5q149 0 233 -84.5t84 -226.5q0 -24 -3.5 -50.5t-6.5 -40.5l-4 -14h-508q6 -71 51 -106t119 -35q52 0 99 12t68 24l21 11l58 -154q-4 -3 -12 -8.5t-35 -19.5t-57 -24.5t-78.5 -19.5t-100.5 -9q-174 0 -271.5 92t-97.5 235zM268 977 q0 53 44 94t96 41q45 0 75.5 -33t30.5 -78q0 -52 -43 -92.5t-96 -40.5q-44 0 -75.5 33t-31.5 76zM352 430h279q0 51 -31 84t-86 33q-57 0 -99.5 -30t-62.5 -87zM649 977q0 53 45 94t97 41q44 0 75 -33t31 -78q0 -52 -43 -92.5t-96 -40.5q-44 0 -76.5 33t-32.5 76z" />
<glyph unicode="&#xec;" horiz-adv-x="440" d="M98 0l101 709h245l-100 -709h-246zM109 1143l6 39h282l27 -285l-6 -39h-158z" />
<glyph unicode="&#xed;" horiz-adv-x="440" d="M98 0l101 709h245l-100 -709h-246zM262 858l6 39l107 285h282l-4 -39l-235 -285h-156z" />
<glyph unicode="&#xee;" horiz-adv-x="440" d="M27 858l6 39l217 285h258l137 -285l-6 -39h-158l-123 168l-174 -168h-157zM98 0l101 709h245l-100 -709h-246z" />
<glyph unicode="&#xef;" horiz-adv-x="440" d="M47 977q0 53 43.5 94t95.5 41q45 0 76 -33t31 -78q0 -52 -43 -92.5t-96 -40.5q-44 0 -75.5 33t-31.5 76zM98 0l101 709h245l-100 -709h-246zM428 977q0 53 44.5 94t96.5 41q44 0 75.5 -33t31.5 -78q0 -52 -43 -92.5t-96 -40.5q-44 0 -76.5 33t-32.5 76z" />
<glyph unicode="&#xf0;" horiz-adv-x="944" d="M100 303q0 121 64 218.5t167.5 149.5t221.5 52l41 -2l2 14q-17 26 -49 92l-21 43l-200 -104l-56 133l199 105l-88 198l4 27h229l56 -119l198 104l58 -133l-195 -102l139 -293q35 -75 52 -133.5t18 -122.5q0 -203 -132 -325.5t-339 -122.5q-167 0 -268 86.5t-101 234.5z M350 330q0 -64 40 -105t108 -41q79 0 134.5 58t55.5 141q0 64 -38.5 100.5t-104.5 36.5q-85 0 -140 -53.5t-55 -136.5z" />
<glyph unicode="&#xf1;" horiz-adv-x="944" d="M98 0l101 709h151l23 -97h12q95 113 258 113q147 0 221 -82.5t54 -224.5l-60 -418h-246l54 383q9 64 -20 101.5t-91 37.5q-64 0 -106 -38t-50 -93l-55 -391h-246zM242 885l22 67q63 191 230 191q51 0 96 -20.5t80.5 -41t64.5 -20.5q50 0 74 59l12 31l170 -16l-20 -68 q-27 -88 -85.5 -139t-144.5 -51q-52 0 -97.5 20.5t-81.5 40.5t-64 20q-50 0 -74 -57l-12 -31z" />
<glyph unicode="&#xf2;" horiz-adv-x="911" d="M98 305q0 122 64.5 219.5t169 149t225.5 51.5q153 0 253.5 -90.5t100.5 -237.5q0 -91 -37.5 -169.5t-100.5 -131t-146 -82.5t-174 -30q-155 0 -255 88t-100 233zM340 328q0 -68 37.5 -109t101.5 -41q83 0 137 57t54 146q0 67 -38.5 108t-103.5 41q-80 0 -134 -57.5 t-54 -144.5zM344 1143l6 39h283l26 -285l-6 -39h-157z" />
<glyph unicode="&#xf3;" horiz-adv-x="911" d="M98 305q0 122 64.5 219.5t169 149t225.5 51.5q153 0 253.5 -90.5t100.5 -237.5q0 -91 -37.5 -169.5t-100.5 -131t-146 -82.5t-174 -30q-155 0 -255 88t-100 233zM340 328q0 -68 37.5 -109t101.5 -41q83 0 137 57t54 146q0 67 -38.5 108t-103.5 41q-80 0 -134 -57.5 t-54 -144.5zM489 858l7 39l106 285h283l-4 -39l-236 -285h-156z" />
<glyph unicode="&#xf4;" horiz-adv-x="911" d="M98 305q0 122 64.5 219.5t169 149t225.5 51.5q153 0 253.5 -90.5t100.5 -237.5q0 -91 -37.5 -169.5t-100.5 -131t-146 -82.5t-174 -30q-155 0 -255 88t-100 233zM268 858l6 39l218 285h258l137 -285l-6 -39h-158l-123 168l-174 -168h-158zM340 328q0 -68 37.5 -109 t101.5 -41q83 0 137 57t54 146q0 67 -38.5 108t-103.5 41q-80 0 -134 -57.5t-54 -144.5z" />
<glyph unicode="&#xf5;" horiz-adv-x="911" d="M98 305q0 122 64.5 219.5t169 149t225.5 51.5q153 0 253.5 -90.5t100.5 -237.5q0 -91 -37.5 -169.5t-100.5 -131t-146 -82.5t-174 -30q-155 0 -255 88t-100 233zM205 885l22 67q63 191 230 191q51 0 96 -20.5t80.5 -41t64.5 -20.5q50 0 74 59l12 31l170 -16l-20 -68 q-27 -89 -85 -139.5t-144 -50.5q-52 0 -98 20.5t-82 40.5t-64 20q-50 0 -74 -57l-12 -31zM340 328q0 -68 37.5 -109t101.5 -41q83 0 137 57t54 146q0 67 -38.5 108t-103.5 41q-80 0 -134 -57.5t-54 -144.5z" />
<glyph unicode="&#xf6;" horiz-adv-x="911" d="M98 305q0 122 64.5 219.5t169 149t225.5 51.5q153 0 253.5 -90.5t100.5 -237.5q0 -91 -37.5 -169.5t-100.5 -131t-146 -82.5t-174 -30q-155 0 -255 88t-100 233zM279 977q0 53 43.5 94t95.5 41q45 0 75.5 -33t30.5 -78q0 -52 -43 -92.5t-96 -40.5q-44 0 -75 33t-31 76z M340 328q0 -68 37.5 -109t101.5 -41q83 0 137 57t54 146q0 67 -38.5 108t-103.5 41q-80 0 -134 -57.5t-54 -144.5zM659 977q0 53 45 94t97 41q44 0 75 -33t31 -78q0 -52 -43 -92.5t-96 -40.5q-44 0 -76.5 33t-32.5 76z" />
<glyph unicode="&#xf7;" horiz-adv-x="1001" d="M154 508l28 199h838l-29 -199h-837zM383 227q0 69 51.5 119.5t120.5 50.5q57 0 95 -38.5t38 -94.5q0 -69 -52.5 -118.5t-121.5 -49.5q-58 0 -94.5 37.5t-36.5 93.5zM485 952q0 69 51.5 119.5t120.5 50.5q58 0 96 -38.5t38 -94.5q0 -70 -52.5 -119t-122.5 -49 q-57 0 -94 37.5t-37 93.5z" />
<glyph unicode="&#xf8;" horiz-adv-x="911" d="M74 49l80 70q-56 82 -56 186q0 122 64.5 219.5t169 149t225.5 51.5q124 0 213 -61l102 90l70 -80l-94 -82q63 -86 63 -195q0 -91 -37.5 -169.5t-100.5 -131t-146 -82.5t-174 -30q-136 0 -224 61l-86 -76zM340 328q0 -17 4 -45l260 227q-33 20 -76 20q-80 0 -134 -57.5 t-54 -144.5zM397 201q38 -23 82 -23q83 0 137 57t54 146q0 30 -8 51z" />
<glyph unicode="&#xf9;" horiz-adv-x="942" d="M127 291l59 418h246l-53 -383q-9 -64 19 -102t89 -38t104.5 35t51.5 86l57 402h246l-100 -709h-168l-27 94h-10q-80 -110 -242 -110q-146 0 -219 82.5t-53 224.5zM350 1143l6 39h283l27 -285l-7 -39h-157z" />
<glyph unicode="&#xfa;" horiz-adv-x="942" d="M127 291l59 418h246l-53 -383q-9 -64 19 -102t89 -38t104.5 35t51.5 86l57 402h246l-100 -709h-168l-27 94h-10q-80 -110 -242 -110q-146 0 -219 82.5t-53 224.5zM512 858l6 39l107 285h282l-4 -39l-235 -285h-156z" />
<glyph unicode="&#xfb;" horiz-adv-x="942" d="M127 291l59 418h246l-53 -383q-9 -64 19 -102t89 -38t104.5 35t51.5 86l57 402h246l-100 -709h-168l-27 94h-10q-80 -110 -242 -110q-146 0 -219 82.5t-53 224.5zM283 858l6 39l217 285h258l137 -285l-6 -39h-158l-123 168l-174 -168h-157z" />
<glyph unicode="&#xfc;" horiz-adv-x="942" d="M127 291l59 418h246l-53 -383q-9 -64 19 -102t89 -38t104.5 35t51.5 86l57 402h246l-100 -709h-168l-27 94h-10q-80 -110 -242 -110q-146 0 -219 82.5t-53 224.5zM303 977q0 53 43.5 94t95.5 41q45 0 76 -33t31 -78q0 -52 -43 -92.5t-96 -40.5q-44 0 -75.5 33t-31.5 76z M684 977q0 53 44.5 94t96.5 41q44 0 75.5 -33t31.5 -78q0 -52 -43 -92.5t-96 -40.5q-44 0 -76.5 33t-32.5 76z" />
<glyph unicode="&#xfd;" d="M27 -395l295 465l-216 639h271l88 -353q8 -40 4 -63h12q5 30 25 63l186 353h250l-655 -1102zM487 858l7 39l106 285h283l-4 -39l-236 -285h-156z" />
<glyph unicode="&#xfe;" horiz-adv-x="956" d="M41 -393l227 1622h246l-82 -588h8q3 3 8.5 9t25 20.5t42 25.5t59.5 20t78 9q135 0 217 -84.5t82 -226.5q0 -186 -118 -308t-285 -122q-43 0 -78 9.5t-54.5 23t-32.5 27t-18 22.5l-4 10h-10l-65 -469h-246zM377 328q0 -65 37.5 -103.5t103.5 -38.5q78 0 130 54t52 137 q0 64 -36.5 104.5t-98.5 40.5q-83 0 -135.5 -54t-52.5 -140z" />
<glyph unicode="&#xff;" d="M27 -395l295 465l-216 639h271l88 -353q8 -40 4 -63h12q5 30 25 63l186 353h250l-655 -1102zM262 977q0 53 43.5 94t95.5 41q45 0 76 -33t31 -78q0 -52 -43 -92.5t-96 -40.5q-44 0 -75.5 33t-31.5 76zM643 977q0 53 44.5 94t96.5 41q44 0 75.5 -33t31.5 -78 q0 -52 -43 -92.5t-96 -40.5q-44 0 -76.5 33t-32.5 76z" />
<glyph unicode="&#x152;" horiz-adv-x="2144" d="M150 530q0 146 55 278.5t152 231t237.5 157t302.5 58.5q230 0 379 -127l14 101h955l-31 -217h-707l-41 -299h582l-29 -203h-581l-41 -293h706l-30 -217h-955l12 88q-184 -115 -413 -115q-176 0 -306.5 75t-195.5 200t-65 282zM408 559q0 -154 94 -251t248 -97 q191 0 322.5 131.5t131.5 325.5q0 155 -93.5 252.5t-248.5 97.5q-190 0 -322 -132.5t-132 -326.5z" />
<glyph unicode="&#x153;" horiz-adv-x="1417" d="M96 305q0 122 64.5 219.5t169 149t225.5 51.5q162 0 262 -100q124 100 291 100q149 0 233 -84.5t84 -226.5q0 -24 -3.5 -50.5t-7.5 -40.5l-3 -14h-508q6 -71 51 -106t119 -35q52 0 99.5 12t68.5 24l21 11l57 -154q-4 -3 -12 -8.5t-35 -19.5t-57 -24.5t-78.5 -19.5 t-100.5 -9q-183 0 -282 102q-131 -98 -303 -98q-155 0 -255 88t-100 233zM338 328q0 -68 37.5 -109t101.5 -41q83 0 137 57t54 146q0 67 -38.5 108t-103.5 41q-80 0 -134 -57.5t-54 -144.5zM920 430h278q0 51 -31 84t-86 33q-119 0 -161 -117z" />
<glyph unicode="&#x178;" horiz-adv-x="1153" d="M164 1229h287l194 -428l25 -78h22l47 78l312 428h286l-571 -760l-66 -469h-247l65 471zM467 1432q0 53 43.5 94t95.5 41q45 0 76 -33t31 -78q0 -52 -43.5 -92.5t-96.5 -40.5q-44 0 -75 33t-31 76zM848 1432q0 53 44.5 94t96.5 41q44 0 75.5 -33t31.5 -78 q0 -52 -43.5 -92.5t-96.5 -40.5q-44 0 -76 33t-32 76z" />
<glyph unicode="&#x2c6;" horiz-adv-x="673" d="M164 858l6 39l217 285h258l137 -285l-6 -39h-158l-122 168l-174 -168h-158z" />
<glyph unicode="&#x2dc;" horiz-adv-x="880" d="M205 885l22 67q63 191 230 191q51 0 96 -20.5t80.5 -41t64.5 -20.5q50 0 74 59l12 31l170 -16l-20 -68q-27 -89 -85 -139.5t-144 -50.5q-52 0 -98 20.5t-82 40.5t-64 20q-50 0 -74 -57l-12 -31z" />
<glyph unicode="&#x2000;" horiz-adv-x="815" />
<glyph unicode="&#x2001;" horiz-adv-x="1630" />
<glyph unicode="&#x2002;" horiz-adv-x="815" />
<glyph unicode="&#x2003;" horiz-adv-x="1630" />
<glyph unicode="&#x2004;" horiz-adv-x="543" />
<glyph unicode="&#x2005;" horiz-adv-x="407" />
<glyph unicode="&#x2006;" horiz-adv-x="271" />
<glyph unicode="&#x2007;" horiz-adv-x="271" />
<glyph unicode="&#x2008;" horiz-adv-x="203" />
<glyph unicode="&#x2009;" horiz-adv-x="326" />
<glyph unicode="&#x200a;" horiz-adv-x="90" />
<glyph unicode="&#x2010;" horiz-adv-x="772" d="M158 492l28 200h596l-28 -200h-596z" />
<glyph unicode="&#x2011;" horiz-adv-x="772" d="M158 492l28 200h596l-28 -200h-596z" />
<glyph unicode="&#x2012;" horiz-adv-x="772" d="M158 492l28 200h596l-28 -200h-596z" />
<glyph unicode="&#x2013;" horiz-adv-x="940" d="M158 489l28 199h764l-28 -199h-764z" />
<glyph unicode="&#x2014;" horiz-adv-x="1452" d="M158 489l28 199h1276l-28 -199h-1276z" />
<glyph unicode="&#x2018;" horiz-adv-x="411" d="M190 975q0 94 86 215l89 125h159l-86 -121q-11 -16 -23 -28.5t-18 -17.5l-6 -5l-2 -13q43 -9 67.5 -41.5t24.5 -78.5q0 -66 -49 -114t-117 -48q-55 0 -90 36t-35 91z" />
<glyph unicode="&#x2019;" horiz-adv-x="407" d="M199 895l86 121q11 16 23 28.5t18 17.5l6 5l2 12q-42 9 -67 42t-25 79q0 66 49 114t117 48q55 0 89.5 -36t34.5 -91q0 -94 -86 -215l-88 -125h-159z" />
<glyph unicode="&#x201a;" horiz-adv-x="397" d="M27 -197l86 121q11 16 23 28.5t18 17.5l6 5l2 13q-42 9 -67 42t-25 79q0 66 49 113.5t117 47.5q55 0 89.5 -36t34.5 -91q0 -94 -86 -215l-88 -125h-159z" />
<glyph unicode="&#x201c;" horiz-adv-x="815" d="M190 977q0 94 86 215l89 125h159l-86 -121q-11 -16 -23 -28.5t-18 -17.5l-6 -5l-2 -12q42 -9 67 -42t25 -79q0 -66 -49 -114t-117 -48q-55 0 -90 36t-35 91zM596 977q0 94 86 215l88 125h160l-86 -121q-11 -16 -23 -28.5t-18 -17.5l-6 -5l-2 -12q42 -9 67 -42t25 -79 q0 -66 -49 -114t-117 -48q-55 0 -90 36t-35 91z" />
<glyph unicode="&#x201d;" horiz-adv-x="806" d="M195 895l86 121q11 16 23 28.5t18 17.5l6 5l2 12q-42 9 -67 42t-25 79q0 66 49 114t116 48q55 0 90 -36t35 -91q0 -94 -86 -215l-88 -125h-159zM592 895l86 121q11 16 23 28.5t18 17.5l6 5l2 12q-42 9 -67 42t-25 79q0 66 49 114t117 48q55 0 90 -36t35 -91 q0 -94 -86 -215l-88 -125h-160z" />
<glyph unicode="&#x201e;" horiz-adv-x="862" d="M27 -197l86 121q11 16 23 28.5t18 17.5l6 5l2 13q-42 9 -67 42t-25 79q0 66 49 113.5t117 47.5q55 0 89.5 -36t34.5 -91q0 -94 -86 -215l-88 -125h-159zM492 -197l86 121q11 16 23 28.5t18 17.5l6 5l2 13q-42 9 -67 42t-25 79q0 66 48.5 113.5t116.5 47.5q55 0 90 -36 t35 -91q0 -94 -86 -215l-88 -125h-159z" />
<glyph unicode="&#x2022;" horiz-adv-x="645" d="M178 332q0 86 67 150.5t154 64.5q71 0 118.5 -50t47.5 -120q0 -87 -66 -150t-155 -63q-70 0 -118 48.5t-48 119.5z" />
<glyph unicode="&#x2026;" horiz-adv-x="1368" d="M70 115q0 69 52.5 119.5t123.5 50.5q55 0 92 -38.5t37 -94.5q0 -69 -52.5 -118.5t-119.5 -49.5q-58 0 -95.5 37.5t-37.5 93.5zM551 115q0 69 52.5 119.5t121.5 50.5q56 0 93.5 -38.5t37.5 -94.5q0 -69 -52.5 -118.5t-121.5 -49.5q-57 0 -94 37.5t-37 93.5zM1030 115 q0 69 52.5 119.5t121.5 50.5q56 0 93.5 -38.5t37.5 -94.5q0 -70 -52 -119t-122 -49q-57 0 -94 37.5t-37 93.5z" />
<glyph unicode="&#x202f;" horiz-adv-x="326" />
<glyph unicode="&#x2039;" horiz-adv-x="530" d="M102 330l7 43l262 315h204l-4 -18l-252 -310l-2 -14l166 -313l-4 -19h-205z" />
<glyph unicode="&#x203a;" horiz-adv-x="530" d="M55 14l2 19l254 313l2 14l-166 310l3 18h206l174 -315l-6 -43l-262 -316h-207z" />
<glyph unicode="&#x205f;" horiz-adv-x="407" />
<glyph unicode="&#x20ac;" horiz-adv-x="1204" d="M127 385l25 170h116q3 62 15 113h-117l24 170h144q78 187 232.5 300t371.5 113q71 0 133 -15t100 -36.5t66 -43.5t39 -37l12 -15l-170 -189q-3 4 -8.5 10.5t-25 23t-42 29.5t-58.5 23.5t-75 10.5q-202 0 -305 -174h359l-25 -170h-399q-12 -53 -15 -113h400l-25 -170h-358 q56 -170 256 -170q62 0 121 24.5t88 48.5l28 25l115 -188q-6 -6 -16.5 -16t-48 -36t-79 -46t-108 -36t-137.5 -16q-110 0 -198 31t-146.5 87t-94.5 129.5t-49 162.5h-145z" />
<glyph unicode="&#x2122;" horiz-adv-x="1509" d="M221 1090l21 139h532l-20 -139h-189l-71 -515h-158l72 515h-187zM793 575l92 654h37l256 -279q6 5 165.5 137.5t172.5 141.5h38l-92 -654h-157l47 347l-185 -158h-26l-146 162l-47 -351h-155z" />
<glyph unicode="&#x25fc;" horiz-adv-x="706" d="M0 0v707h707v-707h-707z" />
<glyph unicode="&#xfb01;" horiz-adv-x="1191" d="M113 518l26 191h152l39 276q27 188 130 283.5t257 95.5q50 0 92.5 -9t58 -16.5t23.5 -13.5l-90 -211q-45 23 -80 23q-125 0 -146 -152l-38 -276h221l-27 -191h-221l-74 -518h-246l74 518h-151zM848 0l100 709h246l-100 -709h-246zM981 1065q0 65 49 112.5t113 47.5 q55 0 90 -36t35 -91q0 -65 -49.5 -111.5t-114.5 -46.5q-54 0 -88.5 35.5t-34.5 89.5z" />
<glyph unicode="&#xfb02;" horiz-adv-x="1179" d="M113 518l26 191h152l39 276q27 188 130 283.5t257 95.5q50 0 92.5 -9t58 -16.5t23.5 -13.5l-90 -211q-45 23 -80 23q-125 0 -146 -152l-38 -276h221l-27 -191h-221l-74 -518h-246l74 518h-151zM836 0l192 1368h246l-193 -1368h-245z" />
<glyph unicode="&#xfb03;" horiz-adv-x="1878" d="M113 518l26 191h152l39 276q27 188 130 283.5t257 95.5q50 0 92.5 -9t58 -16.5t23.5 -13.5l-90 -211q-45 23 -80 23q-125 0 -146 -152l-38 -276h221l-27 -191h-221l-74 -518h-246l74 518h-151zM831 518l27 191h152l39 276q27 188 130 283.5t257 95.5q50 0 92.5 -9 t58 -16.5t23.5 -13.5l-90 -211q-45 23 -80 23q-125 0 -146 -152l-39 -276h222l-27 -191h-221l-74 -518h-246l74 518h-152zM1534 0l100 709h246l-100 -709h-246zM1667 1065q0 65 49 112.5t113 47.5q55 0 90 -36t35 -91q0 -65 -49.5 -111.5t-114.5 -46.5q-54 0 -88.5 35.5 t-34.5 89.5z" />
<glyph unicode="&#xfb04;" horiz-adv-x="1871" d="M113 518l26 191h152l39 276q27 188 130 283.5t257 95.5q50 0 92.5 -9t58 -16.5t23.5 -13.5l-90 -211q-45 23 -80 23q-125 0 -146 -152l-38 -276h221l-27 -191h-221l-74 -518h-246l74 518h-151zM831 518l27 191h152l39 276q27 188 130 283.5t257 95.5q50 0 92.5 -9 t58 -16.5t23.5 -13.5l-90 -211q-45 23 -80 23q-125 0 -146 -152l-39 -276h222l-27 -191h-221l-74 -518h-246l74 518h-152zM1528 0l192 1368h246l-192 -1368h-246z" />
</font>
</defs>
</svg>
