<?xml version="1.0" standalone="no"?>
<!DOCTYPE svg PUBLIC "-//W3C//DTD SVG 1.1//EN" "http://www.w3.org/Graphics/SVG/1.1/DTD/svg11.dtd" >
<svg xmlns="http://www.w3.org/2000/svg">
<metadata></metadata>
<defs>
<font id="Webfont" horiz-adv-x="1087" >
<font-face units-per-em="2048" ascent="1638" descent="-410" />
<missing-glyph horiz-adv-x="593" />
<glyph horiz-adv-x="0" />
<glyph horiz-adv-x="0" />
<glyph unicode="&#xd;" horiz-adv-x="593" />
<glyph unicode=" "  horiz-adv-x="593" />
<glyph unicode="&#x09;" horiz-adv-x="593" />
<glyph unicode="&#xa0;" horiz-adv-x="593" />
<glyph unicode="!" horiz-adv-x="417" d="M147 57q0 32 24 55t56 23t55 -23t23 -57q0 -32 -23 -55t-57 -23q-31 0 -54.5 23.5t-23.5 56.5zM147 1358v53q0 94 82 94q35 0 58 -21.5t28 -56.5l-6 -69l-59 -1047h-41z" />
<glyph unicode="&#x22;" horiz-adv-x="552" d="M59 1069q41 40 61 66t40 69q25 59 35 142q-35 -5 -37 -5q-34 0 -57 23t-23 57t24 57t58 23q38 0 62 -34t24 -87q0 -42 -17 -102q-11 -46 -32 -92q-25 -48 -52.5 -77t-83.5 -67zM309 1069q43 42 63 68t38 67q24 56 34 142q-30 -5 -36 -5q-32 0 -55 23t-23 57t23.5 57 t58.5 23q37 0 60.5 -34t23.5 -87q0 -50 -15 -102q-8 -31 -35 -92q-25 -48 -52 -77.5t-83 -66.5z" />
<glyph unicode="#" horiz-adv-x="1292" d="M113 481l16 80h236l75 352h-237l18 80h236l92 441h80l-92 -441h231l92 441h80l-92 -441h235l-16 -80h-238l-73 -352h235l-16 -80h-236l-92 -440h-80l92 440h-231l-92 -440h-80l92 440h-235zM444 561h232l76 352h-232z" />
<glyph unicode="$" horiz-adv-x="1099" d="M111 438l28 2q6 -59 15 -90q12 -83 44.5 -151t77.5 -107q59 -36 91 -49q43 -20 70.5 -27.5t78.5 -13.5v743q-16 9 -41.5 22.5t-34.5 18.5q-125 66 -167 94t-74 70q-28 39 -46 95t-18 110q0 145 99 240.5t251 95.5h27v123h43v-123q14 2 43 2q57 0 96 -20l76 -41 q26 -11 41 -11q26 0 39 16.5t18 53.5h29l16 -434l-28 -2q-3 55 -6 75q-17 164 -93 240q-33 33 -90 59.5t-94 26.5q-29 0 -45 -2v-582l37 -24l176 -105q219 -131 219 -350q0 -188 -121.5 -306.5t-316.5 -121.5v-112h-43v116q-80 11 -122 23.5t-85 38.5q-52 30 -78 30 q-27 0 -42 -16.5t-25 -60.5h-29zM242 1202q0 -54 17 -92.5t60 -81.5q39 -39 77.5 -65t117.5 -68v559q-128 -5 -200 -71.5t-72 -180.5zM553 6q110 12 166 38.5t100 86.5q37 46 60 115q16 53 16 100q0 108 -80 197q-45 49 -98 85t-164 93v-715z" />
<glyph unicode="%" horiz-adv-x="1380" d="M45 4l1247 1495l43 -37l-1253 -1491zM121 1163q0 160 85.5 254t231.5 94t232 -94t86 -254q0 -162 -85.5 -256t-232.5 -94t-232 94t-85 256zM236 1163q0 -66 9 -132t23 -97q19 -41 67 -68.5t103 -27.5t101.5 26.5t66.5 69.5q14 31 23.5 97t9.5 132q0 64 -9.5 130.5 t-23.5 97.5q-21 42 -67 69t-101 27t-102.5 -26.5t-67.5 -69.5q-13 -31 -22.5 -97t-9.5 -131zM629 309q0 157 84.5 250.5t226.5 93.5q143 0 228 -93.5t85 -250.5q0 -155 -85.5 -248.5t-227.5 -93.5t-226.5 93t-84.5 249zM745 309q0 -160 48 -237.5t145 -77.5 q102 0 150.5 76.5t48.5 238.5q0 316 -193 316q-102 0 -150.5 -77t-48.5 -239z" />
<glyph unicode="&#x26;" horiz-adv-x="1552" d="M117 354q0 177 147 330q43 44 84.5 75.5t124.5 82.5q-87 131 -125.5 220t-38.5 159q0 113 93.5 194.5t222.5 81.5q119 0 197.5 -75t78.5 -189q0 -90 -63.5 -162t-237.5 -180l361 -533q135 282 135 381q0 111 -150 111l-2 35h414l-2 -35q-46 -4 -69.5 -12.5t-49.5 -28.5 q-71 -56 -123 -184l-41 -99q-58 -135 -88 -198l74 -105q51 -72 69.5 -95.5t45.5 -49.5q68 -62 145 -62q64 0 103 39.5t48 112.5l31 2q-3 -98 -64 -150.5t-171 -52.5q-203 0 -357 234q-46 -67 -76.5 -100t-74.5 -62q-115 -72 -250 -72q-167 0 -279 111t-112 276zM246 410 q0 -152 102 -266.5t238 -114.5q81 0 149 41q43 25 75 56t83 97l-404 594q-70 -45 -103.5 -76.5t-63.5 -81.5q-76 -121 -76 -249zM416 1286q0 -71 59 -186q39 -76 105 -182q59 32 86.5 55.5t54.5 64.5q36 60 47 109q14 58 14 115q0 92 -49 147t-131 55q-78 0 -132 -51.5 t-54 -126.5z" />
<glyph unicode="'" horiz-adv-x="303" d="M59 1069q41 40 61 66t40 69q25 59 35 142q-35 -5 -37 -5q-34 0 -57 23t-23 57t24 57t58 23q38 0 62 -34t24 -87q0 -42 -17 -102q-11 -46 -32 -92q-25 -48 -52.5 -77t-83.5 -67z" />
<glyph unicode="(" horiz-adv-x="604" d="M147 629q0 292 117 538q60 125 124 208t198 210l18 -33q-114 -120 -165.5 -199.5t-102.5 -213.5q-94 -253 -94 -510q0 -258 94 -508q51 -135 102.5 -214.5t165.5 -201.5l-18 -33q-134 128 -198 211t-124 207q-117 246 -117 539z" />
<glyph unicode=")" horiz-adv-x="604" d="M0 -295q114 119 165 199.5t103 216.5q94 250 94 508q0 257 -94 510q-52 135 -103 215t-165 200l18 31q136 -128 200 -211t122 -207q117 -246 117 -538q0 -293 -117 -539q-58 -122 -122 -205t-200 -213z" />
<glyph unicode="*" horiz-adv-x="940" d="M94 946q0 7 10 27q10 17 29 26.5t78 28.5q20 8 57 19q41 14 54 18q4 1 55 18q61 26 76 33q-21 8 -46.5 20.5t-31.5 14.5q-48 21 -123 45q-56 17 -62 21q-24 6 -51 24q-35 24 -35 53q0 19 15.5 30t42.5 11q24 0 39 -12q2 -1 7 -5t14 -11.5t20 -14.5l51 -37l47 -36 q20 -16 123 -80q-3 59 -8 80q0 2 -2 9.5t-5 21.5l-6 28q-9 58 -10 65l-6 56l-4 26t-3 19t-1 8q0 22 15.5 37.5t37.5 15.5t36.5 -15.5t14.5 -37.5t-4 -53l-6 -56q-1 -5 -14 -65q-2 -13 -4.5 -26.5t-4 -21.5t-2.5 -11q-7 -64 -8 -80q103 64 123 80l47 36l51 37q26 24 41 31 q18 12 43 12t39.5 -11t14.5 -30q0 -29 -37 -53q-18 -13 -51 -24q-10 -7 -60 -21q-5 -1 -23.5 -8t-31.5 -10q-56 -21 -143 -62q53 -26 75 -33q3 -1 9.5 -3t20 -6.5t26.5 -8.5q13 -5 53 -18q15 -4 33 -10.5t24 -8.5q14 -4 34.5 -12t27.5 -10q51 -20 51 -58q0 -22 -14.5 -35.5 t-38.5 -13.5q-40 0 -107 53l-49 39q-59 47 -156 105q2 -82 13 -131l14 -60q16 -65 16 -106q0 -70 -51 -70q-30 0 -42.5 16.5t-12.5 55.5q0 29 16 104l12 60q15 70 17 131q-16 -9 -29.5 -17t-23.5 -14t-20 -12.5t-16 -10t-14.5 -9.5t-11.5 -8t-11 -8.5t-10 -8t-11 -8.5 t-11 -9l-49 -39q-63 -53 -109 -53q-23 0 -38 13.5t-15 33.5z" />
<glyph unicode="+" d="M100 686v105h389v389h109v-389h389v-105h-387v-391h-113v391h-387z" />
<glyph unicode="," horiz-adv-x="303" d="M59 -291q41 39 60.5 66.5t40.5 70.5q25 60 35 144q-14 -6 -37 -6q-33 0 -56.5 23t-23.5 54q0 35 24 58.5t58 23.5q38 0 62 -33.5t24 -86.5q0 -45 -17 -105q-12 -47 -32 -88q-24 -50 -51 -79t-85 -68z" />
<glyph unicode="-" horiz-adv-x="673" d="M74 391v101h526v-101h-526z" />
<glyph unicode="." horiz-adv-x="278" d="M59 57q0 33 24.5 56.5t57.5 23.5q34 -1 56 -23.5t22 -54.5q0 -35 -23 -58.5t-57 -23.5t-57 23t-23 57z" />
<glyph unicode="/" horiz-adv-x="1619" d="M45 0l1473 1477h59l-1473 -1477h-59z" />
<glyph unicode="0" d="M117 713q0 213 57.5 393.5t156.5 284.5t216 104q113 0 209.5 -106t153.5 -287t57 -391q0 -204 -55.5 -374t-153 -268t-215.5 -98q-117 0 -215 98t-154.5 268.5t-56.5 375.5zM219 717q0 -319 89.5 -516t234.5 -197q96 0 169.5 89t113.5 250.5t40 371.5q0 332 -89.5 539.5 t-231.5 207.5q-146 0 -236 -205.5t-90 -539.5z" />
<glyph unicode="1" d="M276 0v29q138 3 187 61q41 52 41 205v442v627q-83 -10 -131 -10q-43 0 -70 2l2 26q114 8 165 24.5t142 76.5l9 -746v-442q0 -95 6.5 -133t29.5 -70q26 -34 61 -47t109 -16v-29h-551z" />
<glyph unicode="2" d="M115 0v29q78 74 86 82q24 24 184 188q84 84 170 184q136 167 209 305q82 154 82 306q0 163 -82.5 266.5t-214.5 103.5q-125 0 -211 -85t-86 -208q0 -115 79.5 -204.5t180.5 -89.5q4 0 9 0.5t12.5 1.5t15.5 2l6 -13q-42 -27 -67.5 -36t-59.5 -9q-112 0 -187 85.5 t-75 211.5q0 155 117 267t278 112q172 0 281.5 -120.5t109.5 -309.5q0 -129 -52 -245.5t-173 -258.5q-75 -86 -180 -188q-127 -125 -324 -275h371q146 0 219.5 59.5t114.5 211.5l28 -8l-75 -365h-766z" />
<glyph unicode="3" d="M115 264q0 105 58 165.5t163 64.5l4 -21q-66 -12 -101.5 -64t-35.5 -137q0 -115 78.5 -190.5t197.5 -75.5q155 0 250.5 120t95.5 314q0 122 -58 216t-136 94q-30 0 -78 -33q-60 -41 -104 -41q-31 0 -53.5 19.5t-22.5 47.5q0 34 28.5 56t71.5 22q19 0 29 -2l45 -6h18 q107 0 165 77.5t58 217.5q0 159 -74.5 258.5t-195.5 99.5q-97 0 -157 -56t-60 -148q0 -70 37.5 -120t91.5 -50q17 0 31 2l8 -17q-41 -14 -76 -14q-81 0 -131.5 48t-50.5 124q0 106 95.5 185t221.5 79q157 0 265 -111t108 -274q0 -127 -71 -206.5t-218 -116.5q86 -19 131 -41 t93 -68q104 -104 104 -260q0 -193 -136 -324t-337 -131q-159 0 -255.5 81t-96.5 216z" />
<glyph unicode="4" d="M82 391l616 1092h23v-1092h33q47 0 67.5 7.5t40.5 29.5q22 25 31 57t14 97h27v-410h-25q-7 67 -14 98q-4 17 -25 47q-20 26 -43 34.5t-77 8.5h-25v-71q0 -93 6 -131t27 -66q23 -34 58.5 -47.5t101.5 -15.5v-29h-488l-2 29q65 3 98 16.5t58 46.5q25 32 32 66.5t7 117.5v19 l-2 31l2 34h-539zM117 393h506v887z" />
<glyph unicode="5" d="M86 238q0 49 26 81.5t64 32.5q44 0 67 -32t23 -91q0 -18 -2 -30q0 -14 -1 -33.5t-1 -26.5q0 -63 51 -101t136 -38q161 0 265.5 143.5t104.5 364.5q0 170 -77.5 275.5t-204.5 105.5q-107 0 -175 -68q-24 -26 -37 -56.5t-28 -96.5l-35 8l182 790q55 -16 76 -18 q86 -21 180 -21q73 0 122.5 11.5t109.5 42.5q-18 -47 -35 -68t-55 -39q-78 -33 -162 -33q-37 0 -55 2q-72 8 -166 41l-129 -555q21 24 43 41q72 52 180 52q171 0 278 -116.5t107 -301.5q0 -229 -137 -382t-342 -153q-150 0 -261.5 80.5t-111.5 188.5z" />
<glyph unicode="6" d="M111 598q0 251 76 457.5t209 324t296 117.5q97 0 167.5 -45t70.5 -106q0 -34 -19.5 -57t-48.5 -23q-64 0 -108 100q-25 55 -46 73.5t-59 18.5q-74 0 -148.5 -60.5t-129.5 -162.5q-48 -89 -76 -176q-40 -127 -62 -283q15 30 50 76q38 44 102 70t133 26q192 0 324.5 -146 t132.5 -358q0 -128 -57.5 -238t-156 -174.5t-214.5 -64.5q-201 0 -318.5 169.5t-117.5 461.5zM223 571q0 -256 90.5 -413.5t237.5 -157.5q132 0 222.5 125t90.5 305q0 196 -112 334.5t-269 138.5q-110 0 -178.5 -76.5t-79.5 -208.5q-2 -16 -2 -47z" />
<glyph unicode="7" d="M154 1171l86 340l36 -2q-2 -4 -2 -12q0 -22 37 -22h8q8 2 72 2h553l-536 -1385q-23 -59 -39 -77.5t-43 -18.5q-26 0 -44 17t-18 42q0 22 8 35l19 39l581 1237h-399q-75 0 -108.5 -6.5t-71.5 -28.5q-41 -25 -64.5 -60.5t-42.5 -101.5z" />
<glyph unicode="8" d="M125 354q0 189 141 299q41 34 83.5 56t133.5 57q-20 15 -51 37t-41.5 29.5t-28 21t-29 23.5t-26.5 24q-127 113 -127 270q0 145 102 237.5t263 92.5q154 0 255 -94.5t101 -237.5q0 -126 -78 -219q-32 -39 -73.5 -69t-128.5 -78q13 -9 33.5 -24t27.5 -19q91 -64 135 -101 q139 -118 139 -299q0 -175 -115.5 -285t-301.5 -110t-300 107t-114 282zM236 350q0 -152 91 -253t226 -101t214 89.5t79 240.5q0 122 -56 201t-210 178l-76 49q-76 -54 -112.5 -85t-69.5 -73q-86 -115 -86 -246zM274 1198q0 -69 43 -143q29 -51 62 -81.5t123 -90.5 q31 -15 102 -66q70 53 101.5 88t54.5 88q35 78 35 164q0 136 -72 221.5t-188 85.5q-112 0 -186.5 -76t-74.5 -190z" />
<glyph unicode="9" d="M102 1016q0 129 57.5 239.5t155.5 175t213 64.5q201 0 319 -170t118 -461q0 -251 -76 -457.5t-209 -324t-295 -117.5q-98 0 -169 44.5t-71 105.5q0 35 19.5 57.5t50.5 22.5q66 0 109 -101q22 -53 44 -72.5t60 -19.5q73 0 149 60t132 161q43 82 73 180q33 104 62 281 q-35 -59 -51 -76q-38 -44 -101.5 -69t-134.5 -25q-125 0 -229.5 66.5t-165 182t-60.5 253.5zM215 1028q0 -35 2 -51q15 -179 123.5 -299.5t253.5 -120.5q122 0 190 90.5t68 251.5q0 163 -41.5 291.5t-116.5 200t-170 71.5q-131 0 -220 -125t-89 -309z" />
<glyph unicode=":" horiz-adv-x="335" d="M88 57q0 33 24.5 56.5t57.5 23.5q34 -1 56 -23.5t22 -54.5q0 -35 -22.5 -58.5t-55.5 -23.5q-34 0 -58 23t-24 57zM90 567q0 32 24 56t56 24t55 -23.5t23 -54.5q0 -34 -23 -57t-55 -23t-56 23t-24 55z" />
<glyph unicode=";" horiz-adv-x="362" d="M88 -291q41 40 61 67t39 70q25 60 35 144q-12 -6 -37 -6q-32 0 -54.5 23t-22.5 54q0 35 23 58.5t58 23.5q37 0 60.5 -33.5t23.5 -86.5q0 -49 -16 -105q-11 -42 -33 -88q-25 -51 -51.5 -80t-83.5 -67zM102 567q0 33 23.5 56.5t58.5 23.5q31 0 54.5 -24t23.5 -56 q0 -33 -23.5 -55.5t-54.5 -22.5q-35 0 -58.5 22.5t-23.5 55.5z" />
<glyph unicode="&#x3c;" horiz-adv-x="438" d="M59 432l320 430v-61l-199 -371l197 -360v-68z" />
<glyph unicode="=" d="M102 657v105h883v-105h-883zM102 864v103h883v-103h-883z" />
<glyph unicode="&#x3e;" horiz-adv-x="438" d="M59 2v59l203 373l-201 361v67l318 -430z" />
<glyph unicode="?" horiz-adv-x="823" d="M88 1321q0 75 81 127.5t196 52.5q77 0 150.5 -40t128 -106t87.5 -155t33 -182q0 -157 -96.5 -265t-237.5 -108q-42 0 -82 12q-39 13 -63 31t-58 60v-437l-28 -2v547l28 -2q1 -78 53 -126t134 -48q112 0 177.5 92t65.5 246q0 116 -39.5 221.5t-105 169.5t-137.5 64 q-39 0 -70 -30t-43 -77l-14 -53q-8 -32 -31.5 -54t-52.5 -22q-32 0 -54 24.5t-22 59.5zM133 55q0 34 22 57t54 23q34 0 58 -23t24 -57q0 -32 -24 -55t-58 -23q-32 0 -54 23t-22 55z" />
<glyph unicode="@" horiz-adv-x="1699" d="M123 645q-17 151 20.5 295.5t124.5 263.5q94 128 223.5 205t270.5 92q163 18 304 -32.5t234.5 -151.5t136.5 -251.5t17 -324.5q-29 -196 -122.5 -314t-207.5 -134q-88 -12 -149.5 44.5t-52.5 135.5q-11 -39 -43 -76q-55 -63 -125.5 -77.5t-145.5 20.5q-74 35 -113 125.5 t-32 234.5q6 73 6 74q20 130 73 229.5t126 153.5q102 72 191.5 54t137.5 -113q6 -9 9 -21l20 131l96 -2l-80 -450l-2 -13l-26 -174q-11 -70 6 -129q10 -40 46.5 -58.5t74.5 -4.5q32 12 58 33.5t67 70.5q75 94 98 279q21 159 -17.5 293t-121.5 220t-205.5 125.5t-263.5 18.5 q-106 -16 -201 -71t-164 -138.5t-114.5 -191t-52 -228.5t23.5 -251q39 -155 134.5 -270.5t218 -169.5t267 -46.5t275.5 84.5q41 22 102 72q65 53 117 115l49 -46q-24 -30 -53 -59q-241 -244 -535 -244q-274 0 -471 186.5t-229 485.5zM569 594q3 -80 25 -129q29 -62 95.5 -74 t119.5 37q32 31 53 66.5t43 103.5q16 47 41 168l4 20l13 88q10 79 0.5 123t-43.5 84q-29 34 -69 44t-84.5 -9t-80.5 -65q-43 -54 -80 -168q-21 -62 -33 -170q-7 -77 -4 -119z" />
<glyph unicode="A" horiz-adv-x="1353" d="M-59 29q52 3 86 17t63 46q2 2 37 49q5 7 8 12t7 12l6 10.5t6 12.5l6 13.5t7 17.5t7.5 20t10 26.5t12.5 31.5l26 68l449 1112h35l460 -1180l35 -96q18 -41 66 -109q31 -32 62.5 -46t82.5 -17l-2 -29h-541l-2 29q104 4 149.5 31.5t45.5 86.5q0 52 -43 150q-28 67 -109 278 h-563q-80 -205 -107.5 -287.5t-27.5 -123.5q0 -69 46 -100t159 -35v-29h-475zM358 604h543l-268 682z" />
<glyph unicode="B" horiz-adv-x="1341" d="M74 1446l2 31h542q157 0 222 -12t135 -54q69 -41 107 -115t38 -166q0 -147 -104 -235q-36 -32 -78 -52t-127 -46q112 -7 168 -22.5t121 -55.5q77 -47 120.5 -131.5t43.5 -186.5q0 -196 -136 -313q-66 -57 -138 -72.5t-263 -15.5h-651v29q57 1 89 15.5t56 47.5 q17 29 23 64t6 110v29v442v443v49q0 118 -39.5 166.5t-136.5 50.5zM381 344q0 -117 6.5 -157.5t30.5 -73.5q31 -43 85.5 -62.5t147.5 -19.5q152 0 235 21.5t134 74.5q46 50 73 122.5t27 153.5q0 108 -46.5 192t-129.5 124q-68 32 -134.5 41.5t-231.5 9.5h-197v-426zM381 799 h166q137 0 203.5 14.5t119.5 54.5q111 87 111 254q0 158 -90 242q-48 45 -108 62.5t-171 17.5h-231v-645z" />
<glyph unicode="C" horiz-adv-x="1454" d="M104 690q0 240 89.5 424t253 284.5t378.5 100.5q83 0 163.5 -17t193.5 -59q52 -18 69 -18q64 0 64 86h31l12 -498h-27q-50 232 -172 351.5t-309 119.5q-174 0 -312.5 -99t-216 -275.5t-77.5 -399.5q0 -304 164 -491t428 -187q206 0 350 119q67 55 99 119t52 186l29 -4 q-9 -78 -20 -120t-33 -87q-63 -126 -198 -194t-322 -68q-314 0 -501.5 198t-187.5 529z" />
<glyph unicode="D" horiz-adv-x="1585" d="M74 29q101 3 138.5 49t37.5 166v51v442v443q0 13 1 35.5t1 31.5q0 107 -40.5 152t-137.5 47l2 31h616q144 0 269 -25q122 -26 231.5 -103t175.5 -182q113 -180 113 -452q0 -238 -107 -418q-66 -111 -162 -182q-93 -71 -183 -93t-294 -22h-659zM385 360l2 -141 q2 -106 53.5 -146t186.5 -40q29 0 45 2q161 9 246 28q105 23 206 117q104 101 160.5 243t56.5 306q0 259 -122 449q-150 233 -398 258q-96 8 -284 8h-152v-1084z" />
<glyph unicode="E" horiz-adv-x="1310" d="M74 29q103 3 139.5 53.5t36.5 187.5v25v442v453v29q0 71 -5.5 103t-23.5 60q-20 34 -52 48t-91 16v31h1030l14 -342l-28 -5q-20 87 -38.5 129t-54.5 82q-54 60 -151.5 82.5t-310.5 22.5h-154v-651h68q99 0 144 8.5t85 34.5q48 33 68.5 82t21.5 139h29v-584l-31 4 q0 161 -67.5 224t-239.5 63h-80v-404q0 -107 12.5 -157.5t50.5 -89.5q74 -82 302 -82q198 0 305 76q59 42 104 124q27 47 40.5 90t25.5 123h28l-16 -446h-1159z" />
<glyph unicode="F" horiz-adv-x="1095" d="M74 29q59 1 90 15.5t53 47.5q20 30 25.5 68t5.5 135v442v455v41q0 115 -39 162.5t-135 50.5l2 31h1007l13 -347h-31q-13 70 -27 106t-43 77q-56 77 -157 105t-330 28h-129v-649h57q169 0 236 54.5t76 203.5h28v-580l-28 4q-10 104 -33 160q-56 127 -273 127h-65v-469 q0 -95 6.5 -134.5t26.5 -70.5q22 -33 54 -47.5t91 -15.5v-29h-479z" />
<glyph unicode="G" horiz-adv-x="1562" d="M104 694q0 392 220 609q94 92 227.5 145t271.5 53q111 0 213 -31q8 -2 27.5 -9t53.5 -19t69 -23q44 -14 63 -14q63 0 66 86h28l17 -492h-31q-41 221 -168.5 343t-316.5 122q-170 0 -307 -98t-215 -272t-78 -389q0 -317 171.5 -511t452.5 -194q152 0 260.5 71t108.5 171 v16v96q0 27 -10.5 60.5t-24.5 52.5q-27 31 -74.5 45t-132.5 14v29h584v-29q-71 -2 -109.5 -15.5t-64.5 -47.5q-13 -17 -23 -49q-12 -34 -12 -60v-96v-197l-55 76q-37 -35 -86 -71q-143 -105 -385 -105q-352 0 -546 191.5t-194 541.5z" />
<glyph unicode="H" horiz-adv-x="1628" d="M74 29q59 1 91 15.5t54 47.5q20 30 25.5 68.5t5.5 134.5v442v457l-2 82q-2 87 -42.5 128t-127.5 42v31h483v-31q-60 -2 -93.5 -16t-55.5 -48q-19 -29 -25 -65.5t-6 -122.5v-410h866v410q0 87 -5.5 123t-24.5 65q-23 34 -56 48.5t-94 15.5v31h483v-31q-100 -1 -137 -48.5 t-37 -172.5v-31v-457v-270v-172q0 -102 10 -154q21 -106 168 -112v-29h-483v29q59 1 92.5 15.5t55.5 47.5q11 23 18 49q7 24 8.5 47.5t1.5 106.5v455h-866v-455v-31q0 -76 5.5 -110t23.5 -62q20 -32 54 -46.5t91 -16.5v-29h-479z" />
<glyph unicode="I" horiz-adv-x="638" d="M74 29q61 1 94 15.5t55 47.5q26 39 29 109q2 47 2 317v219v453v33q0 126 -36.5 174t-135.5 49v31h483l2 -31q-61 -1 -94.5 -15.5t-56.5 -48.5q-18 -27 -23.5 -61t-5.5 -111v-18v-455q0 -45 -1 -135t-1 -135q0 -184 2 -237.5t10 -88.5q12 -56 52.5 -82.5t117.5 -29.5 l-2 -29h-489z" />
<glyph unicode="J" horiz-adv-x="643" d="M-266 -297q0 41 29.5 69.5t72.5 28.5q80 0 103 -92l12 -47q13 -52 48.5 -79t84.5 -27q40 0 75.5 16.5t55.5 44.5q21 38 33 86q16 71 16 191v843v455v84q0 54 -31 106q-20 33 -53.5 48t-91.5 16v31h481v-31q-57 -1 -88 -16t-53 -48q-25 -37 -31 -106q-4 -86 -4 -205v-334 v-819l-4 -135q-3 -117 -94.5 -186.5t-241.5 -69.5q-143 0 -231 48.5t-88 127.5z" />
<glyph unicode="K" horiz-adv-x="1388" d="M74 0l2 29q101 3 138.5 50.5t37.5 172.5v37v448v453q0 96 -5 130t-24 62q-22 34 -54.5 48.5t-92.5 15.5v31h489v-31q-60 -2 -93.5 -16t-55.5 -48q-13 -24 -23 -49q-8 -44 -8 -153v-490l510 490q53 53 92 96q37 39 51.5 62t14.5 44q0 26 -23 39q-19 14 -44.5 19t-88.5 6 v31h442v-33q-53 -4 -82 -15t-65 -38q-78 -58 -211 -185l-293 -280l524 -686q64 -85 99 -122t75 -63q42 -26 91 -26v-29h-533v29q66 3 91.5 8t47.5 18q25 17 25 47q0 15 -12 39q-9 19 -33 60q-61 94 -62 96l-409 539l-209 -193v-346q0 -96 6 -136t25 -69q22 -33 55 -47.5 t92 -15.5v-29h-487z" />
<glyph unicode="L" horiz-adv-x="1181" d="M74 29q100 3 138 51t38 170q0 29 -2 45v442v455q2 12 2 43q0 119 -37.5 164.5t-138.5 46.5l2 31h481l4 -31q-61 -1 -94 -15.5t-55 -48.5q-20 -29 -25.5 -66t-5.5 -136v-740q0 -151 4 -191t25 -83q31 -65 113.5 -100t205.5 -35q206 0 316 103.5t139 324.5l26 -4l-16 -455 h-1118z" />
<glyph unicode="M" horiz-adv-x="1693" d="M74 1446l2 31h315l461 -1270l455 1270h311v-27q-108 0 -150 -64q-11 -23 -16 -49q-10 -44 -10 -141v-459l2 -442v-94q0 -166 174 -172v-29h-481v29q88 3 130 45t42 127v96v1083l-498 -1388h-27l-505 1382l4 -1077v-96q0 -90 41 -129.5t135 -42.5v-29h-383v29 q95 3 132.5 45.5t39.5 146.5q0 7 1 32t1 42v442v443q0 91 -6 132t-25 70q-22 34 -54 48.5t-91 15.5z" />
<glyph unicode="N" horiz-adv-x="1562" d="M82 0v29q97 3 133.5 50t36.5 169v47v442v455v47q0 114 -37.5 160t-132.5 47v31h307l895 -1256v975v80q0 60 -31 106q-20 33 -53.5 48t-89.5 16v31h381v-31q-58 -1 -91.5 -16t-53.5 -48q-11 -20 -23 -49q-8 -40 -8 -57v-80v-1202h-33l-999 1392v-1091v-94q0 -54 34 -109 q20 -33 53.5 -47.5t94.5 -15.5l-2 -29h-381z" />
<glyph unicode="O" horiz-adv-x="1710" d="M102 737q0 123 38 239t108 209t162.5 163t207 108.5t236.5 38.5q152 0 291.5 -60.5t240.5 -162.5t160.5 -243t59.5 -296t-60 -297t-161 -244.5t-240 -163.5t-291 -61q-150 0 -286.5 58t-236.5 157t-161.5 236.5t-65.5 290.5q0 4 -1 13.5t-1 14.5zM244 729 q0 -196 81.5 -362.5t221.5 -263.5t305 -97q168 0 309 96.5t222 262t81 362.5q0 193 -84 363t-225 271t-301 101t-301 -101t-225 -270.5t-84 -361.5z" />
<glyph unicode="P" horiz-adv-x="1173" d="M74 1446l2 31h524q122 0 202.5 -14.5t147.5 -47.5q83 -41 130.5 -126t47.5 -189q0 -111 -52.5 -193.5t-151.5 -126.5q-136 -61 -383 -61q-84 0 -160 6v-428q0 -106 4.5 -141.5t24.5 -63.5q22 -33 54.5 -47.5t92.5 -15.5l-2 -29h-479v29q59 1 91 15.5t56 47.5q13 21 21 49 q8 41 8 154v442v455q0 89 -6 125.5t-25 64.5q-22 34 -54 48.5t-93 15.5zM381 754q49 -4 100 -4q266 0 391 98q123 97 123 268q0 83 -34 151.5t-95 108.5q-55 37 -123.5 53.5t-173.5 16.5h-188v-692z" />
<glyph unicode="Q" horiz-adv-x="1710" d="M102 737q0 123 38 239t108 209t162.5 163t207 108.5t236.5 38.5q152 0 291.5 -60.5t240.5 -162.5t160.5 -243t59.5 -296q0 -147 -54 -283t-155 -243q-89 -95 -176.5 -141.5t-262.5 -90.5q50 -50 81.5 -74t70.5 -44q92 -45 199 -45q129 0 241 59q83 43 121.5 102t44.5 156 h31q-3 -89 -14 -137t-39 -103q-51 -95 -151 -149.5t-226 -54.5q-123 0 -232 51q-64 30 -113 78t-120 153q-102 8 -186 25q-95 22 -187 77t-168 138q-209 225 -209 530zM244 729q0 -196 81.5 -362.5t221.5 -263.5t305 -97q168 0 309 96.5t222 262t81 362.5q0 193 -84 363 t-225 271t-301 101t-301 -101t-225 -270.5t-84 -361.5z" />
<glyph unicode="R" horiz-adv-x="1382" d="M74 29q91 3 133.5 43.5t42.5 128.5v94v442v455v84q0 62 -29 106q-22 34 -54 48.5t-91 15.5v31h577q118 0 193 -15.5t131 -50.5q71 -44 114.5 -132t43.5 -187q0 -161 -109 -256q-46 -39 -98.5 -58.5t-155.5 -36.5q115 -20 166.5 -52t89.5 -107l88 -174q45 -91 99 -172 t96 -121q34 -34 84 -58q35 -18 63.5 -23t85.5 -5v-29h-354l-254 467l-68 125q-38 58 -94 92q-65 41 -190 41h-205v-428q0 -96 6 -135t25 -70q22 -33 54 -47.5t91 -15.5v-29h-479zM379 756h190q135 0 195.5 12t112.5 51q122 90 122 281q0 87 -28.5 158t-79.5 112 q-56 45 -119 60.5t-192 15.5h-201v-690z" />
<glyph unicode="S" horiz-adv-x="1099" d="M111 438l28 2q11 -90 21 -133.5t33 -93.5q43 -100 133.5 -154.5t212.5 -54.5q153 0 251.5 96t98.5 246q0 120 -78 201q-82 82 -313 203q-151 79 -200.5 113.5t-94.5 90.5q-68 87 -68 199q0 152 109.5 249t281.5 97q98 0 185 -41l59 -26q24 -9 43 -9q25 0 37.5 16t17.5 52 h29l16 -434l-28 -2q-9 131 -31 200q-29 98 -116 153.5t-210 55.5q-130 0 -210 -71.5t-80 -188.5q0 -113 71 -178q40 -36 85.5 -65t199.5 -113q130 -71 196 -117.5t115 -101.5q84 -90 84 -236q0 -186 -122.5 -307t-311.5 -121q-64 0 -134 18.5t-120 47.5q-54 30 -78 30 q-27 0 -42 -16.5t-25 -60.5h-29z" />
<glyph unicode="T" horiz-adv-x="1339" d="M-45 1071l25 406h1384l20 -408h-30q-9 77 -22 117t-46 88q-64 96 -156.5 135.5t-255.5 36.5l-137 -2v-707v-442q0 -97 5.5 -135t25.5 -68q22 -32 56 -47t94 -16v-29h-490v29q57 1 90 16t55 47q19 29 25 65.5t6 118.5v19v442v707h-125q-193 0 -309 -58q-72 -37 -117 -102 q-30 -42 -43 -85t-22 -128h-33z" />
<glyph unicode="U" horiz-adv-x="1574" d="M74 1446l2 31h479l2 -31q-61 -1 -93 -15.5t-56 -48.5q-17 -30 -21 -49q-8 -36 -8 -57v-96v-664v-158q0 -83 39 -159q41 -87 150 -138t253 -51q173 0 303 88q90 63 129 159t39 255v668q0 73 -2 96q0 62 -26 106q-22 34 -54 48.5t-90 15.5v31h381v-31q-59 -1 -91 -15.5 t-56 -48.5q-19 -30 -25 -67t-6 -135v-672q0 -186 -51 -299q-54 -115 -181 -177.5t-303 -62.5q-187 0 -342 68q-91 40 -141 110q-36 53 -46.5 110t-10.5 192v731v96q0 86 -41.5 127.5t-132.5 42.5z" />
<glyph unicode="V" horiz-adv-x="1271" d="M-104 1446l2 31h571v-31q-97 -3 -142.5 -29.5t-45.5 -81.5q0 -36 43 -155l366 -994l375 994q43 113 43 153q0 107 -207 113l2 31h469v-31q-55 -1 -90.5 -15.5t-69.5 -48.5q-29 -33 -38 -49q-17 -26 -28.5 -51.5t-41.5 -101.5l-455 -1196h-33l-434 1196l-37 96 q-12 30 -30 57q-17 33 -35 51q-56 59 -184 62z" />
<glyph unicode="W" horiz-adv-x="2211" d="M-45 1446v31h582v-31q-119 -2 -163 -28t-44 -95q0 -26 6 -47q1 -4 5.5 -14.5t14.5 -34.5t19 -47l389 -979l340 1020h4q0 3 -10 26q-2 12 -8 29q0 5 -19 41q-28 64 -39 78q-19 23 -53 35t-100 16v31h573v-31q-207 -12 -207 -143q0 -75 27 -162l22 -72l271 -866l379 977 q30 79 34 96q13 26 13 63q0 56 -45.5 81t-149.5 26v31h461v-31q-42 -2 -64 -7t-45 -18q-37 -20 -71.5 -61t-51.5 -84l-36 -96l-471 -1196h-33l-361 1179l-397 -1179h-35l-465 1196l-34 96q-15 47 -74 106q-31 33 -68.5 48t-95.5 16z" />
<glyph unicode="X" horiz-adv-x="1445" d="M-59 29q10 1 21.5 1.5t19 1t12.5 1.5q71 18 125 59q40 32 57 49q11 10 18 17.5t18 20.5t19.5 24t30.5 39t43 55l377 473l-268 410q-16 23 -29.5 43.5t-23.5 35.5t-11 17q-47 66 -100 106q-43 34 -82.5 48.5t-97.5 15.5v31h589v-31q-93 -3 -132.5 -23t-39.5 -63 q0 -34 29 -84l59 -96l193 -299l221 299q4 5 12 17t23.5 35t30.5 44q39 52 39 86q0 43 -38.5 62t-133.5 22l2 31h469v-31q-30 0 -50 -4q-59 -10 -122 -60q-31 -25 -56 -49q-50 -50 -129 -153l-250 -328l371 -555l64 -96q15 -23 45 -56t55 -53q43 -30 63 -37q51 -24 121 -26 l-2 -29h-620v29q69 3 98.5 8t56.5 18q47 23 47 70q0 26 -17 60.5t-69 111.5l-299 446l-344 -446q-45 -59 -71 -96q-35 -50 -35 -82q0 -42 45 -64q29 -13 60.5 -18t107.5 -8l-2 -29h-518z" />
<glyph unicode="Y" horiz-adv-x="1226" d="M-104 1446l2 31h575l2 -31q-101 -3 -143.5 -24.5t-42.5 -67.5q0 -25 15 -56.5t67 -117.5l301 -496l303 496q33 54 53.5 105t20.5 75q0 43 -37 61q-25 14 -54.5 19t-99.5 6v31h473v-31q-53 -1 -88 -15.5t-76 -48.5q-26 -23 -47 -49q-17 -17 -47 -57q-6 -14 -59 -96 l-334 -537v-348v-21q0 -139 37.5 -190.5t140.5 -54.5l-2 -29h-489v29q59 1 93 15.5t56 47.5q29 47 29 109q2 53 2 268v170l-332 541q-56 90 -59 96q-50 69 -95 106q-41 35 -76 49t-89 15z" />
<glyph unicode="Z" horiz-adv-x="1185" d="M-16 0l970 1444h-315q-242 0 -367 -47q-78 -29 -131 -94q-39 -47 -55 -90t-27 -128l-30 2l22 390h1077l-962 -1446h369q152 0 246 13.5t163 45.5q84 38 154 133q45 60 63 108t25 136h33l-25 -467h-1210z" />
<glyph unicode="[" horiz-adv-x="524" d="M207 -272v1859h246v-47h-121v-1767h121v-45h-246z" />
<glyph unicode="\" horiz-adv-x="622" d="M113 1475h92l258 -1475h-92z" />
<glyph unicode="]" horiz-adv-x="524" d="M74 -233h119v1769h-119v47h245v-1859h-245v43z" />
<glyph unicode="^" horiz-adv-x="442" d="M0 1032l141 266q23 41 25 43q16 29 55 29q11 0 27 -4q20 -8 28 -25q0 -1 4 -7t10 -15.5t11 -20.5l141 -266l-28 -20l-193 219l-192 -219z" />
<glyph unicode="_" horiz-adv-x="1040" d="M113 0h737v-47h-737v47z" />
<glyph unicode="`" horiz-adv-x="421" d="M31 1319q0 10 4 18q19 31 47 31q20 0 31 -11t32 -50l146 -281l-35 -20l-199 260q-26 33 -26 53z" />
<glyph unicode="a" horiz-adv-x="944" d="M104 203q0 133 107 194q37 20 63 28.5t124 31.5q25 6 40 10q125 29 165 67.5t40 129.5q0 215 -201 215q-109 0 -131 -88l-14 -60q-8 -31 -31 -52.5t-49 -21.5q-32 0 -53 21t-21 55q0 81 86.5 128.5t233.5 47.5q144 0 217 -59q43 -32 55.5 -72.5t12.5 -140.5v-477 q0 -52 3 -72t15 -41q24 -39 70 -39q54 0 98 70l24 -4q-25 -55 -62 -80t-93 -25q-69 0 -113 34.5t-55 96.5q-39 -42 -60 -61q-77 -68 -194 -68q-126 0 -201.5 63t-75.5 169zM209 201q0 -82 57.5 -139.5t139.5 -57.5q107 0 172 78.5t65 208.5v239q-27 -26 -47 -38t-57 -29 q-76 -33 -133 -53q-106 -40 -151.5 -88t-45.5 -121z" />
<glyph unicode="b" horiz-adv-x="1138" d="M59 1452v23q86 3 126.5 8t117.5 22q0 -7 -1 -16.5t-1 -11.5q-1 -10 -2 -20.5t-1.5 -16t-0.5 -8.5v-699q29 53 49 78q37 46 100.5 72t135.5 26q195 0 323.5 -135.5t128.5 -339.5q0 -201 -131 -334t-330 -133q-47 0 -100.5 12t-89.5 29l-59 29q-15 10 -33 10q-59 0 -74 -63 l-24 6v1282q0 107 -24 139t-110 41zM295 344q-3 -182 59 -258q30 -39 85 -61.5t122 -22.5q154 0 256.5 123t102.5 309q0 118 -47.5 219.5t-129 161t-176.5 59.5q-119 0 -192 -86q-42 -47 -59 -104t-19 -154z" />
<glyph unicode="c" horiz-adv-x="964" d="M104 414q0 216 130 356.5t329 140.5q117 0 205 -52t88 -122q0 -29 -22.5 -51t-53.5 -22q-72 0 -96 102q-14 62 -41.5 87.5t-79.5 25.5q-145 0 -246.5 -136t-101.5 -329q0 -180 98.5 -293t255.5 -113q121 0 205 72q33 29 53 59.5t43 89.5l29 -2q-23 -74 -47 -112.5 t-70 -77.5q-95 -76 -239 -76q-196 0 -317.5 125t-121.5 328z" />
<glyph unicode="d" horiz-adv-x="1140" d="M104 444q0 202 127 335.5t318 133.5q88 0 145 -24q55 -23 85 -51t65 -90v524q0 107 -23.5 139t-109.5 41v23q85 3 125 8t118 22q-6 -63 -6 -104v-1024q0 -174 17 -246q26 -99 122 -108v-23l-243 -31v162q-4 -6 -17.5 -25.5t-19.5 -27.5q-89 -109 -264 -109 q-189 0 -314 135t-125 340zM217 465q0 -191 103 -326t249 -135q63 0 119 24.5t92 69.5q35 41 49.5 94.5t14.5 139.5l-2 266q-2 125 -75.5 202t-193.5 77q-149 0 -252.5 -120t-103.5 -292z" />
<glyph unicode="e" horiz-adv-x="995" d="M102 422q0 216 128 351.5t331 135.5q158 0 251 -84t99 -233h-673q-23 -115 -23 -176q0 -185 97.5 -296.5t258.5 -111.5q127 0 220 72q37 29 55.5 57.5t38.5 85.5l28 -2q-15 -64 -34 -96.5t-62 -69.5q-109 -90 -266 -90q-206 0 -327.5 123.5t-121.5 333.5zM248 621h559 q-20 131 -81.5 193.5t-168.5 62.5q-207 0 -309 -256z" />
<glyph unicode="f" horiz-adv-x="546" d="M45 848v37h158v262q0 110 10.5 159t42.5 93q71 100 231 100q98 0 164 -39t66 -98q0 -32 -20 -53t-48 -21q-59 0 -82 70q-26 54 -39 69q-27 39 -82 39q-70 0 -107.5 -65.5t-37.5 -188.5v-327h236l2 -37h-236v-406q0 -24 -1 -71t-1 -72q0 -138 14 -199q20 -80 131 -80 l3 -20h-379l2 20q54 0 86 23q20 13 27 32t10 66l4 66v235v406h-154z" />
<glyph unicode="g" horiz-adv-x="905" d="M16 -233q0 62 40 103.5t100 41.5q46 0 77 -22t31 -54q0 -15 -8 -31q-48 43 -94 43q-43 0 -72 -27t-29 -69q0 -86 98.5 -143.5t246.5 -57.5q164 0 261 70.5t97 190.5q0 94 -72 145q-35 24 -84 33.5t-139 11.5q-35 0 -82 1t-59 1q-54 3 -111 16q-54 13 -85.5 52t-31.5 90 q0 82 76 129q31 19 63.5 27t98.5 14q-84 30 -124.5 57.5t-70.5 77.5q-39 59 -39 143q0 128 92.5 213.5t229.5 85.5q71 0 116 -16.5t111 -69.5q98 88 183 88q45 0 79.5 -29.5t34.5 -68.5q0 -22 -15.5 -36.5t-37.5 -14.5q-33 0 -57 31l-25 28q-10 13 -28 22t-33 9 q-44 0 -92 -39q46 -54 64.5 -102t18.5 -109q0 -129 -83.5 -204t-241.5 -87q-74 -6 -84 -6q-38 -2 -92 -20q-80 -28 -80 -95q0 -41 22 -55q20 -19 52.5 -25t111.5 -6q116 0 244 -10q123 -12 192.5 -82.5t69.5 -181.5q0 -143 -122.5 -228t-327.5 -85q-171 0 -280.5 70.5 t-109.5 179.5zM211 596q0 -112 62 -184t153 -72q98 0 155.5 71.5t57.5 194.5q0 121 -59.5 198t-153.5 77q-95 0 -155 -74.5t-60 -190.5v-20z" />
<glyph unicode="h" horiz-adv-x="1116" d="M59 0v20q77 0 105.5 40t28.5 147v530v535q0 108 -23.5 139.5t-110.5 40.5l2 23q84 3 124.5 8t119.5 22q-6 -59 -6 -104v-660q60 68 98 97.5t97 50.5q65 24 159 24q164 0 230 -88q29 -38 35 -74.5t6 -166.5v-377q0 -27 2 -68q3 -47 14 -67q15 -30 39 -41t76 -11l2 -20 h-369v20q49 0 73 11.5t36 40.5q24 46 24 135v371q0 96 -4.5 128.5t-23.5 69.5q-22 45 -72 71.5t-113 26.5q-121 0 -209 -79q-57 -49 -79.5 -103.5t-22.5 -142.5v-342q0 -107 28 -147t103 -40v-20h-369z" />
<glyph unicode="i" horiz-adv-x="497" d="M74 0l2 20q47 0 71 11.5t39 40.5q21 47 21 135v235q0 30 1 92t1 93q0 107 -12 161q-6 32 -33.5 48t-87.5 22v25q79 0 118.5 5t122.5 25q-8 -61 -8 -100v-606q0 -112 26 -149.5t103 -37.5l2 -20h-366zM164 1251q-1 35 24.5 60.5t61.5 25.5q35 0 58.5 -25t23.5 -61 q0 -34 -24.5 -58t-59.5 -24q-34 0 -59 24t-25 58z" />
<glyph unicode="j" horiz-adv-x="479" d="M-223 -346q0 29 18.5 48t46.5 19q62 0 101 -96q11 -30 18 -39q10 -19 35 -30t55 -11q35 0 80 25q36 24 57 74q15 35 20 71.5t5 112.5l-2 850v65q0 36 -21 74q-13 19 -36.5 28t-73.5 17v21q93 5 132 9.5t112 20.5q-7 -40 -7 -43v-1065q0 -148 -68.5 -219t-211.5 -71 q-112 0 -186 39.5t-74 99.5zM174 1251q0 35 24.5 59.5t57.5 24.5q34 0 57 -24t23 -58q0 -35 -23 -59.5t-57 -24.5t-58 24t-24 58z" />
<glyph unicode="k" horiz-adv-x="993" d="M59 0l2 20q75 0 103.5 39.5t28.5 147.5v530v535l-3 65q0 46 -22 74q-10 19 -34 27.5t-75 13.5v23q85 3 126 8t118 22q-6 -59 -6 -104v-1002l258 252q90 90 90 133q0 60 -127 82v19h416l-2 -19q-83 -13 -131 -45q-62 -43 -117 -96l-184 -174l352 -375q52 -55 84 -81 t74 -46q44 -20 94 -31v-18h-457v20q63 9 90 25.5t27 44.5q0 36 -66 105l-268 288l-135 -127v-143l2 -72q1 -69 30 -95t103 -26l2 -20h-373z" />
<glyph unicode="l" horiz-adv-x="489" d="M59 0v20q80 0 108 37t28 150v235v830q0 107 -24 139t-110 41v23q84 3 124.5 8t117.5 22q-6 -63 -6 -104v-1194q0 -109 27.5 -148t105.5 -39v-20h-371z" />
<glyph unicode="m" horiz-adv-x="1693" d="M74 0l2 20q78 0 104.5 37.5t26.5 149.5v235q0 30 1 92t1 93q0 107 -12 161q-8 32 -35.5 48t-87.5 22v25q82 0 122 5t123 25q-2 -12 -2 -28q-2 -37 -2 -72v-63q20 31 52 63q52 48 123 76.5t143 28.5q58 0 117 -19q56 -18 86.5 -42.5t70.5 -82.5q18 20 43 45 q115 101 262 101q153 0 240 -97q35 -38 42 -68.5t7 -138.5v-409l4 -66q4 -69 33 -95t98 -26l2 -20h-374l2 20q77 0 105 39.5t28 149.5v385q0 81 -6.5 124.5t-24.5 76.5q-20 37 -69.5 60.5t-106.5 23.5q-62 0 -118.5 -25t-96.5 -68q-41 -46 -56.5 -101.5t-15.5 -162.5v-315 q0 -110 27.5 -148.5t105.5 -38.5l2 -20h-368v20q50 0 74 11.5t38 40.5q9 18 11 28q8 39 8 109v407q0 135 -48.5 198t-152.5 63q-128 0 -215 -93q-45 -50 -61.5 -104.5t-16.5 -155.5v-317q0 -112 26.5 -149.5t106.5 -37.5l2 -20h-370z" />
<glyph unicode="n" horiz-adv-x="1124" d="M74 858v25q83 2 123 6.5t122 23.5q-2 -12 -2 -28q-2 -37 -2 -72v-63q29 38 68 73q50 45 121.5 72t144.5 27q70 0 135.5 -26t100.5 -67t42 -75t7 -172v-379q0 -1 0.5 -8t1.5 -22t2 -32q2 -44 16 -69q15 -30 40 -41t77 -11v-20h-369l-2 18q56 3 91 33t36 80l2 59l2 9v376 q0 92 -6 129.5t-26 75.5q-25 46 -71.5 72.5t-104.5 26.5q-120 0 -217 -84q-55 -46 -76 -95t-21 -133v-317v-60q0 -88 31 -128.5t100 -41.5l-2 -20h-362v20q72 0 99.5 40.5t27.5 146.5v235v238q0 109 -22 140t-107 38z" />
<glyph unicode="o" horiz-adv-x="1159" d="M104 442q0 204 134.5 335.5t341.5 131.5t342 -131.5t135 -335.5q0 -206 -134 -337.5t-343 -131.5t-342.5 131.5t-133.5 337.5zM217 440q0 -114 49.5 -214t133.5 -160t180 -60t179 60t132 160t49 214q0 180 -106 308.5t-254 128.5q-149 0 -256 -128.5t-107 -308.5z" />
<glyph unicode="p" horiz-adv-x="1130" d="M59 -438q69 0 96.5 26.5t30.5 94.5q0 9 2 40.5t2 55.5v663v238l-2 65q-1 60 -28 83.5t-101 29.5v25q80 0 120 5t120 25l-2 -28l-2 -72v-29q12 10 28.5 29t20.5 23q90 77 225 77q192 0 326.5 -139t134.5 -340t-124.5 -333t-313.5 -132q-68 0 -139 23q-55 18 -84 36.5 t-70 63.5v-262l2 -55q5 -135 27.5 -174t99.5 -39l2 -21h-371v21zM295 582l2 -297q0 -105 14 -143t66 -76q81 -62 188 -62q146 0 245 121.5t99 300.5q0 191 -102 322t-252 131q-125 0 -193 -78t-67 -219z" />
<glyph unicode="q" horiz-adv-x="1097" d="M104 434q0 211 122 344t317 133q110 0 207 -41l59 -24q16 -8 37 -8q27 0 43.5 13.5t36.5 55.5h12v-710l6 -422q3 -129 4 -133q0 -9 8 -29q15 -30 38.5 -40.5t72.5 -12.5l2 -19h-369l2 21q50 0 74 11t39 40q10 17 10 31q4 16 4 39q2 27 2 96v237v109q-10 -15 -27.5 -36.5 t-17.5 -22.5q-41 -45 -106 -70t-139 -25q-195 0 -316 128.5t-121 334.5zM217 436q0 -180 101.5 -300t252.5 -120q129 0 201 84q34 37 44.5 75t12.5 122l7 270q3 145 -71 228.5t-204 83.5q-150 0 -247 -125t-97 -318z" />
<glyph unicode="r" horiz-adv-x="684" d="M74 0l2 20q73 0 100 39.5t27 147.5v235v238q0 109 -22 140t-107 38v25q79 0 118 5t117 25l-2 -28l-6 -72v-82q58 82 105 119q73 61 174 61q74 0 118.5 -30.5t44.5 -81.5q0 -29 -21.5 -49.5t-53.5 -20.5q-49 0 -84 57q-3 5 -6.5 11t-6 10t-4.5 6q-17 26 -31.5 35.5 t-37.5 9.5q-78 0 -133.5 -101t-55.5 -243v-307q0 -66 3.5 -92t13.5 -43q15 -30 39.5 -41t74.5 -11v-20h-366z" />
<glyph unicode="s" horiz-adv-x="733" d="M59 279h19q19 -95 43 -138q35 -63 105 -102t145 -39q88 0 141 45.5t53 120.5q0 68 -53 127q-23 25 -46.5 43t-94.5 65l-113 74q-82 55 -112.5 99t-30.5 106q0 101 68.5 165t174.5 64q64 0 131 -28l29 -13q12 -6 29 -6q20 0 29 10.5t10 36.5h18l17 -282h-21 q-10 71 -35 129q-27 55 -80.5 89t-117.5 34q-72 0 -118 -41t-46 -105q0 -80 59 -127q67 -59 182 -135q33 -23 86 -55q10 -7 64 -54q65 -65 65 -153q0 -105 -79 -173.5t-201 -68.5q-47 0 -79.5 9.5t-102.5 41.5q-30 15 -50 15q-52 0 -55 -62h-18z" />
<glyph unicode="t" horiz-adv-x="602" d="M74 879q60 12 89 30.5t60 63.5q23 35 34.5 67t18.5 95l21 2v-252h281v-37h-281v-600q0 -112 2.5 -139t17.5 -48q15 -25 50.5 -40t76.5 -15q115 0 181 100l22 -14q-37 -64 -91 -93.5t-134 -29.5q-102 0 -171 50t-69 122q0 31 11 127v160v420h-117z" />
<glyph unicode="u" horiz-adv-x="1120" d="M59 858v25q80 0 120.5 5t123.5 25q-8 -81 -8 -100v-520q0 -91 8.5 -131t36.5 -74q31 -37 87 -57.5t122 -20.5q274 0 274 309v361q0 107 -23 139t-108 39v25q80 0 120 5t120 25q-6 -61 -6 -100v-518q0 -84 3.5 -117t16.5 -67q29 -81 117 -84v-23l-242 -31l19 162 q-43 -61 -77.5 -90t-82.5 -47q-82 -29 -176 -29q-172 0 -258 86q-38 37 -47 77.5t-9 176.5v371q0 106 -23.5 138.5t-107.5 39.5z" />
<glyph unicode="v" horiz-adv-x="878" d="M-45 885h420v-19q-75 0 -105 -16.5t-30 -56.5q0 -42 30 -119l217 -529l228 529q35 81 35 112q0 15 -6.5 33.5t-14.5 24.5q-13 13 -38 17.5t-81 4.5l-2 19h316v-19q-43 -3 -68 -22q-5 -3 -31 -29q-14 -21 -18 -29q-2 -2 -4.5 -8t-7 -15.5t-9.5 -19.5l-36 -69l-293 -690 h-21l-280 690q-10 26 -35 69q-28 58 -41 72q-26 30 -52 40.5t-71 10.5z" />
<glyph unicode="w" horiz-adv-x="1280" d="M-29 866v19h377l-2 -17q-60 0 -83 -15.5t-23 -55.5t30 -123l179 -498l204 725h15l235 -721l193 494q28 74 28 114q0 43 -32 60.5t-113 17.5l-2 19h332v-19q-37 0 -59 -11t-46 -40q-27 -36 -69 -141l-269 -690h-16l-223 700l-195 -700l-20 10l-250 680q-7 10 -31 69 q-18 47 -41 72q-25 29 -50 40t-69 11z" />
<glyph unicode="x" horiz-adv-x="956" d="M-16 0l4 20q48 0 82 23q21 9 41 29q24 17 69 69l64 72l186 231l-176 230q-30 36 -57 69q-38 47 -66 72q-34 30 -58 40.5t-57 10.5l-4 19h402v-19q-58 0 -80.5 -10.5t-22.5 -38.5q0 -18 14 -43t66 -100l103 -150l108 150l51 69q21 30 27 43t6 29q0 28 -26.5 39.5 t-96.5 11.5v19h344l-2 -19q-45 0 -74.5 -10.5t-66.5 -40.5q-26 -22 -31 -29q-3 -3 -9 -10.5t-13 -15.5t-13 -17q-16 -17 -30 -34t-20.5 -25t-8.5 -10l-123 -174l227 -287l60 -72q34 -41 65 -69q30 -30 50.5 -40t52.5 -12l2 -20h-412l2 20q78 0 106.5 11.5t28.5 42.5 q0 15 -24 56t-58 83l-167 205l-156 -205q-72 -94 -72 -131q0 -28 23 -39q21 -14 49.5 -18.5t99.5 -4.5l4 -20h-413z" />
<glyph unicode="y" horiz-adv-x="899" d="M-37 885h434v-19q-79 0 -112 -16.5t-33 -56.5q0 -34 33 -119l231 -543l209 543q31 83 31 117q0 41 -32 58t-108 17l-4 19h332v-19q-41 0 -65.5 -11t-49.5 -40q-14 -21 -18 -29q-23 -35 -51 -112l-350 -899q-32 -83 -78 -160q-58 -98 -135 -98q-34 0 -58 20.5t-24 52.5 q0 30 21.5 51t51.5 21h5l32 -2q4 -4 13 -4q58 0 96 45q20 21 41 60.5t31 76.5q10 30 20 80q8 39 8 57q0 15 -6 50q-9 39 -14 53l-254 596q-2 4 -6.5 13.5t-12 25t-14.5 30.5q-20 43 -43 72q-26 29 -51 40t-68 11z" />
<glyph unicode="z" horiz-adv-x="888" d="M16 0l639 862h-247q-72 0 -113 -10.5t-76 -36.5q-77 -57 -106 -182l-21 2l37 250h678l-641 -860h299q167 0 246 59t110 207h23l-31 -291h-797z" />
<glyph unicode="{" horiz-adv-x="645" d="M113 737q56 5 90.5 45t34.5 101v696q0 119 149 119h96v-53h-22q-76 0 -98.5 -24.5t-22.5 -104.5v-627q0 -95 -78 -135q-29 -15 -51 -17q57 -6 93 -48t36 -103v-627q0 -80 22.5 -104.5t98.5 -24.5h22v-53h-96q-149 0 -149 119v696q0 97 -80 133q-21 9 -45 12z" />
<glyph unicode="|" horiz-adv-x="344" d="M113 0v1475h92v-1475h-92z" />
<glyph unicode="}" horiz-adv-x="645" d="M113 -170h22q76 0 98.5 24.5t22.5 104.5v627q0 61 36 103t93 48q-57 6 -93 48.5t-36 103.5v627q0 80 -22.5 104.5t-98.5 24.5h-22v53h96q149 0 149 -119v-696q0 -62 35 -101.5t90 -44.5q-55 -5 -90 -44t-35 -101v-696q0 -119 -149 -119h-96v53z" />
<glyph unicode="~" horiz-adv-x="739" d="M0 1606q31 135 164 135q50 0 125 -19l100 -24l66 -15q65 -14 84 -14q42 0 86 19q28 12 55 57l59 -12q-38 -85 -76.5 -116.5t-105.5 -31.5q-19 0 -31 2q-45 3 -92 15q-2 1 -11 2.5t-27 5.5l-36 8q-175 43 -202 43q-35 0 -56 -16.5t-36 -53.5z" />
<glyph unicode="&#xa1;" horiz-adv-x="417" d="M147 59l7 72l59 1045h39l59 -1045q4 -20 4 -53q0 -96 -82 -96q-35 0 -58 21t-28 56zM158 1425q0 34 23 56t57 22q31 0 54 -22.5t23 -55.5q0 -32 -24.5 -55.5t-57.5 -23.5q-32 0 -53.5 23t-21.5 56z" />
<glyph unicode="&#xa2;" horiz-adv-x="964" d="M117 414q0 248 164 389q59 53 107.5 73t139.5 29v115h29v-113h29q119 0 201.5 -49.5t82.5 -120.5q0 -30 -21.5 -51.5t-53.5 -21.5q-74 0 -95 102q-15 64 -41.5 86t-89.5 22h-12l4 -864q18 -2 41 -2q45 0 96 20t90 52q35 30 55 60t42 89l28 -2q-23 -75 -46.5 -113.5 t-69.5 -76.5q-49 -40 -104.5 -57t-135.5 -19v-113h-27v109q-107 15 -163 39t-113 78q-137 128 -137 340zM227 420q0 -90 29 -170t80 -133q36 -39 76 -59.5t116 -41.5v854q-70 -17 -106.5 -38.5t-73.5 -65.5q-49 -58 -80 -137q-41 -108 -41 -209z" />
<glyph unicode="&#xa3;" horiz-adv-x="1601" d="M104 104q0 58 71 97t177 39q74 0 133.5 -15t159.5 -57q27 69 35 109t8 102q0 77 -8 178l-8 100h-299v45h293q0 23 -1 54.5t-1 40.5q0 158 30 267.5t99 209.5q75 109 174 167t211 58q133 0 227 -89.5t94 -215.5q0 -110 -72.5 -183t-181.5 -73q-102 0 -165.5 58t-69.5 157 l28 2q15 -80 66 -127t121 -47q79 0 134.5 65.5t55.5 159.5q0 114 -69 187t-175 73q-95 0 -169 -53t-117 -151q-37 -86 -56 -213t-28 -344h344v-48h-348q0 -151 -15 -254q-13 -81 -31 -128.5t-63 -127.5q140 -34 195 -43q105 -18 190 -18q162 0 256 61t109 177h32 q-4 -159 -101 -254t-253 -95q-118 0 -258 45q-82 29 -203 89q-41 -38 -68 -56.5t-73 -40.5q-51 -24 -90.5 -32.5t-93.5 -8.5q-103 0 -164.5 36.5t-61.5 96.5zM221 104q0 -43 40.5 -69.5t105.5 -26.5q76 0 146.5 35.5t117.5 99.5q-80 38 -156 50q-62 8 -94 8 q-69 0 -114.5 -27t-45.5 -70z" />
<glyph unicode="&#xa4;" horiz-adv-x="1009" d="M113 440l135 135q-58 71 -58 162q0 93 56 164l-133 125l12 16l12 17l15 14l14 12l135 -129q55 40 121 51t131 -10q37 -10 80 -41l131 131q36 -29 57 -59l-135 -127q53 -73 52.5 -163.5t-54.5 -162.5l135 -137l-14 -12l-12 -14l-17 -15l-16 -12l-131 133q-74 -55 -164 -55 q-92 0 -164 57l-135 -133q-18 13 -41 39q-8 8 -12 14zM276 737q0 -77 55.5 -131.5t133.5 -54.5q76 0 131 55q56 56 56 132t-56 132q-54 54 -131 54q-78 0 -133.5 -55t-55.5 -132z" />
<glyph unicode="&#xa5;" horiz-adv-x="1552" d="M59 1446v31h578v-31q-101 -3 -144.5 -24.5t-43.5 -67.5q0 -23 14.5 -52t71.5 -122l301 -496l301 496q33 53 53 104.5t20 75.5q0 45 -34 61q-25 14 -55.5 19t-100.5 6v31h473v-31q-53 -1 -87 -15t-75 -49q-33 -29 -49 -49q-41 -49 -104 -153l-222 -365h443l2 -135h-522 l-35 -37v-45h555v-119h-555v-184v-19q0 -141 36.5 -192.5t139.5 -54.5v-29h-490l-2 29q61 1 94.5 15.5t55.5 47.5q20 33 25.5 75.5t5.5 182.5v131h-539v121h547v37l-31 45h-518v131h444l-235 365l-60 96q-28 49 -94 106q-41 34 -76 48.5t-88 15.5z" />
<glyph unicode="&#xa7;" horiz-adv-x="1165" d="M109 698q0 66 24 121q28 65 61.5 111t112.5 119q-21 21 -45 51q-25 31 -40 80t-15 92q0 106 102.5 172.5t263.5 66.5q85 0 170 -16q80 -15 207 -74l11 -313l-43 -4q-9 98 -24 151t-44 93q-85 118 -258 118q-112 0 -185 -52.5t-73 -131.5q0 -86 84 -164l514 -463 q121 -112 121 -237q0 -52 -21 -113q-21 -67 -58.5 -117t-121.5 -127q60 -63 83 -107.5t23 -96.5q0 -113 -107.5 -188t-270.5 -75q-61 0 -148 17q-61 12 -104.5 28.5t-114.5 55.5l-12 307l47 2q11 -108 28 -163.5t54 -98.5q39 -47 101 -72.5t132 -25.5q112 0 189 54t77 134 q0 43 -13.5 74.5t-49.5 62.5l-541 492q-116 104 -116 237zM221 743q0 -59 24 -104t83 -98l479 -437q61 58 86 96.5t39 94.5q12 50 12 76q0 103 -92 186l-494 449q-64 -59 -91.5 -99.5t-39.5 -93.5q-6 -23 -6 -70z" />
<glyph unicode="&#xa8;" horiz-adv-x="376" d="M-45 1092q0 35 25 58.5t59 23.5t58 -23.5t24 -58.5t-25.5 -59.5t-60.5 -24.5q-33 0 -56.5 24.5t-23.5 59.5zM256 1092q0 35 24.5 58.5t57.5 23.5q35 0 58.5 -24t23.5 -58q0 -35 -23 -59.5t-57 -24.5t-59 24.5t-25 59.5z" />
<glyph unicode="&#xa9;" horiz-adv-x="1908" d="M119 739q0 152 58 293t165 248q147 146 343.5 198t393.5 0t344 -198q146 -147 198 -343.5t0 -393.5t-198 -344q-110 -110 -253 -167.5t-287.5 -57.5t-287.5 57.5t-253 167.5q-107 107 -165 247.5t-58 292.5zM203 739q0 -136 52.5 -263t147.5 -224q97 -99 224 -150.5 t255.5 -51.5t255.5 51.5t224 150.5q131 133 177.5 310t0 354.5t-177.5 310.5q-97 99 -224 150.5t-255.5 51.5t-255.5 -51.5t-224 -150.5q-95 -97 -147.5 -224.5t-52.5 -263.5zM424 920q65 175 225.5 265t356.5 58q137 -24 247 -117l-49 -69q-86 80 -205 102 q-120 24 -230 -15t-184 -129t-93 -210q-19 -113 12.5 -214t105.5 -175q105 -102 253.5 -117.5t279.5 63.5q33 20 57 44l51 -68q-140 -119 -336 -125q-90 -2 -173.5 24t-148 73.5t-112.5 115.5t-72 146t-21 168.5t36 179.5z" />
<glyph unicode="&#xaa;" horiz-adv-x="978" d="M119 1077q-12 72 0 140q27 144 138 222.5t239 51.5q112 -23 184 -139l10 -17l6 -14v154h97v-656h-99v164q-1 -3 -3 -8t-3 -8q-30 -76 -101.5 -120.5t-161.5 -43t-169 54.5q-110 74 -137 219zM135 625v90h658v-90h-658zM215 1149q0 -33 4 -49q21 -108 103 -164 q65 -44 136 -43t134 45q77 54 98 158q19 84 -16 164q-8 18 -21 38q-62 98 -175 110t-191 -73q-56 -59 -68 -139q-4 -16 -4 -47z" />
<glyph unicode="&#xab;" horiz-adv-x="688" d="M59 432l320 430v-61l-199 -371l197 -360v-68zM309 432l322 430v-61l-201 -371l197 -360v-68z" />
<glyph unicode="&#xac;" horiz-adv-x="1226" d="M113 737v92h909v-387h-86v295h-823z" />
<glyph unicode="&#xae;" horiz-adv-x="1908" d="M119 739q0 152 58 293t165 248q147 146 343.5 198t393.5 0t344 -198q146 -147 198 -343.5t0 -393.5t-198 -344q-110 -110 -253 -167.5t-287.5 -57.5t-287.5 57.5t-253 167.5q-107 107 -165 247.5t-58 292.5zM203 739q0 -136 52.5 -263t147.5 -224q97 -99 224 -150.5 t255.5 -51.5t255.5 51.5t224 150.5q131 133 177.5 310t0 354.5t-177.5 310.5q-97 99 -224 150.5t-255.5 51.5t-255.5 -51.5t-224 -150.5q-95 -97 -147.5 -224.5t-52.5 -263.5zM662 250v999h202q82 0 130 -14t87 -47q69 -56 84 -148q23 -129 -43 -217t-190 -102h-41l328 -471 h-117l-344 508v-508h-96zM758 784h86q111 0 169 49.5t60 139.5q1 92 -54.5 143t-158.5 51h-102v-383z" />
<glyph unicode="&#xaf;" horiz-adv-x="524" d="M0 1006v96h524v-96h-524z" />
<glyph unicode="&#xb1;" horiz-adv-x="1216" d="M90 39v139h946v-139h-946zM90 539v139h404v250h139v-250h403v-139h-403v-250h-139v250h-404z" />
<glyph unicode="&#xb4;" horiz-adv-x="376" d="M133 1026l137 268l21 49q4 12 17.5 19.5t27.5 7.5q22 0 36.5 -14.5t14.5 -36.5q0 -14 -8 -25l-31 -41l-182 -245z" />
<glyph unicode="&#xb5;" horiz-adv-x="1275" d="M150 -285q0 5 0.5 19.5t1.5 43t2 56.5q4 132 4 182q0 117 -2 207q-4 180 -4 195v502h188v-607q0 -143 29 -194q27 -49 102 -49q117 -3 195 163q77 168 77 420v267h189v-672q0 -92 18 -135q18 -40 60 -43q41 0 65 43q23 44 23 125v28h43q0 -10 2 -18v-27q0 -114 -49 -178 q-46 -61 -136 -61q-98 -3 -155 88q-50 81 -53 264q-47 -182 -125 -266q-77 -83 -199 -86q-91 0 -150 53q-56 51 -81 158q0 -4 -1 -23.5t-1 -34.5q-3 -129 65 -289q66 -160 66 -188q0 -41 -23 -64q-22 -22 -63 -22q-47 -3 -68 35q-17 28 -20 108z" />
<glyph unicode="&#xb6;" horiz-adv-x="1292" d="M113 1100q0 155 109 265t263 110h598v-82h-600q-119 0 -204 -87.5t-82 -211.5q1 -121 85.5 -205t202.5 -84h150v512h82v-1317h-82v723h-150q-154 0 -263 110t-109 267zM862 0v1317h82v-1317h-82z" />
<glyph unicode="&#xb7;" horiz-adv-x="335" d="M88 432q0 32 25 56t57 24q33 -1 55.5 -24t22.5 -54q0 -35 -22.5 -58.5t-55.5 -23.5q-34 0 -58 23t-24 57z" />
<glyph unicode="&#xb8;" horiz-adv-x="460" d="M29 -346q0 13 9 21t21 8q26 0 45 -19l25 -24q19 -19 33 -26t37 -7q57 0 101 40t44 91t-36.5 88t-88.5 37q-38 0 -92 -29l-10 21l168 145h32l-100 -98q37 6 57 6q63 0 107.5 -39.5t44.5 -93.5q0 -79 -73.5 -138t-170.5 -59q-60 0 -106.5 23.5t-46.5 52.5z" />
<glyph unicode="&#xba;" horiz-adv-x="983" d="M113 1153q0 33 6 68q20 110 90.5 183t173.5 95q71 15 141 0q105 -22 176 -96t91 -182q12 -66 0 -136q-20 -107 -92 -181.5t-175 -96.5q-71 -15 -139 0q-104 22 -175 96t-91 182q-6 34 -6 68zM125 625v90h659v-90h-659zM213 1153q0 -110 66 -182q53 -58 127 -73t143 16 t110 100q37 63 37 139q0 78 -37 141q-41 69 -110 100t-143 16t-127 -73q-66 -72 -66 -184z" />
<glyph unicode="&#xbb;" horiz-adv-x="688" d="M59 2v59l203 373l-201 361v67l318 -430zM309 2v59l203 373l-201 361v67l320 -430z" />
<glyph unicode="&#xbf;" horiz-adv-x="823" d="M88 465q0 158 97.5 267.5t236.5 109.5q40 0 82 -17q40 -12 64.5 -30.5t56.5 -59.5v436l28 3v-547l-28 2q-1 78 -53 126t-134 48q-111 0 -177 -91.5t-66 -246.5q0 -116 39.5 -221.5t105.5 -169.5t139 -64q38 0 70 30.5t43 76.5l12 53q8 33 31.5 54.5t52.5 21.5 q32 0 54 -23.5t22 -58.5q0 -76 -80 -128t-197 -52q-102 0 -195 67.5t-148.5 179t-55.5 234.5zM563 1421q0 34 24 57t58 23q31 0 53.5 -23.5t22.5 -56.5q0 -31 -22.5 -54.5t-53.5 -23.5q-35 0 -58.5 23.5t-23.5 54.5z" />
<glyph unicode="&#xc0;" horiz-adv-x="1353" d="M-59 29q52 3 86 17t63 46q2 2 37 49q5 7 8 12t7 12l6 10.5t6 12.5l6 13.5t7 17.5t7.5 20t10 26.5t12.5 31.5l26 68l449 1112h35l460 -1180l35 -96q18 -41 66 -109q31 -32 62.5 -46t82.5 -17l-2 -29h-541l-2 29q104 4 149.5 31.5t45.5 86.5q0 52 -43 150q-28 67 -109 278 h-563q-80 -205 -107.5 -287.5t-27.5 -123.5q0 -69 46 -100t159 -35v-29h-475zM358 604h543l-268 682zM459 1954q0 10 4 18q19 31 47 31q20 0 31 -11t32 -50l146 -281l-35 -21l-199 261q-26 33 -26 53z" />
<glyph unicode="&#xc1;" horiz-adv-x="1353" d="M-59 29q52 3 86 17t63 46q2 2 37 49q5 7 8 12t7 12l6 10.5t6 12.5l6 13.5t7 17.5t7.5 20t10 26.5t12.5 31.5l26 68l449 1112h35l460 -1180l35 -96q18 -41 66 -109q31 -32 62.5 -46t82.5 -17l-2 -29h-541l-2 29q104 4 149.5 31.5t45.5 86.5q0 52 -43 150q-28 67 -109 278 h-563q-80 -205 -107.5 -287.5t-27.5 -123.5q0 -69 46 -100t159 -35v-29h-475zM358 604h543l-268 682zM690 1661l137 268l21 49q4 12 17.5 19.5t27.5 7.5q22 0 36.5 -14.5t14.5 -36.5q0 -14 -8 -25l-31 -41l-182 -246z" />
<glyph unicode="&#xc2;" horiz-adv-x="1353" d="M-59 29q52 3 86 17t63 46q2 2 37 49q5 7 8 12t7 12l6 10.5t6 12.5l6 13.5t7 17.5t7.5 20t10 26.5t12.5 31.5l26 68l449 1112h35l460 -1180l35 -96q18 -41 66 -109q31 -32 62.5 -46t82.5 -17l-2 -29h-541l-2 29q104 4 149.5 31.5t45.5 86.5q0 52 -43 150q-28 67 -109 278 h-563q-80 -205 -107.5 -287.5t-27.5 -123.5q0 -69 46 -100t159 -35v-29h-475zM358 604h543l-268 682zM477 1667l141 266q23 41 25 43q16 29 55 29q11 0 27 -4q21 -9 29 -25q0 -1 4 -7t9.5 -15.5t10.5 -20.5l142 -266l-29 -20l-193 219l-192 -219z" />
<glyph unicode="&#xc3;" horiz-adv-x="1353" d="M-59 29q52 3 86 17t63 46q2 2 37 49q5 7 8 12t7 12l6 10.5t6 12.5l6 13.5t7 17.5t7.5 20t10 26.5t12.5 31.5l26 68l449 1112h35l460 -1180l35 -96q18 -41 66 -109q31 -32 62.5 -46t82.5 -17l-2 -29h-541l-2 29q104 4 149.5 31.5t45.5 86.5q0 52 -43 150q-28 67 -109 278 h-563q-80 -205 -107.5 -287.5t-27.5 -123.5q0 -69 46 -100t159 -35v-29h-475zM358 604h543l-268 682zM438 1673q24 111 119 111q43 0 94 -15l72 -20l47 -12q43 -11 61 -11q79 0 105 62l45 -23q-29 -69 -57 -93.5t-76 -24.5h-23q-32 0 -67 14q-2 1 -10 2t-19 3.5t-24 6.5 q-129 33 -150 33q-27 0 -42.5 -12.5t-25.5 -42.5z" />
<glyph unicode="&#xc4;" horiz-adv-x="1353" d="M-59 29q52 3 86 17t63 46q2 2 37 49q5 7 8 12t7 12l6 10.5t6 12.5l6 13.5t7 17.5t7.5 20t10 26.5t12.5 31.5l26 68l449 1112h35l460 -1180l35 -96q18 -41 66 -109q31 -32 62.5 -46t82.5 -17l-2 -29h-541l-2 29q104 4 149.5 31.5t45.5 86.5q0 52 -43 150q-28 67 -109 278 h-563q-80 -205 -107.5 -287.5t-27.5 -123.5q0 -69 46 -100t159 -35v-29h-475zM358 604h543l-268 682zM397 1614q-1 40 28 69t69 29q38 0 66 -28t28 -68q0 -39 -27.5 -66.5t-64.5 -27.5q-40 0 -69.5 27t-29.5 65zM809 1616q0 40 28 68t68 28t67 -28t27 -68q0 -39 -28.5 -66.5 t-67.5 -27.5t-66.5 27.5t-27.5 66.5z" />
<glyph unicode="&#xc5;" horiz-adv-x="1353" d="M-59 29q52 3 86 17t63 46q2 2 37 49q5 7 8 12t7 12l6 10.5t6 12.5l6 13.5t7 17.5t7.5 20t10 26.5t12.5 31.5l26 68l449 1112h35l460 -1180l35 -96q18 -41 66 -109q31 -32 62.5 -46t82.5 -17l-2 -29h-541l-2 29q104 4 149.5 31.5t45.5 86.5q0 52 -43 150q-28 67 -109 278 h-563q-80 -205 -107.5 -287.5t-27.5 -123.5q0 -69 46 -100t159 -35v-29h-475zM358 604h543l-268 682zM547 1659q0 62 43 105.5t104 43.5q59 0 102.5 -44.5t43.5 -106.5q0 -60 -42.5 -102t-103.5 -42t-104 43t-43 103zM594 1659q0 -39 28.5 -66.5t67.5 -27.5q42 0 71.5 27.5 t29.5 66.5q0 41 -30 70.5t-71 29.5q-39 0 -67.5 -29.5t-28.5 -70.5z" />
<glyph unicode="&#xc6;" horiz-adv-x="2023" d="M-59 29q63 3 97 12.5t68 34.5q80 57 150 178l59 102l467 818l5 8q5 8 12.5 22t15.5 31q24 46 29 59q14 32 14 70q0 40 -22.5 58.5t-75.5 19.5q-6 0 -25 1t-33 1v33h1123v-355l-29 2q-8 67 -18 102t-35 74q-54 83 -144.5 113.5t-285.5 30.5h-215v-649h82q80 0 125 9t86 34 q51 31 69.5 76.5t18.5 142.5h32v-582h-32v29q0 75 -23 127q-31 73 -95 103t-190 30h-73v-385q0 -136 9 -178t48 -84q83 -86 301 -86q206 0 318 86q55 46 92 112q26 43 39 85.5t28 129.5h31l-20 -444h-1160v31q60 2 93 15.5t55 47.5q19 29 25 69.5t6 133.5v276h-492 l-109 -198l-67 -121q-37 -63 -37 -113q0 -61 33 -86.5t110 -25.5h9l-2 -29h-465zM492 604h473v823z" />
<glyph unicode="&#xc7;" horiz-adv-x="1454" d="M104 690q0 240 89.5 424t253 284.5t378.5 100.5q83 0 163.5 -17t193.5 -59q52 -18 69 -18q64 0 64 86h31l12 -498h-27q-50 232 -172 351.5t-309 119.5q-174 0 -312.5 -99t-216 -275.5t-77.5 -399.5q0 -304 164 -491t428 -187q206 0 350 119q67 55 99 119t52 186l29 -4 q-17 -128 -51.5 -203.5t-104.5 -136.5q-72 -63 -174 -94q-50 -16 -89 -22.5t-124 -12.5l-75 -74q44 7 59 7q63 0 106 -39.5t43 -96.5q0 -78 -73 -136t-172 -58q-60 0 -105 23t-45 55q0 28 31 28q24 0 41 -20l24 -27q33 -33 74 -33q57 0 100 41t43 95q0 49 -36.5 84.5 t-87.5 35.5q-41 0 -93 -24l-10 18l137 119q-209 22 -316 68.5t-200 158.5q-164 196 -164 502z" />
<glyph unicode="&#xc8;" horiz-adv-x="1310" d="M74 29q103 3 139.5 53.5t36.5 187.5v25v442v453v29q0 71 -5.5 103t-23.5 60q-20 34 -52 48t-91 16v31h1030l14 -342l-28 -5q-20 87 -38.5 129t-54.5 82q-54 60 -151.5 82.5t-310.5 22.5h-154v-651h68q99 0 144 8.5t85 34.5q48 33 68.5 82t21.5 139h29v-584l-31 4 q0 161 -67.5 224t-239.5 63h-80v-404q0 -107 12.5 -157.5t50.5 -89.5q74 -82 302 -82q198 0 305 76q59 42 104 124q27 47 40.5 90t25.5 123h28l-16 -446h-1159zM459 1954q0 10 4 18q19 31 47 31q20 0 31 -11t32 -50l146 -281l-35 -21l-199 261q-26 33 -26 53z" />
<glyph unicode="&#xc9;" horiz-adv-x="1310" d="M74 29q103 3 139.5 53.5t36.5 187.5v25v442v453v29q0 71 -5.5 103t-23.5 60q-20 34 -52 48t-91 16v31h1030l14 -342l-28 -5q-20 87 -38.5 129t-54.5 82q-54 60 -151.5 82.5t-310.5 22.5h-154v-651h68q99 0 144 8.5t85 34.5q48 33 68.5 82t21.5 139h29v-584l-31 4 q0 161 -67.5 224t-239.5 63h-80v-404q0 -107 12.5 -157.5t50.5 -89.5q74 -82 302 -82q198 0 305 76q59 42 104 124q27 47 40.5 90t25.5 123h28l-16 -446h-1159zM621 1661l137 268l20 49q4 12 17.5 19.5t27.5 7.5q22 0 36.5 -14.5t14.5 -36.5q0 -14 -8 -25l-30 -41l-183 -246 z" />
<glyph unicode="&#xca;" horiz-adv-x="1310" d="M74 29q103 3 139.5 53.5t36.5 187.5v25v442v453v29q0 71 -5.5 103t-23.5 60q-20 34 -52 48t-91 16v31h1030l14 -342l-28 -5q-20 87 -38.5 129t-54.5 82q-54 60 -151.5 82.5t-310.5 22.5h-154v-651h68q99 0 144 8.5t85 34.5q48 33 68.5 82t21.5 139h29v-584l-31 4 q0 161 -67.5 224t-239.5 63h-80v-404q0 -107 12.5 -157.5t50.5 -89.5q74 -82 302 -82q198 0 305 76q59 42 104 124q27 47 40.5 90t25.5 123h28l-16 -446h-1159zM455 1667l141 266q23 41 25 43q16 29 55 29q10 0 26 -4q21 -9 29 -25q0 -1 4 -7t10 -15.5t11 -20.5l141 -266 l-29 -20l-192 219l-193 -219z" />
<glyph unicode="&#xcb;" horiz-adv-x="1310" d="M74 29q103 3 139.5 53.5t36.5 187.5v25v442v453v29q0 71 -5.5 103t-23.5 60q-20 34 -52 48t-91 16v31h1030l14 -342l-28 -5q-20 87 -38.5 129t-54.5 82q-54 60 -151.5 82.5t-310.5 22.5h-154v-651h68q99 0 144 8.5t85 34.5q48 33 68.5 82t21.5 139h29v-584l-31 4 q0 161 -67.5 224t-239.5 63h-80v-404q0 -107 12.5 -157.5t50.5 -89.5q74 -82 302 -82q198 0 305 76q59 42 104 124q27 47 40.5 90t25.5 123h28l-16 -446h-1159zM442 1726q0 35 25 58.5t59 23.5t58 -23.5t24 -58.5t-25.5 -59.5t-60.5 -24.5q-33 0 -56.5 24.5t-23.5 59.5z M743 1726q0 35 24.5 58.5t57.5 23.5q35 0 58.5 -24t23.5 -58q0 -35 -23 -59.5t-57 -24.5t-59 24.5t-25 59.5z" />
<glyph unicode="&#xcc;" horiz-adv-x="638" d="M74 29q61 1 94 15.5t55 47.5q26 39 29 109q2 47 2 317v219v453v33q0 126 -36.5 174t-135.5 49v31h483l2 -31q-61 -1 -94.5 -15.5t-56.5 -48.5q-18 -27 -23.5 -61t-5.5 -111v-18v-455q0 -45 -1 -135t-1 -135q0 -184 2 -237.5t10 -88.5q12 -56 52.5 -82.5t117.5 -29.5 l-2 -29h-489zM88 1954q0 10 4 18q19 31 47 31q20 0 32 -11.5t32 -49.5l145 -281l-35 -21l-198 261q-27 34 -27 53z" />
<glyph unicode="&#xcd;" horiz-adv-x="638" d="M74 29q61 1 94 15.5t55 47.5q26 39 29 109q2 47 2 317v219v453v33q0 126 -36.5 174t-135.5 49v31h483l2 -31q-61 -1 -94.5 -15.5t-56.5 -48.5q-18 -27 -23.5 -61t-5.5 -111v-18v-455q0 -45 -1 -135t-1 -135q0 -184 2 -237.5t10 -88.5q12 -56 52.5 -82.5t117.5 -29.5 l-2 -29h-489zM315 1661l138 268l20 49q4 12 17.5 19.5t27.5 7.5q22 0 36.5 -14.5t14.5 -36.5q0 -14 -8 -25l-31 -41l-182 -246z" />
<glyph unicode="&#xce;" horiz-adv-x="638" d="M74 29q61 1 94 15.5t55 47.5q26 39 29 109q2 47 2 317v219v453v33q0 126 -36.5 174t-135.5 49v31h483l2 -31q-61 -1 -94.5 -15.5t-56.5 -48.5q-18 -27 -23.5 -61t-5.5 -111v-18v-455q0 -45 -1 -135t-1 -135q0 -184 2 -237.5t10 -88.5q12 -56 52.5 -82.5t117.5 -29.5 l-2 -29h-489zM115 1667l141 266q23 41 25 43q16 29 55 29q10 0 26 -4q21 -9 29 -25q0 -1 4 -7t10 -15.5t11 -20.5l141 -266l-29 -20l-192 219l-193 -219z" />
<glyph unicode="&#xcf;" horiz-adv-x="638" d="M74 29q61 1 94 15.5t55 47.5q26 39 29 109q2 47 2 317v219v453v33q0 126 -36.5 174t-135.5 49v31h483l2 -31q-61 -1 -94.5 -15.5t-56.5 -48.5q-18 -27 -23.5 -61t-5.5 -111v-18v-455q0 -45 -1 -135t-1 -135q0 -184 2 -237.5t10 -88.5q12 -56 52.5 -82.5t117.5 -29.5 l-2 -29h-489zM98 1726q0 35 25 58.5t59 23.5t58 -23.5t24 -58.5t-25.5 -59.5t-60.5 -24.5q-33 0 -56.5 24.5t-23.5 59.5zM399 1726q0 35 24.5 58.5t57.5 23.5q35 0 58.5 -24t23.5 -58q0 -35 -23 -59.5t-57 -24.5t-59 24.5t-25 59.5z" />
<glyph unicode="&#xd1;" horiz-adv-x="1562" d="M82 0v29q97 3 133.5 50t36.5 169v47v442v455v47q0 114 -37.5 160t-132.5 47v31h307l895 -1256v975v80q0 60 -31 106q-20 33 -53.5 48t-89.5 16v31h381v-31q-58 -1 -91.5 -16t-53.5 -48q-11 -20 -23 -49q-8 -40 -8 -57v-80v-1202h-33l-999 1392v-1091v-94q0 -54 34 -109 q20 -33 53.5 -47.5t94.5 -15.5l-2 -29h-381zM530 1673q24 111 119 111q43 0 94 -15l72 -20l47 -12q43 -11 62 -11q78 0 104 62l45 -23q-29 -69 -57 -93.5t-76 -24.5h-22q-33 0 -68 14q-2 1 -10 2t-19 3.5t-24 6.5q-129 33 -150 33q-26 0 -41.5 -12t-25.5 -43z" />
<glyph unicode="&#xd2;" horiz-adv-x="1710" d="M102 737q0 123 38 239t108 209t162.5 163t207 108.5t236.5 38.5q152 0 291.5 -60.5t240.5 -162.5t160.5 -243t59.5 -296t-60 -297t-161 -244.5t-240 -163.5t-291 -61q-150 0 -286.5 58t-236.5 157t-161.5 236.5t-65.5 290.5q0 4 -1 13.5t-1 14.5zM244 729 q0 -196 81.5 -362.5t221.5 -263.5t305 -97q168 0 309 96.5t222 262t81 362.5q0 193 -84 363t-225 271t-301 101t-301 -101t-225 -270.5t-84 -361.5zM625 1954q0 10 4 18q19 31 47 31q20 0 31 -11t32 -50l146 -281l-35 -21l-199 261q-26 33 -26 53z" />
<glyph unicode="&#xd3;" horiz-adv-x="1710" d="M102 737q0 123 38 239t108 209t162.5 163t207 108.5t236.5 38.5q152 0 291.5 -60.5t240.5 -162.5t160.5 -243t59.5 -296t-60 -297t-161 -244.5t-240 -163.5t-291 -61q-150 0 -286.5 58t-236.5 157t-161.5 236.5t-65.5 290.5q0 4 -1 13.5t-1 14.5zM244 729 q0 -196 81.5 -362.5t221.5 -263.5t305 -97q168 0 309 96.5t222 262t81 362.5q0 193 -84 363t-225 271t-301 101t-301 -101t-225 -270.5t-84 -361.5zM852 1661l137 268l21 49q4 12 17.5 19.5t27.5 7.5q22 0 36.5 -14.5t14.5 -36.5q0 -14 -8 -25l-31 -41l-182 -246z" />
<glyph unicode="&#xd4;" horiz-adv-x="1710" d="M102 737q0 123 38 239t108 209t162.5 163t207 108.5t236.5 38.5q152 0 291.5 -60.5t240.5 -162.5t160.5 -243t59.5 -296t-60 -297t-161 -244.5t-240 -163.5t-291 -61q-150 0 -286.5 58t-236.5 157t-161.5 236.5t-65.5 290.5q0 4 -1 13.5t-1 14.5zM244 729 q0 -196 81.5 -362.5t221.5 -263.5t305 -97q168 0 309 96.5t222 262t81 362.5q0 193 -84 363t-225 271t-301 101t-301 -101t-225 -270.5t-84 -361.5zM653 1667l142 266q5 10 11 21t8.5 15.5t4.5 6.5q16 29 55 29q11 0 27 -4q21 -9 29 -25q0 -1 4 -7t9.5 -15.5t10.5 -20.5 l142 -266l-29 -20l-193 219l-192 -219z" />
<glyph unicode="&#xd5;" horiz-adv-x="1710" d="M102 737q0 123 38 239t108 209t162.5 163t207 108.5t236.5 38.5q152 0 291.5 -60.5t240.5 -162.5t160.5 -243t59.5 -296t-60 -297t-161 -244.5t-240 -163.5t-291 -61q-150 0 -286.5 58t-236.5 157t-161.5 236.5t-65.5 290.5q0 4 -1 13.5t-1 14.5zM244 729 q0 -196 81.5 -362.5t221.5 -263.5t305 -97q168 0 309 96.5t222 262t81 362.5q0 193 -84 363t-225 271t-301 101t-301 -101t-225 -270.5t-84 -361.5zM604 1673q24 111 119 111q43 0 94 -15l72 -20l47 -12q43 -11 61 -11q79 0 105 62l45 -23q-29 -69 -57 -93.5t-76 -24.5h-23 q-32 0 -67 14q-2 1 -10 2t-19.5 3.5t-24.5 6.5q-129 33 -149 33q-27 0 -42.5 -12.5t-25.5 -42.5z" />
<glyph unicode="&#xd6;" horiz-adv-x="1710" d="M102 737q0 123 38 239t108 209t162.5 163t207 108.5t236.5 38.5q152 0 291.5 -60.5t240.5 -162.5t160.5 -243t59.5 -296t-60 -297t-161 -244.5t-240 -163.5t-291 -61q-150 0 -286.5 58t-236.5 157t-161.5 236.5t-65.5 290.5q0 4 -1 13.5t-1 14.5zM244 729 q0 -196 81.5 -362.5t221.5 -263.5t305 -97q168 0 309 96.5t222 262t81 362.5q0 193 -84 363t-225 271t-301 101t-301 -101t-225 -270.5t-84 -361.5zM508 1614q0 40 27.5 69t66.5 29q40 0 68 -28t28 -68t-28 -67t-68 -27q-38 0 -66 27t-28 65zM1036 1616q0 40 28.5 68 t68.5 28t67 -28t27 -68q0 -39 -28.5 -66.5t-68.5 -27.5q-39 0 -66.5 27.5t-27.5 66.5z" />
<glyph unicode="&#xd7;" d="M190 539l277 276l-274 275l73 73l277 -274l276 276l78 -78l-276 -276l274 -276l-74 -74l-274 274l-277 -276z" />
<glyph unicode="&#xd8;" horiz-adv-x="1753" d="M104 0l222 217q-66 64 -97 109t-59 114q-55 140 -55 297q0 154 60 294.5t160.5 242t239.5 161.5t291 60q115 0 221 -33q89 -28 151 -65.5t161 -122.5l192 184h58l-219 -213q101 -134 144.5 -253.5t43.5 -256.5q0 -209 -100.5 -385.5t-273 -279.5t-376.5 -103 q-93 0 -188 25q-99 25 -164 62.5t-166 127.5l-186 -182h-60zM266 709q0 -115 24.5 -199.5t98.5 -224.5l934 919q-77 94 -128.5 137t-117.5 70q-90 37 -203 37q-164 0 -304 -99t-222 -269t-82 -371zM414 252q88 -106 151 -153t150 -72q73 -21 153 -21q165 0 305.5 96 t222 260.5t81.5 356.5q0 102 -23 208t-61 173q-13 26 -45 69z" />
<glyph unicode="&#xd9;" horiz-adv-x="1574" d="M74 1446l2 31h479l2 -31q-61 -1 -93 -15.5t-56 -48.5q-17 -30 -21 -49q-8 -36 -8 -57v-96v-664v-158q0 -83 39 -159q41 -87 150 -138t253 -51q173 0 303 88q90 63 129 159t39 255v668q0 73 -2 96q0 62 -26 106q-22 34 -54 48.5t-90 15.5v31h381v-31q-59 -1 -91 -15.5 t-56 -48.5q-19 -30 -25 -67t-6 -135v-672q0 -186 -51 -299q-54 -115 -181 -177.5t-303 -62.5q-187 0 -342 68q-91 40 -141 110q-36 53 -46.5 110t-10.5 192v731v96q0 86 -41.5 127.5t-132.5 42.5zM647 1954q0 10 4 18q19 31 47 31q20 0 32 -11.5t32 -49.5l145 -281l-35 -21 l-198 261q-27 34 -27 53z" />
<glyph unicode="&#xda;" horiz-adv-x="1574" d="M74 1446l2 31h479l2 -31q-61 -1 -93 -15.5t-56 -48.5q-17 -30 -21 -49q-8 -36 -8 -57v-96v-664v-158q0 -83 39 -159q41 -87 150 -138t253 -51q173 0 303 88q90 63 129 159t39 255v668q0 73 -2 96q0 62 -26 106q-22 34 -54 48.5t-90 15.5v31h381v-31q-59 -1 -91 -15.5 t-56 -48.5q-19 -30 -25 -67t-6 -135v-672q0 -186 -51 -299q-54 -115 -181 -177.5t-303 -62.5q-187 0 -342 68q-91 40 -141 110q-36 53 -46.5 110t-10.5 192v731v96q0 86 -41.5 127.5t-132.5 42.5zM793 1661l137 268l20 49q4 12 17.5 19.5t27.5 7.5q22 0 37 -14.5t15 -36.5 q0 -13 -9 -25l-30 -41l-183 -246z" />
<glyph unicode="&#xdb;" horiz-adv-x="1574" d="M74 1446l2 31h479l2 -31q-61 -1 -93 -15.5t-56 -48.5q-17 -30 -21 -49q-8 -36 -8 -57v-96v-664v-158q0 -83 39 -159q41 -87 150 -138t253 -51q173 0 303 88q90 63 129 159t39 255v668q0 73 -2 96q0 62 -26 106q-22 34 -54 48.5t-90 15.5v31h381v-31q-59 -1 -91 -15.5 t-56 -48.5q-19 -30 -25 -67t-6 -135v-672q0 -186 -51 -299q-54 -115 -181 -177.5t-303 -62.5q-187 0 -342 68q-91 40 -141 110q-36 53 -46.5 110t-10.5 192v731v96q0 86 -41.5 127.5t-132.5 42.5zM625 1667l141 266q23 41 25 43q16 29 55 29q10 0 26 -4q21 -9 29 -25 q0 -1 4 -7t10 -15.5t11 -20.5l141 -266l-29 -20l-192 219l-193 -219z" />
<glyph unicode="&#xdc;" horiz-adv-x="1574" d="M74 1446l2 31h479l2 -31q-61 -1 -93 -15.5t-56 -48.5q-17 -30 -21 -49q-8 -36 -8 -57v-96v-664v-158q0 -83 39 -159q41 -87 150 -138t253 -51q173 0 303 88q90 63 129 159t39 255v668q0 73 -2 96q0 62 -26 106q-22 34 -54 48.5t-90 15.5v31h381v-31q-59 -1 -91 -15.5 t-56 -48.5q-19 -30 -25 -67t-6 -135v-672q0 -186 -51 -299q-54 -115 -181 -177.5t-303 -62.5q-187 0 -342 68q-91 40 -141 110q-36 53 -46.5 110t-10.5 192v731v96q0 86 -41.5 127.5t-132.5 42.5zM590 1614q0 40 27 69t65 29q40 0 69 -28t29 -68t-28 -67t-68 -27t-67 27 t-27 65zM932 1616q0 39 28.5 67.5t67.5 28.5q40 0 67 -28t27 -68t-27.5 -67t-68.5 -27q-39 0 -66.5 27.5t-27.5 66.5z" />
<glyph unicode="&#xdf;" horiz-adv-x="1021" d="M23 0l2 20q70 0 98.5 40t28.5 147v878q0 152 16.5 214.5t73.5 117.5q82 82 213 82q149 0 232 -92t83 -256q0 -138 -68 -223q-26 -32 -56.5 -52.5t-90.5 -46.5q186 -1 285.5 -97t99.5 -271q0 -124 -54.5 -230.5t-148 -169.5t-202.5 -63q-84 0 -144.5 48t-60.5 114 q0 33 18.5 53t48.5 20t50 -25.5t22 -62.5l2 -47q2 -29 23 -48t53 -19q113 0 197.5 130.5t84.5 303.5q0 128 -45.5 214t-126.5 109q-79 21 -182 21h-22l-4 29q64 1 94 12.5t57 42.5q68 77 68 231q0 340 -222 340q-100 0 -151 -75q-30 -43 -37 -117q-2 -25 -2 -131v-1141h-233 z" />
<glyph unicode="&#xe0;" horiz-adv-x="944" d="M104 203q0 133 107 194q37 20 63 28.5t124 31.5q25 6 40 10q125 29 165 67.5t40 129.5q0 215 -201 215q-109 0 -131 -88l-14 -60q-8 -31 -31 -52.5t-49 -21.5q-32 0 -53 21t-21 55q0 81 86.5 128.5t233.5 47.5q144 0 217 -59q43 -32 55.5 -72.5t12.5 -140.5v-477 q0 -52 3 -72t15 -41q24 -39 70 -39q54 0 98 70l24 -4q-25 -55 -62 -80t-93 -25q-69 0 -113 34.5t-55 96.5q-39 -42 -60 -61q-77 -68 -194 -68q-126 0 -201.5 63t-75.5 169zM209 201q0 -82 57.5 -139.5t139.5 -57.5q107 0 172 78.5t65 208.5v239q-27 -26 -47 -38t-57 -29 q-76 -33 -133 -53q-106 -40 -151.5 -88t-45.5 -121zM242 1319q0 10 4 18q19 31 47 31q20 0 31 -11t32 -50l146 -281l-35 -20l-199 260q-26 33 -26 53z" />
<glyph unicode="&#xe1;" horiz-adv-x="944" d="M104 203q0 133 107 194q37 20 63 28.5t124 31.5q25 6 40 10q125 29 165 67.5t40 129.5q0 215 -201 215q-109 0 -131 -88l-14 -60q-8 -31 -31 -52.5t-49 -21.5q-32 0 -53 21t-21 55q0 81 86.5 128.5t233.5 47.5q144 0 217 -59q43 -32 55.5 -72.5t12.5 -140.5v-477 q0 -52 3 -72t15 -41q24 -39 70 -39q54 0 98 70l24 -4q-25 -55 -62 -80t-93 -25q-69 0 -113 34.5t-55 96.5q-39 -42 -60 -61q-77 -68 -194 -68q-126 0 -201.5 63t-75.5 169zM209 201q0 -82 57.5 -139.5t139.5 -57.5q107 0 172 78.5t65 208.5v239q-27 -26 -47 -38t-57 -29 q-76 -33 -133 -53q-106 -40 -151.5 -88t-45.5 -121zM434 1026l137 268l21 49q4 12 17.5 19.5t27.5 7.5q22 0 36.5 -14.5t14.5 -36.5q0 -14 -8 -25l-31 -41l-182 -245z" />
<glyph unicode="&#xe2;" horiz-adv-x="944" d="M104 203q0 133 107 194q37 20 63 28.5t124 31.5q25 6 40 10q125 29 165 67.5t40 129.5q0 215 -201 215q-109 0 -131 -88l-14 -60q-8 -31 -31 -52.5t-49 -21.5q-32 0 -53 21t-21 55q0 81 86.5 128.5t233.5 47.5q144 0 217 -59q43 -32 55.5 -72.5t12.5 -140.5v-477 q0 -52 3 -72t15 -41q24 -39 70 -39q54 0 98 70l24 -4q-25 -55 -62 -80t-93 -25q-69 0 -113 34.5t-55 96.5q-39 -42 -60 -61q-77 -68 -194 -68q-126 0 -201.5 63t-75.5 169zM209 201q0 -82 57.5 -139.5t139.5 -57.5q107 0 172 78.5t65 208.5v239q-27 -26 -47 -38t-57 -29 q-76 -33 -133 -53q-106 -40 -151.5 -88t-45.5 -121zM270 1032l142 266q5 10 11 21t8.5 15.5t4.5 6.5q16 29 56 29q10 0 26 -4q21 -9 29 -25q0 -1 4 -7t9.5 -15.5t10.5 -20.5l142 -266l-29 -20l-192 219l-193 -219z" />
<glyph unicode="&#xe3;" horiz-adv-x="944" d="M104 203q0 133 107 194q37 20 63 28.5t124 31.5q25 6 40 10q125 29 165 67.5t40 129.5q0 215 -201 215q-109 0 -131 -88l-14 -60q-8 -31 -31 -52.5t-49 -21.5q-32 0 -53 21t-21 55q0 81 86.5 128.5t233.5 47.5q144 0 217 -59q43 -32 55.5 -72.5t12.5 -140.5v-477 q0 -52 3 -72t15 -41q24 -39 70 -39q54 0 98 70l24 -4q-25 -55 -62 -80t-93 -25q-69 0 -113 34.5t-55 96.5q-39 -42 -60 -61q-77 -68 -194 -68q-126 0 -201.5 63t-75.5 169zM209 201q0 -82 57.5 -139.5t139.5 -57.5q107 0 172 78.5t65 208.5v239q-27 -26 -47 -38t-57 -29 q-76 -33 -133 -53q-106 -40 -151.5 -88t-45.5 -121zM223 1038q24 111 119 111q46 0 94 -14l72 -21l47 -12q39 -10 61 -10q79 0 105 61l45 -23q-29 -69 -57 -93.5t-76 -24.5h-23q-32 0 -67 14q-2 1 -10 2t-19.5 3.5t-24.5 6.5q-129 33 -149 33q-27 0 -42.5 -12.5t-25.5 -42.5 z" />
<glyph unicode="&#xe4;" horiz-adv-x="944" d="M104 203q0 133 107 194q37 20 63 28.5t124 31.5q25 6 40 10q125 29 165 67.5t40 129.5q0 215 -201 215q-109 0 -131 -88l-14 -60q-8 -31 -31 -52.5t-49 -21.5q-32 0 -53 21t-21 55q0 81 86.5 128.5t233.5 47.5q144 0 217 -59q43 -32 55.5 -72.5t12.5 -140.5v-477 q0 -52 3 -72t15 -41q24 -39 70 -39q54 0 98 70l24 -4q-25 -55 -62 -80t-93 -25q-69 0 -113 34.5t-55 96.5q-39 -42 -60 -61q-77 -68 -194 -68q-126 0 -201.5 63t-75.5 169zM209 201q0 -82 57.5 -139.5t139.5 -57.5q107 0 172 78.5t65 208.5v239q-27 -26 -47 -38t-57 -29 q-76 -33 -133 -53q-106 -40 -151.5 -88t-45.5 -121zM248 1077q0 35 25 58.5t59 23.5t58 -23.5t24 -58.5t-25.5 -59.5t-60.5 -24.5q-33 0 -56.5 24.5t-23.5 59.5zM549 1077q0 35 24.5 58.5t57.5 23.5q35 0 58.5 -24t23.5 -58q0 -35 -23 -59.5t-57 -24.5t-59 24.5t-25 59.5z " />
<glyph unicode="&#xe5;" horiz-adv-x="944" d="M104 203q0 133 107 194q37 20 63 28.5t124 31.5q25 6 40 10q125 29 165 67.5t40 129.5q0 215 -201 215q-109 0 -131 -88l-14 -60q-8 -31 -31 -52.5t-49 -21.5q-32 0 -53 21t-21 55q0 81 86.5 128.5t233.5 47.5q144 0 217 -59q43 -32 55.5 -72.5t12.5 -140.5v-477 q0 -52 3 -72t15 -41q24 -39 70 -39q54 0 98 70l24 -4q-25 -55 -62 -80t-93 -25q-69 0 -113 34.5t-55 96.5q-39 -42 -60 -61q-77 -68 -194 -68q-126 0 -201.5 63t-75.5 169zM209 201q0 -82 57.5 -139.5t139.5 -57.5q107 0 172 78.5t65 208.5v239q-27 -26 -47 -38t-57 -29 q-76 -33 -133 -53q-106 -40 -151.5 -88t-45.5 -121zM336 1124q0 62 43 106t104 44q59 0 102.5 -44.5t43.5 -107.5q0 -60 -42.5 -101.5t-103.5 -41.5t-104 42.5t-43 102.5zM383 1124q0 -39 28.5 -66.5t67.5 -27.5q42 0 71.5 27.5t29.5 66.5q0 41 -30 71t-71 30q-38 0 -67 -30 t-29 -71z" />
<glyph unicode="&#xe6;" horiz-adv-x="1544" d="M104 207q0 100 58.5 155.5t197.5 86.5q159 36 181 46q18 7 37 21q61 35 61 176q0 88 -50 137.5t-140 49.5q-68 0 -99.5 -24.5t-44.5 -88.5q-2 -8 -4 -16.5t-3 -12.5t-1 -6q-3 -20 -16 -33q-20 -36 -62 -36q-33 0 -54.5 22t-21.5 55q0 76 88 124t226 48q125 0 193 -37 t91 -118q10 12 21 22.5t21 19.5t14 13q57 47 136.5 73.5t164.5 26.5q313 0 354 -317h-678q-24 -123 -24 -168q0 -187 100.5 -301.5t263.5 -114.5q116 0 196.5 55.5t112.5 159.5l31 -2q-18 -63 -35 -94t-55 -66q-107 -94 -274 -94q-73 0 -150 23q-65 21 -118 54t-122 97 q-9 -10 -27.5 -28.5t-25.5 -28.5q-114 -117 -264 -117q-123 0 -201 66t-78 172zM209 195q0 -80 56 -134.5t138 -54.5q110 0 176 84.5t66 226.5v211q-44 -41 -68.5 -54.5t-93.5 -35.5q-112 -35 -164.5 -64.5t-78.5 -70.5q-31 -48 -31 -108zM784 625h559q-9 119 -75 186.5 t-172 67.5q-96 0 -174 -62q-43 -35 -71 -74t-67 -118z" />
<glyph unicode="&#xe7;" horiz-adv-x="974" d="M104 414q0 216 130 356.5t329 140.5q117 0 205 -52t88 -122q0 -29 -22.5 -51t-53.5 -22q-72 0 -96 102q-14 62 -41.5 87.5t-79.5 25.5q-145 0 -246.5 -136t-101.5 -329q0 -180 98.5 -293t255.5 -113q121 0 205 72q33 29 53 59.5t43 89.5l29 -2q-23 -75 -47 -114t-70 -76 q-43 -34 -101.5 -55t-109.5 -21h-26l-60 -59q38 6 58 6q62 0 105.5 -39t43.5 -94q0 -80 -72.5 -138.5t-170.5 -58.5q-61 0 -106.5 23t-45.5 53q0 13 8.5 21t22.5 8q24 0 43 -19l22 -24q18 -20 34 -26.5t40 -6.5q57 0 100 40t43 91t-36.5 88t-86.5 37q-37 0 -94 -29l-10 21 l125 106q-103 14 -157 36.5t-111 76.5q-136 127 -136 340z" />
<glyph unicode="&#xe8;" horiz-adv-x="995" d="M102 422q0 216 128 351.5t331 135.5q158 0 251 -84t99 -233h-673q-23 -115 -23 -176q0 -185 97.5 -296.5t258.5 -111.5q127 0 220 72q37 29 55.5 57.5t38.5 85.5l28 -2q-15 -64 -34 -96.5t-62 -69.5q-109 -90 -266 -90q-206 0 -327.5 123.5t-121.5 333.5zM248 621h559 q-20 131 -81.5 193.5t-168.5 62.5q-207 0 -309 -256zM328 1319q0 10 4 18q19 31 47 31q20 0 31 -11t32 -50l146 -281l-35 -20l-199 260q-26 33 -26 53z" />
<glyph unicode="&#xe9;" horiz-adv-x="995" d="M102 422q0 216 128 351.5t331 135.5q158 0 251 -84t99 -233h-673q-23 -115 -23 -176q0 -185 97.5 -296.5t258.5 -111.5q127 0 220 72q37 29 55.5 57.5t38.5 85.5l28 -2q-15 -64 -34 -96.5t-62 -69.5q-109 -90 -266 -90q-206 0 -327.5 123.5t-121.5 333.5zM248 621h559 q-20 131 -81.5 193.5t-168.5 62.5q-207 0 -309 -256zM553 1026l137 268l21 49q4 12 17.5 19.5t27.5 7.5q22 0 36.5 -14.5t14.5 -36.5q0 -14 -8 -25l-31 -41l-182 -245z" />
<glyph unicode="&#xea;" horiz-adv-x="995" d="M102 422q0 216 128 351.5t331 135.5q158 0 251 -84t99 -233h-673q-23 -115 -23 -176q0 -185 97.5 -296.5t258.5 -111.5q127 0 220 72q37 29 55.5 57.5t38.5 85.5l28 -2q-15 -64 -34 -96.5t-62 -69.5q-109 -90 -266 -90q-206 0 -327.5 123.5t-121.5 333.5zM248 621h559 q-20 131 -81.5 193.5t-168.5 62.5q-207 0 -309 -256zM360 1032l142 266q5 10 11 21t8.5 15.5t4.5 6.5q16 29 56 29q10 0 26 -4q21 -9 29 -25q0 -1 4 -7t10 -15.5t11 -20.5l141 -266l-29 -20l-192 219l-193 -219z" />
<glyph unicode="&#xeb;" horiz-adv-x="995" d="M102 422q0 216 128 351.5t331 135.5q158 0 251 -84t99 -233h-673q-23 -115 -23 -176q0 -185 97.5 -296.5t258.5 -111.5q127 0 220 72q37 29 55.5 57.5t38.5 85.5l28 -2q-15 -64 -34 -96.5t-62 -69.5q-109 -90 -266 -90q-206 0 -327.5 123.5t-121.5 333.5zM248 621h559 q-20 131 -81.5 193.5t-168.5 62.5q-207 0 -309 -256zM338 1092q0 35 25 58.5t59 23.5t58 -23.5t24 -58.5t-25.5 -59.5t-60.5 -24.5q-33 0 -56.5 24.5t-23.5 59.5zM639 1092q0 35 24.5 58.5t57.5 23.5q35 0 58.5 -24t23.5 -58q0 -35 -23 -59.5t-57 -24.5t-59 24.5t-25 59.5z " />
<glyph unicode="&#xec;" horiz-adv-x="497" d="M14 1319q0 10 4 18q19 31 48 31q20 0 31 -11t32 -50l145 -281l-34 -20l-199 260q-27 34 -27 53zM74 0l2 20q47 0 71 11.5t39 40.5q21 47 21 135v235q0 30 1 92t1 93q0 107 -12 161q-6 32 -33.5 48t-87.5 22v25q79 0 118.5 5t122.5 25q-8 -61 -8 -100v-606 q0 -112 26 -149.5t103 -37.5l2 -20h-366z" />
<glyph unicode="&#xed;" horiz-adv-x="497" d="M74 0l2 20q47 0 71 11.5t39 40.5q21 47 21 135v235q0 30 1 92t1 93q0 107 -12 161q-6 32 -33.5 48t-87.5 22v25q79 0 118.5 5t122.5 25q-8 -61 -8 -100v-606q0 -112 26 -149.5t103 -37.5l2 -20h-366zM242 1026l137 268l20 49q4 12 17.5 19.5t27.5 7.5q22 0 37 -14.5 t15 -36.5q0 -13 -9 -25l-30 -41l-183 -245z" />
<glyph unicode="&#xee;" horiz-adv-x="497" d="M33 1032l141 266q23 41 25 43q16 29 55 29q11 0 27 -4q20 -8 28 -25q0 -1 4 -7t10 -15.5t11 -20.5l141 -266l-29 -20l-192 219l-193 -219zM74 0l2 20q47 0 71 11.5t39 40.5q21 47 21 135v235q0 30 1 92t1 93q0 107 -12 161q-6 32 -33.5 48t-87.5 22v25q79 0 118.5 5 t122.5 25q-8 -61 -8 -100v-606q0 -112 26 -149.5t103 -37.5l2 -20h-366z" />
<glyph unicode="&#xef;" horiz-adv-x="497" d="M23 1092q0 35 24.5 58.5t58.5 23.5t58 -23.5t24 -58.5t-25.5 -59.5t-60.5 -24.5q-32 0 -55.5 24.5t-23.5 59.5zM74 0l2 20q47 0 71 11.5t39 40.5q21 47 21 135v235q0 30 1 92t1 93q0 107 -12 161q-6 32 -33.5 48t-87.5 22v25q79 0 118.5 5t122.5 25q-8 -61 -8 -100v-606 q0 -112 26 -149.5t103 -37.5l2 -20h-366zM324 1092q0 35 24.5 58.5t57.5 23.5q35 0 58 -24t23 -58q0 -35 -22.5 -59.5t-56.5 -24.5t-59 24.5t-25 59.5z" />
<glyph unicode="&#xf1;" horiz-adv-x="1124" d="M74 858v25q83 2 123 6.5t122 23.5q-2 -12 -2 -28q-2 -37 -2 -72v-63q29 38 68 73q50 45 121.5 72t144.5 27q70 0 135.5 -26t100.5 -67t42 -75t7 -172v-379q0 -1 0.5 -8t1.5 -22t2 -32q2 -44 16 -69q15 -30 40 -41t77 -11v-20h-369l-2 18q56 3 91 33t36 80l2 59l2 9v376 q0 92 -6 129.5t-26 75.5q-25 46 -71.5 72.5t-104.5 26.5q-120 0 -217 -84q-55 -46 -76 -95t-21 -133v-317v-60q0 -88 31 -128.5t100 -41.5l-2 -20h-362v20q72 0 99.5 40.5t27.5 146.5v235v238q0 109 -22 140t-107 38zM352 1038q24 111 119 111q46 0 94 -14l72 -21l47 -12 q39 -10 61 -10q79 0 105 61l45 -23q-29 -69 -57 -93.5t-76 -24.5h-23q-32 0 -67 14q-2 1 -10 2t-19.5 3.5t-24.5 6.5q-129 33 -149 33q-27 0 -42.5 -12.5t-25.5 -42.5z" />
<glyph unicode="&#xf2;" horiz-adv-x="1159" d="M104 442q0 204 134.5 335.5t341.5 131.5t342 -131.5t135 -335.5q0 -206 -134 -337.5t-343 -131.5t-342.5 131.5t-133.5 337.5zM217 440q0 -114 49.5 -214t133.5 -160t180 -60t179 60t132 160t49 214q0 180 -106 308.5t-254 128.5q-149 0 -256 -128.5t-107 -308.5z M360 1319q0 8 5 18q19 31 47 31q20 0 31 -11t32 -50l146 -281l-35 -20l-199 260q-27 34 -27 53z" />
<glyph unicode="&#xf3;" horiz-adv-x="1159" d="M104 442q0 204 134.5 335.5t341.5 131.5t342 -131.5t135 -335.5q0 -206 -134 -337.5t-343 -131.5t-342.5 131.5t-133.5 337.5zM217 440q0 -114 49.5 -214t133.5 -160t180 -60t179 60t132 160t49 214q0 180 -106 308.5t-254 128.5q-149 0 -256 -128.5t-107 -308.5z M563 1026l137 268l21 49q4 12 17.5 19.5t27.5 7.5q22 0 36.5 -14.5t14.5 -36.5q0 -14 -8 -25l-31 -41l-182 -245z" />
<glyph unicode="&#xf4;" horiz-adv-x="1159" d="M104 442q0 204 134.5 335.5t341.5 131.5t342 -131.5t135 -335.5q0 -206 -134 -337.5t-343 -131.5t-342.5 131.5t-133.5 337.5zM217 440q0 -114 49.5 -214t133.5 -160t180 -60t179 60t132 160t49 214q0 180 -106 308.5t-254 128.5q-149 0 -256 -128.5t-107 -308.5z M379 1032l141 266q23 41 25 43q16 29 55 29q11 0 27 -4q20 -8 28 -25q0 -1 4 -7t10 -15.5t11 -20.5l141 -266l-28 -20l-193 219l-192 -219z" />
<glyph unicode="&#xf5;" horiz-adv-x="1159" d="M104 442q0 204 134.5 335.5t341.5 131.5t342 -131.5t135 -335.5q0 -206 -134 -337.5t-343 -131.5t-342.5 131.5t-133.5 337.5zM217 440q0 -114 49.5 -214t133.5 -160t180 -60t179 60t132 160t49 214q0 180 -106 308.5t-254 128.5q-149 0 -256 -128.5t-107 -308.5z M328 1038q24 111 118 111q47 0 95 -14l71 -21l47 -12q39 -10 62 -10q78 0 104 61l45 -23q-29 -69 -57 -93.5t-76 -24.5h-22q-33 0 -68 14q-2 1 -10 2t-19 3.5t-24 6.5q-129 33 -150 33q-26 0 -41.5 -12t-25.5 -43z" />
<glyph unicode="&#xf6;" horiz-adv-x="1159" d="M104 442q0 204 134.5 335.5t341.5 131.5t342 -131.5t135 -335.5q0 -206 -134 -337.5t-343 -131.5t-342.5 131.5t-133.5 337.5zM217 440q0 -114 49.5 -214t133.5 -160t180 -60t179 60t132 160t49 214q0 180 -106 308.5t-254 128.5q-149 0 -256 -128.5t-107 -308.5z M358 1077q0 35 25 58.5t59 23.5t58 -23.5t24 -58.5t-25.5 -59.5t-60.5 -24.5q-33 0 -56.5 24.5t-23.5 59.5zM659 1077q0 35 24.5 58.5t57.5 23.5q35 0 58.5 -24t23.5 -58q0 -35 -23 -59.5t-57 -24.5t-59 24.5t-25 59.5z" />
<glyph unicode="&#xf7;" horiz-adv-x="1216" d="M88 414v139h948v-139h-948zM446 207q0 49 34 83t83 34q51 0 83 -33t32 -84q0 -47 -34 -82t-81 -35q-49 0 -83 34t-34 83zM446 758q0 49 33.5 82.5t83.5 33.5q46 0 80.5 -35t34.5 -81q0 -47 -34 -82t-81 -35q-49 0 -83 33.5t-34 83.5z" />
<glyph unicode="&#xf8;" horiz-adv-x="1204" d="M104 -18l136 131q-82 97 -109 160.5t-27 164.5q0 205 134.5 338t341.5 133q187 0 331 -112l129 121h60l-154 -158q68 -98 90.5 -162t22.5 -156q0 -207 -133.5 -338t-345.5 -131q-103 0 -174.5 26.5t-133.5 86.5l-106 -104h-62zM225 440q0 -73 15.5 -124t62.5 -140 l549 555q-46 68 -116.5 105.5t-153.5 37.5q-151 0 -254 -125t-103 -309zM326 139q65 -69 125 -101t129 -32q147 0 255.5 130.5t108.5 305.5q0 69 -13 116.5t-52 133.5z" />
<glyph unicode="&#xf9;" horiz-adv-x="1120" d="M59 858v25q80 0 120.5 5t123.5 25q-8 -81 -8 -100v-520q0 -91 8.5 -131t36.5 -74q31 -37 87 -57.5t122 -20.5q274 0 274 309v361q0 107 -23 139t-108 39v25q80 0 120 5t120 25q-6 -61 -6 -100v-518q0 -84 3.5 -117t16.5 -67q29 -81 117 -84v-23l-242 -31l19 162 q-43 -61 -77.5 -90t-82.5 -47q-82 -29 -176 -29q-172 0 -258 86q-38 37 -47 77.5t-9 176.5v371q0 106 -23.5 138.5t-107.5 39.5zM348 1319q0 10 4 18q19 31 47 31q20 0 32 -11.5t32 -49.5l145 -281l-35 -20l-198 260q-27 34 -27 53z" />
<glyph unicode="&#xfa;" horiz-adv-x="1120" d="M59 858v25q80 0 120.5 5t123.5 25q-8 -81 -8 -100v-520q0 -91 8.5 -131t36.5 -74q31 -37 87 -57.5t122 -20.5q274 0 274 309v361q0 107 -23 139t-108 39v25q80 0 120 5t120 25q-6 -61 -6 -100v-518q0 -84 3.5 -117t16.5 -67q29 -81 117 -84v-23l-242 -31l19 162 q-43 -61 -77.5 -90t-82.5 -47q-82 -29 -176 -29q-172 0 -258 86q-38 37 -47 77.5t-9 176.5v371q0 106 -23.5 138.5t-107.5 39.5zM524 1026l138 268l20 49q4 12 17.5 19.5t27.5 7.5q22 0 36.5 -14.5t14.5 -36.5q0 -14 -8 -25l-31 -41l-182 -245z" />
<glyph unicode="&#xfb;" horiz-adv-x="1120" d="M59 858v25q80 0 120.5 5t123.5 25q-8 -81 -8 -100v-520q0 -91 8.5 -131t36.5 -74q31 -37 87 -57.5t122 -20.5q274 0 274 309v361q0 107 -23 139t-108 39v25q80 0 120 5t120 25q-6 -61 -6 -100v-518q0 -84 3.5 -117t16.5 -67q29 -81 117 -84v-23l-242 -31l19 162 q-43 -61 -77.5 -90t-82.5 -47q-82 -29 -176 -29q-172 0 -258 86q-38 37 -47 77.5t-9 176.5v371q0 106 -23.5 138.5t-107.5 39.5zM348 1032l141 266q23 41 25 43q16 29 55 29q11 0 27 -4q21 -9 29 -25q0 -1 4 -7t9.5 -15.5t10.5 -20.5l142 -266l-29 -20l-193 219l-192 -219z " />
<glyph unicode="&#xfc;" horiz-adv-x="1120" d="M59 858v25q80 0 120.5 5t123.5 25q-8 -81 -8 -100v-520q0 -91 8.5 -131t36.5 -74q31 -37 87 -57.5t122 -20.5q274 0 274 309v361q0 107 -23 139t-108 39v25q80 0 120 5t120 25q-6 -61 -6 -100v-518q0 -84 3.5 -117t16.5 -67q29 -81 117 -84v-23l-242 -31l19 162 q-43 -61 -77.5 -90t-82.5 -47q-82 -29 -176 -29q-172 0 -258 86q-38 37 -47 77.5t-9 176.5v371q0 106 -23.5 138.5t-107.5 39.5zM332 1077q0 35 25 58.5t59 23.5t58 -23.5t24 -58.5t-25.5 -59.5t-60.5 -24.5q-33 0 -56.5 24.5t-23.5 59.5zM633 1077q0 35 24.5 58.5 t57.5 23.5q35 0 58.5 -24t23.5 -58q0 -35 -23 -59.5t-57 -24.5t-59 24.5t-25 59.5z" />
<glyph unicode="&#xff;" horiz-adv-x="899" d="M-37 885h434v-19q-79 0 -112 -16.5t-33 -56.5q0 -34 33 -119l231 -543l209 543q31 83 31 117q0 41 -32 58t-108 17l-4 19h332v-19q-41 0 -65.5 -11t-49.5 -40q-14 -21 -18 -29q-23 -35 -51 -112l-350 -899q-32 -83 -78 -160q-58 -98 -135 -98q-34 0 -58 20.5t-24 52.5 q0 30 21.5 51t51.5 21h5l32 -2q4 -4 13 -4q58 0 96 45q20 21 41 60.5t31 76.5q10 30 20 80q8 39 8 57q0 15 -6 50q-9 39 -14 53l-254 596q-2 4 -6.5 13.5t-12 25t-14.5 30.5q-20 43 -43 72q-26 29 -51 40t-68 11zM287 1092q0 35 25 58.5t59 23.5t58 -23.5t24 -58.5 t-25.5 -59.5t-60.5 -24.5q-33 0 -56.5 24.5t-23.5 59.5zM588 1092q0 35 24.5 58.5t57.5 23.5q35 0 58.5 -24t23.5 -58q0 -35 -23 -59.5t-57 -24.5t-59 24.5t-25 59.5z" />
<glyph unicode="&#x131;" horiz-adv-x="497" d="M74 0l2 20q47 0 71 11.5t39 40.5q21 47 21 135v235q0 30 1 92t1 93q0 107 -12 161q-6 32 -33.5 48t-87.5 22v25q79 0 118.5 5t122.5 25q-8 -61 -8 -100v-606q0 -112 26 -149.5t103 -37.5l2 -20h-366z" />
<glyph unicode="&#x152;" horiz-adv-x="2011" d="M104 733q0 153 59 294.5t157.5 244t234 164t283.5 61.5q77 0 231 -20h741v-353h-26q-6 83 -21 126.5t-53 82.5q-47 53 -129 82q-92 29 -162 29h-164h-170v-647h66q95 0 137 6t78 26q54 31 78 85t26 145h31v-578l-33 -2v17q0 149 -70 209.5t-243 60.5h-74v-373 q0 -128 17.5 -187t66.5 -102q82 -73 301 -73q105 0 173 19.5t126 68.5q56 44 99 123q25 46 36.5 87.5t18.5 116.5l31 -2l-15 -444h-878q-129 -31 -221 -31q-148 0 -283.5 60.5t-234 163t-156.5 244t-58 296.5zM244 727q0 -186 82.5 -353.5t220.5 -268.5t291 -101q65 0 94 47 q13 21 16.5 43.5t3.5 77.5v1135q0 94 -23 124.5t-93 30.5q-114 0 -223 -61t-190 -161.5t-130 -236t-49 -276.5z" />
<glyph unicode="&#x153;" horiz-adv-x="1835" d="M104 438q0 198 137.5 334.5t336.5 136.5q109 0 196 -43q70 -34 111.5 -74t95.5 -126q51 86 76 108q52 63 144.5 101t189.5 38q90 0 163 -33t119 -94q29 -38 44 -77.5t30 -116.5h-680q-25 -114 -25 -184q0 -170 102.5 -285t256.5 -115q117 0 196 55.5t113 161.5h37 q-86 -258 -373 -258q-117 0 -221 49q-66 32 -102 72t-74 123q-14 -28 -55 -86q-57 -72 -152.5 -114t-202.5 -42q-200 0 -331.5 133.5t-131.5 335.5zM211 440q0 -180 106.5 -307t255.5 -127q151 0 254 125.5t103 308.5q0 186 -102 312.5t-253 126.5q-99 0 -183 -59 t-132.5 -160t-48.5 -220zM1075 623h559q-6 58 -15 88t-30 61q-31 51 -84 79t-116 28q-115 0 -207 -86q-34 -34 -56 -69t-51 -101z" />
<glyph unicode="&#x160;" horiz-adv-x="1099" d="M111 438l28 2q11 -90 21 -133.5t33 -93.5q43 -100 133.5 -154.5t212.5 -54.5q153 0 251.5 96t98.5 246q0 120 -78 201q-82 82 -313 203q-151 79 -200.5 113.5t-94.5 90.5q-68 87 -68 199q0 152 109.5 249t281.5 97q98 0 185 -41l59 -26q24 -9 43 -9q25 0 37.5 16t17.5 52 h29l16 -434l-28 -2q-9 131 -31 200q-29 98 -116 153.5t-210 55.5q-130 0 -210 -71.5t-80 -188.5q0 -113 71 -178q40 -36 85.5 -65t199.5 -113q130 -71 196 -117.5t115 -101.5q84 -90 84 -236q0 -186 -122.5 -307t-311.5 -121q-64 0 -134 18.5t-120 47.5q-54 30 -78 30 q-27 0 -42 -16.5t-25 -60.5h-29zM328 1980l28 21l193 -221l192 221l29 -21l-141 -268q-5 -10 -11 -20t-9.5 -16t-4.5 -7q-18 -29 -55 -29q-13 0 -27 7q-15 5 -28 22q-8 8 -25 43z" />
<glyph unicode="&#x161;" horiz-adv-x="733" d="M59 279h19q19 -95 43 -138q35 -63 105 -102t145 -39q88 0 141 45.5t53 120.5q0 68 -53 127q-23 25 -46.5 43t-94.5 65l-113 74q-82 55 -112.5 99t-30.5 106q0 101 68.5 165t174.5 64q64 0 131 -28l29 -13q12 -6 29 -6q20 0 29 10.5t10 36.5h18l17 -282h-21 q-10 71 -35 129q-27 55 -80.5 89t-117.5 34q-72 0 -118 -41t-46 -105q0 -80 59 -127q67 -59 182 -135q33 -23 86 -55q10 -7 64 -54q65 -65 65 -153q0 -105 -79 -173.5t-201 -68.5q-47 0 -79.5 9.5t-102.5 41.5q-30 15 -50 15q-52 0 -55 -62h-18zM147 1346l29 20l193 -221 l192 221l29 -20l-141 -269q-5 -10 -11 -20t-9.5 -16t-4.5 -7q-17 -28 -55 -28q-15 0 -27 6q-17 6 -29 22q-6 6 -24 43z" />
<glyph unicode="&#x178;" horiz-adv-x="1226" d="M-104 1446l2 31h575l2 -31q-101 -3 -143.5 -24.5t-42.5 -67.5q0 -25 15 -56.5t67 -117.5l301 -496l303 496q33 54 53.5 105t20.5 75q0 43 -37 61q-25 14 -54.5 19t-99.5 6v31h473v-31q-53 -1 -88 -15.5t-76 -48.5q-26 -23 -47 -49q-17 -17 -47 -57q-6 -14 -59 -96 l-334 -537v-348v-21q0 -139 37.5 -190.5t140.5 -54.5l-2 -29h-489v29q59 1 93 15.5t56 47.5q29 47 29 109q2 53 2 268v170l-332 541q-56 90 -59 96q-50 69 -95 106q-41 35 -76 49t-89 15zM430 1726q0 35 25 58.5t59 23.5t58 -23.5t24 -58.5t-25.5 -59.5t-60.5 -24.5 q-33 0 -56.5 24.5t-23.5 59.5zM731 1726q0 35 24.5 58.5t57.5 23.5q35 0 58.5 -24t23.5 -58q0 -35 -23 -59.5t-57 -24.5t-59 24.5t-25 59.5z" />
<glyph unicode="&#x17d;" horiz-adv-x="1185" d="M-16 0l970 1444h-315q-242 0 -367 -47q-78 -29 -131 -94q-39 -47 -55 -90t-27 -128l-30 2l22 390h1077l-962 -1446h369q152 0 246 13.5t163 45.5q84 38 154 133q45 60 63 108t25 136h33l-25 -467h-1210zM401 1980l29 21l193 -221l192 221l29 -21l-142 -268 q-5 -10 -10.5 -20t-9 -16t-4.5 -7q-18 -29 -55 -29q-13 0 -27 7q-17 6 -29 22q-6 6 -24 43z" />
<glyph unicode="&#x17e;" horiz-adv-x="888" d="M16 0l639 862h-247q-72 0 -113 -10.5t-76 -36.5q-77 -57 -106 -182l-21 2l37 250h678l-641 -860h299q167 0 246 59t110 207h23l-31 -291h-797zM264 1346l29 20l192 -221l193 221l29 -20l-142 -269q-5 -10 -10.5 -20t-9 -16t-4.5 -7q-17 -28 -56 -28q-14 0 -26 6 q-17 6 -29 22q-6 6 -24 43z" />
<glyph unicode="&#x192;" horiz-adv-x="729" d="M-322 -479q0 32 23.5 54t56.5 22q62 0 76 -62q11 -55 27 -76q18 -37 78 -37q66 0 112 64q26 36 39.5 75t22.5 111l96 777l53 405h-156l7 37h153l31 256q11 95 31.5 153.5t60.5 102.5q81 96 234 96q101 0 159 -33.5t58 -91.5q0 -36 -21 -61t-53 -25q-26 0 -47.5 19 t-30.5 51l-10 39q-9 33 -32 52t-54 19q-34 0 -69 -17t-54 -42q-41 -57 -59 -190l-43 -328h233l-4 -35h-231q-20 -180 -50 -410q-4 -33 -16 -167t-29 -266t-43 -269l-30 -158q-15 -79 -104 -136.5t-197 -57.5q-98 0 -158 35.5t-60 93.5z" />
<glyph unicode="&#x2c6;" horiz-adv-x="442" d="M0 1032l141 266q23 41 25 43q16 29 55 29q11 0 27 -4q20 -8 28 -25q0 -1 4 -7t10 -15.5t11 -20.5l141 -266l-28 -20l-193 219l-192 -219z" />
<glyph unicode="&#x2c7;" horiz-adv-x="442" d="M0 1346l29 20l192 -221l193 221l28 -20l-141 -269q-5 -10 -11 -20t-9.5 -16t-4.5 -7q-18 -28 -55 -28q-14 0 -26 6q-17 6 -29 22q-8 8 -25 43z" />
<glyph unicode="&#x2d8;" horiz-adv-x="446" d="M0 1346l35 18q132 -182 188 -182q25 0 75.5 48t113.5 134l34 -18l-143 -271l-22 -39q-12 -26 -58 -26q-45 0 -57 26l-23 39z" />
<glyph unicode="&#x2d9;" horiz-adv-x="167" d="M0 1251q0 35 25.5 60.5t60.5 25.5t58.5 -25t23.5 -61q0 -34 -24.5 -58t-59.5 -24q-34 0 -59 24t-25 58z" />
<glyph unicode="&#x2da;" horiz-adv-x="411" d="M59 1124q0 62 43.5 106t104.5 44q59 0 102 -44.5t43 -107.5q0 -60 -42 -101.5t-103 -41.5t-104.5 42.5t-43.5 102.5zM106 1124q0 -39 29 -66.5t68 -27.5q41 0 70.5 27t29.5 67q0 41 -29.5 71t-70.5 30q-39 0 -68 -30t-29 -71z" />
<glyph unicode="&#x2dc;" horiz-adv-x="542" d="M0 1038q24 111 119 111q46 0 94 -14l72 -21l47 -12q39 -10 61 -10q79 0 105 61l45 -23q-29 -69 -57 -93.5t-76 -24.5h-23q-33 0 -68 14q-2 1 -10 2t-19 3.5t-24 6.5q-129 33 -149 33q-27 0 -42.5 -12.5t-25.5 -42.5z" />
<glyph unicode="&#x2dd;" horiz-adv-x="376" d="M133 1026l137 268l21 49q4 12 17.5 19.5t27.5 7.5q22 0 36.5 -14.5t14.5 -36.5q0 -14 -8 -25l-31 -41l-182 -245z" />
<glyph unicode="&#x3c0;" horiz-adv-x="1216" d="M35 215v39h49q3 -60 20 -82q19 -25 56 -25q85 0 119 127q34 124 40 502h-45q-77 0 -122 -26q-44 -27 -56 -82h-47q6 136 78 196q71 56 248 56q4 0 209 -7q172 -6 311 -6q65 0 100 15q32 14 35 43v2h47v-6q0 -103 -49 -152q-44 -44 -151 -47h-29q-13 0 -21 2 q0 -3 -1 -19.5t-1 -29.5q-6 -145 -6 -307v-82q0 -169 17 -213q19 -45 63 -45q54 -3 84 59q29 60 35 182h51v-10q0 -166 -53 -242q-53 -77 -164 -77q-116 -3 -164 79q-47 78 -47 338q0 72 2 160q3 133 6 213q-57 0 -102 2q-32 0 -158 4q0 -480 -47 -635q-46 -158 -164 -161 q-70 0 -108 59q-35 59 -35 176z" />
<glyph unicode="&#x2013;" d="M102 719v104h883v-104h-883z" />
<glyph unicode="&#x2014;" horiz-adv-x="2039" d="M61 705v65h1917v-65h-1917z" />
<glyph unicode="&#x2018;" horiz-adv-x="303" d="M57 1165q0 41 17 101q13 52 32 92q25 48 52 76.5t84 66.5l2 -26q-43 -41 -63 -67.5t-38 -68.5q-25 -66 -34 -141q32 4 36 4q34 0 56 -23t22 -57t-23.5 -57t-58.5 -23q-37 0 -60.5 34t-23.5 89z" />
<glyph unicode="&#x2019;" horiz-adv-x="303" d="M59 1069q41 40 61 66t40 69q25 59 35 142q-35 -5 -37 -5q-34 0 -57 23t-23 57t24 57t58 23q38 0 62 -34t24 -87q0 -42 -17 -102q-11 -46 -32 -92q-25 -48 -52.5 -77t-83.5 -67z" />
<glyph unicode="&#x201a;" horiz-adv-x="303" d="M59 -291q41 39 60.5 66.5t40.5 70.5q25 60 35 144q-14 -6 -37 -6q-33 0 -56.5 23t-23.5 54q0 35 24 58.5t58 23.5q38 0 62 -33.5t24 -86.5q0 -45 -17 -105q-12 -47 -32 -88q-24 -50 -51 -79t-85 -68z" />
<glyph unicode="&#x201c;" horiz-adv-x="552" d="M57 1165q0 41 17 101q13 52 32 92q25 48 52 76.5t84 66.5l2 -26q-43 -41 -63 -67.5t-38 -68.5q-25 -66 -34 -141q32 4 36 4q34 0 56 -23t22 -57t-23.5 -57t-58.5 -23q-37 0 -60.5 34t-23.5 89zM309 1165q0 35 15 101q11 43 34 92q23 47 50 76t84 67l4 -26 q-42 -39 -62.5 -66t-40.5 -70q-22 -63 -33 -141q28 4 37 4q32 0 55 -23t23 -57t-24 -57t-58 -23q-37 0 -60.5 34t-23.5 89z" />
<glyph unicode="&#x201d;" horiz-adv-x="552" d="M59 1069q41 40 61 66t40 69q25 59 35 142q-35 -5 -37 -5q-34 0 -57 23t-23 57t24 57t58 23q38 0 62 -34t24 -87q0 -42 -17 -102q-11 -46 -32 -92q-25 -48 -52.5 -77t-83.5 -67zM309 1069q43 42 63 68t38 67q24 56 34 142q-30 -5 -36 -5q-32 0 -55 23t-23 57t23.5 57 t58.5 23q37 0 60.5 -34t23.5 -87q0 -50 -15 -102q-8 -31 -35 -92q-25 -48 -52 -77.5t-83 -66.5z" />
<glyph unicode="&#x201e;" horiz-adv-x="552" d="M59 -291q41 39 60.5 66.5t40.5 70.5q25 60 35 144q-14 -6 -37 -6q-33 0 -56.5 23t-23.5 54q0 35 24 58.5t58 23.5q38 0 62 -33.5t24 -86.5q0 -45 -17 -105q-12 -47 -32 -88q-24 -50 -51 -79t-85 -68zM309 -291q42 41 62.5 68t38.5 69q24 56 34 144q-12 -6 -36 -6 q-32 0 -55 23t-23 54q0 35 23.5 58.5t58.5 23.5q37 0 60.5 -33.5t23.5 -86.5q0 -39 -15 -105q-15 -47 -35 -88q-25 -51 -51.5 -80t-83.5 -67z" />
<glyph unicode="&#x2020;" horiz-adv-x="1363" d="M45 899v31l164 63l459 -61l-72 418l70 155h32l70 -155l-70 -418l457 61l164 -63v-31l-164 -68l-461 68l74 -387l-66 -928h-38l-68 928l72 387l-457 -68z" />
<glyph unicode="&#x2021;" horiz-adv-x="1370" d="M45 100v31l166 68l465 -70l-78 383l80 383l-465 -57l-166 61v35l166 67l467 -71l-76 424l76 151h31l65 -151l-71 -426l458 65l164 -67v-31l-170 -59l-452 61l65 -381l-68 -387l455 66l166 -68v-29l-168 -61l-453 61l66 -415l-66 -156h-34l-74 156l82 417l-467 -63z" />
<glyph unicode="&#x2022;" horiz-adv-x="335" d="M88 432q0 32 25 56t57 24q33 -1 55.5 -24t22.5 -54q0 -35 -22.5 -58.5t-55.5 -23.5q-34 0 -58 23t-24 57z" />
<glyph unicode="&#x2026;" horiz-adv-x="2039" d="M268 70q0 35 25.5 60.5t60.5 25.5q37 0 62 -25q25 -26 25 -61t-25 -60q-26 -26 -62 -26q-35 0 -60.5 25.5t-25.5 60.5zM950 70q0 35 25.5 60.5t60.5 25.5q37 0 62 -25q25 -26 25 -61t-25 -60q-26 -26 -62 -26q-35 0 -60.5 25.5t-25.5 60.5zM1620 70q0 35 25.5 60.5 t60.5 25.5t60.5 -25.5t25.5 -60.5t-25.5 -60.5t-60.5 -25.5t-60.5 25.5t-25.5 60.5z" />
<glyph unicode="&#x2030;" horiz-adv-x="2035" d="M45 4l1247 1495l43 -37l-1253 -1491zM121 1163q0 160 85.5 254t231.5 94t232 -94t86 -254q0 -162 -85.5 -256t-232.5 -94t-232 94t-85 256zM236 1163q0 -66 9 -132t23 -97q19 -41 67 -68.5t103 -27.5t101.5 26.5t66.5 69.5q14 31 23.5 97t9.5 132q0 64 -9.5 130.5 t-23.5 97.5q-21 42 -67 69t-101 27t-102.5 -26.5t-67.5 -69.5q-13 -31 -22.5 -97t-9.5 -131zM629 309q0 157 84.5 250.5t226.5 93.5q143 0 228 -93.5t85 -250.5q0 -155 -85.5 -248.5t-227.5 -93.5t-226.5 93t-84.5 249zM745 309q0 -160 48 -237.5t145 -77.5 q102 0 150.5 76.5t48.5 238.5q0 316 -193 316q-102 0 -150.5 -77t-48.5 -239zM1364 309q0 157 85 250.5t226 93.5q143 0 229.5 -94t86.5 -250q0 -155 -86.5 -248.5t-229.5 -93.5q-141 0 -226 93.5t-85 248.5zM1481 309q0 -161 47.5 -238t146.5 -77q102 0 150.5 76.5 t48.5 238.5q0 161 -48.5 238.5t-148.5 77.5t-148 -77t-48 -239z" />
<glyph unicode="&#x2039;" horiz-adv-x="438" d="M59 432l320 430v-61l-199 -371l197 -360v-68z" />
<glyph unicode="&#x203a;" horiz-adv-x="438" d="M59 2v59l203 373l-201 361v67l318 -430z" />
<glyph unicode="&#x20ac;" horiz-adv-x="1617" d="M117 662l18 45h101q1 10 2 30.5t2 30.5h-123l18 45h107q34 313 226.5 499.5t487.5 186.5q83 0 163.5 -17t193.5 -59q52 -18 69 -18q64 0 64 86h31l12 -498h-27q-50 232 -172 351.5t-309 119.5q-238 0 -402.5 -180.5t-195.5 -470.5h805l-19 -45h-790q-1 -10 -2 -30.5 t-2 -30.5h770l-21 -45h-747q8 -292 170 -471t420 -179q206 0 350 119q67 55 99 119t52 186l29 -4q-9 -81 -19.5 -122t-33.5 -85q-61 -126 -196.5 -194t-323.5 -68q-306 0 -492.5 190t-193.5 509h-121z" />
<glyph unicode="&#x2122;" horiz-adv-x="1640" d="M113 1389v86h438v-86h-172v-652h-96v652h-170zM526 737l152 764h20l238 -518l14 -29l2 -8q1 -4 5 -17.5t6 -25.5t2 -24q3 42 14 69l4 10l10 25l240 518h20l152 -764h-100l-80 449l-4 31l-2 4q-3 34 2 61q-2 -9 -9 -29.5t-10 -31.5l-6 -21l-4 -8l-219 -477h-15l-219 477 l-4 12l-8 19q-11 37 -16 59q4 -40 2 -61l-2 -4l-4 -31l-80 -449h-101z" />
<glyph unicode="&#x2126;" horiz-adv-x="1699" d="M102 836q0 248 189 397q190 149 495 149q306 0 496 -149q185 -148 188 -397q0 -207 -133 -349q-129 -135 -374 -182v-121h251q100 0 138 35q37 37 43 141h47v-360h-557v369q158 30 252 155q92 127 92 312q0 216 -119 344q-123 129 -324 129t-321 -129 q-121 -127 -121 -344q0 -188 90 -312q86 -120 254 -155v-369h-557v360h47q6 -104 41 -139q37 -37 139 -37h252v121q-241 43 -374 182q-134 140 -134 349z" />
<glyph unicode="&#x2202;" horiz-adv-x="1093" d="M127 358q0 168 109 295q107 122 256 125q91 0 149 -47q57 -43 92 -143q13 52 19 121q6 74 6 182q0 176 -33 258q-31 84 -96 84q-37 0 -103 -72q-62 -68 -114 -71q-35 0 -56 18q-16 12 -20 47q0 61 59 102q61 43 150 43q158 3 254 -147q94 -151 94 -401q0 -334 -131 -557 q-133 -222 -324 -222q-140 0 -225 105q-83 102 -86 280zM279 262q0 -118 45 -180q43 -64 127 -64q108 0 178 125q66 123 69 316q0 120 -45 190q-45 66 -129 66q-108 0 -178 -123q-64 -116 -67 -330z" />
<glyph unicode="&#x2206;" horiz-adv-x="1355" d="M43 0l565 1376h45l566 -1376h-1176zM188 92h764l-381 940z" />
<glyph unicode="&#x220f;" horiz-adv-x="1822" d="M61 -360h181v1802h-181v82h1571v-82h-180v-1802h180v-82h-540v82h172v1802h-834v-1802h172v-82h-541v82z" />
<glyph unicode="&#x2211;" horiz-adv-x="1579" d="M74 -442l796 913l-768 1053h942q132 0 168 -31q36 -26 54 -176l30 -264h-90q-65 217 -174 295q-107 79 -346 79h-270l645 -882l-705 -807h383q250 0 353 63q104 66 170 240h92l-62 -266l-4 -15q-30 -103 -83.5 -152.5t-143.5 -49.5h-987z" />
<glyph unicode="&#x2215;" horiz-adv-x="397" d="M-88 -283l534 2012l54 30l-535 -2013z" />
<glyph unicode="&#x221a;" horiz-adv-x="1216" d="M-29 877l283 98l256 -709l516 1395h191v-96h-117l-594 -1606h-66l-319 883l-125 -45z" />
<glyph unicode="&#x221e;" horiz-adv-x="1579" d="M109 610q0 169 84 275q81 103 215 106q97 0 170 -61q71 -59 133 -193q64 127 143 191q78 63 178 63q130 0 225 -108q93 -110 93 -269q0 -169 -82 -276q-82 -105 -215 -105q-98 0 -172 62q-71 59 -131 192q-65 -125 -148 -192q-77 -62 -174 -62q-132 0 -225 109 q-94 111 -94 268zM160 604q0 -112 61 -182t156 -70q81 0 149 68q64 64 150 250q-54 94 -121 141q-67 49 -156 49q-103 0 -172 -72q-64 -67 -67 -184zM784 555q50 -95 119 -143q67 -47 158 -47q104 -3 172 71q64 67 67 185q0 115 -61 182q-60 69 -164 69q-77 0 -147 -73 q-69 -75 -144 -244z" />
<glyph unicode="&#x222b;" horiz-adv-x="606" d="M-184 -233q0 45 26 71q25 25 74 25q60 0 90 -64q29 -62 62 -65q95 0 116 663q1 29 2 89t2 83q9 275 31 465q24 179 66 277q48 111 125 176q78 63 170 63q73 0 118 -39q44 -35 47 -98q0 -43 -26 -72q-26 -26 -74 -26q-60 -3 -90 65q-31 66 -59 66q-102 0 -117 -635 q-3 -132 -6 -201q-9 -287 -33 -469q-25 -183 -64 -272q-49 -114 -126 -176q-80 -64 -168 -64q-71 0 -119 39q-44 35 -47 99z" />
<glyph unicode="&#x2248;" horiz-adv-x="1216" d="M31 205v157q108 67 176 91q79 28 153 28q85 3 236 -49q132 -45 203 -49q55 0 125 31q66 28 170 106v-160q-86 -59 -160 -86q-59 -22 -146 -26q-67 0 -213 49q-146 47 -237 47q-56 0 -129 -31q-64 -27 -178 -108zM31 449v157q99 63 172 88q85 29 155 29q98 0 238 -47 q152 -49 203 -49q55 0 125 28q59 26 170 107v-158q-84 -57 -162 -86q-68 -26 -144 -26q-70 0 -213 49q-146 47 -227 47q-70 0 -135 -29q-60 -24 -182 -110z" />
<glyph unicode="&#x2260;" horiz-adv-x="1216" d="M92 279v131h307l150 147h-457v131h576l241 242l90 -90l-153 -152h186v-131h-305l-149 -147h454v-131h-575l-242 -242l-88 90l152 152h-187z" />
<glyph unicode="&#x2264;" horiz-adv-x="1216" d="M88 37v139h948v-139h-948zM90 508v133l946 297v-143l-704 -222l704 -219v-143z" />
<glyph unicode="&#x2265;" horiz-adv-x="1216" d="M88 37v139h948v-139h-948zM88 211v143l705 219l-705 222v143l948 -297v-133z" />
<glyph unicode="&#x25ca;" horiz-adv-x="1093" d="M6 592l500 1061l500 -1061l-500 -1069zM121 592l385 -825l385 825l-385 817z" />
<glyph unicode="&#xe000;" horiz-adv-x="880" d="M0 0v881h881v-881h-881z" />
<glyph unicode="&#xec00;" horiz-adv-x="376" d="M-45 1092q0 35 25 58.5t59 23.5t58 -23.5t24 -58.5t-25.5 -59.5t-60.5 -24.5q-33 0 -56.5 24.5t-23.5 59.5zM256 1092q0 35 24.5 58.5t57.5 23.5q35 0 58.5 -24t23.5 -58q0 -35 -23 -59.5t-57 -24.5t-59 24.5t-25 59.5z" />
<glyph unicode="&#xec01;" horiz-adv-x="376" d="M-45 1726q0 35 25 58.5t59 23.5t58 -23.5t24 -58.5t-25.5 -59.5t-60.5 -24.5q-33 0 -56.5 24.5t-23.5 59.5zM256 1726q0 35 24.5 58.5t57.5 23.5q35 0 58.5 -24t23.5 -58q0 -35 -23 -59.5t-57 -24.5t-59 24.5t-25 59.5z" />
<glyph unicode="&#xec04;" horiz-adv-x="1617" d="M117 662l18 45h101q1 31 3 61h-122l18 45h107q23 207 116.5 362t247.5 239.5t350 84.5q83 0 163.5 -17t193.5 -59q52 -18 69 -18q64 0 64 86h31l12 -498h-27q-50 232 -172 351.5t-309 119.5q-118 0 -222 -47.5t-182 -133t-129 -206.5t-66 -264h806l-19 -45h-791 q-2 -30 -3 -61h770l-21 -45h-749q6 -193 81.5 -341t208 -228.5t302.5 -80.5q206 0 350 119q67 55 99 119t52 186l29 -4q-9 -81 -19.5 -122t-33.5 -85q-61 -126 -196.5 -194t-323.5 -68q-203 0 -357 85.5t-239.5 244t-91.5 369.5h-119z" />
<glyph unicode="&#xefed;" horiz-adv-x="167" d="M0 1804q0 35 25.5 60.5t60.5 25.5t58.5 -25t23.5 -61q0 -34 -24.5 -58t-59.5 -24q-34 0 -59 24t-25 58z" />
<glyph unicode="&#xefee;" horiz-adv-x="446" d="M0 1898l35 19q132 -182 188 -182q25 0 75.5 48t113.5 134l34 -19l-143 -270l-22 -39q-12 -26 -58 -26q-45 0 -57 26l-23 39z" />
<glyph unicode="&#xeff3;" horiz-adv-x="411" d="M59 1677q0 62 43.5 106t104.5 44q59 0 102 -44.5t43 -107.5q0 -60 -42 -101.5t-103 -41.5t-104.5 42.5t-43.5 102.5zM106 1677q0 -39 29 -66.5t68 -27.5q41 0 70.5 27t29.5 67q0 41 -29.5 71t-70.5 30q-39 0 -68 -30t-29 -71z" />
<glyph unicode="&#xeff5;" horiz-adv-x="542" d="M0 1673q24 111 119 111q43 0 94 -15l72 -20l47 -12q43 -11 61 -11q79 0 105 62l45 -23q-29 -69 -57 -93.5t-76 -24.5h-23q-33 0 -68 14q-2 1 -10 2t-19 3.5t-24 6.5q-129 33 -149 33q-27 0 -42.5 -12.5t-25.5 -42.5z" />
<glyph unicode="&#xeff7;" horiz-adv-x="442" d="M0 1667l141 266q23 41 25 43q16 29 55 29q11 0 27 -4q20 -8 28 -25q0 -1 4 -7t10 -15.5t11 -20.5l141 -266l-28 -20l-193 219l-192 -219z" />
<glyph unicode="&#xf6c9;" horiz-adv-x="376" d="M133 1661l137 268l21 49q4 12 17.5 19.5t27.5 7.5q22 0 36.5 -14.5t14.5 -36.5q0 -14 -8 -25l-31 -41l-182 -246z" />
<glyph unicode="&#xf6ca;" horiz-adv-x="442" d="M0 1980l29 21l192 -221l193 221l28 -21l-141 -268q-5 -10 -11 -20t-9.5 -16t-4.5 -7q-18 -29 -55 -29q-12 0 -26 7q-17 6 -29 22q-8 8 -25 43z" />
<glyph unicode="&#xf6cb;" horiz-adv-x="444" d="M-45 1614q0 40 27 69t65 29q40 0 69 -28t29 -68t-28 -67t-68 -27t-67 27t-27 65zM297 1616q0 39 28.5 67.5t67.5 28.5q40 0 67 -28t27 -68t-27.5 -67t-68.5 -27q-39 0 -66.5 27.5t-27.5 66.5z" />
<glyph unicode="&#xf6ce;" horiz-adv-x="421" d="M31 1954q0 10 4 18q19 31 47 31q20 0 31 -11t32 -50l146 -281l-35 -21l-199 261q-26 33 -26 53z" />
<glyph unicode="&#xf6cf;" horiz-adv-x="376" d="M133 1579l137 268l21 49q4 12 17.5 19.5t27.5 7.5q22 0 36.5 -14.5t14.5 -36.5q0 -14 -8 -25l-31 -41l-182 -245z" />
<glyph unicode="&#xf6d0;" horiz-adv-x="524" d="M0 1559v96h524v-96h-524z" />
<glyph unicode="&#xf6dc;" horiz-adv-x="714" d="M88 0v29q137 3 186 61q43 55 43 205v442v627q-85 -10 -133 -10q-42 0 -69 2l2 26q114 8 165.5 24.5t143.5 76.5l6 -746v-442q0 -94 7 -132.5t30 -70.5q26 -34 61 -47t109 -16v-29h-551z" />
<glyph unicode="&#xf8ff;" horiz-adv-x="1748" d="M113 737q-3 217 125 357q127 139 323 139q73 0 156 -35q87 -35 123 -35q38 0 121 35q90 35 153 35q114 0 199 -39q89 -42 160 -125q-100 -63 -152 -145q-49 -79 -49 -183q-3 -111 59 -200q61 -89 174 -138q-116 -251 -205 -344q-94 -94 -204 -94q-52 0 -131 33t-123 33 q-49 0 -131 -33t-127 -33q-69 0 -129 43q-57 38 -129 133q-96 130 -158 295q-55 155 -55 301zM834 1231v22q0 125 96 230q91 104 235 131v-25q0 -19 2 -37q0 -131 -104 -235q-103 -103 -203 -103h-8h-6q-4 0 -10 3q0 8 -2 14z" />
<glyph horiz-adv-x="1669" d="M117 498l61 129h146q-2 27 -2 63q0 39 2 66h-207l61 129h170q56 240 244.5 379t445.5 139q148 0 287.5 -58t222.5 -155l-59 -125q-78 96 -200 152.5t-271 56.5q-188 0 -332 -110t-192 -279h911l-62 -129h-878q-4 -54 -4 -68q0 -15 4 -61h819l-61 -129h-729 q56 -182 201 -288t343 -106q136 0 254.5 54.5t196.5 148.5v-174q-83 -67 -207 -112.5t-254 -45.5q-249 0 -436.5 141.5t-243.5 381.5h-231z" />
<glyph horiz-adv-x="1574" />
<glyph horiz-adv-x="593" />
<glyph horiz-adv-x="389" d="M29 1892q0 24 15 40t38 16q18 0 28 -10.5t31 -49.5l148 -284l-37 -19l-199 266q-24 32 -24 41z" />
</font>
</defs>
</svg>
