<?xml version="1.0" standalone="no"?>
<!DOCTYPE svg PUBLIC "-//W3C//DTD SVG 1.1//EN" "http://www.w3.org/Graphics/SVG/1.1/DTD/svg11.dtd" >
<svg xmlns="http://www.w3.org/2000/svg">
<metadata></metadata>
<defs>
<font id="Webfont" horiz-adv-x="1144" >
<font-face units-per-em="2048" ascent="1638" descent="-410" />
<missing-glyph horiz-adv-x="593" />
<glyph horiz-adv-x="0" />
<glyph horiz-adv-x="0" />
<glyph unicode="&#xd;" horiz-adv-x="593" />
<glyph unicode=" "  horiz-adv-x="593" />
<glyph unicode="&#x09;" horiz-adv-x="593" />
<glyph unicode="&#xa0;" horiz-adv-x="593" />
<glyph unicode="!" horiz-adv-x="495" d="M129 1399q0 49 36.5 75.5t102.5 26.5q138 0 138 -108v-9l-15 -94l-90 -899h-68l-94 899l-8 94q0 2 -1 7.5t-1 7.5zM137 102q0 53 37.5 90t91.5 37q52 0 88.5 -37t36.5 -90q0 -54 -37 -90.5t-90 -36.5t-90 36.5t-37 90.5z" />
<glyph unicode="&#x22;" horiz-adv-x="729" d="M63 948q48 38 72 66t53 76q29 50 40 80t18 85q-31 -8 -53 -8q-51 0 -87 36.5t-36 88.5t37 89.5t90 37.5q57 0 95 -48.5t38 -119.5q0 -73 -37 -157q-23 -54 -55 -103q-36 -51 -70 -82.5t-102 -75.5zM403 948q45 38 68.5 66t52.5 76q29 47 40 77.5t18 87.5q-24 -8 -52 -8 q-51 0 -86.5 36.5t-35.5 88.5q0 53 37.5 90t91.5 37t92.5 -49t38.5 -119q0 -73 -37 -157q-21 -56 -56 -103q-36 -52 -69 -83t-100 -75z" />
<glyph unicode="#" horiz-adv-x="1294" d="M88 451l23 110h237l74 352h-236l23 111h237l91 428h110l-90 -428h205l92 428h111l-93 -428h238l-25 -111h-235l-76 -352h238l-25 -110h-235l-90 -428h-111l90 428h-207l-90 -428h-111l91 428h-236zM459 561h205l75 352h-207z" />
<glyph unicode="$" horiz-adv-x="1150" d="M94 475h37q3 -18 6.5 -47t5.5 -39q30 -158 125 -250q105 -97 277 -106v639q-17 9 -46 24.5t-38 20.5q-115 59 -161 92t-81 82q-74 96 -74 227q0 167 106 266t292 107v131h69v-135h37q55 0 121 -31l70 -33q13 -8 37 -8q53 0 59 82h37l20 -469l-35 -2q-2 20 -6.5 46.5 t-5.5 31.5q-15 86 -37.5 138t-62.5 93q-90 90 -201 90h-33v-499q64 -37 78 -47q145 -88 197 -126.5t96 -93.5q76 -91 76 -239q0 -194 -127 -318q-59 -58 -130.5 -86.5t-193.5 -46.5v-139h-67v137q-92 10 -142.5 25t-105.5 45q-54 33 -76 33q-55 0 -63 -86h-37zM356 1210 q0 -72 42 -124.5t147 -114.5v442q-189 -46 -189 -203zM610 49q80 15 119 37.5t72 73.5q51 74 51 168q0 96 -61 166q-31 37 -67.5 63.5t-113.5 69.5v-578z" />
<glyph unicode="%" horiz-adv-x="1402" d="M51 29l1233 1468l70 -59l-1235 -1467zM59 1143q0 161 95 261.5t249 100.5q152 0 247 -100.5t95 -261.5q0 -160 -95 -260.5t-247 -100.5q-153 0 -248.5 100.5t-95.5 260.5zM248 1143l4 -117q3 -101 39.5 -149t111.5 -48q45 0 83 24t53 60q18 70 18 230q0 159 -18 229 q-13 37 -51.5 60.5t-84.5 23.5q-75 0 -111.5 -46.5t-39.5 -147.5zM659 328q0 156 96 257t244 101t244 -101t96 -257q0 -157 -96 -258t-244 -101q-149 0 -244.5 101t-95.5 258zM848 328q0 -166 35 -238t116 -72q83 0 117.5 71.5t34.5 238.5t-34.5 238t-117.5 71 q-82 0 -116.5 -71.5t-34.5 -237.5z" />
<glyph unicode="&#x26;" horiz-adv-x="1599" d="M94 367q0 183 156 327q42 39 82 67.5t117 74.5q-72 109 -95 147q-73 126 -73 219q0 123 103 209t251 86q134 0 222.5 -75t88.5 -189q0 -116 -106 -213q-38 -35 -71 -56.5t-97 -54.5l342 -487q96 199 96 315q0 63 -34 92.5t-111 32.5v35h446v-39q-45 -3 -69 -10.5 t-54 -26.5q-39 -28 -65 -69t-56 -121q-54 -143 -110 -269l90 -122q62 -85 100 -121q62 -53 125 -53q133 0 154 147h37q-6 -114 -82 -180t-201 -66q-198 0 -354 203q-41 -54 -70 -80.5t-76 -54.5q-117 -66 -252 -66q-187 0 -310.5 113.5t-123.5 284.5zM305 449 q0 -153 98 -265t230 -112q52 0 105.5 22.5t92.5 59.5q32 28 60 61l-410 580q-56 -41 -81 -70t-50 -82q-45 -102 -45 -194zM475 1290q0 -56 38 -133t130 -205q42 30 62.5 52t39.5 57q43 76 43 174q0 95 -43 151t-116 56q-66 0 -110 -43.5t-44 -108.5z" />
<glyph unicode="'" horiz-adv-x="389" d="M63 948q48 38 72 66t53 76q29 50 40 80t18 85q-31 -8 -53 -8q-51 0 -87 36.5t-36 88.5t37 89.5t90 37.5q57 0 95 -48.5t38 -119.5q0 -73 -37 -157q-23 -54 -55 -103q-36 -51 -70 -82.5t-102 -75.5z" />
<glyph unicode="(" horiz-adv-x="657" d="M131 612q0 157 29.5 282.5t97.5 256.5q69 131 139 218t213 216l29 -37q-114 -156 -163.5 -245t-88.5 -213q-70 -230 -70 -478q0 -245 70 -475q39 -124 89 -214t163 -245l-29 -36q-143 129 -213 216t-139 218t-98 255.5t-29 280.5z" />
<glyph unicode=")" horiz-adv-x="657" d="M18 -319q113 153 163 242.5t89 213.5q70 219 70 475q0 261 -70 480q-39 124 -89 213.5t-163 242.5l29 37q144 -130 213.5 -216t138.5 -216q68 -133 97.5 -257.5t29.5 -279.5q0 -158 -29 -282.5t-98 -257.5q-69 -130 -138.5 -216t-213.5 -216z" />
<glyph unicode="*" horiz-adv-x="913" d="M86 944q0 49 49 68q22 13 115 35l59 14q54 13 129 43q-57 26 -71 31q-11 5 -70 20q-32 8 -55 16q-58 14 -73 19t-36 18q-43 25 -43 68q0 27 22.5 45t53.5 18q34 0 80 -41l45 -41l45 -45q18 -18 113 -88q-3 44 -11 78q-1 3 -6 22.5t-10 37.5q-35 113 -35 168 q0 32 19.5 52.5t50.5 20.5t50 -20.5t19 -52.5q0 -56 -34 -168q-21 -74 -27 -138q83 58 113 88l45 45l45 41q28 25 43.5 33t36.5 8q34 0 54.5 -17.5t20.5 -45.5q0 -41 -41 -68q-41 -23 -108 -37q-40 -8 -56 -16q-66 -15 -143 -51q82 -32 129 -43l60 -14q89 -21 116 -35 q21 -9 34 -27t13 -39q0 -31 -19 -50t-48 -19q-35 0 -68.5 19.5t-79.5 68.5q-35 37 -48 49t-36.5 30t-62.5 41q8 -90 22 -124l21 -64q20 -61 20 -109q0 -77 -71 -77q-35 0 -54.5 20t-19.5 57q0 32 25 109l20 64q14 42 21 124q-55 -34 -79 -54t-69 -66q-79 -88 -145 -88 q-31 0 -50.5 19t-19.5 48z" />
<glyph unicode="+" d="M125 526v203h344v346h207v-346h344v-203h-342v-346h-211v346h-342z" />
<glyph unicode="," horiz-adv-x="389" d="M63 -319q51 41 75 67.5t50 71.5q28 48 39.5 80t18.5 88q-42 -11 -53 -11q-51 0 -87 37t-36 90q0 52 37 88.5t90 36.5q57 0 95 -48t38 -120q0 -69 -37 -153q-22 -54 -55 -105q-34 -51 -67.5 -81.5t-104.5 -75.5z" />
<glyph unicode="-" horiz-adv-x="710" d="M70 362v179h573v-179h-573z" />
<glyph unicode="." horiz-adv-x="382" d="M63 102q0 52 38 88.5t92 36.5t90 -36t36 -87q0 -54 -36.5 -91.5t-89.5 -37.5q-54 0 -92 37t-38 90z" />
<glyph unicode="/" horiz-adv-x="1347" d="M45 -10l1159 1495h101l-1160 -1495h-100z" />
<glyph unicode="0" d="M100 725q0 208 64 386t173.5 281t237.5 103q126 0 233.5 -105t170.5 -283.5t63 -387.5q0 -205 -62 -377t-170.5 -271.5t-238.5 -99.5t-238.5 100t-170.5 273t-62 381zM305 711q-13 -164 1.5 -297.5t52 -218t91.5 -130t119 -45.5q132 0 200.5 174.5t68.5 514.5 q0 236 -31 430q-25 142 -87 223.5t-145 81.5q-65 0 -110 -42t-75.5 -136.5t-48.5 -217t-34 -313.5z" />
<glyph unicode="1" d="M270 0v35q67 3 106.5 18.5t65.5 48.5q28 37 37 107q4 86 4 256q0 45 -1 136t-1 136v617q-87 -11 -125 -11h-71v31q143 12 210 31.5t191 85.5l4 -754v-442q0 -87 7.5 -122.5t29.5 -68.5q27 -37 61 -51.5t105 -17.5v-35h-623z" />
<glyph unicode="2" d="M90 0v33q17 16 41 37.5t39 35t25 23.5q82 77 183.5 188t156.5 181q120 157 196 315q66 135 66 279q0 153 -72 251.5t-186 98.5q-104 0 -177 -80t-73 -195q0 -116 68 -202t161 -86q11 0 35 6l10 -23q-47 -25 -75.5 -33t-65.5 -8q-119 0 -201 84t-82 207q0 161 127 274 t307 113q191 0 312 -114t121 -295q0 -124 -55.5 -238.5t-184.5 -259.5q-72 -81 -158 -160q-101 -96 -299 -242h359q149 0 222.5 52.5t108.5 183.5l31 -6l-92 -420h-848z" />
<glyph unicode="3" d="M98 281q0 104 61 165.5t177 73.5l8 -24q-121 -52 -121 -203q0 -113 75 -188.5t189 -75.5q138 0 223 114.5t85 300.5q0 124 -49 211.5t-117 87.5q-29 0 -82 -34q-53 -37 -103 -37q-38 0 -63 22t-25 54q0 36 29.5 58.5t75.5 22.5q25 0 37 -2l49 -10q4 0 13 -1t13 -1 q89 0 139 75t50 210q0 157 -65.5 251.5t-172.5 94.5q-88 0 -144 -54.5t-56 -140.5q0 -72 34 -119t86 -47q4 0 14 1t15 1l10 -24q-55 -14 -82 -14q-92 0 -151.5 52t-59.5 134q0 110 105.5 187t255.5 77q180 0 298 -105.5t118 -265.5q0 -129 -78 -214.5t-230 -120.5 q83 -12 127 -30t95 -61q133 -109 133 -280q0 -195 -146.5 -325t-367.5 -130q-179 0 -290.5 87.5t-111.5 226.5z" />
<glyph unicode="4" d="M88 356v62l647 1063h58v-1065h26q80 0 119 40t45 128h29v-394h-29q-5 58 -18 89q-36 77 -146 77h-26v-41q0 -116 8 -163q23 -111 162 -117v-35h-541l-2 35q54 3 84.5 18.5t52.5 50.5q19 30 27 70t8 121v31v30h-504zM158 418h434v723z" />
<glyph unicode="5" d="M76 264q0 54 27.5 87.5t72.5 33.5q51 0 78 -37t27 -106v-23q-2 -20 -2 -51q0 -69 48 -110.5t128 -41.5q144 0 243 146.5t99 357.5q0 156 -70 251t-184 95q-103 0 -164 -67q-24 -24 -38.5 -52.5t-29.5 -82.5l-61 14l182 788q55 -13 76 -16q121 -23 237 -23q62 0 117 9 q75 10 150 39q-18 -53 -37 -80t-53 -52q-101 -71 -260 -71q-81 0 -203 31l-111 -472q8 7 20 18t19.5 17.5t13.5 10.5q86 67 215 67q175 0 287.5 -118.5t112.5 -301.5q0 -155 -68.5 -282.5t-190 -200t-270.5 -72.5q-173 0 -292 86t-119 209z" />
<glyph unicode="6" d="M98 600q0 182 50.5 347.5t135.5 285.5t203 191t248 71q110 0 185 -48.5t75 -119.5q0 -44 -24 -71t-64 -27q-41 0 -66 24.5t-48 87.5q-20 57 -41 77t-58 20q-119 0 -220.5 -168.5t-147.5 -442.5q31 39 51 56q38 34 96 53.5t121 19.5q192 0 321 -141t129 -350 q0 -211 -134 -354.5t-330 -143.5q-218 0 -350 173t-132 460zM311 580q0 -254 74.5 -407t198.5 -153q107 0 181.5 119t74.5 291q0 190 -90.5 322.5t-219.5 132.5q-98 0 -158.5 -72.5t-60.5 -196.5v-36z" />
<glyph unicode="7" d="M115 1118l102 400h35q-2 -8 -2 -17q0 -26 45 -26l76 2h671l-528 -1356q-32 -83 -60.5 -110t-82.5 -27q-47 0 -78 28.5t-31 71.5q0 29 19 61l41 66l585 1077h-428q-88 0 -124.5 -4.5t-78.5 -19.5q-49 -20 -77 -54t-47 -96z" />
<glyph unicode="8" d="M109 360q0 170 137 283q39 33 79 55t117 52q-111 82 -141 111l-16 16q-117 111 -117 268t115 256.5t295 99.5q169 0 279 -93.5t110 -238.5q0 -121 -84 -217q-34 -38 -72 -65.5t-111 -65.5q98 -61 128.5 -82.5t70.5 -56.5q133 -115 133 -297q0 -186 -130 -302t-337 -116 q-203 0 -329.5 109t-126.5 284zM272 362q0 -142 88.5 -240.5t214.5 -98.5q117 0 185.5 76t68.5 204q0 99 -34 160q-29 57 -66.5 89t-177.5 122q-38 22 -66 41q-61 -47 -90 -74.5t-55 -65.5q-68 -100 -68 -213zM362 1206q0 -74 44 -147q29 -50 60.5 -78t117.5 -82 q26 -15 80 -53q52 48 76.5 81.5t45.5 82.5q29 68 29 143q0 126 -68 207.5t-174 81.5q-91 0 -151 -67.5t-60 -168.5z" />
<glyph unicode="9" d="M90 999q0 209 136 353.5t331 144.5q220 0 351.5 -173t131.5 -460q0 -245 -85.5 -451.5t-232.5 -326t-321 -119.5q-111 0 -185.5 48t-74.5 120q0 45 24.5 73t63.5 28q40 0 67 -26.5t50 -88.5q22 -56 41 -75t55 -19q120 0 221.5 168t147.5 440q-29 -36 -51 -55 q-37 -34 -94.5 -53t-120.5 -19q-195 0 -325 139.5t-130 351.5zM299 983q0 -171 92 -289.5t215 -118.5q106 0 162.5 80.5t56.5 229.5q0 252 -74.5 404.5t-197.5 152.5q-107 0 -180.5 -119.5t-73.5 -292.5v-47z" />
<glyph unicode=":" horiz-adv-x="442" d="M94 102q0 52 38 88.5t91 36.5q52 0 88.5 -36t36.5 -87q0 -54 -36.5 -91.5t-90.5 -37.5q-53 0 -90 37.5t-37 89.5zM94 635q0 53 37 90t90 37t90 -37t37 -90q0 -51 -37 -88t-88 -37q-53 0 -91 37t-38 88z" />
<glyph unicode=";" horiz-adv-x="448" d="M94 -319q48 39 72 66t51 73q27 49 38.5 81t18.5 87q-37 -11 -53 -11q-50 0 -85.5 37.5t-35.5 89.5t37 88.5t90 36.5q56 0 93.5 -48t37.5 -120q0 -69 -34 -153q-27 -66 -56 -105q-35 -52 -68.5 -82t-105.5 -75v35zM94 635q0 53 38 90t91 37q52 0 88.5 -37t36.5 -90 q0 -51 -36.5 -87t-88.5 -36q-53 0 -91 36t-38 87z" />
<glyph unicode="&#x3c;" horiz-adv-x="503" d="M59 453l385 456v-90l-178 -366l176 -361v-94z" />
<glyph unicode="=" d="M121 899h901v-180h-897zM125 442v181h897v-181h-897z" />
<glyph unicode="&#x3e;" horiz-adv-x="503" d="M59 -2v88l181 369l-179 360v94l383 -454z" />
<glyph unicode="?" horiz-adv-x="862" d="M78 1313q0 80 83.5 133t209.5 53q182 0 310 -136t128 -329q0 -159 -96.5 -270t-233.5 -111q-47 0 -96 19q-38 13 -62.5 33t-58.5 65v-379l-55 -2v514h55q0 -64 42.5 -105.5t107.5 -41.5q92 0 142 79.5t50 221.5q0 157 -68.5 275t-160.5 118q-42 0 -69 -24.5t-34 -71.5 q-9 -48 -10 -49q-9 -27 -14 -37q-29 -47 -84 -47q-38 0 -62 25.5t-24 66.5zM106 102q0 53 36.5 90t90.5 37q53 0 90 -37.5t37 -89.5q0 -54 -37.5 -90.5t-93.5 -36.5q-51 0 -87 36.5t-36 90.5z" />
<glyph unicode="@" horiz-adv-x="1730" d="M119 786q18 323 248 527q182 162 403 186q170 20 317 -31.5t244.5 -154t140 -254t11.5 -322.5q-23 -126 -77.5 -224t-129.5 -155q-70 -51 -142.5 -58.5t-124 23t-69.5 87.5q-6 20 -6 59q-11 -36 -41 -70q-112 -133 -268 -65q-80 35 -123.5 128t-36.5 236q4 48 8 72 q26 190 135 317q67 79 149.5 105.5t151 0.5t103.5 -93q6 -9 10 -21l18 111h101l-76 -436l-27 -174q-11 -79 2 -129q11 -34 44.5 -50t68.5 -4q26 9 49.5 28t63.5 64q37 44 67 114.5t43 154.5q23 150 -14 279t-119 213.5t-205 123.5t-264 19q-118 -17 -220.5 -82 t-173.5 -161.5t-106 -225.5t-22 -269q13 -133 66.5 -245t136 -186.5t184 -116.5t217 -39.5t227.5 49.5q151 63 267 188q26 26 51 62l37 -88q-32 -40 -52 -60q-236 -248 -548 -248q-157 0 -295 62t-235 169t-148.5 259.5t-40.5 324.5zM586 596q6 -80 26 -125q29 -60 96 -71 t117 36q27 27 46.5 63t46.5 113q18 51 38 150l2 20l15 86q11 68 4 119q-10 73 -67.5 107t-121.5 8q-54 -22 -90.5 -72.5t-72.5 -155.5q-17 -50 -25 -98q-17 -100 -14 -180z" />
<glyph unicode="A" horiz-adv-x="1359" d="M-82 0v35q49 3 79.5 18t63.5 51q12 10 37 48q27 47 66 143l29 70l458 1112h78l473 -1182l33 -86q16 -45 68 -105q31 -36 60.5 -51t78.5 -18v-35h-635v35q90 6 131 33.5t41 83.5q0 45 -43 143q-17 40 -98 246h-500q-80 -197 -104.5 -270.5t-24.5 -114.5q0 -58 42 -86.5 t136 -34.5l-2 -35h-467zM360 604h457l-223 567z" />
<glyph unicode="B" horiz-adv-x="1394" d="M51 0v35q55 3 84 18t51 51q2 3 21 48q6 35 6 84q0 7 1 27t1 32v442v447v35q0 118 -37 168t-127 55v35h641q142 0 214.5 -14t140.5 -54q70 -41 109.5 -113.5t39.5 -160.5q0 -155 -119 -246q-42 -34 -85 -53.5t-128 -40.5q114 -10 171 -26t122 -54q76 -46 121 -132t45 -186 q0 -94 -34 -173.5t-97 -131.5q-69 -56 -149 -74t-257 -18h-735zM457 811h123q107 0 167.5 13t102.5 46q100 81 100 242q0 148 -80 225q-40 38 -93 53t-150 15h-170v-594zM459 352q0 -93 6.5 -131t26.5 -69q56 -82 208 -82q108 0 176 20.5t107 65.5q84 97 84 258 q0 97 -35.5 170t-99.5 108q-57 31 -117 41t-182 10h-174v-391z" />
<glyph unicode="C" horiz-adv-x="1478" d="M94 698q0 235 95 418t266 284t391 101q89 0 163 -16.5t197 -61.5q62 -20 76 -20q72 0 72 88h35l20 -512l-37 -2q-38 140 -86 221q-142 234 -405 234q-240 0 -387.5 -195.5t-147.5 -517.5q0 -303 148.5 -486.5t394.5 -183.5q188 0 313 98q62 50 101 121q23 40 51 154 q4 14 6 22l51 -14q-18 -86 -32 -129.5t-40 -87.5q-69 -121 -202.5 -184.5t-317.5 -63.5q-329 0 -527 200t-198 533z" />
<glyph unicode="D" horiz-adv-x="1611" d="M51 0v35q90 6 127 50.5t37 150.5v59v442v447q2 18 2 51q0 106 -38.5 154.5t-127.5 52.5v35h666q154 0 268 -26.5t209 -84.5q157 -95 240.5 -259t83.5 -376q0 -249 -115 -434q-68 -110 -156 -176q-96 -72 -197.5 -96.5t-295.5 -24.5h-703zM461 373q0 -110 5.5 -157.5 t20.5 -72.5q45 -71 191 -71q254 0 381 118q99 93 152 234.5t53 310.5q0 191 -67.5 345t-188.5 237q-80 56 -164 74t-264 18h-119v-1036z" />
<glyph unicode="E" horiz-adv-x="1329" d="M51 0v35q53 3 83 18.5t52 50.5q29 51 29 191v442v453q0 86 -5 118.5t-22 63.5q-22 36 -51.5 51.5t-83.5 18.5v35h1077l23 -365h-31q-20 82 -33.5 117.5t-41.5 70.5q-47 62 -136.5 85.5t-273.5 23.5h-176v-608h78q88 0 129.5 8.5t76.5 30.5q45 29 66 78t29 141h34v-590 h-34q-3 152 -67.5 209t-229.5 57h-82v-370q0 -104 13 -148.5t54 -81.5q83 -74 269 -74q179 0 288 74q68 48 107 113q23 39 34.5 80t26.5 127l33 -2l-18 -453h-1217z" />
<glyph unicode="F" horiz-adv-x="1116" d="M51 0v35q55 3 84 18t51 51q18 30 23.5 65.5t5.5 125.5v442v453v27q0 120 -36.5 170.5t-127.5 54.5v35h1057l18 -365h-32q-12 64 -23.5 96.5t-34.5 69.5q-50 74 -139 102.5t-276 28.5h-164v-608h67q136 0 195 39q46 28 68 78.5t28 138.5h33v-588h-33q-12 152 -73.5 209 t-215.5 57h-67v-440q0 -89 5 -126t23 -65q22 -36 52 -51t86 -18v-35h-574z" />
<glyph unicode="G" horiz-adv-x="1583" d="M94 698q0 234 95.5 417t267 284.5t389.5 101.5q90 0 154 -14.5t206 -65.5q43 -16 70 -16q34 0 53.5 22.5t20.5 63.5h36l19 -512h-31q-57 217 -186.5 337t-308.5 120q-157 0 -278 -89.5t-188 -251t-67 -370.5q0 -307 147.5 -496.5t385.5 -189.5q135 0 217 65t82 172v86 q0 85 -52 128t-161 47v34h634v-34q-62 -5 -95 -20t-58 -50q-15 -22 -21 -47q-7 -26 -8.5 -46t-1.5 -98v-210l-80 65q-75 -62 -126 -88.5t-134 -48.5q-118 -31 -244 -31q-340 0 -538.5 197.5t-198.5 537.5z" />
<glyph unicode="H" horiz-adv-x="1638" d="M51 0v35q55 3 85 18t52 51q19 31 24 76t5 176v381v455l-2 74q-3 86 -42 129t-118 47v35h570v-35q-55 -3 -84.5 -18.5t-53.5 -51.5q-17 -27 -22.5 -65t-5.5 -115v-393h719v393q0 82 -5.5 116.5t-23.5 63.5q-22 36 -52 51.5t-85 18.5v35h571v-35q-54 -3 -83.5 -18.5 t-51.5 -51.5q-17 -29 -22 -62t-5 -118v-455v-442q0 -89 5 -127t22 -64q22 -35 53 -50.5t86 -18.5v-35h-571l-2 35q55 3 85 18t52 51q16 27 21.5 65t5.5 126v436h-719v-436v-29q0 -70 5.5 -102.5t22.5 -59.5q22 -36 51.5 -51t84.5 -18v-35h-572z" />
<glyph unicode="I" horiz-adv-x="679" d="M51 0v35q55 3 86 18.5t53 50.5q22 38 25 105q4 55 4 184v344v453v8q0 77 -5.5 111.5t-20.5 62.5q-22 35 -53 51t-85 19v35h574v-35q-55 -3 -86.5 -19t-53.5 -51q-17 -25 -21.5 -60t-4.5 -122v-453v-444q0 -138 29 -189q22 -35 51.5 -50.5t83.5 -18.5l2 -35h-578z" />
<glyph unicode="J" horiz-adv-x="684" d="M-272 -279q0 50 33.5 82.5t84.5 32.5q45 0 77.5 -26t39.5 -72l8 -47q18 -103 109 -103q70 0 108 58q22 37 30.5 88t8.5 151v852v455q0 78 -6 114t-24 66q-20 36 -50.5 51.5t-85.5 18.5v35h572v-35q-52 -3 -81.5 -18.5t-51.5 -51.5q-24 -44 -27 -106q-4 -94 -4 -195v-334 v-800l-4 -140q-3 -118 -115 -195t-278 -77q-156 0 -250 53t-94 143z" />
<glyph unicode="K" horiz-adv-x="1441" d="M51 0v35q55 3 85 18t52 51q17 28 23 65t6 124v444v455q0 87 -5 119t-22 61q-22 36 -52 51.5t-85 18.5v35h574v-35q-54 -3 -83.5 -18.5t-51.5 -51.5q-18 -28 -23.5 -65.5t-5.5 -124.5v-457l469 457q85 83 112 119.5t27 64.5q0 73 -160 76v35h510v-37q-56 -6 -85.5 -15 t-63.5 -32q-62 -41 -205 -181l-274 -264l493 -702q64 -90 98.5 -127.5t77.5 -63.5q36 -20 82 -20h8v-35h-647v35q82 3 117 21.5t35 58.5q0 17 -10 37q-17 34 -31 57q-13 20 -25 40.5t-18.5 31t-9.5 14.5l-340 487l-162 -153v-334q0 -85 5.5 -124.5t22.5 -66.5 q22 -37 51 -51.5t85 -17.5v-35h-574z" />
<glyph unicode="L" horiz-adv-x="1212" d="M51 0v35q56 3 84.5 17.5t50.5 51.5q17 29 23 63t6 107v21v442v455q0 67 -2 74q-3 68 -25 106q-22 36 -52 51.5t-85 18.5v35h574v-35q-55 -3 -85.5 -18.5t-52.5 -51.5q-18 -29 -23 -63.5t-5 -126.5l2 -754q0 -128 4 -163.5t22 -76.5q26 -60 102.5 -93.5t190.5 -33.5 q384 0 430 398l31 -2l-20 -457h-1170z" />
<glyph unicode="M" horiz-adv-x="1753" d="M51 35q88 6 124.5 47t39.5 139l2 74v442v348q0 194 -10 238q-27 113 -156 119v35h422l410 -1125l407 1125h412v-33q-54 -3 -86.5 -19.5t-52.5 -50.5q-27 -52 -27 -184v-453v-442q0 -22 0.5 -41.5t1 -31t0.5 -13.5q0 -56 27 -105q22 -35 52.5 -50.5t84.5 -18.5v-35h-574 v35q56 3 86 18t52 51q12 17 20 48q6 24 6 57v86v995l-477 -1298h-59l-475 1292l2 -989q0 -98 4.5 -130.5t21.5 -60.5q23 -37 52 -51.5t83 -17.5v-35h-391z" />
<glyph unicode="N" horiz-adv-x="1554" d="M55 0v35q55 3 84 18t51 51q15 29 21 63.5t6 104.5v23v442v453q0 78 -6 115.5t-23 66.5q-21 36 -49.5 51.5t-81.5 18.5v35h404l813 -1088v803v74q0 57 -27 106q-20 35 -50.5 51t-84.5 19v35h391v-35q-54 -3 -83.5 -18.5t-49.5 -51.5q-18 -30 -23.5 -65.5t-5.5 -114.5 v-1196h-69l-987 1307v-1008v-86q7 -66 30 -105q22 -35 52.5 -50.5t85.5 -18.5l-4 -35h-394z" />
<glyph unicode="O" horiz-adv-x="1746" d="M94 737q0 158 60.5 299t164.5 242t248.5 160t306.5 59q161 0 305 -59.5t247.5 -160.5t164 -242.5t60.5 -299.5q0 -159 -60.5 -301.5t-163.5 -244t-247 -161t-306 -59.5q-163 0 -308 59.5t-248.5 161.5t-163.5 244.5t-60 302.5zM354 741l2 -22q18 -198 83.5 -351 t177.5 -242t255 -89q226 2 372.5 200t146.5 502q0 195 -68 354t-187 249t-264 90q-144 0 -263 -91t-187 -249.5t-68 -350.5z" />
<glyph unicode="P" horiz-adv-x="1224" d="M51 0v35q57 3 86.5 17.5t52.5 51.5q19 29 23 59.5t4 133.5v440v455q0 84 -5 117.5t-24 62.5q-22 36 -51.5 51.5t-85.5 18.5v35h631q252 0 381 -97t129 -286q0 -196 -146 -300t-421 -104q-84 0 -166 8v-403q0 -87 5.5 -125.5t22.5 -65.5q21 -36 51 -51t85 -18v-35h-572z M459 760q43 -4 88 -4q407 0 407 338q0 153 -92 234t-266 81h-137v-649z" />
<glyph unicode="Q" horiz-adv-x="1748" d="M94 737q0 158 60.5 299t164.5 242t248.5 160t306.5 59q161 0 305 -59.5t247.5 -160.5t164 -242.5t60.5 -299.5q0 -301 -203 -522q-78 -88 -151.5 -129.5t-221.5 -85.5q36 -39 61.5 -58t65.5 -38q88 -45 195 -45q104 0 209 55q50 26 88 76q26 35 37.5 68t17.5 91l33 -2 q-3 -94 -11 -141t-32 -102q-47 -114 -153.5 -182t-237.5 -68q-140 0 -261 76q-64 40 -111.5 93.5t-101.5 147.5q-149 9 -229.5 30t-171.5 75q-177 103 -278 278.5t-101 384.5zM354 741l2 -22q18 -198 83.5 -351t177.5 -242t255 -89q226 2 372.5 200t146.5 502q0 195 -68 354 t-187 249t-264 90q-144 0 -263 -91t-187 -249.5t-68 -350.5z" />
<glyph unicode="R" horiz-adv-x="1470" d="M49 0v35q93 6 129.5 54t36.5 165v41v442v455v74q0 50 -27 106q-24 36 -53.5 51.5t-85.5 18.5v35h701q127 0 205.5 -15.5t138.5 -52.5q73 -44 116 -128.5t43 -180.5q0 -166 -116 -262q-47 -40 -98 -60t-148 -37q71 -10 109 -24t71 -41q44 -33 82 -101q18 -30 78 -157 q89 -185 190 -297q82 -88 193 -88h6v-33h-434l-240 465q-56 106 -57 108q-40 64 -82 91q-70 47 -186 47h-166v-416q0 -66 2 -86q0 -63 26 -105q22 -36 52 -51t86 -18v-35h-572zM455 774h163q117 0 177.5 14t107.5 50q105 82 105 254q0 169 -101 251q-48 38 -104.5 52 t-169.5 14h-178v-635z" />
<glyph unicode="S" horiz-adv-x="1153" d="M94 469h37q10 -79 21.5 -121.5t35.5 -95.5q47 -103 142.5 -161t216.5 -58q133 0 218 79.5t85 204.5q0 56 -12 93q-25 76 -97.5 136t-246.5 148q-131 67 -183.5 103t-93.5 88q-80 106 -80 231q0 167 117.5 275t300.5 108q111 0 213 -45l59 -27q16 -8 37 -8q54 0 60 78h34 l29 -463l-35 -2q-20 126 -43 191q-34 95 -120 152t-195 57q-112 0 -181 -61t-69 -161q0 -95 76 -168q62 -48 108 -75q60 -31 156 -84q217 -116 297 -214t80 -249q0 -200 -135.5 -326.5t-350.5 -126.5q-150 0 -276 66q-53 30 -74 30q-56 0 -65 -86h-35z" />
<glyph unicode="T" horiz-adv-x="1417" d="M-33 1049l25 428h1435l23 -430l-35 -3q-9 72 -23 110t-49 85q-66 93 -159 132.5t-246 39.5h-109v-674v-442q0 -92 5 -127t24 -64q22 -35 52.5 -50.5t84.5 -18.5v-35h-575v35q56 3 84.5 17.5t50.5 51.5q18 29 23.5 64.5t5.5 126.5v442l2 672h-94q-177 0 -295 -59 q-72 -37 -119 -99q-32 -41 -47 -82t-29 -122z" />
<glyph unicode="U" horiz-adv-x="1562" d="M47 1442l2 35h574v-35q-56 -3 -86 -19t-54 -53q-17 -28 -21.5 -60t-4.5 -128v-701q0 -41 1 -87.5t1 -53.5q3 -77 37 -137q40 -72 136 -114t224 -42q167 0 283 78q79 54 111 137t32 234v686q0 64 -2 84q0 60 -27 106q-20 36 -50 51.5t-85 18.5v35h393l2 -35 q-55 -3 -85 -18.5t-52 -51.5q-18 -31 -23 -65t-5 -125v-695q0 -107 -11.5 -169t-42.5 -121q-56 -109 -188 -168.5t-320 -59.5q-196 0 -350 62q-87 35 -143 100q-45 52 -62.5 117.5t-17.5 185.5v748v84q0 57 -27 106q-22 36 -53 51.5t-86 18.5z" />
<glyph unicode="V" horiz-adv-x="1286" d="M-98 1442v35h635l2 -35q-160 -9 -160 -109q0 -45 41 -151l317 -852l324 852q41 106 41 147q0 104 -174 113l2 35h454v-35q-34 -3 -49 -6q-52 -16 -100 -64q-21 -21 -33 -49q-5 -8 -9 -14t-7.5 -11t-7 -13.5t-5.5 -12.5t-7 -16.5t-7.5 -18.5t-10 -25t-11.5 -30l-465 -1198 h-70l-444 1198q-31 82 -33 84q-15 35 -31 57q-21 39 -35 49q-53 64 -157 70z" />
<glyph unicode="W" horiz-adv-x="2215" d="M-55 1442v35h639v-35q-87 -3 -125.5 -29t-38.5 -80q0 -29 6.5 -50t38.5 -101l334 -846l284 799l-24 63q-1 2 -4 10t-8.5 21.5t-10.5 27.5q-9 23 -37 82q-31 58 -61 76.5t-102 24.5v37h634v-35q-92 -11 -131 -41.5t-39 -93.5q0 -10 5 -50q6 -39 18 -77q1 -1 23 -66 l264 -778l327 846q9 24 20 51.5l13 32.5q15 50 15 65q0 54 -40.5 81t-129.5 30v35h456v-35q-31 -3 -51 -6q-52 -16 -100 -64q-9 -8 -37 -45q-16 -25 -25 -44.5t-41 -100.5l-479 -1198h-63l-359 1060l-383 -1060h-65l-469 1198q-26 70 -35 84q-26 63 -66 106q-37 37 -69 52 t-84 18z" />
<glyph unicode="X" horiz-adv-x="1501" d="M-59 0v35q41 3 55 8q55 9 123 61q23 16 55 48q46 46 121 143l352 450l-287 437q-45 71 -57 84q-41 60 -94 106q-10 8 -29 21t-26 18q-61 27 -119 31l2 35h676v-35q-76 -4 -109 -24.5t-33 -61.5t33 -90l55 -84l166 -273l201 273q15 21 29 40t22 30.5t10 13.5q41 58 41 96 t-35 57t-118 23v35h487v-35q-37 -3 -51 -6q-46 -12 -121 -64q-32 -28 -53 -49q-48 -45 -121 -141l-250 -324l373 -563l59 -86q39 -56 95 -105q18 -16 55 -38q46 -26 113 -31v-35h-691v35q88 6 126 27.5t38 64.5q0 17 -2 25q-13 34 -84 143l-262 399l-303 -399 q-55 -72 -64 -86q-38 -53 -38 -90q0 -41 41.5 -61t134.5 -23l-2 -35h-514z" />
<glyph unicode="Y" horiz-adv-x="1286" d="M-98 1442v35h653v-35q-75 -3 -111 -25.5t-36 -68.5q0 -34 26 -82l49 -84l260 -467l269 467q73 125 73 172q0 44 -37 64.5t-124 23.5v35h460v-35q-34 -3 -49 -6q-51 -16 -106 -64q-6 -7 -22 -24t-23 -25q-29 -35 -92 -141l-318 -537v-350q0 -79 7 -119.5t26 -71.5 q22 -35 51.5 -50.5t81.5 -18.5v-35h-575v35q56 3 84.5 17.5t50.5 51.5q23 37 26 105q2 55 2 295v106l-329 572q-33 58 -54 84q-36 59 -86 106q-15 15 -51 39q-49 26 -106 31z" />
<glyph unicode="Z" horiz-adv-x="1271" d="M-6 0l883 1405h-267q-226 0 -338 -45q-74 -32 -125 -94q-35 -42 -51 -83.5t-30 -121.5h-33l22 416h1145l-881 -1411h308q252 0 387 59q85 39 151 123q43 56 60.5 102t27.5 133h33l-26 -483h-1266z" />
<glyph unicode="[" horiz-adv-x="563" d="M184 -324v1909h305v-65h-124v-1774h124v-70h-305z" />
<glyph unicode="\" horiz-adv-x="667" d="M88 1475h184l258 -1475h-184z" />
<glyph unicode="]" horiz-adv-x="563" d="M74 -256h123v1774h-123v65h305v-1909h-305v70z" />
<glyph unicode="^" horiz-adv-x="501" d="M0 1053l158 282q20 36 30 49q21 31 64 31q17 0 29 -6q18 -6 28 -17.5t35 -56.5l158 -282l-47 -31l-205 229l-203 -229z" />
<glyph unicode="_" horiz-adv-x="987" d="M88 0h737v-66h-737v66z" />
<glyph unicode="`" horiz-adv-x="448" d="M12 1358q0 6 8 18q25 35 70 35q19 0 35 -8q15 -11 20 -21q9 -13 25 -45l152 -297l-46 -22l-227 272q-25 31 -31 42t-6 26z" />
<glyph unicode="a" horiz-adv-x="1003" d="M86 213q0 127 107 188q43 25 90 41t145 39q125 29 159 63t34 132q0 101 -38.5 147.5t-123.5 46.5q-54 0 -86 -23.5t-37 -66.5l-6 -55q-4 -39 -31 -64.5t-63 -25.5q-41 0 -69 27t-28 65q0 86 98 140.5t252 54.5q150 0 240 -56q55 -34 75.5 -80.5t20.5 -138.5v-461 q0 -54 3 -72.5t14 -41.5q20 -41 65 -41q60 0 101 69l26 -10q-50 -121 -205 -121q-157 0 -200 117q-12 -11 -32.5 -28.5t-27.5 -24.5q-84 -64 -207 -64t-199.5 68t-76.5 176zM291 227q0 -81 43.5 -132.5t109.5 -51.5q82 0 129.5 63.5t47.5 172.5v231q-43 -31 -93 -49 q-114 -46 -156.5 -73.5t-62.5 -70.5q-18 -41 -18 -90z" />
<glyph unicode="b" horiz-adv-x="1173" d="M37 1430l2 26q202 20 348 49q-8 -55 -8 -86v-635q23 32 47 56q76 82 223 82q189 0 313.5 -136t124.5 -340q0 -211 -133 -344t-342 -133q-122 0 -219 43l-61 27q-21 12 -43 12q-64 0 -88 -61h-29v1267q0 99 -26 133t-109 40zM377 332q-1 -155 51 -229t162 -74 q129 0 205.5 113t76.5 302q0 180 -76.5 296t-195.5 116q-50 0 -94 -23.5t-72 -64.5q-31 -44 -42 -92.5t-13 -136.5z" />
<glyph unicode="c" horiz-adv-x="987" d="M86 426q0 217 137 358.5t346 141.5q131 0 227.5 -56.5t95.5 -134.5q0 -35 -24 -59.5t-59 -24.5q-31 0 -55 17q-20 15 -29.5 32.5t-24.5 67.5q-15 54 -43.5 78t-76.5 24q-121 0 -200 -123.5t-79 -312.5q0 -185 84.5 -294t226.5 -109q206 0 289 209l33 -4q-23 -73 -45 -109 t-64 -72q-109 -92 -272 -92q-207 0 -337 129t-130 334z" />
<glyph unicode="d" horiz-adv-x="1173" d="M86 444q0 204 129.5 343t321.5 139q60 0 127 -23q47 -17 72 -37t59 -67v458q0 98 -27 132.5t-109 40.5l3 26q119 10 178 18.5t170 30.5q-11 -67 -11 -104v-1049q0 -156 17 -211q24 -84 121 -96v-27l-340 -49v133q-8 -10 -22.5 -25t-18.5 -20q-86 -86 -238 -86 q-188 0 -310 134t-122 339zM299 465q0 -192 75.5 -311t196.5 -119q107 0 165.5 81t58.5 232v238q0 126 -59.5 199t-160.5 73q-123 0 -199.5 -109t-76.5 -284z" />
<glyph unicode="e" horiz-adv-x="1032" d="M86 432q0 216 137 354t352 138q175 0 280.5 -91.5t115.5 -254.5h-654q-16 -91 -16 -152q0 -180 89.5 -286.5t240.5 -106.5q109 0 185.5 52.5t113.5 150.5l37 -3q-20 -65 -39.5 -97.5t-61.5 -69.5q-117 -99 -301 -99q-218 0 -348.5 127t-130.5 338zM328 635h436 q-24 233 -195 233q-83 0 -144.5 -59.5t-96.5 -173.5z" />
<glyph unicode="f" horiz-adv-x="602" d="M33 836v61h147v254q0 98 18 153t64 105q90 90 242 90q117 0 192.5 -46.5t75.5 -117.5q0 -42 -25.5 -69t-64.5 -27q-80 0 -98 117q-7 49 -27 69.5t-59 20.5q-60 0 -88.5 -50.5t-28.5 -156.5v-342h248v-61h-248v-394v-147q0 -137 16 -184q21 -86 131 -86v-25h-479v25 q81 3 109 55q24 46 24 274q0 14 -1 44t-1 44v394h-147z" />
<glyph unicode="g" horiz-adv-x="978" d="M8 -244q0 63 45 106.5t111 43.5q49 0 84 -24t35 -56q0 -3 -1 -10t-1 -11q-50 31 -80 31q-37 0 -62.5 -22.5t-25.5 -57.5q0 -78 92.5 -131t228.5 -53q139 0 224 61t85 158q0 90 -75 133q-30 17 -72 23t-127 8q-110 1 -159 8t-101 25q-58 19 -90.5 58.5t-32.5 92.5 q0 40 20.5 74.5t55.5 56.5q29 19 58.5 28.5t96.5 23.5q-80 25 -119 52t-71 79q-43 68 -43 151q0 139 105 229.5t266 90.5q74 0 122.5 -16t124.5 -64q97 78 183 78q55 0 95 -32.5t40 -74.5q0 -26 -19 -43.5t-47 -17.5q-36 0 -73 45q-5 8 -11 14.5t-9.5 10.5t-4.5 5 q-7 9 -27 19q-13 8 -30 8q-32 0 -74 -33q54 -55 77 -106.5t23 -116.5q0 -137 -99.5 -222t-260.5 -85h-94q-170 0 -170 -86q0 -26 16 -39q17 -18 46.5 -24t113.5 -9l127 -4q128 -5 176.5 -13t103.5 -34q63 -31 101.5 -93.5t38.5 -135.5q0 -154 -137 -247t-361 -93 q-188 0 -303 66.5t-115 174.5zM291 618q0 -4 1 -10.5t1 -9.5q4 -117 49 -182.5t119 -65.5q77 0 118.5 65.5t41.5 188.5q0 125 -43 195.5t-119 70.5t-122 -69t-46 -183z" />
<glyph unicode="h" horiz-adv-x="1159" d="M37 0l2 25q78 3 106.5 48t28.5 169v495v520v11q0 89 -28 122.5t-107 39.5v26q130 13 186.5 20.5t161.5 28.5q-8 -68 -8 -104v-625q51 55 85.5 79.5t88.5 43.5q77 25 154 25q152 0 227 -84q33 -36 42 -76.5t9 -151.5v-374q0 -124 26.5 -167t104.5 -46v-25h-448v25 q67 3 90.5 47t23.5 166v366v76q0 34 -22 84q-17 38 -56 59t-92 21q-96 0 -168 -72q-38 -40 -52.5 -81.5t-14.5 -112.5v-340q0 -122 23 -167t87 -46v-25h-450z" />
<glyph unicode="i" horiz-adv-x="563" d="M53 0v25q46 2 69 13t40 42q26 50 26 162v200v187q0 121 -14 155q-20 57 -119 66l-2 24q122 11 179 19.5t169 34.5q-12 -61 -12 -105v-585q0 -120 27 -165t102 -48l2 -25h-467zM152 1268q0 54 38.5 92.5t92.5 38.5t91.5 -38.5t37.5 -92.5q0 -53 -38 -90t-93 -37 q-53 0 -91 37.5t-38 89.5z" />
<glyph unicode="j" horiz-adv-x="544" d="M-211 -330q0 36 25 61t61 25q81 0 109 -104q6 -27 14 -39q7 -20 28 -32.5t46 -12.5q34 0 64.5 23t43.5 61q10 32 12.5 59t2.5 113v854q0 59 -6 86t-23 47q-26 33 -105 39v24q127 13 185 21.5t164 32.5q-11 -62 -11 -90v-1004q0 -92 -18.5 -142.5t-69.5 -94.5 q-88 -82 -237 -82q-126 0 -205.5 43.5t-79.5 111.5zM164 1266q0 56 38 94.5t93 38.5q51 0 88 -38.5t37 -92.5q0 -52 -37 -89.5t-90 -37.5q-54 0 -91.5 37t-37.5 88z" />
<glyph unicode="k" horiz-adv-x="1081" d="M37 1430l2 26q202 20 348 49q-10 -64 -10 -104v-963l239 228q78 73 78 125q0 58 -123 83v23h465v-23q-65 -9 -123 -34q-53 -33 -118 -95l-177 -163l330 -400q40 -50 70 -76.5t69 -48.5q46 -25 97 -34v-23h-545v25q109 9 109 63q0 39 -50 98l-223 269l-98 -95v-118 q0 -129 21.5 -171.5t90.5 -45.5v-25h-450v25q78 3 105.5 47t27.5 170v495v520l-4 66q-3 53 -33.5 78t-97.5 29z" />
<glyph unicode="l" horiz-adv-x="548" d="M37 1425l2 25q122 11 180.5 20t165.5 35q-8 -79 -8 -114v-1153q0 -120 28.5 -165t106.5 -48v-25h-473v25q47 2 71 13.5t37 41.5q9 11 13 31q7 25 10 79q2 16 2 52v319v690q0 98 -26.5 132t-108.5 42z" />
<glyph unicode="m" horiz-adv-x="1746" d="M53 0v25q80 3 107.5 46.5t27.5 170.5v200v187q0 116 -16 155q-18 57 -119 66v24q123 11 179.5 19.5t164.5 34.5q0 -8 -2 -18.5t-2 -12.5q-1 -17 -2 -31.5t-1.5 -21.5t-0.5 -8l2 -54l64 56q109 88 252 88q61 0 120 -21q59 -20 88 -39.5t66 -68.5q15 17 47 41 q109 88 250 88q72 0 135.5 -23.5t104.5 -66.5q36 -37 45.5 -74t9.5 -139v-385q0 -123 26.5 -166.5t104.5 -46.5l4 -25h-457v25q67 3 93 49.5t26 165.5v366q0 74 -4.5 107t-19.5 59q-17 32 -57.5 52t-86.5 20q-105 0 -170 -78q-31 -38 -41 -79.5t-10 -123.5v-325 q0 -121 25 -165.5t94 -47.5v-25h-438v25q70 3 94 46.5t24 166.5v385q0 116 -39 168.5t-125 52.5q-103 0 -170 -76q-31 -35 -43 -78.5t-12 -120.5v-331q0 -122 24.5 -165.5t94.5 -47.5v-25h-457z" />
<glyph unicode="n" horiz-adv-x="1179" d="M55 0v25q78 3 105.5 46.5t27.5 170.5v200v236q0 96 -27.5 131t-105.5 41v24q121 11 177 19.5t167 34.5q-2 -14 -2 -31q-6 -59 -6 -61l2 -54q14 14 68 62q47 39 115 61.5t139 22.5q149 0 231 -82q37 -39 49.5 -84.5t12.5 -149.5v-374q0 -123 26.5 -166.5t104.5 -46.5 l2 -25h-459v23q38 4 59.5 18t38.5 45q10 24 13 43q3 15 6 53q2 27 2 51v369q0 81 -4 108t-23 60q-19 37 -57 57.5t-88 20.5q-101 0 -172 -74q-39 -42 -52.5 -78t-13.5 -102v-330q0 -131 25.5 -182t95.5 -57l-2 -25h-455z" />
<glyph unicode="o" horiz-adv-x="1175" d="M86 446q0 204 144 341t360 137q215 0 358.5 -137t143.5 -341q0 -205 -143 -340t-359 -135q-218 0 -361 134.5t-143 340.5zM301 446q0 -172 84 -291.5t205 -119.5q119 0 201.5 119.5t82.5 291.5q0 175 -82 293.5t-202 118.5q-123 0 -206 -118.5t-83 -293.5z" />
<glyph unicode="p" horiz-adv-x="1169" d="M43 -434q45 1 68.5 13t40.5 42q4 9 10 31q0 1 3.5 14.5t4.5 22t2.5 33t1.5 57.5v663v236l-4 65q-3 51 -33.5 77t-93.5 30v24q121 11 177.5 20t162.5 34l-2 -31l-4 -66v-30q23 28 45 47q90 78 217 78q189 0 317.5 -140t128.5 -344q0 -202 -126.5 -337.5t-315.5 -135.5 q-56 0 -121 19q-46 12 -73 28.5t-68 57.5v-246q0 -158 24.5 -208t106.5 -54v-25h-469v25zM379 573l2 -274q0 -91 11.5 -131.5t49.5 -73.5q65 -59 156 -59q120 0 195 109t75 284q0 193 -75.5 311.5t-198.5 118.5q-102 0 -159 -75.5t-56 -209.5z" />
<glyph unicode="q" horiz-adv-x="1142" d="M86 438q0 215 127 350.5t328 135.5q122 0 227 -43l70 -29q19 -8 47 -8q30 0 49 13.5t39 51.5l20 2v-860l6 -276q2 -80 4.5 -106t14.5 -48q15 -29 38.5 -41.5t67.5 -15.5v-23h-467v25q44 1 68.5 14t42.5 41q15 25 18 74q5 98 5 108v213v82q-28 -33 -48 -49 q-88 -78 -227 -78q-188 0 -309 131t-121 336zM301 444q0 -178 75 -291.5t195 -113.5q51 0 98 25.5t76 68.5q25 39 35.5 82t10.5 115l2 239q1 139 -58 218t-164 79q-121 0 -195.5 -117t-74.5 -305z" />
<glyph unicode="r" horiz-adv-x="747" d="M55 0v25q79 3 106 46t27 171v200v236q0 96 -27.5 131t-105.5 41v24q112 7 167 16.5t171 37.5q-10 -90 -10 -111v-72q53 85 100 121q71 58 162 58q72 0 114 -34t42 -91q0 -40 -22.5 -65t-59.5 -25q-45 0 -82 49l-21 28q-27 39 -65 39q-68 0 -114 -91t-46 -224v-272 q0 -115 21 -158q15 -30 38.5 -41.5t71.5 -13.5v-25h-467z" />
<glyph unicode="s" horiz-adv-x="786" d="M47 301l25 2q19 -85 47 -139q38 -66 107 -106t145 -40q78 0 127 38.5t49 101.5q0 87 -127 170l-80 53q-145 97 -191.5 154.5t-46.5 136.5q0 109 78 179.5t199 70.5q84 0 141 -29l37 -19q16 -8 33 -8q35 0 35 54h24l17 -297h-23q-13 67 -39 120q-30 58 -82.5 92.5 t-111.5 34.5q-60 0 -98 -33t-38 -87q0 -62 54 -113q44 -39 174 -123q69 -44 96 -65t55 -50q68 -71 68 -161q0 -117 -93.5 -194t-234.5 -77q-49 0 -80.5 8.5t-117.5 44.5q-30 13 -54 13q-48 0 -51 -64h-24z" />
<glyph unicode="t" horiz-adv-x="661" d="M53 893q76 9 115 27.5t84 66.5q38 40 55.5 74.5t32.5 101.5l39 2v-268h268v-61h-270v-566q0 -31 1 -67.5t1 -42.5q0 -41 22 -72q12 -23 44 -37t71 -14q98 0 162 90l24 -18q-26 -49 -65 -80q-76 -60 -203 -60q-119 0 -194.5 49t-75.5 125q0 37 8 121q2 8 2 137v435h-119z " />
<glyph unicode="u" horiz-adv-x="1155" d="M39 850v24q125 11 183 20t165 34q-10 -64 -10 -105v-538q0 -79 6 -109t27 -59q48 -64 157 -64q213 0 213 252v373q0 96 -28 131t-105 41v24q123 11 179 19.5t163 34.5q-8 -51 -8 -105v-532q0 -71 4 -102.5t16 -61.5q34 -76 113 -82v-25l-338 -49l12 140 q-45 -53 -77.5 -76t-83.5 -41q-77 -25 -152 -25q-147 0 -239 82q-40 38 -52 81t-12 161v385q0 96 -27.5 131t-105.5 41z" />
<glyph unicode="v" horiz-adv-x="884" d="M-70 897h506v-23q-62 -3 -87 -20t-25 -57q0 -49 38 -142l162 -391l170 391q43 98 43 138q0 43 -25 60.5t-89 20.5l-2 23h333l-2 -23q-35 -5 -56 -16.5t-46 -40.5q-4 -5 -11.5 -15.5t-11.5 -15.5q-7 -18 -20 -41q-42 -83 -45 -90l-289 -673h-55l-277 677q-14 37 -32 72 q-26 54 -52 82q-28 32 -53.5 45t-69.5 16z" />
<glyph unicode="w" horiz-adv-x="1314" d="M-53 874v23h475v-23q-51 -2 -72.5 -18.5t-21.5 -56.5q0 -41 37 -142l135 -372l205 624h51l217 -618l141 364q35 85 35 138q0 41 -26.5 59.5t-90.5 21.5v23h336l-2 -23q-36 -3 -57 -15t-45 -42q-39 -44 -84 -162l-260 -671h-50l-219 616l-202 -616l-52 6l-252 665 q-7 28 -36 90q-22 45 -46 72q-25 30 -49.5 42t-66.5 15z" />
<glyph unicode="x" horiz-adv-x="954" d="M-45 0v25q43 3 70 14t65 41q5 4 11.5 9t14 12t11.5 10q13 13 37 43q70 78 78 88l147 180l-162 233q-81 119 -129 162q-33 30 -56.5 42t-57.5 15l-2 23h489v-23q-46 -2 -65 -13.5t-19 -39.5q0 -20 6 -35q37 -72 78 -131l64 -90l65 92l62 88q32 47 32 78q0 26 -22 38 t-76 13v23h350v-23q-43 -4 -69.5 -16t-61.5 -41q-6 -4 -33 -31l-37 -41q-61 -74 -69 -90l-107 -141l195 -272q92 -126 131 -162q30 -30 52 -41t57 -14l2 -25h-496v25q56 2 78 13t22 40q0 18 -6 33q-3 5 -10 19.5t-12 23.5q-45 76 -56 88l-104 129l-96 -129 q-88 -116 -88 -160q0 -30 28 -43t96 -14v-25h-407z" />
<glyph unicode="y" horiz-adv-x="919" d="M-63 897h509v-23q-65 -3 -91.5 -20t-26.5 -57q0 -37 45 -142l182 -426l172 426q41 102 41 142t-25.5 57t-87.5 20l-2 23h336v-23q-39 -3 -60.5 -15t-47.5 -42q-1 -1 -25 -31q-2 -5 -9 -18.5t-11 -22.5q-32 -62 -43 -90l-383 -909q-37 -88 -76 -145q-53 -84 -139 -84 q-46 0 -75.5 24.5t-29.5 61.5q0 36 24.5 59t61.5 23q23 0 37 -2q40 -7 49 -7q51 0 94 82q27 55 46.5 117.5t19.5 95.5q0 44 -25 105l-256 579q-7 15 -43 90q-27 50 -47 72q-27 30 -50 42t-62 15z" />
<glyph unicode="z" horiz-adv-x="933" d="M16 0l576 840h-178q-127 0 -192 -49t-105 -175h-25l37 281h743l-579 -844h229q91 0 139 10.5t93 40.5q51 33 79.5 82t47.5 131l24 -2l-28 -315h-861z" />
<glyph unicode="{" horiz-adv-x="718" d="M88 737q58 3 94.5 43.5t36.5 104.5v667q0 74 45 116t127 42h187v-108h-25q-69 0 -93 -24.5t-24 -92.5v-578q0 -73 -55 -125q-42 -39 -98 -45q29 -3 53 -14q45 -22 72.5 -64t27.5 -92v-577q0 -68 24 -92.5t93 -24.5h25v-109h-187q-82 0 -127 42t-45 116v668 q0 63 -37 103.5t-94 43.5z" />
<glyph unicode="|" horiz-adv-x="389" d="M88 0v1475h184v-1475h-184z" />
<glyph unicode="}" horiz-adv-x="718" d="M88 -127h25q70 0 94 24.5t24 92.5v577q0 51 27.5 92.5t73.5 63.5q21 10 53 14q-30 3 -53 15q-46 22 -73.5 63.5t-27.5 91.5v578q0 68 -24 92.5t-94 24.5h-25v108h186q84 0 129.5 -42t45.5 -116v-667q0 -64 36.5 -104.5t92.5 -43.5q-56 -3 -92.5 -43t-36.5 -104v-668 q0 -74 -46 -116t-129 -42h-186v109z" />
<glyph unicode="~" horiz-adv-x="759" d="M0 1626q39 78 72 119q50 57 116 57q50 0 226 -49l59 -16q61 -17 94 -17q47 0 72 15t49 55l72 -18l-23 -39q-51 -89 -86 -120.5t-88 -31.5q-60 0 -135 21l-72 20q-21 8 -86 25q-86 22 -114 22q-29 0 -45.5 -12.5t-36.5 -50.5z" />
<glyph unicode="&#xa1;" horiz-adv-x="495" d="M131 88v10l10 92l95 900h67l90 -900l13 -92v-16q0 -47 -37 -74.5t-101 -27.5q-66 0 -101.5 28t-35.5 80zM141 1374q0 54 37.5 90.5t93.5 36.5q52 0 88.5 -36.5t36.5 -90.5q0 -52 -38 -89.5t-91 -37.5q-52 0 -89.5 37.5t-37.5 89.5z" />
<glyph unicode="&#xa2;" horiz-adv-x="989" d="M98 422q0 247 170 391q63 53 115 75t147 32v120h62v-118q139 -6 226 -57.5t87 -129.5q0 -35 -24.5 -59.5t-59.5 -24.5q-87 0 -110 117q-9 38 -16 52.5t-21 27.5q-25 17 -84 20l2 -833q30 -6 51 -6q43 0 93 21t89 54q31 27 48.5 54t37.5 82l35 -4q-22 -72 -43.5 -108 t-64.5 -73q-102 -86 -252 -92v-129h-58v129q-109 13 -166 36.5t-118 78.5q-146 128 -146 344zM311 436q0 -144 76 -256q32 -50 60 -73t83 -46v795q-56 -35 -83.5 -62t-55.5 -73q-80 -140 -80 -285z" />
<glyph unicode="&#xa3;" horiz-adv-x="1622" d="M94 109q0 70 76 116.5t190 46.5q60 0 112.5 -12t131.5 -43q20 63 25.5 98t5.5 101q0 118 -6 227h-279l8 72h271v86q0 182 55 319q70 176 205 278.5t295 102.5q143 0 243.5 -89t100.5 -216q0 -110 -75 -184t-187 -74q-96 0 -156 53t-70 148h35q14 -69 55 -108.5t101 -39.5 q73 0 119.5 61.5t46.5 157.5q0 105 -56.5 171.5t-146.5 66.5q-83 0 -146.5 -51.5t-97.5 -145.5q-29 -82 -39 -137q-23 -126 -32 -319l-5 -78h351l-15 -74h-342q-3 -79 -10.5 -125.5t-26.5 -116.5q-19 -73 -36 -114t-58 -107q117 -33 191 -45q126 -16 172 -16q161 0 259 64.5 t118 183.5l34 4q-4 -195 -98 -297.5t-266 -102.5q-122 0 -264 49q-90 33 -201 97q-41 -38 -71 -57.5t-81 -43.5q-100 -47 -202 -47q-106 0 -170 38.5t-64 101.5zM221 113q0 -45 37.5 -74t97.5 -29q166 0 236 172q-106 45 -209 45q-69 0 -115.5 -32t-46.5 -82z" />
<glyph unicode="&#xa4;" horiz-adv-x="1011" d="M88 434l123 123q-28 38 -43 86q-23 70 -12 145t55 136l-121 116q25 37 68 76l127 -123q84 62 184 62q102 0 184 -60l123 123q3 -3 10.5 -8t10.5 -8q29 -26 51 -62l-121 -114q60 -85 59 -187t-61 -186l123 -123l-17 -16l-16 -19q-13 -13 -41 -37l-121 123 q-83 -61 -184 -61q-103 0 -184 63l-127 -123l-19 17l-16 18l-19 19zM258 737q0 -85 61 -149q61 -62 149 -62t150 62t62 150t-62 149q-61 61 -149 61t-149.5 -61.5t-61.5 -149.5z" />
<glyph unicode="&#xa5;" horiz-adv-x="1599" d="M59 1442v35h654v-35q-78 -3 -113 -25.5t-35 -68.5q0 -32 27 -82l47 -84l262 -467l268 467q70 120 70 172q0 44 -36 64.5t-122 23.5v35h457v-35q-38 -4 -45 -6q-51 -15 -107 -64q-60 -54 -137 -190l-221 -383h422v-142h-496l-22 -45v-49h518v-135h-518v-133q0 -84 6 -122 t25 -69q22 -35 51.5 -50.5t83.5 -18.5v-35h-578v35q56 3 85.5 18t51.5 51q18 30 23.5 66.5t5.5 128.5v131h-526v135h532v45l-30 49h-504l2 140h426l-232 383l-51 84q-31 55 -86 106q-24 21 -51 39q-52 27 -107 31z" />
<glyph unicode="&#xa7;" horiz-adv-x="1232" d="M90 686q0 59 23 123q22 59 57.5 105.5t124.5 138.5q-33 28 -45 49q-47 70 -47 162q0 121 114.5 197.5t294.5 76.5q94 0 183 -18q60 -13 106 -30t135 -58l13 -349l-64 -2q-14 98 -30.5 149.5t-49.5 96.5q-47 63 -117.5 97t-150.5 34q-96 0 -161.5 -48t-65.5 -118 q0 -75 77 -143l531 -449q125 -106 125 -243q0 -51 -15 -101q-22 -78 -60.5 -134.5t-127.5 -141.5q55 -58 75.5 -100t20.5 -95q0 -126 -119.5 -210.5t-298.5 -84.5q-66 0 -159 17q-72 15 -122 33t-136 61l-15 346l66 2q15 -104 36 -160.5t62 -103.5q45 -53 109.5 -84 t132.5 -31q97 0 166 49.5t69 118.5q0 74 -63 129l-549 467q-125 106 -125 252zM246 770q0 -57 24 -101.5t80 -90.5l529 -443q63 66 86.5 114.5t23.5 110.5q0 110 -90 185l-539 450q-65 -65 -89.5 -113.5t-24.5 -111.5z" />
<glyph unicode="&#xa8;" horiz-adv-x="487" d="M-45 1135q0 46 34 78t81 32q46 0 78 -32t32 -78q0 -49 -33.5 -83t-80.5 -34q-46 0 -78.5 34t-32.5 83zM307 1135q0 46 32.5 78t78.5 32q47 0 79.5 -33t32.5 -82q0 -46 -31.5 -79t-78.5 -33q-46 0 -79.5 34t-33.5 83z" />
<glyph unicode="&#xa9;" horiz-adv-x="1908" d="M119 739q0 152 58 292t165 247q110 110 253 167.5t287.5 57.5t287.5 -57.5t253 -167.5q107 -108 165.5 -247.5t58.5 -291.5q0 -155 -60.5 -296.5t-163 -244t-244 -163t-296.5 -60.5q-208 0 -383.5 102t-278 278t-102.5 384zM229 739q0 -132 50.5 -254.5t142.5 -216.5 q125 -127 292.5 -172t335.5 0t293 172q126 128 170.5 299t0 342t-170.5 299q-125 127 -293 172t-335.5 0t-292.5 -172q-93 -94 -143 -215.5t-50 -253.5zM459 913q60 164 210 248.5t332 52.5q131 -21 232 -106l-68 -96q-76 64 -168 82q-156 31 -281.5 -57t-150.5 -242 q-25 -158 60 -280t235 -148q136 -22 256 53q31 20 47 33l68 -97q-129 -108 -309 -114q-102 -3 -194 32.5t-157 99t-106 149.5t-41.5 185t35.5 205z" />
<glyph unicode="&#xaa;" horiz-adv-x="987" d="M88 1135q2 117 59 207t146.5 129.5t187.5 19.5q121 -25 174 -117l11 -18l8 -15v134h151v-687h-153v142l-6 -17l-9 -16q-42 -83 -147.5 -113t-216.5 13q-79 33 -130.5 99t-68.5 159q-6 41 -6 80zM109 549v139h716v-139h-716zM246 1135q0 -34 4 -48q12 -71 57.5 -118.5 t112.5 -59.5q66 -12 125 15q103 45 127 163q9 47 0 93q-24 116 -123 163q-98 45 -188.5 -4.5t-112.5 -162.5q-4 -25 -2 -41z" />
<glyph unicode="&#xab;" horiz-adv-x="815" d="M59 453l385 456v-90l-178 -366l176 -361v-94zM367 453l389 456v-90l-183 -366l181 -361v-94z" />
<glyph unicode="&#xac;" horiz-adv-x="1306" d="M88 737v185h1032v-480h-147v295h-885z" />
<glyph unicode="&#xae;" horiz-adv-x="1908" d="M119 739q0 152 58 292t165 247q110 110 253 167.5t287.5 57.5t287.5 -57.5t253 -167.5q107 -108 165.5 -247.5t58.5 -291.5q0 -155 -60.5 -296.5t-163 -244t-244 -163t-296.5 -60.5q-208 0 -383.5 102t-278 278t-102.5 384zM229 739q0 -132 50.5 -254.5t142.5 -216.5 q125 -127 292.5 -172t335.5 0t293 172q126 128 170.5 299t0 342t-170.5 299q-125 127 -293 172t-335.5 0t-292.5 -172q-93 -94 -143 -215.5t-50 -253.5zM637 276v943h233q82 0 129 -12.5t86 -43.5q69 -59 86 -147q23 -121 -34 -205.5t-168 -103.5q-10 -2 -31 -2l289 -429 h-158l-299 457v-457h-133zM770 780h78q91 0 140.5 43t51.5 119q3 78 -44.5 122t-137.5 44h-88v-328z" />
<glyph unicode="&#xaf;" horiz-adv-x="583" d="M0 1018v135h584v-135h-584z" />
<glyph unicode="&#xb1;" horiz-adv-x="1216" d="M90 39v139h946v-139h-946zM90 539v139h404v250h139v-250h403v-139h-403v-250h-139v250h-404z" />
<glyph unicode="&#xb4;" horiz-adv-x="391" d="M137 1040l146 295l22 47q4 12 25 21.5t41 9.5q31 0 51 -16t20 -41q0 -11 -1.5 -17.5t-9.5 -19.5t-25 -33l-224 -268z" />
<glyph unicode="&#xb5;" horiz-adv-x="1275" d="M150 -285q0 5 0.5 19.5t1.5 43t2 56.5q4 132 4 182q0 117 -2 207q-4 180 -4 195v502h188v-607q0 -143 29 -194q27 -49 102 -49q117 -3 195 163q77 168 77 420v267h189v-672q0 -92 18 -135q18 -40 60 -43q41 0 65 43q23 44 23 125v28h43q0 -10 2 -18v-27q0 -114 -49 -178 q-46 -61 -136 -61q-98 -3 -155 88q-50 81 -53 264q-47 -182 -125 -266q-77 -83 -199 -86q-91 0 -150 53q-56 51 -81 158q0 -4 -1 -23.5t-1 -34.5q-3 -129 65 -289q66 -160 66 -188q0 -41 -23 -64q-22 -22 -63 -22q-47 -3 -68 35q-17 28 -20 108z" />
<glyph unicode="&#xb6;" horiz-adv-x="1329" d="M88 1065q0 170 119 290t287 120h647v-119h-647q-120 0 -204 -86t-83 -209q1 -120 85.5 -203.5t201.5 -83.5h137v488h125v-1262h-125v655h-137q-168 0 -287 120t-119 290zM889 0v1262h125v-1262h-125z" />
<glyph unicode="&#xb7;" horiz-adv-x="442" d="M94 453q0 51 38 88t91 37q52 0 88.5 -37t36.5 -88q0 -54 -36.5 -91.5t-90.5 -37.5q-53 0 -90 37.5t-37 91.5z" />
<glyph unicode="&#xb8;" horiz-adv-x="430" d="M18 -362q0 14 10 23t25 9q17 0 28.5 -8.5t35.5 -38.5q26 -35 69 -35q49 0 87 37t38 84t-32.5 79t-79.5 32q-31 0 -82 -21l-27 31l186 178l46 -2l-111 -125q36 4 47 4q62 0 106 -40t44 -97q0 -80 -68.5 -137t-163.5 -57q-64 0 -111 25t-47 59z" />
<glyph unicode="&#xba;" horiz-adv-x="987" d="M88 1135q0 25 8 75q32 154 155.5 237t278.5 52q152 -31 236 -157.5t53 -282.5q-31 -150 -156.5 -234t-279.5 -53q-110 22 -187.5 99.5t-99.5 187.5q-8 36 -8 76zM100 549v139h715v-139h-715zM240 1135q0 -17 4 -41q12 -72 57 -120.5t111 -62.5q91 -20 166 33t92 148 q12 71 -12 133t-76 98q-47 35 -104 41t-109 -18q-104 -49 -125 -168q-4 -28 -4 -43z" />
<glyph unicode="&#xbb;" horiz-adv-x="815" d="M59 -2v88l181 369l-179 360v94l383 -454zM367 -2v88l182 369l-178 360v94l385 -454z" />
<glyph unicode="&#xbf;" horiz-adv-x="862" d="M78 442q0 160 95 270.5t233 110.5q55 0 96 -16q37 -13 61.5 -33.5t59.5 -66.5v378l57 2v-514h-55q-2 65 -44.5 108.5t-107.5 43.5q-91 0 -142.5 -81t-51.5 -222q0 -104 32 -195t86 -145.5t115 -54.5q79 0 100 98q3 13 5.5 25t4 17.5t1.5 6.5q2 10 14 35q24 47 82 47 q39 0 64.5 -25.5t25.5 -64.5q0 -80 -84.5 -134.5t-208.5 -54.5q-120 0 -221 62t-159 169t-58 234zM524 1372q0 53 37.5 90t91.5 37t90.5 -36.5t36.5 -90.5q0 -52 -38 -89.5t-89 -37.5q-54 0 -91.5 37t-37.5 90z" />
<glyph unicode="&#xc0;" horiz-adv-x="1359" d="M-82 0v35q49 3 79.5 18t63.5 51q12 10 37 48q27 47 66 143l29 70l458 1112h78l473 -1182l33 -86q16 -45 68 -105q31 -36 60.5 -51t78.5 -18v-35h-635v35q90 6 131 33.5t41 83.5q0 45 -43 143q-17 40 -98 246h-500q-80 -197 -104.5 -270.5t-24.5 -114.5q0 -58 42 -86.5 t136 -34.5l-2 -35h-467zM360 604h457l-223 567zM420 1978q0 7 8 19q25 35 70 35q16 0 34 -9q18 -13 21 -20q9 -13 25 -45l151 -297l-45 -23l-227 273q-25 31 -31 41.5t-6 25.5z" />
<glyph unicode="&#xc1;" horiz-adv-x="1359" d="M-82 0v35q49 3 79.5 18t63.5 51q12 10 37 48q27 47 66 143l29 70l458 1112h78l473 -1182l33 -86q16 -45 68 -105q31 -36 60.5 -51t78.5 -18v-35h-635v35q90 6 131 33.5t41 83.5q0 45 -43 143q-17 40 -98 246h-500q-80 -197 -104.5 -270.5t-24.5 -114.5q0 -58 42 -86.5 t136 -34.5l-2 -35h-467zM360 604h457l-223 567zM666 1661l145 295l23 47q4 12 24.5 21.5t40.5 9.5q31 0 51.5 -16.5t20.5 -41.5q0 -15 -6 -27.5t-31 -41.5l-223 -269z" />
<glyph unicode="&#xc2;" horiz-adv-x="1359" d="M-82 0v35q49 3 79.5 18t63.5 51q12 10 37 48q27 47 66 143l29 70l458 1112h78l473 -1182l33 -86q16 -45 68 -105q31 -36 60.5 -51t78.5 -18v-35h-635v35q90 6 131 33.5t41 83.5q0 45 -43 143q-17 40 -98 246h-500q-80 -197 -104.5 -270.5t-24.5 -114.5q0 -58 42 -86.5 t136 -34.5l-2 -35h-467zM360 604h457l-223 567zM453 1673l157 283q17 30 31 49q21 31 64 31q16 0 28 -6q19 -6 29 -18t35 -56l157 -283l-47 -31l-205 230l-202 -230z" />
<glyph unicode="&#xc3;" horiz-adv-x="1359" d="M-82 0v35q49 3 79.5 18t63.5 51q12 10 37 48q27 47 66 143l29 70l458 1112h78l473 -1182l33 -86q16 -45 68 -105q31 -36 60.5 -51t78.5 -18v-35h-635v35q90 6 131 33.5t41 83.5q0 45 -43 143q-17 40 -98 246h-500q-80 -197 -104.5 -270.5t-24.5 -114.5q0 -58 42 -86.5 t136 -34.5l-2 -35h-467zM360 604h457l-223 567zM395 1686q32 59 60 94q36 45 98 45q43 0 176 -39l49 -14q43 -13 74 -13q38 0 56.5 12t39.5 46l58 -23l-17 -29q-41 -74 -70.5 -98.5t-76.5 -24.5q-44 0 -103 17l-59 18q-42 12 -68 17q-79 20 -90 20q-24 0 -36.5 -10 t-30.5 -43z" />
<glyph unicode="&#xc4;" horiz-adv-x="1359" d="M-82 0v35q49 3 79.5 18t63.5 51q12 10 37 48q27 47 66 143l29 70l458 1112h78l473 -1182l33 -86q16 -45 68 -105q31 -36 60.5 -51t78.5 -18v-35h-635v35q90 6 131 33.5t41 83.5q0 45 -43 143q-17 40 -98 246h-500q-80 -197 -104.5 -270.5t-24.5 -114.5q0 -58 42 -86.5 t136 -34.5l-2 -35h-467zM360 604h457l-223 567zM365 1632q0 50 34.5 84.5t83.5 34.5q50 0 85.5 -35t35.5 -84q0 -51 -35 -86t-86 -35q-50 0 -84 35t-34 86zM797 1632q0 50 34.5 84.5t83.5 34.5q48 0 82.5 -35t34.5 -84q0 -51 -34.5 -86t-84.5 -35q-49 0 -82.5 35t-33.5 86z " />
<glyph unicode="&#xc5;" horiz-adv-x="1359" d="M-82 0v35q49 3 79.5 18t63.5 51q12 10 37 48q27 47 66 143l29 70l458 1112h78l473 -1182l33 -86q16 -45 68 -105q31 -36 60.5 -51t78.5 -18v-35h-635v35q90 6 131 33.5t41 83.5q0 45 -43 143q-17 40 -98 246h-500q-80 -197 -104.5 -270.5t-24.5 -114.5q0 -58 42 -86.5 t136 -34.5l-2 -35h-467zM360 604h457l-223 567zM528 1673q0 70 49 118t117 48t117 -48t49 -118q0 -67 -49 -115.5t-117 -48.5t-117 48.5t-49 115.5zM600 1673q0 -38 27 -64t67 -26t68.5 26.5t28.5 65.5t-29 68t-68 29t-66.5 -29.5t-27.5 -69.5z" />
<glyph unicode="&#xc6;" horiz-adv-x="2035" d="M-82 0v35q48 1 75.5 9.5t57.5 29.5q74 52 131 149l47 82l529 864q2 4 6.5 12.5t12.5 22.5t14 27q29 55 37 76.5t8 48.5q0 44 -28 60t-114 22v39h1161v-369h-30q-9 64 -19.5 96.5t-33.5 67.5q-51 75 -134 104t-247 29h-222v-604h93q79 0 121 9t79 34q42 29 61 77t25 138 h33v-592h-37q0 148 -65.5 208t-225.5 60h-84v-362q0 -119 13.5 -161.5t62.5 -82.5q80 -68 260 -68q198 0 307 86q56 44 91 109q19 36 30 75t27 122l35 -4l-21 -449h-1214l-2 35q55 3 85 18.5t52 52.5q17 28 23 66t6 123v244h-478l-120 -211q-10 -18 -21 -36t-21 -34t-14 -22 q-28 -54 -28 -91q0 -56 32.5 -82.5t106.5 -27.5l-2 -35h-461zM489 604h435v725z" />
<glyph unicode="&#xc7;" horiz-adv-x="1478" d="M94 698q0 235 95 418t266 284t391 101q89 0 163 -16.5t197 -61.5q62 -20 76 -20q72 0 72 88h35l20 -512l-37 -2q-38 140 -86 221q-142 234 -405 234q-240 0 -387.5 -195.5t-147.5 -517.5q0 -303 148.5 -486.5t394.5 -183.5q188 0 313 98q62 50 101 121q23 40 51 154 q4 14 6 22l51 -14q-5 -19 -10 -45.5t-6 -30.5q-45 -181 -166 -268q-72 -55 -187 -92q-73 -21 -186 -29l-63 -59q20 4 49 4q61 0 104 -40t43 -95q0 -79 -67.5 -137t-159.5 -58q-65 0 -113.5 24.5t-48.5 59.5q0 12 11 22.5t24 10.5q19 0 31.5 -9t35.5 -38q23 -37 66 -37 q50 0 88.5 37.5t38.5 83.5q0 47 -33.5 79.5t-79.5 32.5q-36 0 -82 -20l-26 31l121 106q-210 25 -318.5 71.5t-206.5 155.5q-176 200 -176 508z" />
<glyph unicode="&#xc8;" horiz-adv-x="1329" d="M51 0v35q53 3 83 18.5t52 50.5q29 51 29 191v442v453q0 86 -5 118.5t-22 63.5q-22 36 -51.5 51.5t-83.5 18.5v35h1077l23 -365h-31q-20 82 -33.5 117.5t-41.5 70.5q-47 62 -136.5 85.5t-273.5 23.5h-176v-608h78q88 0 129.5 8.5t76.5 30.5q45 29 66 78t29 141h34v-590 h-34q-3 152 -67.5 209t-229.5 57h-82v-370q0 -104 13 -148.5t54 -81.5q83 -74 269 -74q179 0 288 74q68 48 107 113q23 39 34.5 80t26.5 127l33 -2l-18 -453h-1217zM434 1978q0 7 8 19q25 35 70 35q17 0 35 -9q16 -12 20 -20q9 -13 25 -45l151 -297l-45 -23l-227 273 q-25 31 -31 41.5t-6 25.5z" />
<glyph unicode="&#xc9;" horiz-adv-x="1329" d="M51 0v35q53 3 83 18.5t52 50.5q29 51 29 191v442v453q0 86 -5 118.5t-22 63.5q-22 36 -51.5 51.5t-83.5 18.5v35h1077l23 -365h-31q-20 82 -33.5 117.5t-41.5 70.5q-47 62 -136.5 85.5t-273.5 23.5h-176v-608h78q88 0 129.5 8.5t76.5 30.5q45 29 66 78t29 141h34v-590 h-34q-3 152 -67.5 209t-229.5 57h-82v-370q0 -104 13 -148.5t54 -81.5q83 -74 269 -74q179 0 288 74q68 48 107 113q23 39 34.5 80t26.5 127l33 -2l-18 -453h-1217zM596 1661l145 295l23 47q4 12 24.5 21.5t40.5 9.5q31 0 51.5 -16.5t20.5 -41.5q0 -15 -6 -27.5t-31 -41.5 l-223 -269z" />
<glyph unicode="&#xca;" horiz-adv-x="1329" d="M51 0v35q53 3 83 18.5t52 50.5q29 51 29 191v442v453q0 86 -5 118.5t-22 63.5q-22 36 -51.5 51.5t-83.5 18.5v35h1077l23 -365h-31q-20 82 -33.5 117.5t-41.5 70.5q-47 62 -136.5 85.5t-273.5 23.5h-176v-608h78q88 0 129.5 8.5t76.5 30.5q45 29 66 78t29 141h34v-590 h-34q-3 152 -67.5 209t-229.5 57h-82v-370q0 -104 13 -148.5t54 -81.5q83 -74 269 -74q179 0 288 74q68 48 107 113q23 39 34.5 80t26.5 127l33 -2l-18 -453h-1217zM434 1673l158 283q17 30 31 49q21 31 63 31q17 0 29 -6q18 -6 28 -17.5t35 -56.5l158 -283l-47 -31 l-205 230l-203 -230z" />
<glyph unicode="&#xcb;" horiz-adv-x="1329" d="M51 0v35q53 3 83 18.5t52 50.5q29 51 29 191v442v453q0 86 -5 118.5t-22 63.5q-22 36 -51.5 51.5t-83.5 18.5v35h1077l23 -365h-31q-20 82 -33.5 117.5t-41.5 70.5q-47 62 -136.5 85.5t-273.5 23.5h-176v-608h78q88 0 129.5 8.5t76.5 30.5q45 29 66 78t29 141h34v-590 h-34q-3 152 -67.5 209t-229.5 57h-82v-370q0 -104 13 -148.5t54 -81.5q83 -74 269 -74q179 0 288 74q68 48 107 113q23 39 34.5 80t26.5 127l33 -2l-18 -453h-1217zM389 1755q0 46 34 78.5t81 32.5q46 0 78 -32.5t32 -78.5q0 -49 -33.5 -83t-80.5 -34q-46 0 -78.5 34 t-32.5 83zM741 1755q0 46 32.5 78.5t78.5 32.5q48 0 80.5 -33t32.5 -82q0 -46 -32 -79.5t-79 -33.5q-46 0 -79.5 34t-33.5 83z" />
<glyph unicode="&#xcc;" horiz-adv-x="679" d="M51 0v35q55 3 86 18.5t53 50.5q22 38 25 105q4 55 4 184v344v453v8q0 77 -5.5 111.5t-20.5 62.5q-22 35 -53 51t-85 19v35h574v-35q-55 -3 -86.5 -19t-53.5 -51q-17 -25 -21.5 -60t-4.5 -122v-453v-444q0 -138 29 -189q22 -35 51.5 -50.5t83.5 -18.5l2 -35h-578zM84 1978 q0 7 8 19q25 35 70 35q17 0 35 -9q16 -12 20 -20q9 -13 25 -45l151 -297l-45 -23l-227 273q-25 31 -31 41.5t-6 25.5z" />
<glyph unicode="&#xcd;" horiz-adv-x="679" d="M51 0v35q55 3 86 18.5t53 50.5q22 38 25 105q4 55 4 184v344v453v8q0 77 -5.5 111.5t-20.5 62.5q-22 35 -53 51t-85 19v35h574v-35q-55 -3 -86.5 -19t-53.5 -51q-17 -25 -21.5 -60t-4.5 -122v-453v-444q0 -138 29 -189q22 -35 51.5 -50.5t83.5 -18.5l2 -35h-578z M322 1661l145 295l22 47q4 12 25 21.5t41 9.5q31 0 51.5 -16.5t20.5 -41.5q0 -15 -6 -27.5t-31 -41.5l-223 -269z" />
<glyph unicode="&#xce;" horiz-adv-x="679" d="M51 0v35q55 3 86 18.5t53 50.5q22 38 25 105q4 55 4 184v344v453v8q0 77 -5.5 111.5t-20.5 62.5q-22 35 -53 51t-85 19v35h574v-35q-55 -3 -86.5 -19t-53.5 -51q-17 -25 -21.5 -60t-4.5 -122v-453v-444q0 -138 29 -189q22 -35 51.5 -50.5t83.5 -18.5l2 -35h-578z M109 1673l157 283q17 30 31 49q21 31 63 31q17 0 29 -6q19 -6 29 -18t35 -56l157 -283l-47 -31l-205 230l-202 -230z" />
<glyph unicode="&#xcf;" horiz-adv-x="679" d="M51 0v35q55 3 86 18.5t53 50.5q22 38 25 105q4 55 4 184v344v453v8q0 77 -5.5 111.5t-20.5 62.5q-22 35 -53 51t-85 19v35h574v-35q-55 -3 -86.5 -19t-53.5 -51q-17 -25 -21.5 -60t-4.5 -122v-453v-444q0 -138 29 -189q22 -35 51.5 -50.5t83.5 -18.5l2 -35h-578zM70 1755 q0 46 33.5 78.5t80.5 32.5q46 0 78.5 -32.5t32.5 -78.5q0 -49 -33.5 -83t-81.5 -34q-46 0 -78 34t-32 83zM422 1755q0 46 32 78.5t78 32.5q48 0 80.5 -33t32.5 -82q0 -46 -31.5 -79.5t-78.5 -33.5q-46 0 -79.5 34t-33.5 83z" />
<glyph unicode="&#xd1;" horiz-adv-x="1554" d="M55 0v35q55 3 84 18t51 51q15 29 21 63.5t6 104.5v23v442v453q0 78 -6 115.5t-23 66.5q-21 36 -49.5 51.5t-81.5 18.5v35h404l813 -1088v803v74q0 57 -27 106q-20 35 -50.5 51t-84.5 19v35h391v-35q-54 -3 -83.5 -18.5t-49.5 -51.5q-18 -30 -23.5 -65.5t-5.5 -114.5 v-1196h-69l-987 1307v-1008v-86q7 -66 30 -105q22 -35 52.5 -50.5t85.5 -18.5l-4 -35h-394zM510 1686q34 63 59 94q36 45 99 45q43 0 176 -39l49 -14q43 -13 74 -13q38 0 56.5 12t39.5 46l57 -23l-16 -29q-41 -74 -71 -98.5t-77 -24.5q-42 0 -102 17l-59 18q-42 12 -68 17 q-79 20 -90 20q-25 0 -38 -10.5t-30 -42.5z" />
<glyph unicode="&#xd2;" horiz-adv-x="1746" d="M94 737q0 158 60.5 299t164.5 242t248.5 160t306.5 59q161 0 305 -59.5t247.5 -160.5t164 -242.5t60.5 -299.5q0 -159 -60.5 -301.5t-163.5 -244t-247 -161t-306 -59.5q-163 0 -308 59.5t-248.5 161.5t-163.5 244.5t-60 302.5zM354 741l2 -22q18 -198 83.5 -351 t177.5 -242t255 -89q226 2 372.5 200t146.5 502q0 195 -68 354t-187 249t-264 90q-144 0 -263 -91t-187 -249.5t-68 -350.5zM610 1978q0 7 8 19q11 15 30.5 25t39.5 10q17 0 35 -9q16 -12 20 -20q9 -13 25 -45l152 -297l-46 -23l-227 273q-25 31 -31 41.5t-6 25.5z" />
<glyph unicode="&#xd3;" horiz-adv-x="1746" d="M94 737q0 158 60.5 299t164.5 242t248.5 160t306.5 59q161 0 305 -59.5t247.5 -160.5t164 -242.5t60.5 -299.5q0 -159 -60.5 -301.5t-163.5 -244t-247 -161t-306 -59.5q-163 0 -308 59.5t-248.5 161.5t-163.5 244.5t-60 302.5zM354 741l2 -22q18 -198 83.5 -351 t177.5 -242t255 -89q226 2 372.5 200t146.5 502q0 195 -68 354t-187 249t-264 90q-144 0 -263 -91t-187 -249.5t-68 -350.5zM846 1661l145 295l23 47q4 12 24.5 21.5t40.5 9.5q31 0 51.5 -16.5t20.5 -41.5q0 -15 -6 -27.5t-31 -41.5l-223 -269z" />
<glyph unicode="&#xd4;" horiz-adv-x="1746" d="M94 737q0 158 60.5 299t164.5 242t248.5 160t306.5 59q161 0 305 -59.5t247.5 -160.5t164 -242.5t60.5 -299.5q0 -159 -60.5 -301.5t-163.5 -244t-247 -161t-306 -59.5q-163 0 -308 59.5t-248.5 161.5t-163.5 244.5t-60 302.5zM354 741l2 -22q18 -198 83.5 -351 t177.5 -242t255 -89q226 2 372.5 200t146.5 502q0 195 -68 354t-187 249t-264 90q-144 0 -263 -91t-187 -249.5t-68 -350.5zM639 1673l158 283q20 36 30 49q21 31 64 31q17 0 29 -6q18 -6 28 -17.5t35 -56.5l158 -283l-47 -31l-205 230l-203 -230z" />
<glyph unicode="&#xd5;" horiz-adv-x="1746" d="M94 737q0 158 60.5 299t164.5 242t248.5 160t306.5 59q161 0 305 -59.5t247.5 -160.5t164 -242.5t60.5 -299.5q0 -159 -60.5 -301.5t-163.5 -244t-247 -161t-306 -59.5q-163 0 -308 59.5t-248.5 161.5t-163.5 244.5t-60 302.5zM354 741l2 -22q18 -198 83.5 -351 t177.5 -242t255 -89q226 2 372.5 200t146.5 502q0 195 -68 354t-187 249t-264 90q-144 0 -263 -91t-187 -249.5t-68 -350.5zM588 1686q34 63 59 94q36 45 98 45q44 0 177 -39l49 -14q43 -13 73 -13q38 0 57 12t40 46l57 -23l-16 -29q-41 -74 -71 -98.5t-77 -24.5 q-42 0 -102 17l-60 18q-44 13 -67 17q-79 20 -90 20q-25 0 -38 -10.5t-30 -42.5z" />
<glyph unicode="&#xd6;" horiz-adv-x="1746" d="M94 737q0 158 60.5 299t164.5 242t248.5 160t306.5 59q161 0 305 -59.5t247.5 -160.5t164 -242.5t60.5 -299.5q0 -159 -60.5 -301.5t-163.5 -244t-247 -161t-306 -59.5q-163 0 -308 59.5t-248.5 161.5t-163.5 244.5t-60 302.5zM354 741l2 -22q18 -198 83.5 -351 t177.5 -242t255 -89q226 2 372.5 200t146.5 502q0 195 -68 354t-187 249t-264 90q-144 0 -263 -91t-187 -249.5t-68 -350.5zM469 1632q0 50 34 84.5t85 34.5q50 0 84.5 -34.5t34.5 -84.5q0 -51 -34.5 -86t-84.5 -35q-51 0 -85 35t-34 86zM1063 1632q0 50 35 84.5t86 34.5 q50 0 84.5 -34.5t34.5 -84.5q0 -51 -35.5 -86t-85.5 -35t-84.5 35t-34.5 86z" />
<glyph unicode="&#xd7;" d="M182 428l246 248l-244 242l144 143l243 -244l246 246l146 -145l-246 -246l244 -244l-144 -145l-242 243l-245 -245z" />
<glyph unicode="&#xd8;" horiz-adv-x="1712" d="M84 745q0 147 61 285t161.5 239t238 162.5t284.5 61.5q69 0 160 -16q96 -19 150 -43.5t135 -87.5l127 139h98l-149 -172q117 -78 194.5 -242.5t77.5 -333.5q0 -155 -59.5 -296.5t-160.5 -243.5t-239.5 -163t-290.5 -61q-48 0 -131 11q-103 17 -155 40t-137 87l-121 -136 h-103l156 177q-151 113 -224 258.5t-73 334.5zM350 688q0 -161 39 -268q21 -58 66 -141l749 974q-87 68 -140.5 97t-117.5 43q-36 8 -82 8q-140 0 -233 -66q-55 -42 -115 -129q-166 -235 -166 -518zM512 209q70 -78 120.5 -109.5t127.5 -46.5q39 -8 84 -8q98 0 187.5 44 t152.5 124q87 109 137.5 261t50.5 298q0 93 -20.5 192.5t-51.5 163.5l-36 58z" />
<glyph unicode="&#xd9;" horiz-adv-x="1562" d="M47 1442l2 35h574v-35q-56 -3 -86 -19t-54 -53q-17 -28 -21.5 -60t-4.5 -128v-701q0 -41 1 -87.5t1 -53.5q3 -77 37 -137q40 -72 136 -114t224 -42q167 0 283 78q79 54 111 137t32 234v686q0 64 -2 84q0 60 -27 106q-20 36 -50 51.5t-85 18.5v35h393l2 -35 q-55 -3 -85 -18.5t-52 -51.5q-18 -31 -23 -65t-5 -125v-695q0 -107 -11.5 -169t-42.5 -121q-56 -109 -188 -168.5t-320 -59.5q-196 0 -350 62q-87 35 -143 100q-45 52 -62.5 117.5t-17.5 185.5v748v84q0 57 -27 106q-22 36 -53 51.5t-86 18.5zM621 1978q0 7 8 19 q24 35 69 35q17 0 35 -9q18 -13 21 -20q7 -9 24 -45l152 -297l-45 -23l-228 273q-25 31 -30.5 41.5t-5.5 25.5z" />
<glyph unicode="&#xda;" horiz-adv-x="1562" d="M47 1442l2 35h574v-35q-56 -3 -86 -19t-54 -53q-17 -28 -21.5 -60t-4.5 -128v-701q0 -41 1 -87.5t1 -53.5q3 -77 37 -137q40 -72 136 -114t224 -42q167 0 283 78q79 54 111 137t32 234v686q0 64 -2 84q0 60 -27 106q-20 36 -50 51.5t-85 18.5v35h393l2 -35 q-55 -3 -85 -18.5t-52 -51.5q-18 -31 -23 -65t-5 -125v-695q0 -107 -11.5 -169t-42.5 -121q-56 -109 -188 -168.5t-320 -59.5q-196 0 -350 62q-87 35 -143 100q-45 52 -62.5 117.5t-17.5 185.5v748v84q0 57 -27 106q-22 36 -53 51.5t-86 18.5zM825 1661l146 295l22 47 q4 12 25 21.5t41 9.5q31 0 51 -16.5t20 -41.5q0 -15 -6 -28t-30 -41l-224 -269z" />
<glyph unicode="&#xdb;" horiz-adv-x="1562" d="M47 1442l2 35h574v-35q-56 -3 -86 -19t-54 -53q-17 -28 -21.5 -60t-4.5 -128v-701q0 -41 1 -87.5t1 -53.5q3 -77 37 -137q40 -72 136 -114t224 -42q167 0 283 78q79 54 111 137t32 234v686q0 64 -2 84q0 60 -27 106q-20 36 -50 51.5t-85 18.5v35h393l2 -35 q-55 -3 -85 -18.5t-52 -51.5q-18 -31 -23 -65t-5 -125v-695q0 -107 -11.5 -169t-42.5 -121q-56 -109 -188 -168.5t-320 -59.5q-196 0 -350 62q-87 35 -143 100q-45 52 -62.5 117.5t-17.5 185.5v748v84q0 57 -27 106q-22 36 -53 51.5t-86 18.5zM623 1673l157 283q17 30 31 49 q21 31 63 31q17 0 29 -6q19 -6 29 -18t35 -56l157 -283l-47 -31l-205 230l-202 -230z" />
<glyph unicode="&#xdc;" horiz-adv-x="1562" d="M47 1442l2 35h574v-35q-56 -3 -86 -19t-54 -53q-17 -28 -21.5 -60t-4.5 -128v-701q0 -41 1 -87.5t1 -53.5q3 -77 37 -137q40 -72 136 -114t224 -42q167 0 283 78q79 54 111 137t32 234v686q0 64 -2 84q0 60 -27 106q-20 36 -50 51.5t-85 18.5v35h393l2 -35 q-55 -3 -85 -18.5t-52 -51.5q-18 -31 -23 -65t-5 -125v-695q0 -107 -11.5 -169t-42.5 -121q-56 -109 -188 -168.5t-320 -59.5q-196 0 -350 62q-87 35 -143 100q-45 52 -62.5 117.5t-17.5 185.5v748v84q0 57 -27 106q-22 36 -53 51.5t-86 18.5zM543 1665q0 49 34.5 84 t84.5 35t84 -34.5t34 -82.5q0 -51 -33.5 -86t-84.5 -35q-50 0 -84.5 35t-34.5 84zM991 1667q0 48 35 82.5t86 34.5q49 0 84 -34.5t35 -82.5q0 -50 -35 -85.5t-84 -35.5q-51 0 -86 35t-35 86z" />
<glyph unicode="&#xdf;" horiz-adv-x="1085" d="M16 0l2 25q73 3 100 47.5t27 167.5l2 798q0 157 24 234t91 137q98 92 256 92q160 0 257 -93t97 -245q0 -145 -92 -231q-30 -30 -60 -47t-91 -37q191 -12 290 -113t99 -282q0 -195 -116.5 -330t-283.5 -135q-92 0 -151 44.5t-59 112.5q0 37 19.5 58.5t53.5 21.5 q39 0 55.5 -24.5t16.5 -81.5v-10q0 -29 15 -47.5t40 -18.5q85 0 143 120.5t58 299.5q0 128 -37 214t-106 118q-53 24 -144 24h-26v35q96 3 138 65.5t42 202.5q0 161 -40.5 238.5t-125.5 77.5q-88 0 -131 -82q-18 -35 -22.5 -69t-4.5 -136v-1151h-336z" />
<glyph unicode="&#xe0;" horiz-adv-x="1003" d="M86 213q0 127 107 188q43 25 90 41t145 39q125 29 159 63t34 132q0 101 -38.5 147.5t-123.5 46.5q-54 0 -86 -23.5t-37 -66.5l-6 -55q-4 -39 -31 -64.5t-63 -25.5q-41 0 -69 27t-28 65q0 86 98 140.5t252 54.5q150 0 240 -56q55 -34 75.5 -80.5t20.5 -138.5v-461 q0 -54 3 -72.5t14 -41.5q20 -41 65 -41q60 0 101 69l26 -10q-50 -121 -205 -121q-157 0 -200 117q-12 -11 -32.5 -28.5t-27.5 -24.5q-84 -64 -207 -64t-199.5 68t-76.5 176zM236 1358q0 6 8 18q24 35 69 35q19 0 35 -8q17 -13 21 -21q7 -9 24 -45l152 -297l-45 -22l-228 272 q-24 30 -30 41.5t-6 26.5zM291 227q0 -81 43.5 -132.5t109.5 -51.5q82 0 129.5 63.5t47.5 172.5v231q-43 -31 -93 -49q-114 -46 -156.5 -73.5t-62.5 -70.5q-18 -41 -18 -90z" />
<glyph unicode="&#xe1;" horiz-adv-x="1003" d="M86 213q0 127 107 188q43 25 90 41t145 39q125 29 159 63t34 132q0 101 -38.5 147.5t-123.5 46.5q-54 0 -86 -23.5t-37 -66.5l-6 -55q-4 -39 -31 -64.5t-63 -25.5q-41 0 -69 27t-28 65q0 86 98 140.5t252 54.5q150 0 240 -56q55 -34 75.5 -80.5t20.5 -138.5v-461 q0 -54 3 -72.5t14 -41.5q20 -41 65 -41q60 0 101 69l26 -10q-50 -121 -205 -121q-157 0 -200 117q-12 -11 -32.5 -28.5t-27.5 -24.5q-84 -64 -207 -64t-199.5 68t-76.5 176zM291 227q0 -81 43.5 -132.5t109.5 -51.5q82 0 129.5 63.5t47.5 172.5v231q-43 -31 -93 -49 q-114 -46 -156.5 -73.5t-62.5 -70.5q-18 -41 -18 -90zM451 1040l145 295l22 47q4 12 25 21.5t41 9.5q31 0 51.5 -16t20.5 -41q0 -15 -6.5 -28t-30.5 -42l-223 -268z" />
<glyph unicode="&#xe2;" horiz-adv-x="1003" d="M86 213q0 127 107 188q43 25 90 41t145 39q125 29 159 63t34 132q0 101 -38.5 147.5t-123.5 46.5q-54 0 -86 -23.5t-37 -66.5l-6 -55q-4 -39 -31 -64.5t-63 -25.5q-41 0 -69 27t-28 65q0 86 98 140.5t252 54.5q150 0 240 -56q55 -34 75.5 -80.5t20.5 -138.5v-461 q0 -54 3 -72.5t14 -41.5q20 -41 65 -41q60 0 101 69l26 -10q-50 -121 -205 -121q-157 0 -200 117q-12 -11 -32.5 -28.5t-27.5 -24.5q-84 -64 -207 -64t-199.5 68t-76.5 176zM254 1053l158 282q20 36 30 49q21 31 64 31q17 0 29 -6q18 -6 28 -17.5t35 -56.5l158 -282l-47 -31 l-205 229l-203 -229zM291 227q0 -81 43.5 -132.5t109.5 -51.5q82 0 129.5 63.5t47.5 172.5v231q-43 -31 -93 -49q-114 -46 -156.5 -73.5t-62.5 -70.5q-18 -41 -18 -90z" />
<glyph unicode="&#xe3;" horiz-adv-x="1003" d="M86 213q0 127 107 188q43 25 90 41t145 39q125 29 159 63t34 132q0 101 -38.5 147.5t-123.5 46.5q-54 0 -86 -23.5t-37 -66.5l-6 -55q-4 -39 -31 -64.5t-63 -25.5q-41 0 -69 27t-28 65q0 86 98 140.5t252 54.5q150 0 240 -56q55 -34 75.5 -80.5t20.5 -138.5v-461 q0 -54 3 -72.5t14 -41.5q20 -41 65 -41q60 0 101 69l26 -10q-50 -121 -205 -121q-157 0 -200 117q-12 -11 -32.5 -28.5t-27.5 -24.5q-84 -64 -207 -64t-199.5 68t-76.5 176zM207 1065q34 63 59 94q36 45 99 45q43 0 176 -39l49 -14q40 -12 74 -12q38 0 56.5 11.5t39.5 45.5 l57 -22l-16 -29q-41 -74 -71 -98.5t-77 -24.5q-46 0 -102 16l-59 19q-31 9 -68 16q-82 21 -90 21q-24 0 -37 -10.5t-31 -43.5zM291 227q0 -81 43.5 -132.5t109.5 -51.5q82 0 129.5 63.5t47.5 172.5v231q-43 -31 -93 -49q-114 -46 -156.5 -73.5t-62.5 -70.5q-18 -41 -18 -90z " />
<glyph unicode="&#xe4;" horiz-adv-x="1003" d="M86 213q0 127 107 188q43 25 90 41t145 39q125 29 159 63t34 132q0 101 -38.5 147.5t-123.5 46.5q-54 0 -86 -23.5t-37 -66.5l-6 -55q-4 -39 -31 -64.5t-63 -25.5q-41 0 -69 27t-28 65q0 86 98 140.5t252 54.5q150 0 240 -56q55 -34 75.5 -80.5t20.5 -138.5v-461 q0 -54 3 -72.5t14 -41.5q20 -41 65 -41q60 0 101 69l26 -10q-50 -121 -205 -121q-157 0 -200 117q-12 -11 -32.5 -28.5t-27.5 -24.5q-84 -64 -207 -64t-199.5 68t-76.5 176zM217 1112q0 46 34 78.5t81 32.5q46 0 78 -32.5t32 -78.5q0 -49 -33.5 -83t-80.5 -34 q-46 0 -78.5 34t-32.5 83zM291 227q0 -81 43.5 -132.5t109.5 -51.5q82 0 129.5 63.5t47.5 172.5v231q-43 -31 -93 -49q-114 -46 -156.5 -73.5t-62.5 -70.5q-18 -41 -18 -90zM569 1112q0 46 32.5 78.5t78.5 32.5q48 0 80.5 -33t32.5 -82q0 -46 -32 -79.5t-79 -33.5 q-46 0 -79.5 34t-33.5 83z" />
<glyph unicode="&#xe5;" horiz-adv-x="1003" d="M86 213q0 127 107 188q43 25 90 41t145 39q125 29 159 63t34 132q0 101 -38.5 147.5t-123.5 46.5q-54 0 -86 -23.5t-37 -66.5l-6 -55q-4 -39 -31 -64.5t-63 -25.5q-41 0 -69 27t-28 65q0 86 98 140.5t252 54.5q150 0 240 -56q55 -34 75.5 -80.5t20.5 -138.5v-461 q0 -54 3 -72.5t14 -41.5q20 -41 65 -41q60 0 101 69l26 -10q-50 -121 -205 -121q-157 0 -200 117q-12 -11 -32.5 -28.5t-27.5 -24.5q-84 -64 -207 -64t-199.5 68t-76.5 176zM291 227q0 -81 43.5 -132.5t109.5 -51.5q82 0 129.5 63.5t47.5 172.5v231q-43 -31 -93 -49 q-114 -46 -156.5 -73.5t-62.5 -70.5q-18 -41 -18 -90zM346 1149q0 67 48 115.5t114 48.5q67 0 114.5 -49t47.5 -117q0 -66 -47.5 -113t-114.5 -47q-66 0 -114 48t-48 114zM414 1149q0 -38 27 -65t67 -27t68 27t28 65q0 40 -28 68t-68 28t-67 -28t-27 -68z" />
<glyph unicode="&#xe6;" horiz-adv-x="1562" d="M86 215q0 97 60 155t192 89l115 26q94 22 123.5 60.5t29.5 136.5q0 96 -38.5 142t-118.5 46q-62 0 -91.5 -23.5t-38.5 -80.5q-9 -64 -31 -90.5t-65 -26.5q-41 0 -65.5 25.5t-24.5 66.5q0 78 98 130.5t248 52.5q116 0 181.5 -27.5t103.5 -93.5q10 8 27 22.5t24 18.5 q56 37 134 59.5t151 22.5q167 0 272.5 -92.5t120.5 -253.5h-655q-17 -102 -17 -152q0 -181 91 -287t245 -106q220 0 295 203l41 -2q-24 -65 -44.5 -98t-59.5 -66q-117 -105 -297 -105q-117 0 -214.5 41t-191.5 129q-9 -10 -18.5 -20t-21 -20.5t-17.5 -16.5 q-117 -111 -264 -111q-119 0 -199 70.5t-80 175.5zM293 207q0 -72 40 -117t103 -45q83 0 127.5 65t44.5 187v213q-32 -29 -50 -39.5t-73 -32.5q-79 -31 -116 -59.5t-54 -73.5q-22 -43 -22 -98zM846 637h438q-6 112 -55.5 171.5t-134.5 59.5q-38 0 -78.5 -18t-69.5 -47 q-31 -33 -51.5 -66t-48.5 -100z" />
<glyph unicode="&#xe7;" horiz-adv-x="995" d="M86 426q0 217 137 358.5t346 141.5q131 0 227.5 -56.5t96.5 -134.5q0 -35 -24.5 -59.5t-59.5 -24.5q-31 0 -55 17q-20 15 -29.5 32.5t-24.5 67.5q-15 54 -43.5 78t-76.5 24q-121 0 -200 -123.5t-79 -312.5q0 -185 84.5 -294t226.5 -109q206 0 289 209l33 -4 q-23 -73 -45 -109t-64 -72q-49 -43 -116 -67q-64 -23 -138 -25l-61 -55q18 2 47 2q61 0 105.5 -39.5t44.5 -93.5q0 -82 -68.5 -139.5t-163.5 -57.5q-64 0 -111 25t-47 59q0 14 10 23.5t25 9.5q19 0 31 -8.5t35 -38.5q17 -20 31 -27.5t36 -7.5q49 0 87 37t38 84t-32.5 78.5 t-79.5 31.5q-33 0 -82 -20l-27 31l129 108q-107 12 -166 36t-119 77q-147 132 -147 348z" />
<glyph unicode="&#xe8;" horiz-adv-x="1032" d="M86 432q0 216 137 354t352 138q175 0 280.5 -91.5t115.5 -254.5h-654q-16 -91 -16 -152q0 -180 89.5 -286.5t240.5 -106.5q109 0 185.5 52.5t113.5 150.5l37 -3q-20 -65 -39.5 -97.5t-61.5 -69.5q-117 -99 -301 -99q-218 0 -348.5 127t-130.5 338zM299 1358q0 6 8 18 q25 35 70 35q19 0 35 -8q15 -11 20 -21q9 -13 25 -45l151 -297l-45 -22l-227 272q-25 31 -31 42t-6 26zM328 635h436q-24 233 -195 233q-83 0 -144.5 -59.5t-96.5 -173.5z" />
<glyph unicode="&#xe9;" horiz-adv-x="1032" d="M86 432q0 216 137 354t352 138q175 0 280.5 -91.5t115.5 -254.5h-654q-16 -91 -16 -152q0 -180 89.5 -286.5t240.5 -106.5q109 0 185.5 52.5t113.5 150.5l37 -3q-20 -65 -39.5 -97.5t-61.5 -69.5q-117 -99 -301 -99q-218 0 -348.5 127t-130.5 338zM328 635h436 q-24 233 -195 233q-83 0 -144.5 -59.5t-96.5 -173.5zM537 1040l145 295l23 47q4 12 24.5 21.5t40.5 9.5q31 0 51.5 -16t20.5 -41q0 -15 -6.5 -28t-30.5 -42l-223 -268z" />
<glyph unicode="&#xea;" horiz-adv-x="1032" d="M86 432q0 216 137 354t352 138q175 0 280.5 -91.5t115.5 -254.5h-654q-16 -91 -16 -152q0 -180 89.5 -286.5t240.5 -106.5q109 0 185.5 52.5t113.5 150.5l37 -3q-20 -65 -39.5 -97.5t-61.5 -69.5q-117 -99 -301 -99q-218 0 -348.5 127t-130.5 338zM326 1053l157 282 q17 30 31 49q21 31 64 31q16 0 28 -6q19 -6 29 -18t35 -56l157 -282l-47 -31l-205 229l-202 -229zM328 635h436q-24 233 -195 233q-83 0 -144.5 -59.5t-96.5 -173.5z" />
<glyph unicode="&#xeb;" horiz-adv-x="1032" d="M86 432q0 216 137 354t352 138q175 0 280.5 -91.5t115.5 -254.5h-654q-16 -91 -16 -152q0 -180 89.5 -286.5t240.5 -106.5q109 0 185.5 52.5t113.5 150.5l37 -3q-20 -65 -39.5 -97.5t-61.5 -69.5q-117 -99 -301 -99q-218 0 -348.5 127t-130.5 338zM289 1135q0 46 33.5 78 t80.5 32q46 0 78.5 -32t32.5 -78q0 -49 -33.5 -83t-81.5 -34q-46 0 -78 34t-32 83zM328 635h436q-24 233 -195 233q-83 0 -144.5 -59.5t-96.5 -173.5zM641 1135q0 46 32.5 78t78.5 32q47 0 79.5 -33t32.5 -82q0 -46 -31.5 -79t-78.5 -33q-46 0 -79.5 34t-33.5 83z" />
<glyph unicode="&#xec;" horiz-adv-x="563" d="M10 1358q0 6 8 18q25 35 70 35q19 0 35 -8q15 -11 20 -21q9 -13 25 -45l151 -297l-45 -22l-227 272q-25 31 -31 42t-6 26zM53 0v25q46 2 69 13t40 42q26 50 26 162v200v187q0 121 -14 155q-20 57 -119 66l-2 24q122 11 179 19.5t169 34.5q-12 -61 -12 -105v-585 q0 -120 27 -165t102 -48l2 -25h-467z" />
<glyph unicode="&#xed;" horiz-adv-x="563" d="M53 0v25q46 2 69 13t40 42q26 50 26 162v200v187q0 121 -14 155q-20 57 -119 66l-2 24q122 11 179 19.5t169 34.5q-12 -61 -12 -105v-585q0 -120 27 -165t102 -48l2 -25h-467zM248 1040l145 295l23 47q4 12 24.5 21.5t40.5 9.5q31 0 51.5 -16t20.5 -41q0 -15 -6.5 -28 t-30.5 -42l-223 -268z" />
<glyph unicode="&#xee;" horiz-adv-x="563" d="M41 1053l158 282q20 36 30 49q21 31 64 31q17 0 29 -6q18 -6 28 -17.5t35 -56.5l158 -282l-47 -31l-205 229l-203 -229zM53 0v25q46 2 69 13t40 42q26 50 26 162v200v187q0 121 -14 155q-20 57 -119 66l-2 24q122 11 179 19.5t169 34.5q-12 -61 -12 -105v-585 q0 -120 27 -165t102 -48l2 -25h-467z" />
<glyph unicode="&#xef;" horiz-adv-x="563" d="M-6 1135q0 46 34 78t81 32q46 0 78 -32t32 -78q0 -49 -33.5 -83t-81.5 -34q-46 0 -78 34t-32 83zM53 0v25q46 2 69 13t40 42q26 50 26 162v200v187q0 121 -14 155q-20 57 -119 66l-2 24q122 11 179 19.5t169 34.5q-12 -61 -12 -105v-585q0 -120 27 -165t102 -48l2 -25 h-467zM346 1135q0 46 32.5 78t78.5 32q47 0 79.5 -33t32.5 -82q0 -46 -31.5 -79t-78.5 -33q-46 0 -79.5 34t-33.5 83z" />
<glyph unicode="&#xf1;" horiz-adv-x="1179" d="M55 0v25q78 3 105.5 46.5t27.5 170.5v200v236q0 96 -27.5 131t-105.5 41v24q121 11 177 19.5t167 34.5q-2 -14 -2 -31q-6 -59 -6 -61l2 -54q14 14 68 62q47 39 115 61.5t139 22.5q149 0 231 -82q37 -39 49.5 -84.5t12.5 -149.5v-374q0 -123 26.5 -166.5t104.5 -46.5 l2 -25h-459v23q38 4 59.5 18t38.5 45q10 24 13 43q3 15 6 53q2 27 2 51v369q0 81 -4 108t-23 60q-19 37 -57 57.5t-88 20.5q-101 0 -172 -74q-39 -42 -52.5 -78t-13.5 -102v-330q0 -131 25.5 -182t95.5 -57l-2 -25h-455zM346 1065q32 59 60 94q36 45 98 45q43 0 176 -39 l49 -14q40 -12 74 -12q38 0 56.5 11.5t39.5 45.5l57 -22l-16 -29q-41 -74 -70.5 -98.5t-76.5 -24.5t-103 16l-59 19q-31 9 -68 16q-83 21 -90 21q-24 0 -36.5 -10.5t-30.5 -43.5z" />
<glyph unicode="&#xf2;" horiz-adv-x="1175" d="M86 446q0 204 144 341t360 137q215 0 358.5 -137t143.5 -341q0 -205 -143 -340t-359 -135q-218 0 -361 134.5t-143 340.5zM301 446q0 -172 84 -291.5t205 -119.5q119 0 201.5 119.5t82.5 291.5q0 175 -82 293.5t-202 118.5q-123 0 -206 -118.5t-83 -293.5zM334 1358 q0 6 8 18q11 15 30.5 25t39.5 10q18 0 34 -8q17 -13 21 -21q9 -13 25 -45l151 -297l-45 -22l-227 272q-25 31 -31 42t-6 26z" />
<glyph unicode="&#xf3;" horiz-adv-x="1175" d="M86 446q0 204 144 341t360 137q215 0 358.5 -137t143.5 -341q0 -205 -143 -340t-359 -135q-218 0 -361 134.5t-143 340.5zM301 446q0 -172 84 -291.5t205 -119.5q119 0 201.5 119.5t82.5 291.5q0 175 -82 293.5t-202 118.5q-123 0 -206 -118.5t-83 -293.5zM547 1040 l145 295l23 47q4 12 24.5 21.5t40.5 9.5q31 0 51.5 -16t20.5 -41q0 -15 -6.5 -28t-30.5 -42l-223 -268z" />
<glyph unicode="&#xf4;" horiz-adv-x="1175" d="M86 446q0 204 144 341t360 137q215 0 358.5 -137t143.5 -341q0 -205 -143 -340t-359 -135q-218 0 -361 134.5t-143 340.5zM301 446q0 -172 84 -291.5t205 -119.5q119 0 201.5 119.5t82.5 291.5q0 175 -82 293.5t-202 118.5q-123 0 -206 -118.5t-83 -293.5zM348 1053 l158 282q17 30 31 49q21 31 63 31q17 0 29 -6q18 -6 28 -17.5t35 -56.5l158 -282l-47 -31l-205 229l-203 -229z" />
<glyph unicode="&#xf5;" horiz-adv-x="1175" d="M86 446q0 204 144 341t360 137q215 0 358.5 -137t143.5 -341q0 -205 -143 -340t-359 -135q-218 0 -361 134.5t-143 340.5zM301 446q0 -172 84 -291.5t205 -119.5q119 0 201.5 119.5t82.5 291.5q0 175 -82 293.5t-202 118.5q-123 0 -206 -118.5t-83 -293.5zM303 1065 q34 63 59 94q36 45 99 45q43 0 176 -39l49 -14q40 -12 74 -12q38 0 56.5 11.5t39.5 45.5l57 -22l-16 -29q-41 -74 -70.5 -98.5t-76.5 -24.5t-103 16l-59 19q-31 9 -68 16q-83 21 -90 21q-24 0 -37 -10.5t-31 -43.5z" />
<glyph unicode="&#xf6;" horiz-adv-x="1175" d="M86 446q0 204 144 341t360 137q215 0 358.5 -137t143.5 -341q0 -205 -143 -340t-359 -135q-218 0 -361 134.5t-143 340.5zM301 446q0 -172 84 -291.5t205 -119.5q119 0 201.5 119.5t82.5 291.5q0 175 -82 293.5t-202 118.5q-123 0 -206 -118.5t-83 -293.5zM305 1112 q0 46 34 78.5t81 32.5q46 0 78 -32.5t32 -78.5q0 -49 -33.5 -83t-80.5 -34q-46 0 -78.5 34t-32.5 83zM657 1112q0 46 32.5 78.5t78.5 32.5q48 0 80.5 -33t32.5 -82q0 -46 -32 -79.5t-79 -33.5q-46 0 -79.5 34t-33.5 83z" />
<glyph unicode="&#xf7;" horiz-adv-x="1216" d="M88 414v139h948v-139h-948zM446 207q0 49 34 83t83 34q51 0 83 -33t32 -84q0 -47 -34 -82t-81 -35q-49 0 -83 34t-34 83zM446 758q0 49 33.5 82.5t83.5 33.5q46 0 80.5 -35t34.5 -81q0 -47 -34 -82t-81 -35q-49 0 -83 33.5t-34 83.5z" />
<glyph unicode="&#xf8;" horiz-adv-x="1142" d="M78 457q0 192 141.5 326.5t343.5 134.5q39 0 103 -11q56 -9 95.5 -24t108.5 -54l97 103h90l-129 -141q29 -38 59 -89q76 -127 76 -266q0 -196 -142.5 -328.5t-353.5 -132.5q-75 0 -138 19t-138 65l-84 -92h-90l116 127q-56 73 -69 92q-86 124 -86 271zM291 446 q0 -64 9 -105.5t38 -113.5l453 502q-74 127 -213 127q-127 0 -207 -114t-80 -296zM362 147q87 -112 207 -112q121 0 204 119t83 290q0 59 -7.5 100t-31.5 107z" />
<glyph unicode="&#xf9;" horiz-adv-x="1155" d="M39 850v24q125 11 183 20t165 34q-10 -64 -10 -105v-538q0 -79 6 -109t27 -59q48 -64 157 -64q213 0 213 252v373q0 96 -28 131t-105 41v24q123 11 179 19.5t163 34.5q-8 -51 -8 -105v-532q0 -71 4 -102.5t16 -61.5q34 -76 113 -82v-25l-338 -49l12 140 q-45 -53 -77.5 -76t-83.5 -41q-77 -25 -152 -25q-147 0 -239 82q-40 38 -52 81t-12 161v385q0 96 -27.5 131t-105.5 41zM313 1358q0 4 9 18q24 35 69 35q19 0 35 -8q15 -11 20 -21q9 -13 25 -45l152 -297l-45 -22l-228 272q-25 31 -31 42t-6 26z" />
<glyph unicode="&#xfa;" horiz-adv-x="1155" d="M39 850v24q125 11 183 20t165 34q-10 -64 -10 -105v-538q0 -79 6 -109t27 -59q48 -64 157 -64q213 0 213 252v373q0 96 -28 131t-105 41v24q123 11 179 19.5t163 34.5q-8 -51 -8 -105v-532q0 -71 4 -102.5t16 -61.5q34 -76 113 -82v-25l-338 -49l12 140 q-45 -53 -77.5 -76t-83.5 -41q-77 -25 -152 -25q-147 0 -239 82q-40 38 -52 81t-12 161v385q0 96 -27.5 131t-105.5 41zM539 1040l145 295l23 47q4 12 24.5 21.5t40.5 9.5q31 0 51.5 -16t20.5 -41q0 -15 -6.5 -28t-30.5 -42l-223 -268z" />
<glyph unicode="&#xfb;" horiz-adv-x="1155" d="M39 850v24q125 11 183 20t165 34q-10 -64 -10 -105v-538q0 -79 6 -109t27 -59q48 -64 157 -64q213 0 213 252v373q0 96 -28 131t-105 41v24q123 11 179 19.5t163 34.5q-8 -51 -8 -105v-532q0 -71 4 -102.5t16 -61.5q34 -76 113 -82v-25l-338 -49l12 140 q-45 -53 -77.5 -76t-83.5 -41q-77 -25 -152 -25q-147 0 -239 82q-40 38 -52 81t-12 161v385q0 96 -27.5 131t-105.5 41zM336 1053l158 282q20 36 30 49q21 31 64 31q16 0 28 -6q19 -6 29 -18t35 -56l158 -282l-47 -31l-205 229l-203 -229z" />
<glyph unicode="&#xfc;" horiz-adv-x="1155" d="M37 850v24q125 11 183 20t165 34q-10 -64 -10 -105v-538q0 -79 6 -109t27 -59q48 -64 157 -64q213 0 213 252v373q0 96 -28 131t-105 41v24q123 11 179 19.5t163 34.5q-8 -51 -8 -105v-532q0 -71 4 -102.5t16 -61.5q34 -76 113 -82v-25l-338 -49l12 140 q-45 -53 -77.5 -76t-83.5 -41q-77 -25 -152 -25q-148 0 -240 82q-39 38 -51 81t-12 161v385q0 96 -27.5 131t-105.5 41zM279 1112q0 46 33.5 78.5t80.5 32.5q46 0 78.5 -32.5t32.5 -78.5q0 -49 -33.5 -83t-81.5 -34q-46 0 -78 34t-32 83zM631 1112q0 46 32 78.5t78 32.5 q48 0 80.5 -33t32.5 -82q0 -46 -32 -79.5t-79 -33.5q-46 0 -79 34t-33 83z" />
<glyph unicode="&#xff;" horiz-adv-x="919" d="M-63 897h509v-23q-65 -3 -91.5 -20t-26.5 -57q0 -37 45 -142l182 -426l172 426q41 102 41 142t-25.5 57t-87.5 20l-2 23h336v-23q-39 -3 -60.5 -15t-47.5 -42q-1 -1 -25 -31q-2 -5 -9 -18.5t-11 -22.5q-32 -62 -43 -90l-383 -909q-37 -88 -76 -145q-53 -84 -139 -84 q-46 0 -75.5 24.5t-29.5 61.5q0 36 24.5 59t61.5 23q23 0 37 -2q40 -7 49 -7q51 0 94 82q27 55 46.5 117.5t19.5 95.5q0 44 -25 105l-256 579q-7 15 -43 90q-27 50 -47 72q-27 30 -50 42t-62 15zM221 1135q0 46 34 78t81 32q46 0 78 -32t32 -78q0 -49 -33.5 -83t-80.5 -34 q-46 0 -78.5 34t-32.5 83zM573 1135q0 46 32.5 78t78.5 32q48 0 80.5 -33t32.5 -82q0 -46 -32 -79t-79 -33q-46 0 -79.5 34t-33.5 83z" />
<glyph unicode="&#x131;" horiz-adv-x="563" d="M53 0v25q46 2 69 13t40 42q26 50 26 162v200v187q0 121 -14 155q-20 57 -119 66l-2 24q122 11 179 19.5t169 34.5q-12 -61 -12 -105v-585q0 -120 27 -165t102 -48l2 -25h-467z" />
<glyph unicode="&#x152;" horiz-adv-x="2134" d="M94 731q0 159 60 301.5t163 245t246.5 162t304.5 59.5q73 0 248 -22h838v-369h-31q-7 71 -21 109.5t-44 74.5q-47 59 -117 84q-65 26 -146 29q-9 0 -57 2t-88 2h-182v-606l88 -2h12q75 0 115.5 9.5t75.5 35.5q85 62 88 213h34v-590h-36q-5 86 -23 137q-25 69 -87.5 99 t-178.5 30h-90v-360q0 -177 76.5 -245.5t273.5 -68.5q99 0 167.5 19.5t125.5 64.5q54 45 94 117q24 40 35 79t20 114l35 -2l-18 -453h-985q-131 -31 -236 -31q-156 0 -297 59.5t-242.5 160.5t-161 242.5t-59.5 299.5zM354 733q0 -195 66.5 -354.5t183.5 -250.5t258 -91 q45 0 80.5 18t52.5 51q31 47 31 156v979q0 102 -40 146.5t-132 44.5q-138 0 -253 -92.5t-181 -253t-66 -353.5z" />
<glyph unicode="&#x153;" horiz-adv-x="1830" d="M86 438q0 133 66.5 245t181.5 176.5t252 64.5q96 0 186 -35q69 -27 108.5 -58t96.5 -100q46 63 65 82q54 51 141 81t179 30q99 0 180 -34.5t133 -96.5q36 -45 53.5 -88.5t30.5 -126.5h-655q-14 -95 -14 -162q0 -168 92.5 -274.5t238.5 -106.5q107 0 183 51.5t114 149.5 l41 2q-46 -133 -150 -202t-255 -69q-111 0 -199 35q-62 25 -99.5 55.5t-88.5 100.5q-31 -45 -49 -66q-59 -57 -148.5 -90t-189.5 -33q-212 0 -353 133.5t-141 335.5zM299 446q0 -179 82.5 -296t208.5 -117t204 112.5t78 294.5q0 189 -77.5 305.5t-204.5 116.5 q-129 0 -210 -116.5t-81 -299.5zM1116 635h436q-4 55 -11 82.5t-23 58.5q-24 42 -66 67t-92 25q-95 0 -164 -82q-28 -34 -43.5 -63t-36.5 -88z" />
<glyph unicode="&#x160;" horiz-adv-x="1153" d="M94 469h37q10 -79 21.5 -121.5t35.5 -95.5q47 -103 142.5 -161t216.5 -58q133 0 218 79.5t85 204.5q0 56 -12 93q-25 76 -97.5 136t-246.5 148q-131 67 -183.5 103t-93.5 88q-80 106 -80 231q0 167 117.5 275t300.5 108q111 0 213 -45l59 -27q16 -8 37 -8q54 0 60 78h34 l29 -463l-35 -2q-20 126 -43 191q-34 95 -120 152t-195 57q-112 0 -181 -61t-69 -161q0 -95 76 -168q62 -48 108 -75q60 -31 156 -84q217 -116 297 -214t80 -249q0 -200 -135.5 -326.5t-350.5 -126.5q-150 0 -276 66q-53 30 -74 30q-56 0 -65 -86h-35zM344 2003l47 29 l203 -232l205 232l47 -29l-158 -285q-10 -20 -29 -51q-25 -29 -65 -29q-11 0 -31 4q-18 7 -25.5 17t-35.5 59z" />
<glyph unicode="&#x161;" horiz-adv-x="786" d="M47 301l25 2q19 -85 47 -139q38 -66 107 -106t145 -40q78 0 127 38.5t49 101.5q0 87 -127 170l-80 53q-145 97 -191.5 154.5t-46.5 136.5q0 109 78 179.5t199 70.5q84 0 141 -29l37 -19q16 -8 33 -8q35 0 35 54h24l17 -297h-23q-13 67 -39 120q-30 58 -82.5 92.5 t-111.5 34.5q-60 0 -98 -33t-38 -87q0 -62 54 -113q44 -39 174 -123q69 -44 96 -65t55 -50q68 -71 68 -161q0 -117 -93.5 -194t-234.5 -77q-49 0 -80.5 8.5t-117.5 44.5q-30 13 -54 13q-48 0 -51 -64h-24zM141 1382l47 29l203 -231l205 231l47 -29l-158 -284 q-17 -32 -28 -51q-25 -29 -66 -29q-11 0 -31 4q-18 7 -25.5 17t-35.5 59z" />
<glyph unicode="&#x178;" horiz-adv-x="1286" d="M-98 1442v35h653v-35q-75 -3 -111 -25.5t-36 -68.5q0 -34 26 -82l49 -84l260 -467l269 467q73 125 73 172q0 44 -37 64.5t-124 23.5v35h460v-35q-34 -3 -49 -6q-51 -16 -106 -64q-6 -7 -22 -24t-23 -25q-29 -35 -92 -141l-318 -537v-350q0 -79 7 -119.5t26 -71.5 q22 -35 51.5 -50.5t81.5 -18.5v-35h-575v35q56 3 84.5 17.5t50.5 51.5q23 37 26 105q2 55 2 295v106l-329 572q-33 58 -54 84q-36 59 -86 106q-15 15 -51 39q-49 26 -106 31zM406 1755q0 46 33.5 78.5t80.5 32.5q46 0 78.5 -32.5t32.5 -78.5q0 -49 -33.5 -83t-81.5 -34 q-46 0 -78 34t-32 83zM758 1755q0 46 32 78.5t78 32.5q48 0 80.5 -33t32.5 -82q0 -46 -32 -79.5t-79 -33.5q-46 0 -79 34t-33 83z" />
<glyph unicode="&#x17d;" horiz-adv-x="1271" d="M-6 0l883 1405h-267q-226 0 -338 -45q-74 -32 -125 -94q-35 -42 -51 -83.5t-30 -121.5h-33l22 416h1145l-881 -1411h308q252 0 387 59q85 39 151 123q43 56 60.5 102t27.5 133h33l-26 -483h-1266zM385 2003l47 29l203 -232l205 232l47 -29l-158 -285q-10 -20 -29 -51 q-25 -29 -65 -29q-11 0 -31 4q-18 7 -25.5 17t-35.5 59z" />
<glyph unicode="&#x17e;" horiz-adv-x="933" d="M16 0l576 840h-178q-127 0 -192 -49t-105 -175h-25l37 281h743l-579 -844h229q91 0 139 10.5t93 40.5q51 33 79.5 82t47.5 131l24 -2l-28 -315h-861zM256 1382l47 29l203 -231l205 231l47 -29l-158 -284q-10 -20 -29 -51q-25 -29 -65 -29q-11 0 -31 4q-18 7 -25.5 17 t-35.5 59z" />
<glyph unicode="&#x192;" horiz-adv-x="802" d="M-307 -449q0 44 27.5 73.5t70.5 29.5q45 0 66.5 -27t23.5 -84q0 -51 16 -71.5t56 -20.5q122 0 145 209l97 799l49 379h-150l10 61h144l31 252q20 169 115 259.5t253 90.5q113 0 181.5 -41t68.5 -110q0 -46 -28.5 -78.5t-69.5 -32.5q-88 0 -88 119q0 90 -68 90 q-26 0 -56.5 -15.5t-45.5 -37.5q-34 -47 -47 -156l-39 -340h245l-8 -59h-248l-45 -383q-4 -33 -14.5 -169.5t-28 -269t-47.5 -270.5l-33 -149q-17 -79 -118 -140t-215 -61t-182 42t-68 111z" />
<glyph unicode="&#x2c6;" horiz-adv-x="501" d="M0 1053l158 282q20 36 30 49q21 31 64 31q17 0 29 -6q18 -6 28 -17.5t35 -56.5l158 -282l-47 -31l-205 229l-203 -229z" />
<glyph unicode="&#x2c7;" horiz-adv-x="501" d="M0 1382l47 29l203 -231l205 231l47 -29l-158 -284q-10 -20 -29 -51q-25 -29 -65 -29q-11 0 -31 4q-18 7 -25.5 17t-35.5 59z" />
<glyph unicode="&#x2d8;" horiz-adv-x="507" d="M0 1397l51 28q124 -190 203 -190q37 0 92 51t111 139l51 -28l-162 -297l-29 -53q-22 -29 -65 -29q-7 0 -31 4q-22 11 -33 25q0 5 -26 53z" />
<glyph unicode="&#x2d9;" horiz-adv-x="260" d="M0 1268q0 54 38.5 92.5t92.5 38.5t91.5 -38.5t37.5 -92.5q0 -53 -38 -90t-93 -37q-53 0 -91 37.5t-38 89.5z" />
<glyph unicode="&#x2da;" horiz-adv-x="442" d="M59 1149q0 67 48 115.5t114 48.5q67 0 114.5 -49t47.5 -117q0 -66 -47.5 -113t-114.5 -47q-66 0 -114 48t-48 114zM127 1149q0 -38 27 -65t67 -27t68 27t28 65q0 40 -28 68t-68 28t-67 -28t-27 -68z" />
<glyph unicode="&#x2dc;" horiz-adv-x="610" d="M0 1065q34 63 59 94q36 45 99 45q43 0 176 -39l49 -14q40 -12 74 -12q38 0 56.5 11.5t39.5 45.5l57 -22l-16 -29q-41 -74 -71 -98.5t-77 -24.5q-46 0 -102 16l-59 19q-31 9 -68 16q-82 21 -90 21q-24 0 -37 -10.5t-31 -43.5z" />
<glyph unicode="&#x2dd;" horiz-adv-x="391" d="M137 1040l146 295l22 47q4 12 25 21.5t41 9.5q31 0 51 -16t20 -41q0 -11 -1.5 -17.5t-9.5 -19.5t-25 -33l-224 -268z" />
<glyph unicode="&#x3c0;" horiz-adv-x="1216" d="M35 215v39h49q3 -60 20 -82q19 -25 56 -25q85 0 119 127q34 124 40 502h-45q-77 0 -122 -26q-44 -27 -56 -82h-47q6 136 78 196q71 56 248 56q4 0 209 -7q172 -6 311 -6q65 0 100 15q32 14 35 43v2h47v-6q0 -103 -49 -152q-44 -44 -151 -47h-29q-13 0 -21 2 q0 -3 -1 -19.5t-1 -29.5q-6 -145 -6 -307v-82q0 -169 17 -213q19 -45 63 -45q54 -3 84 59q29 60 35 182h51v-10q0 -166 -53 -242q-53 -77 -164 -77q-116 -3 -164 79q-47 78 -47 338q0 72 2 160q3 133 6 213q-57 0 -102 2q-32 0 -158 4q0 -480 -47 -635q-46 -158 -164 -161 q-70 0 -108 59q-35 59 -35 176z" />
<glyph unicode="&#x2013;" d="M125 561v176h895v-176h-895z" />
<glyph unicode="&#x2014;" horiz-adv-x="2039" d="M61 637v194h1917v-194h-1917z" />
<glyph unicode="&#x2018;" horiz-adv-x="391" d="M61 1083q0 62 37 154q14 39 56 104q35 52 68.5 82.5t103.5 75.5v-35q-48 -41 -72 -68t-51 -73q-27 -47 -38 -78.5t-20 -87.5q33 10 54 10q51 0 87 -37t36 -90t-37.5 -90t-91.5 -37q-56 0 -94 49t-38 121z" />
<glyph unicode="&#x2019;" horiz-adv-x="389" d="M63 948q48 38 72 66t53 76q29 50 40 80t18 85q-31 -8 -53 -8q-51 0 -87 36.5t-36 88.5t37 89.5t90 37.5q57 0 95 -48.5t38 -119.5q0 -73 -37 -157q-23 -54 -55 -103q-36 -51 -70 -82.5t-102 -75.5z" />
<glyph unicode="&#x201a;" horiz-adv-x="389" d="M63 -319q51 41 75 67.5t50 71.5q28 48 39.5 80t18.5 88q-42 -11 -53 -11q-51 0 -87 37t-36 90q0 52 37 88.5t90 36.5q57 0 95 -48t38 -120q0 -69 -37 -153q-22 -54 -55 -105q-34 -51 -67.5 -81.5t-104.5 -75.5z" />
<glyph unicode="&#x201c;" horiz-adv-x="729" d="M61 1083q0 62 37 154q14 39 56 104q35 52 68.5 82.5t103.5 75.5v-35q-48 -41 -72 -68t-51 -73q-27 -47 -38 -78.5t-20 -87.5q33 10 54 10q51 0 87 -37t36 -90t-37.5 -90t-91.5 -37q-56 0 -94 49t-38 121zM401 1083q0 74 35 154q26 64 56 104q35 52 68 82.5t102 75.5 l2 -35q-46 -38 -69 -65.5t-52 -75.5q-28 -46 -39.5 -78t-18.5 -88q30 10 52 10q51 0 86.5 -37t35.5 -90t-37.5 -90t-91.5 -37t-91.5 49t-37.5 121z" />
<glyph unicode="&#x201d;" horiz-adv-x="729" d="M63 948q48 38 72 66t53 76q29 50 40 80t18 85q-31 -8 -53 -8q-51 0 -87 36.5t-36 88.5t37 89.5t90 37.5q57 0 95 -48.5t38 -119.5q0 -73 -37 -157q-23 -54 -55 -103q-36 -51 -70 -82.5t-102 -75.5zM403 948q45 38 68.5 66t52.5 76q29 47 40 77.5t18 87.5q-24 -8 -52 -8 q-51 0 -86.5 36.5t-35.5 88.5q0 53 37.5 90t91.5 37t92.5 -49t38.5 -119q0 -73 -37 -157q-21 -56 -56 -103q-36 -52 -69 -83t-100 -75z" />
<glyph unicode="&#x201e;" horiz-adv-x="729" d="M63 -319q51 41 75 67.5t50 71.5q28 48 39.5 80t18.5 88q-42 -11 -53 -11q-51 0 -87 37t-36 90q0 52 37 88.5t90 36.5q57 0 95 -48t38 -120q0 -69 -37 -153q-22 -54 -55 -105q-34 -51 -67.5 -81.5t-104.5 -75.5zM403 -319q47 39 70 66t51 73q28 48 39.5 80t18.5 88 q-33 -11 -52 -11q-51 0 -86.5 37t-35.5 90q0 52 37.5 88.5t91.5 36.5q55 0 93 -48.5t38 -119.5q0 -61 -37 -153q-27 -66 -56 -105q-35 -52 -67.5 -82t-101.5 -75z" />
<glyph unicode="&#x2020;" horiz-adv-x="1435" d="M51 872v58l160 102l479 -100l-108 450l106 154h57l107 -154l-109 -450l482 100l159 -102v-58l-159 -102l-482 104l109 -387l-104 -915h-62l-117 915l119 387l-477 -104z" />
<glyph unicode="&#x2021;" horiz-adv-x="1441" d="M51 51v55l160 109l487 -109l-120 383l120 383l-485 -98l-162 100v62l164 102l485 -104l-108 452l110 150h56l104 -150l-112 -454l481 104l160 -106v-58l-162 -100l-479 102l112 -385l-112 -383l479 105l162 -107v-55l-164 -98l-479 98l104 -446l-104 -156h-58l-108 156 l116 446l-487 -98z" />
<glyph unicode="&#x2022;" horiz-adv-x="442" d="M94 453q0 51 38 88t91 37q52 0 88.5 -37t36.5 -88q0 -54 -36.5 -91.5t-90.5 -37.5q-53 0 -90 37.5t-37 91.5z" />
<glyph unicode="&#x2026;" horiz-adv-x="2039" d="M195 125q0 61 42.5 104t104.5 43t104.5 -43t42.5 -104q0 -62 -43 -105t-104 -43t-104 43t-43 105zM877 125q0 61 42.5 104t104.5 43t104.5 -43t42.5 -104q0 -62 -43 -105t-104 -43t-104 43t-43 105zM1559 125q0 61 43.5 104t103.5 43q62 0 104.5 -43t42.5 -104 q0 -62 -43 -105t-104 -43q-60 0 -103.5 43.5t-43.5 104.5z" />
<glyph unicode="&#x2030;" horiz-adv-x="2162" d="M51 29l1233 1468l70 -59l-1235 -1467zM59 1143q0 161 95 261.5t249 100.5q152 0 247 -100.5t95 -261.5q0 -160 -95 -260.5t-247 -100.5q-153 0 -248.5 100.5t-95.5 260.5zM248 1143l4 -117q3 -101 39.5 -149t111.5 -48q45 0 83 24t53 60q18 70 18 230q0 159 -18 229 q-13 37 -51.5 60.5t-84.5 23.5q-75 0 -111.5 -46.5t-39.5 -147.5zM659 328q0 156 96 257t244 101t244 -101t96 -257q0 -157 -96 -258t-244 -101q-149 0 -244.5 101t-95.5 258zM848 328q0 -166 35 -238t116 -72q83 0 117.5 71.5t34.5 238.5t-34.5 238t-117.5 71 q-82 0 -116.5 -71.5t-34.5 -237.5zM1432 328q0 156 97 257t245 101t244 -101t96 -257q0 -157 -96 -258t-244 -101t-245 101.5t-97 257.5zM1620 328q0 -166 35.5 -238t118.5 -72q81 0 115 71.5t34 238.5t-34 238t-115 71q-83 0 -118.5 -71.5t-35.5 -237.5z" />
<glyph unicode="&#x2039;" horiz-adv-x="503" d="M59 453l385 456v-90l-178 -366l176 -361v-94z" />
<glyph unicode="&#x203a;" horiz-adv-x="503" d="M59 -2v88l181 369l-179 360v94l383 -454z" />
<glyph unicode="&#x20ac;" horiz-adv-x="1644" d="M100 635l31 72h94q0 41 2 61h-127l31 72h102q41 299 243.5 480t500.5 181q89 0 163 -16.5t197 -61.5q62 -20 76 -20q72 0 72 88h35l20 -512l-37 -2q-38 140 -86 221q-142 234 -405 234q-216 0 -358.5 -160.5t-170.5 -431.5h760l-31 -72h-735v-49v-12h709l-31 -72h-676 q22 -268 167.5 -427t373.5 -159q188 0 313 98q62 50 101 121q23 40 51 154q4 14 6 22l51 -14q-18 -86 -32 -129.5t-40 -87.5q-69 -121 -202.5 -184.5t-317.5 -63.5q-313 0 -508 181.5t-215 488.5h-127z" />
<glyph unicode="&#x2122;" horiz-adv-x="1601" d="M88 1364v111h447v-111h-164v-627h-123v627h-160zM510 737l137 752h80l188 -445q32 -71 35 -139q3 65 35 139l191 445h79l138 -752h-123l-72 422l-2 23l-2 20q-3 39 0 78q-3 -13 -20 -76l-9 -30l-4 -11l-184 -438h-51l-185 438l-4 11l-10 30q-7 22 -20 76q4 -50 2 -78 l-2 -20l-5 -23l-71 -422h-121z" />
<glyph unicode="&#x2126;" horiz-adv-x="1699" d="M102 836q0 248 189 397q190 149 495 149q306 0 496 -149q185 -148 188 -397q0 -207 -133 -349q-129 -135 -374 -182v-121h251q100 0 138 35q37 37 43 141h47v-360h-557v369q158 30 252 155q92 127 92 312q0 216 -119 344q-123 129 -324 129t-321 -129 q-121 -127 -121 -344q0 -188 90 -312q86 -120 254 -155v-369h-557v360h47q6 -104 41 -139q37 -37 139 -37h252v121q-241 43 -374 182q-134 140 -134 349z" />
<glyph unicode="&#x2202;" horiz-adv-x="1093" d="M127 358q0 168 109 295q107 122 256 125q91 0 149 -47q57 -43 92 -143q13 52 19 121q6 74 6 182q0 176 -33 258q-31 84 -96 84q-37 0 -103 -72q-62 -68 -114 -71q-35 0 -56 18q-16 12 -20 47q0 61 59 102q61 43 150 43q158 3 254 -147q94 -151 94 -401q0 -334 -131 -557 q-133 -222 -324 -222q-140 0 -225 105q-83 102 -86 280zM279 262q0 -118 45 -180q43 -64 127 -64q108 0 178 125q66 123 69 316q0 120 -45 190q-45 66 -129 66q-108 0 -178 -123q-64 -116 -67 -330z" />
<glyph unicode="&#x2206;" horiz-adv-x="1355" d="M43 0l565 1376h45l566 -1376h-1176zM188 92h764l-381 940z" />
<glyph unicode="&#x220f;" horiz-adv-x="1822" d="M61 -360h181v1802h-181v82h1571v-82h-180v-1802h180v-82h-540v82h172v1802h-834v-1802h172v-82h-541v82z" />
<glyph unicode="&#x2211;" horiz-adv-x="1579" d="M74 -442l796 913l-768 1053h942q132 0 168 -31q36 -26 54 -176l30 -264h-90q-65 217 -174 295q-107 79 -346 79h-270l645 -882l-705 -807h383q250 0 353 63q104 66 170 240h92l-62 -266l-4 -15q-30 -103 -83.5 -152.5t-143.5 -49.5h-987z" />
<glyph unicode="&#x2215;" horiz-adv-x="415" d="M-29 -217l406 1921l90 18l-406 -1923z" />
<glyph unicode="&#x221a;" horiz-adv-x="1216" d="M-29 877l283 98l256 -709l516 1395h191v-96h-117l-594 -1606h-66l-319 883l-125 -45z" />
<glyph unicode="&#x221e;" horiz-adv-x="1579" d="M109 610q0 169 84 275q81 103 215 106q97 0 170 -61q71 -59 133 -193q64 127 143 191q78 63 178 63q130 0 225 -108q93 -110 93 -269q0 -169 -82 -276q-82 -105 -215 -105q-98 0 -172 62q-71 59 -131 192q-65 -125 -148 -192q-77 -62 -174 -62q-132 0 -225 109 q-94 111 -94 268zM160 604q0 -112 61 -182t156 -70q81 0 149 68q64 64 150 250q-54 94 -121 141q-67 49 -156 49q-103 0 -172 -72q-64 -67 -67 -184zM784 555q50 -95 119 -143q67 -47 158 -47q104 -3 172 71q64 67 67 185q0 115 -61 182q-60 69 -164 69q-77 0 -147 -73 q-69 -75 -144 -244z" />
<glyph unicode="&#x222b;" horiz-adv-x="606" d="M-184 -233q0 45 26 71q25 25 74 25q60 0 90 -64q29 -62 62 -65q95 0 116 663q1 29 2 89t2 83q9 275 31 465q24 179 66 277q48 111 125 176q78 63 170 63q73 0 118 -39q44 -35 47 -98q0 -43 -26 -72q-26 -26 -74 -26q-60 -3 -90 65q-31 66 -59 66q-102 0 -117 -635 q-3 -132 -6 -201q-9 -287 -33 -469q-25 -183 -64 -272q-49 -114 -126 -176q-80 -64 -168 -64q-71 0 -119 39q-44 35 -47 99z" />
<glyph unicode="&#x2248;" horiz-adv-x="1216" d="M31 205v157q108 67 176 91q79 28 153 28q85 3 236 -49q132 -45 203 -49q55 0 125 31q66 28 170 106v-160q-86 -59 -160 -86q-59 -22 -146 -26q-67 0 -213 49q-146 47 -237 47q-56 0 -129 -31q-64 -27 -178 -108zM31 449v157q99 63 172 88q85 29 155 29q98 0 238 -47 q152 -49 203 -49q55 0 125 28q59 26 170 107v-158q-84 -57 -162 -86q-68 -26 -144 -26q-70 0 -213 49q-146 47 -227 47q-70 0 -135 -29q-60 -24 -182 -110z" />
<glyph unicode="&#x2260;" horiz-adv-x="1216" d="M92 279v131h307l150 147h-457v131h576l241 242l90 -90l-153 -152h186v-131h-305l-149 -147h454v-131h-575l-242 -242l-88 90l152 152h-187z" />
<glyph unicode="&#x2264;" horiz-adv-x="1216" d="M88 37v139h948v-139h-948zM90 508v133l946 297v-143l-704 -222l704 -219v-143z" />
<glyph unicode="&#x2265;" horiz-adv-x="1216" d="M88 37v139h948v-139h-948zM88 211v143l705 219l-705 222v143l948 -297v-133z" />
<glyph unicode="&#x25ca;" horiz-adv-x="1093" d="M6 592l500 1061l500 -1061l-500 -1069zM121 592l385 -825l385 825l-385 817z" />
<glyph unicode="&#xe000;" horiz-adv-x="901" d="M0 0v901h901v-901h-901z" />
<glyph unicode="&#xec00;" horiz-adv-x="487" d="M-45 1135q0 46 34 78t81 32q46 0 78 -32t32 -78q0 -49 -33.5 -83t-80.5 -34q-46 0 -78.5 34t-32.5 83zM307 1135q0 46 32.5 78t78.5 32q47 0 79.5 -33t32.5 -82q0 -46 -31.5 -79t-78.5 -33q-46 0 -79.5 34t-33.5 83z" />
<glyph unicode="&#xec01;" horiz-adv-x="487" d="M-45 1755q0 46 34 78.5t81 32.5q46 0 78 -32.5t32 -78.5q0 -49 -33.5 -83t-80.5 -34q-46 0 -78.5 34t-32.5 83zM307 1755q0 46 32.5 78.5t78.5 32.5q47 0 79.5 -33t32.5 -82q0 -46 -31.5 -79.5t-78.5 -33.5q-46 0 -79.5 34t-33.5 83z" />
<glyph unicode="&#xec04;" horiz-adv-x="1644" d="M100 635l31 72h94q0 31 2 61h-127l31 72h104q27 197 127 347t259 232t356 82q89 0 163 -16.5t197 -61.5q62 -20 76 -20q72 0 72 88h35l20 -512l-37 -2q-23 84 -40.5 128.5t-45.5 92.5q-69 114 -172 174t-233 60q-216 0 -358.5 -160.5t-170.5 -431.5h760l-31 -72h-734 q-1 -24 -1 -49v-12h709l-31 -72h-675q21 -268 166.5 -427t373.5 -159q188 0 313 98q62 50 101 121q23 40 51 154q4 14 6 22l51 -14q-18 -86 -32 -129.5t-40 -87.5q-69 -121 -202.5 -184.5t-317.5 -63.5q-206 0 -365.5 82t-252 233.5t-105.5 354.5h-127z" />
<glyph unicode="&#xefed;" horiz-adv-x="260" d="M0 1796q0 54 38.5 92.5t92.5 38.5t91.5 -38.5t37.5 -92.5q0 -53 -38 -90t-93 -37q-53 0 -91 37.5t-38 89.5z" />
<glyph unicode="&#xefee;" horiz-adv-x="507" d="M0 1925l51 29q124 -191 203 -191q37 0 91.5 51t111.5 140l51 -29l-162 -297l-29 -53q-22 -29 -65 -29q-7 0 -31 4q-22 11 -33 25q0 5 -26 53z" />
<glyph unicode="&#xeff3;" horiz-adv-x="442" d="M59 1677q0 67 48 115.5t114 48.5q67 0 114.5 -49t47.5 -117q0 -66 -47.5 -112.5t-114.5 -46.5q-66 0 -114 47.5t-48 113.5zM127 1677q0 -38 27 -65t67 -27t68 27t28 65q0 40 -28 68.5t-68 28.5q-39 0 -66.5 -28.5t-27.5 -68.5z" />
<glyph unicode="&#xeff5;" horiz-adv-x="610" d="M0 1686q34 63 59 94q36 45 99 45q43 0 176 -39l49 -14q43 -13 74 -13q38 0 56.5 12t39.5 46l57 -23l-16 -29q-41 -74 -71 -98.5t-77 -24.5q-42 0 -102 17l-59 18q-42 12 -68 17q-79 20 -90 20q-25 0 -38 -10.5t-30 -42.5z" />
<glyph unicode="&#xeff7;" horiz-adv-x="501" d="M0 1673l158 283q20 36 30 49q21 31 64 31q17 0 29 -6q18 -6 28 -17.5t35 -56.5l158 -283l-47 -31l-205 230l-203 -230z" />
<glyph unicode="&#xf6c9;" horiz-adv-x="391" d="M137 1661l146 295l22 47q4 12 25 21.5t41 9.5q31 0 51 -16.5t20 -41.5q0 -15 -6 -28t-30 -41l-224 -269z" />
<glyph unicode="&#xf6ca;" horiz-adv-x="501" d="M0 2003l47 29l203 -232l205 232l47 -29l-158 -285q-10 -20 -29 -51q-25 -29 -65 -29q-11 0 -31 4q-18 7 -25.5 17t-35.5 59z" />
<glyph unicode="&#xf6cb;" horiz-adv-x="600" d="M-45 1665q0 49 34.5 84t84.5 35t84.5 -34.5t34.5 -82.5q0 -51 -34 -86t-85 -35q-50 0 -84.5 35t-34.5 84zM403 1667q0 48 35 82.5t86 34.5q49 0 84 -34.5t35 -82.5q0 -50 -35 -85.5t-84 -35.5q-51 0 -86 35t-35 86z" />
<glyph unicode="&#xf6ce;" horiz-adv-x="448" d="M12 1978q0 7 8 19q25 35 70 35q17 0 35 -9q16 -12 20 -20q9 -13 25 -45l152 -297l-46 -23l-227 273q-25 31 -31 41.5t-6 25.5z" />
<glyph unicode="&#xf6cf;" horiz-adv-x="391" d="M137 1569l146 295l22 47q4 12 25 21.5t41 9.5q31 0 51 -16.5t20 -41.5q0 -15 -6 -28t-30 -41l-224 -269z" />
<glyph unicode="&#xf6d0;" horiz-adv-x="583" d="M0 1546v135h584v-135h-584z" />
<glyph unicode="&#xf6dc;" horiz-adv-x="796" d="M98 0v35q67 3 107.5 18.5t64.5 48.5q29 39 35 107q4 43 4 256v272v617q-84 -11 -125 -11h-71v31q143 12 210 31.5t193 85.5l4 -754v-442q0 -91 6 -125t29 -66q28 -37 61.5 -51.5t104.5 -17.5l-2 -35h-621z" />
<glyph unicode="&#xf8ff;" horiz-adv-x="1748" d="M113 737q-3 217 125 357q127 139 323 139q73 0 156 -35q87 -35 123 -35q38 0 121 35q90 35 153 35q114 0 199 -39q89 -42 160 -125q-100 -63 -152 -145q-49 -79 -49 -183q-3 -111 59 -200q61 -89 174 -138q-116 -251 -205 -344q-94 -94 -204 -94q-52 0 -131 33t-123 33 q-49 0 -131 -33t-127 -33q-69 0 -129 43q-57 38 -129 133q-96 130 -158 295q-55 155 -55 301zM834 1231v22q0 125 96 230q91 104 235 131v-25q0 -19 2 -37q0 -131 -104 -235q-103 -103 -203 -103h-8h-6q-4 0 -10 3q0 8 -2 14z" />
<glyph horiz-adv-x="1634" d="M100 498l62 129h145q-2 27 -2 63q0 39 2 66h-207l62 129h170q56 240 244.5 379t445.5 139q148 0 287.5 -58t222.5 -155l-59 -125q-78 96 -200.5 152.5t-271.5 56.5q-188 0 -332 -110t-192 -279h912l-62 -129h-878l-5 -68q0 -4 5 -61h819l-62 -129h-729q56 -182 201 -288 t344 -106q136 0 254.5 54.5t196.5 148.5v-174q-83 -67 -207 -112.5t-254 -45.5q-249 0 -436.5 141.5t-243.5 381.5h-232z" />
<glyph horiz-adv-x="1562" />
<glyph horiz-adv-x="593" />
<glyph horiz-adv-x="440" d="M31 1933q0 25 22 42.5t53 17.5q23 0 35 -6q2 -1 4 -2.5t3.5 -2.5t3 -3.5t3 -4t3.5 -5t3.5 -6.5l4.5 -9t5.5 -10.5t7 -13t7.5 -15.5l150 -307l-41 -23l-232 287q-22 28 -27 37.5t-5 23.5z" />
</font>
</defs>
</svg>
